<svg xmlns="http://www.w3.org/2000/svg" xmlns:xlink="http://www.w3.org/1999/xlink" width="40" height="40" viewBox="0 0 40 40"><defs><path id="qwvba" d="M170 1593c0-10 10-20 20-20s20 10 20 20-10 20-20 20-20-10-20-20z"/><path id="qwvbc" d="M180.09 1598.57v-6.53h19.82v6.53zm19.82-11.48v1.82H180.1v-1.82zm2.09-.17c0-1.06-.86-1.92-1.92-1.92h-20.16c-1.06 0-1.92.86-1.92 1.92v11.8c0 1.07.86 1.93 1.92 1.93h20.16c1.06 0 1.92-.86 1.92-1.92z"/><path id="qwvbd" d="M176.5 1606.5l27-27"/><clipPath id="qwvbb"><use fill="#fff" xlink:href="#qwvba"/></clipPath></defs><g><g transform="translate(-170 -1573)"><g><use fill="#fff" fill-opacity="0" stroke="#e85151" stroke-miterlimit="50" stroke-width="4" clip-path="url(&quot;#qwvbb&quot;)" xlink:href="#qwvba"/></g><g><use fill="#44b773" xlink:href="#qwvbc"/></g><g><use fill="#fff" fill-opacity="0" stroke="#e85151" stroke-miterlimit="50" stroke-width="2" xlink:href="#qwvbd"/></g></g></g></svg>