<svg xmlns="http://www.w3.org/2000/svg" xmlns:xlink="http://www.w3.org/1999/xlink" width="80" height="80" viewBox="0 0 80 80"><defs><path id="g2o7a" d="M643 230c0-20 20-40 40-40s40 20 40 40-20 40-40 40-40-20-40-40z"/><path id="g2o7b" d="M695.72 228.72l-17.09-13.37a1.63 1.63 0 0 0-2.63 1.27v26.76a1.62 1.62 0 0 0 2.63 1.27l17.09-13.37a1.62 1.62 0 0 0 0-2.56z"/><linearGradient id="g2o7c" x1="723" x2="675.34" y1="198.37" y2="264.76" gradientUnits="userSpaceOnUse"><stop offset="0" stop-color="#ff8191"/><stop offset="1" stop-color="#e85151"/></linearGradient><clipPath id="g2o7d"><use fill="#fff" xlink:href="#g2o7a"/></clipPath><mask id="g2o7f" width="2" height="2" x="-1" y="-1"><path fill="#fff" d="M676 215h21v30h-21z"/><use xlink:href="#g2o7b"/></mask><filter id="g2o7e" width="61" height="75" x="656" y="195" filterUnits="userSpaceOnUse"><feOffset dy="5" in="SourceGraphic" result="FeOffset1036Out"/><feGaussianBlur in="FeOffset1036Out" result="FeGaussianBlur1037Out" stdDeviation="4 4"/></filter></defs><g><g transform="translate(-643 -190)"><g><use fill="url(#g2o7c)" xlink:href="#g2o7a"/><use fill="#fff" fill-opacity="0" stroke="#e85151" stroke-miterlimit="50" stroke-width="4" clip-path="url(&quot;#g2o7d&quot;)" xlink:href="#g2o7a"/></g><g><g filter="url(#g2o7e)"><use fill="none" stroke-width="0" mask="url(&quot;#g2o7f&quot;)" xlink:href="#g2o7b"/><use fill="#e85151" xlink:href="#g2o7b"/></g><use fill="#fff" xlink:href="#g2o7b"/></g></g></g></svg>