<svg xmlns="http://www.w3.org/2000/svg" xmlns:xlink="http://www.w3.org/1999/xlink" width="16" height="18" viewBox="0 0 16 18"><defs><path id="2teza" d="M131 2471a8 8 0 1 1 16 0 8 8 0 0 1-16 0z"/><path id="2tezb" d="M134 2471a5 5 0 1 1 10 0 5 5 0 0 1-10 0z"/><path id="2tezc" d="M146.65 2467.98a1.15 1.15 0 0 0-.63-1.97l-3.88-.57a.5.5 0 0 1-.38-.27l-1.73-3.53c-.2-.4-.59-.64-1.03-.64-.44 0-.83.25-1.03.64l-1.73 3.53a.5.5 0 0 1-.38.28l-3.88.56c-.43.06-.79.36-.92.78-.14.43-.03.88.29 1.19l2.8 2.74c.12.12.17.28.15.45l-.67 3.87a1.16 1.16 0 0 0 1.66 1.21l3.47-1.82a.52.52 0 0 1 .48 0l3.46 1.83a1.13 1.13 0 0 0 1.41-.28c.22-.26.31-.6.26-.94l-.67-3.87a.51.51 0 0 1 .15-.45z"/><clipPath id="2tezd"><use fill="#fff" xlink:href="#2teza"/></clipPath><clipPath id="2teze"><use fill="#fff" xlink:href="#2tezb"/></clipPath></defs><g><g transform="translate(-131 -2461)"><use fill="#e9c46a" xlink:href="#2tezc"/></g><g transform="translate(-131 -2461)"><use fill="#fafafb" xlink:href="#2teza"/><use fill="#fff" fill-opacity="0" stroke="#e9c46a" stroke-miterlimit="50" stroke-width="2" clip-path="url(&quot;#2tezd&quot;)" xlink:href="#2teza"/></g><g transform="translate(-131 -2461)"><use fill="#e85151" xlink:href="#2tezb"/><use fill="#fff" fill-opacity="0" stroke="#e85151" stroke-miterlimit="50" stroke-width="2" clip-path="url(&quot;#2teze&quot;)" xlink:href="#2tezb"/></g></g></svg>