<svg xmlns="http://www.w3.org/2000/svg" xmlns:xlink="http://www.w3.org/1999/xlink" width="60" height="55" viewBox="0 0 60 55"><defs><path id="75r5a" d="M318.518 1574.455H272.091l-3.689 29h53.259z"/><path id="75r5b" d="M321.211 1571.455h-51.764l-.333 2.625-3.686 29-.428 3.375h60l-.36-3.32-3.14-29-.289-2.68zm-2.717 3l3.14 29H268.43l3.685-29h46.379"/><path id="75r5c" d="M310.269 1580.394c-.441 0-.847-.287-.972-.73a.996.996 0 0 1 .698-1.232 6.054 6.054 0 0 1 2.413-.18c.554.074.942.577.867 1.125a1.003 1.003 0 0 1-1.138.857 4.041 4.041 0 0 0-1.593.12.968.968 0 0 1-.275.04zm5.119 4.107c-.1 0-.2-.015-.3-.045a.998.998 0 0 1-.666-1.251 2.19 2.19 0 0 0 .098-.506l.004-.116c0-.23-.045-.462-.132-.694a.995.995 0 0 1 .597-1.285 1.016 1.016 0 0 1 1.3.59 3.944 3.944 0 0 1 .25 1.64 4.152 4.152 0 0 1-.185.964 1.01 1.01 0 0 1-.966.703zm-4.117 4.03a1.01 1.01 0 0 1-.99-.798 1.001 1.001 0 0 1 .786-1.182c.585-.12 1.018-.286 1.363-.525.442-.341 1.114-.285 1.454.149.343.437.3 1.039-.141 1.378a3.068 3.068 0 0 1-.171.122c-.55.384-1.244.66-2.096.835a1.02 1.02 0 0 1-.205.02zm-6.048.443c-.54 0-.989-.421-1.01-.96a1.004 1.004 0 0 1 .97-1.04l2.015-.081c.557-.05 1.032.4 1.058.954a1.005 1.005 0 0 1-.966 1.044l-2.025.082h-.042zm-6.03.617c-.467 0-.887-.321-.988-.791a1 1 0 0 1 .778-1.187c.65-.138 1.35-.252 2.082-.342a.996.996 0 0 1 1.128.869 1.001 1.001 0 0 1-.88 1.115c-.672.083-1.314.188-1.907.313a.973.973 0 0 1-.213.023zm-21.683 1.852c-.36 0-.707-.19-.89-.523a.993.993 0 0 1 .406-1.355 4.566 4.566 0 0 1 1.663-.52c.294-.033.6-.032.902.008.553.072.944.574.87 1.122a1.003 1.003 0 0 1-1.135.86 1.66 1.66 0 0 0-.411-.002c-.32.034-.63.132-.924.289a1.02 1.02 0 0 1-.481.12zm16.142.473c-.313 0-.62-.143-.82-.411a.992.992 0 0 1 .223-1.397 12.852 12.852 0 0 1 1.862-1.129 1.019 1.019 0 0 1 1.359.444.995.995 0 0 1-.45 1.343 10.956 10.956 0 0 0-1.58.959c-.18.129-.388.19-.594.19zm-4.815 3.65c-.33 0-.655-.16-.85-.455a.994.994 0 0 1 .298-1.384c.541-.347 1.078-.72 1.598-1.107a1.024 1.024 0 0 1 1.417.196.994.994 0 0 1-.198 1.4c-.558.416-1.135.816-1.715 1.189a1.02 1.02 0 0 1-.55.16zm-13.838.999c-.513 0-.952-.384-1.006-.898a5.798 5.798 0 0 1-.019-.94c.023-.468.1-.941.228-1.405a1.009 1.009 0 0 1 1.24-.704c.54.144.859.692.712 1.226a4.545 4.545 0 0 0-.145 1.62c.056.55-.35 1.04-.905 1.097-.036.002-.07.004-.105.004zm8.444 1.732c-.406 0-.788-.243-.944-.64a.996.996 0 0 1 .579-1.293 27.73 27.73 0 0 0 1.795-.76 1.016 1.016 0 0 1 1.345.48.995.995 0 0 1-.486 1.33c-.635.296-1.283.569-1.925.814a.972.972 0 0 1-.364.069zm-4.704 1.158c-.26 0-.519-.016-.778-.047a4.859 4.859 0 0 1-.66-.124.999.999 0 0 1-.727-1.218c.14-.535.691-.86 1.232-.718.134.033.267.059.4.075.409.05.821.037 1.23-.015a1.01 1.01 0 0 1 1.13.867 1.002 1.002 0 0 1-.877 1.117 7.417 7.417 0 0 1-.95.063z"/><path id="75r5d" d="M295.27 1568.922a6.346 6.346 0 1 1 0-12.691 6.346 6.346 0 0 1 0 12.691zm10.822-7.741c-.524-3.999-2.614-9.181-10.822-9.181-8.207 0-10.298 5.182-10.822 9.181-.287 2.192-.126 4.419.33 6.582 2.51 11.893 8.71 19.022 10.177 20.577a.432.432 0 0 0 .63 0c1.467-1.555 7.668-8.684 10.177-20.577.457-2.163.618-4.39.33-6.582z"/><path id="75r5e" d="M295.27 1567.922a5.352 5.352 0 0 1-5.345-5.346 5.35 5.35 0 0 1 5.346-5.345 5.35 5.35 0 0 1 5.346 5.345 5.352 5.352 0 0 1-5.346 5.346zm0-12.691c-4.05 0-7.345 3.295-7.345 7.345 0 4.051 3.295 7.346 7.346 7.346 4.05 0 7.346-3.295 7.346-7.346-.001-4.05-3.296-7.345-7.346-7.345z"/></defs><g><g transform="translate(-265 -1552)"><g><use fill="#fff" xlink:href="#75r5a"/></g><g><use fill="#556080" xlink:href="#75r5b"/></g><g><use fill="#ebba16" xlink:href="#75r5c"/></g><g><use fill="#dd352e" xlink:href="#75r5d"/></g><g><g><use fill="#b02721" xlink:href="#75r5e"/></g></g></g></g></svg>