<svg xmlns="http://www.w3.org/2000/svg" xmlns:xlink="http://www.w3.org/1999/xlink" width="60" height="60" viewBox="0 0 60 60"><defs><path id="zmila" d="M710.5 1556.375h-55a2.507 2.507 0 0 0-2.5 2.5v37.25c0 1.375 1.125 2.5 2.5 2.5h55c1.375 0 2.5-1.125 2.5-2.5v-37.25c0-1.375-1.125-2.5-2.5-2.5z"/><path id="zmilb" d="M656.75 1594.75v-34.625h52.5v34.625z"/><path id="zmilc" d="M671.5 1605.375v-6.75h22.875v6.75z"/><path id="zmild" d="M664.625 1607v-1.625h36.75V1607z"/><path id="zmile" d="M671.5 1600.5v-1.875h22.875v1.875z"/><path id="zmilf" d="M704.75 1561v31.75c0 1.125-.875 2-2 2h-39.625c-1.125 0-2-.875-2-2V1561z"/><path id="zmilg" d="M683.25 1569.875v4.75h-.5v-4.75z"/><path id="zmilh" d="M683.25 1588.125v4.75h-.5v-4.75h.5z"/><path id="zmili" d="M691.25 1573.375l-3.375 3.375-.375-.375 3.375-3.375z"/><path id="zmilj" d="M678.375 1586.375L675 1589.75l-.375-.375L678 1586l.375.375z"/><path id="zmilk" d="M694.5 1581.125v.5h-4.625v-.25-.25z"/><path id="zmill" d="M676.25 1581.375v.25h-4.625v-.5h4.625v.25z"/><path id="zmilm" d="M691.25 1589.25l-.375.375-3.25-3.25.375-.375z"/><path id="zmiln" d="M678.375 1576.375l-.375.375-3.375-3.375.375-.375z"/><path id="zmilo" d="M680.625 1575c-.125 0-.25.125-.5.25l-1.125-2.625.5-.25z"/><path id="zmilp" d="M686.875 1590.25l-.5.25-1.125-2.625c.125 0 .25-.125.5-.25z"/><path id="zmilq" d="M676.875 1578.5c-.125.125-.125.25-.25.5l-2.625-1.125.25-.5z"/><path id="zmilr" d="M692 1584.875l-.25.5-2.625-1.125c.125-.125.125-.25.25-.5z"/><path id="zmils" d="M676.875 1584.125l-2.625 1.125-.25-.5 2.625-1.125c.125.25.125.375.25.5z"/><path id="zmilt" d="M692 1577.875l-2.625 1.125c0-.125-.125-.25-.25-.5l2.625-1.125z"/><path id="zmilu" d="M680.625 1587.75l-1.125 2.625-.5-.25 1.125-2.625c.25.125.375.125.5.25z"/><path id="zmilv" d="M686.875 1572.5l-1 2.625c-.125-.125-.25-.125-.5-.25l1.125-2.625z"/><path id="zmilw" d="M702.25 1547h-38.5a2.507 2.507 0 0 0-2.5 2.5v6.5h43.625v-6.5c-.125-1.375-1.25-2.5-2.625-2.5z"/><path id="zmilx" d="M691.875 1579.75l2.375 8.5 2.125-2.125 2 2.125 1.875-1.875-2-2.125 2-2.125z"/><path id="zmily" d="M676.125 1551.5a1.5 1.5 0 1 1 3 0 1.5 1.5 0 0 1-3 0z"/><path id="zmilz" d="M670.375 1551.5a1.5 1.5 0 1 1 3 0 1.5 1.5 0 0 1-3 0z"/><path id="zmilA" d="M664.625 1551.5a1.5 1.5 0 1 1 3 0 1.5 1.5 0 0 1-3 0z"/><path id="zmilB" d="M704.75 1562v5.875c-.75.625-1.75.875-2.75.875a4.748 4.748 0 0 1-4.75-4.75 4.748 4.748 0 0 1-4.75 4.75 4.748 4.748 0 0 1-4.75-4.75 4.748 4.748 0 0 1-4.75 4.75 4.748 4.748 0 0 1-4.75-4.75 4.748 4.748 0 0 1-4.75 4.75 4.748 4.748 0 0 1-4.75-4.75 4.748 4.748 0 0 1-4.75 4.75c-1 0-2-.375-2.75-.875V1562h43.5z"/><path id="zmilC" d="M668.75 1561h-9.5l2-5h8.625z"/><path id="zmilD" d="M678.25 1561h-9.5l1.125-5h8.75z"/><path id="zmilE" d="M687.75 1561h-9.5l.375-5h8.75z"/><path id="zmilF" d="M697.25 1561h-9.5l-.375-5h8.75z"/><path id="zmilG" d="M706.75 1561h-9.5l-1.125-5h8.625z"/><path id="zmilH" d="M668.75 1563.125a4.748 4.748 0 0 0 4.75 4.75 4.748 4.748 0 0 0 4.75-4.75V1561h-9.5z"/><path id="zmilI" d="M687.75 1561v2.125a4.748 4.748 0 0 0 4.75 4.75 4.748 4.748 0 0 0 4.75-4.75V1561z"/><path id="zmilJ" d="M659.25 1563.125a4.748 4.748 0 0 0 4.75 4.75 4.748 4.748 0 0 0 4.75-4.75V1561h-9.5z"/><path id="zmilK" d="M678.25 1563.125a4.748 4.748 0 0 0 4.75 4.75 4.748 4.748 0 0 0 4.75-4.75V1561h-9.5z"/><path id="zmilL" d="M697.25 1561v2.125a4.748 4.748 0 0 0 4.75 4.75 4.748 4.748 0 0 0 4.75-4.75V1561z"/><path id="zmilM" d="M675.625 1581.375c0-4.142 3.302-7.5 7.375-7.5s7.375 3.358 7.375 7.5c0 4.142-3.302 7.5-7.375 7.5s-7.375-3.358-7.375-7.5z"/><path id="zmilN" d="M686.5 1579v2.875h-5.125l-.75-2.875zm-4.75 4.625l-.25-.875h5.75v-4.375h-6.875l-.375-1.625h-2v.75h1.5l1.75 6.875h6.25v-.75z"/><path id="zmilO" d="M682 1585.75a.875.875 0 1 1 1.75 0 .875.875 0 0 1-1.75 0z"/><path id="zmilP" d="M685.25 1585.75a.875.875 0 1 1 1.75 0 .875.875 0 0 1-1.75 0z"/></defs><g><g transform="translate(-653 -1547)"><g><use fill="#40596b" xlink:href="#zmila"/></g><g><use fill="#fff" xlink:href="#zmilb"/></g><g><use fill="#cdd6e0" xlink:href="#zmilc"/></g><g><use fill="#f2f2f2" xlink:href="#zmild"/></g><g><use fill="#acb3ba" xlink:href="#zmile"/></g><g><use fill="#f2f2f2" xlink:href="#zmilf"/></g><g><g><use fill="#fff" xlink:href="#zmilg"/></g><g><use fill="#fff" xlink:href="#zmilh"/></g><g><use fill="#fff" xlink:href="#zmili"/></g><g><use fill="#fff" xlink:href="#zmilj"/></g><g><use fill="#fff" xlink:href="#zmilk"/></g><g><use fill="#fff" xlink:href="#zmill"/></g><g><use fill="#fff" xlink:href="#zmilm"/></g><g><use fill="#fff" xlink:href="#zmiln"/></g><g><use fill="#fff" xlink:href="#zmilo"/></g><g><use fill="#fff" xlink:href="#zmilp"/></g><g><use fill="#fff" xlink:href="#zmilq"/></g><g><use fill="#fff" xlink:href="#zmilr"/></g><g><use fill="#fff" xlink:href="#zmils"/></g><g><use fill="#fff" xlink:href="#zmilt"/></g><g><use fill="#fff" xlink:href="#zmilu"/></g><g><use fill="#fff" xlink:href="#zmilv"/></g></g><g><use fill="#ffd15c" xlink:href="#zmilw"/></g><g><use fill="#40596b" xlink:href="#zmilx"/></g><g><use fill="#f8b64c" xlink:href="#zmily"/></g><g><use fill="#ff7058" xlink:href="#zmilz"/></g><g><use fill="#f8b64c" xlink:href="#zmilA"/></g><g><use fill="#e4eaef" xlink:href="#zmilB"/></g><g><use fill="#ff7058" xlink:href="#zmilC"/></g><g><use fill="#cdd6e0" xlink:href="#zmilD"/></g><g><use fill="#ff7058" xlink:href="#zmilE"/></g><g><use fill="#cdd6e0" xlink:href="#zmilF"/></g><g><use fill="#ff7058" xlink:href="#zmilG"/></g><g><g><use fill="#acb3ba" xlink:href="#zmilH"/></g><g><use fill="#acb3ba" xlink:href="#zmilI"/></g></g><g><g><use fill="#f1543f" xlink:href="#zmilJ"/></g><g><use fill="#f1543f" xlink:href="#zmilK"/></g><g><use fill="#f1543f" xlink:href="#zmilL"/></g></g><g><use fill="#ff7058" xlink:href="#zmilM"/></g><g><g><use fill="#fff" xlink:href="#zmilN"/></g><g><use fill="#fff" xlink:href="#zmilO"/></g><g><use fill="#fff" xlink:href="#zmilP"/></g></g></g></g></svg>