<svg xmlns="http://www.w3.org/2000/svg" xmlns:xlink="http://www.w3.org/1999/xlink" width="63" height="62" viewBox="0 0 63 62"><defs><path id="hz55a" d="M1067.137 1587.753c0-.647.466-1.17 1.04-1.17.575 0 1.04.523 1.04 1.17 0 .646-.465 1.17-1.04 1.17-.574 0-1.04-.524-1.04-1.17z"/><path id="hz55b" d="M1062.845 1584.111s1.43 2.211 1.56 2.341c.131.26 1.431.78 1.431.78l1.04-.78c.39-.39 1.041-.65 1.301-.78s1.17 0 1.3.39c.13.39-.13 1.95-.13 1.95s-1.04.39-1.3-.78c0 0-.78 1.04-1.43 1.17-.78.13.78 2.342.78 2.342s-2.08.13-2.861-.26c-.78-.52-2.211-.26-3.381-1.17-1.17-1.041 1.69-5.203 1.69-5.203z"/><path id="hz55c" d="M1064.926 1590.614c.13 0 .26-.13.39-.13.26 0 .52-.13.78-.13H1067.268h-.39H1065.447c-.26.26-.391.26-.52.26z"/><path id="hz55d" d="M1069.348 1587.883c-.13 0-.13 0 0 0-.13-.13-.13-.13-.13-.26v-.13s0-.13.13-.13c0 0 .13 0 .13-.13 0 0 .13 0 .13-.13v-.13h-.26s-.13 0-.13.13l-.13.13s-.13.13 0 .26v.13l.13.13h.13v.13z"/><path id="hz55e" d="M1063.495 1588.273l12.745 8.323 6.893-2.6-12.225-6.113-7.413.13c-.13 0-.13.26 0 .26z"/><path id="hz55f" d="M1064.536 1588.403l11.574 7.543 5.983-2.211-10.665-5.462z"/><path id="hz55g" d="M1061.935 1602.708l-17.817-2.86s-1.3 3.38-1.3 6.892h20.287s-.65-2.991-1.17-4.032z"/><path id="hz55h" d="M1064.926 1557.711s.13 1.951.13 2.211c.13.39.26 1.69-.52 1.56-.78-.13-1.04-.26-1.04-.26s0 1.301-.65.911c0 0 .26.65-.26.78s-.911.78-1.041 1.3c-.13.521-2.21.521-3.511-1.04 0 0-.65.911-.91 2.341l-.26 1.43s-6.763-5.721-6.763-5.851l.13-.65s1.43-1.691 1.95-2.471c.52-.65 1.561-2.341 1.691-3.902.13-1.56.13-1.69.13-1.69l5.592-.39z"/><path id="hz55i" d="M1056.083 1554.46c.65-.91 2.08-.26 1.95.78v.13l-.26 1.171.78.26s1.041-1.82 3.252-1.56c2.21.13 2.21-1.431 2.21-1.561 0-.13-5.201-2.471-5.331-2.471-.13 0-4.422 1.17-4.422 1.17s0 2.211-.52 3.252c0 0 1.56-.13 2.34-1.17z"/><path id="hz55j" d="M1068.958 1595.556s0-.13.13-.26c0-.13.13-.13.13-.26l.13-.13.13-.13.13-.13.13-.13.26-.26.26-.261s0 .13-.13.26c0 .13-.13.13-.13.26l-.13.13-.13.13-.13.13-.13.13-.26.26-.26.26z"/><path id="hz55k" d="M1070.778 1558.492c-.52 1.17-2.6-.78-2.6-.78l-.52-.78h.91c0 .13 2.6.39 2.21 1.56z"/><path id="hz55l" d="M1059.204 1553.68s1.95 2.73 3.511 3.771c1.56 1.04 3.251 1.17 4.552.78 1.3-.39 2.47-.78 2.861-.52.52.26.52.78.52.78s.26-.26.13-.65-2.6-2.21-3.251-3.12l-.65-.781-7.803-.39z"/><path id="hz55m" d="M1054.262 1552.51s1.04 1.17 5.072 1.82c4.032.52 8.193.52 8.193.52s.65-3.901-1.43-6.372c-2.081-2.471-5.202-2.731-6.633-2.601-2.21.26-5.072 3.641-5.202 6.632z"/><path id="hz55n" d="M1055.563 1555.37c0-1.149.524-2.08 1.17-2.08.646 0 1.17.931 1.17 2.08 0 1.15-.524 2.081-1.17 2.081-.646 0-1.17-.931-1.17-2.08z"/><path id="hz55o" d="M1058.164 1563.304s-.65.91-.91 2.34l-.26 1.43s-.131-.13-.261-.13c-1.04-1.69-2.861-5.071-1.95-4.42.78.52 1.04 0 1.04-.391v-.65c-.26-.91-.52-2.341-.52-4.032.39.78 2.08 4.552 2.86 5.853z"/><path id="hz55p" d="M1050.75 1560.182s.39.91.911 1.43c.52.521 3.642 3.252 4.552 3.512.91.13 1.56-1.17 1.56-1.17s2.991 2.08 3.512 2.86c.52.781.78 3.902.78 3.902s1.82 4.032 1.17 7.153c-.52 3.121-.52 18.337-.39 20.158.13 1.82.26 6.632.26 6.632s-2.73 1.3-8.583.39c-5.982-.91-9.884-3.121-10.664-4.682 0 0 .52-3.12-.26-3.641-.78-.52-1.17-9.494-1.04-11.834.13-2.341-.26-4.682-.26-4.682s-1.3-5.462-.52-8.583c.78-3.122 2.6-7.413 8.973-11.445z"/><path id="hz55q" d="M1042.298 1580.21c3.901.52 7.672 1.04 9.623.78 0 0-1.04 3.251-1.56 4.032-.52.78-.13 1.3-.13 1.3s2.99 1.17 4.421 1.95c1.43.781 4.812 1.952 6.503 1.952 1.69 0 3.771.39 3.771.39s1.82-.13 2.34-.26c.521-.13 2.212.13 2.992.39.78.26 1.56.65 1.56.65l-3.77 4.682s-2.212-.91-3.122-1.43h-1.17c-.39 0-5.853-.13-8.454-.13-2.47 0-8.193-1.431-8.973-1.561-.65-.13-2.08-.26-2.6-1.821-.26-1.69-1.692-9.104-1.431-10.924z"/><path id="hz55r" d="M1070.518 1586.712a1.17 1.17 0 1 1 2.341 0 1.17 1.17 0 0 1-2.34 0z"/><path id="hz55s" d="M1071.298 1586.322s-.39.13-.39.39c-.13.26-.65 1.17-.65 1.17l-.52-.26s.26-.91.39-1.17c.13-.26.52-1.43.78-1.43s.52.13.52.13z"/><path id="hz55t" d="M1069.608 1587.102c.13 0 .13-.13.13-.13l.13-.13c.13 0 .13-.13.26-.13h.52-.39c-.13 0-.13.13-.26.13s-.13 0-.26.13h-.13c.13.13.13.13 0 .13z"/><path id="hz55u" d="M1078.581 1590.354l-4.682.65-1.82.13s-.65-.52-.91-.91v-.13l-.52-.78s-1.041-.651-.911-1.301c0 0-.52-.13-.65-.39s0-.52.65-.65.91-.651 1.3-.39c.26.26 1.56.78 1.56.78s-.13-.26-.13-.52l-.52-.521s-.65.13-.65 0l-.52-1.3s.52-.13 1.17.13c.65.26 1.561.52 1.561.52s.52.13.65.52.65 1.17.91 1.56c.26.39.521 1.301 1.301 1.691.65.13 2.211.91 2.211.91z"/><path id="hz55v" d="M1069.608 1588.143c.13.13.26.13.52.13.13 0 .39 0 .52.13s.26.13.39.39c0 .13 0 .39-.13.52.39-.13.65 0 1.04.13.26.13.521.52.39.91.391.13.911.26 1.301.521-.52-.52-1.17-.91-1.43-1.56-.13-.13-.13-.39-.26-.52-.26-.39-.65-.651-.78-.651-.52 0-.911.13-1.561 0z"/><path id="hz55w" d="M1070.518 1589.443c0-.13 0-.13.39-.26.26-.13.39-.39.39-.39s0 .52-.78.65z"/><path id="hz55x" d="M1072.469 1589.963v.13c-.26.52-.91.39-1.3.13v-.13c1.04.52 1.3 0 1.3 0z"/><path id="hz55y" d="M1069.608 1588.143v.39h-.13c-.65.26-1.43.52-2.211.52.52-.52 1.04-.91 1.69-1.3.26.26.65.39.65.39z"/><path id="hz55z" d="M1075.85 1585.672l-1.56.65-1.691.78-.26.13c-.39-.13-.91-.39-1.17-.52l.91-.39 1.56-.78 1.821-.78z"/><path id="hz55A" d="M1075.98 1585.412l-.26.13-.26-.52.26-.13c.13 0 .26 0 .39.13s0 .26-.13.39z"/><path id="hz55B" d="M1088.855 1571.887s.91 2.86.26 4.551c-.65 1.691 1.3 1.04 1.43.91.13-.13 3.902-5.071 3.902-5.071z"/><path id="hz55C" d="M1088.595 1576.178l1.3-1.04c.65-.52 2.862-1.82 4.292-1.82 1.3-.13 3.121.39 3.121.39s4.942 11.964 4.942 14.305c0 2.47-.65 10.274-.39 11.964.13 1.82-.91 4.422-.52 5.592.39 1.04.52 1.3.52 1.3l-18.207.131s.52-9.233.91-10.924c.39-1.82-.26-5.722-.78-6.633-.52-.91-.78-2.86.52-5.202 1.301-2.34 2.601-3.77 2.991-4.681.39-.91 1.3-3.382 1.3-3.382z"/><path id="hz55D" d="M1081.702 1560.702l-.52.39s-.52 2.342 0 3.382 1.04 1.3 1.04 2.08c0 .781.78 2.472 1.43 3.252.651.65.911 1.3 1.041 1.95.13.65 1.17 1.041 2.211.781 1.04-.39.91-7.673.91-7.673z"/><path id="hz55E" d="M1081.182 1559.662s-.26 1.43.26 2.341c.52.78 1.43 1.04 1.43 1.04s.78 4.162 1.04 5.202c.131.91 1.692 4.552 3.642 5.202 1.951.65 4.812.39 5.592.78.65.39.91 1.821.91 1.821s.391-1.69-.26-2.47c0 0 2.212 1.04 3.382 2.99 1.17 1.951 4.292 9.234 4.032 13.786 0 0 .91-.78 1.17-2.341 0 0 .13 2.6-.78 4.551 0 0 3.771-5.722 1.82-11.964-1.95-6.242-4.681-10.664-5.852-13.785-1.17-3.121-2.86-8.323-5.072-10.274-2.21-1.95-4.031-1.82-6.372-1.04-2.601.65-4.552 2.99-4.942 4.161z"/><path id="hz55F" d="M1085.604 1569.286v.91c0 .13 0 .26.13.26 0 .13.13.26.13.39l.39.78c.13.13.13.26.26.39l.13.13.13.131.13.13s.13.13.26.13c0 0 .13.13.26.13l.13.13c.13 0 .13.13.26.13s.13.13.26.13.13 0 .26.13h.261c.39.13.65.13 1.04.13s.78.13 1.04.13c.39 0 .651.13 1.041.26.26.131.65.261.78.391.26.13.39.39.52.52.13.26.13.39.26.52v0c0-.13-.13-.39-.26-.52s-.26-.39-.52-.52l-.78-.39c-.26-.13-.65-.13-.91-.13h-1.04c-.39 0-.78 0-1.171-.13-.39-.13-.78-.13-1.17-.39h-.13l-.13-.13c-.13 0-.13-.13-.26-.13s-.13-.13-.26-.13-.13-.13-.26-.13-.13-.13-.26-.13c-.131 0-.131-.13-.261-.13l-.39-.391c-.26-.26-.39-.52-.52-.78-.13-.13-.13-.26-.13-.39s-.13-.26-.13-.39 0-.26-.13-.39v-.651-.13z"/><path id="hz55G" d="M1093.017 1572.407l.39.39.91.91 1.3 1.3c.26.26.39.521.65.781s.39.52.651.91c.13.26.39.65.52.911.13.26.26.65.39.91s.26.65.26.91c.13.26.13.65.13.911V1581.12c0-.26 0-.52-.13-.78 0-.26-.13-.52-.26-.78s-.26-.65-.39-.91-.26-.65-.52-.91c-.13-.261-.39-.651-.52-.911-.26-.26-.39-.52-.65-.78s-.39-.52-.65-.78l-1.301-1.301c-.39-.39-.78-.65-.91-.91l-.26-.26-.13-.131z"/><path id="hz55H" d="M1081.962 1559.792l-.13.13v.13c0 .13 0 0-.13.13l-.13.13s0 .13-.13.13c0 0 0 .13-.13.13 0 0 0 .13-.13.13 0 0 0 .131-.13.131 0 .13-.13.13-.13.26s-.13.26-.13.26c0 .13-.13.26-.13.26 0 .13 0 .26-.13.26v.91-.91-.39c0-.13 0-.26.13-.39 0-.13.13-.26.13-.39s.13-.26.13-.26 0-.13.13-.13c0 0 0-.13.13-.13 0 0 0-.13.13-.13 0 0 0-.13.13-.13 0 0 0-.13.13-.13l.13-.13v-.13h.13z"/><path id="hz55I" d="M1088.205 1587.623s-1.17-5.072.65-7.153c1.69-2.081 3.251-1.56 4.031-1.04.78.52 2.601 2.08 2.731 4.161.13 2.08.26 8.973.26 10.274 0 1.3 0 6.372-.26 7.413-.26 1.04-1.17 1.3-2.34 1.95-1.17.52-10.534 2.081-10.534 2.081s-2.211-2.21-1.56-5.982c0 0 2.08.13 2.86-.26.78-.26 6.503-1.3 6.503-1.3s-2.341-6.503-2.341-10.144z"/><path id="hz55J" d="M1074.29 1597.896v.13l17.556-1.17-9.624 2.731-14.435.52z"/><path id="hz55K" d="M1067.137 1592.825l6.372-2.601.78 7.802-6.502 2.081z"/><path id="hz55L" d="M1091.846 1596.856l-17.556 1.17-.78-7.802 17.816-.91z"/><path id="hz55M" d="M1081.312 1602.838c-.65 0-1.56-.13-2.21 0-1.171.13-3.642 0-4.682-.26-1.04-.26-4.032-.91-4.552-1.04-.52-.13-1.3-.13-1.56-.91s-.13-3.122-.13-3.122-.26-.78.26-1.43l.52-.65s0-.65.13-1.17l.65-1.171s.78.13.52.91c0 0 1.04.65-.26 2.08l-.52 1.171v.52s.26-.26.78.26c.52.39.65.78 1.17.911.52.13 2.341 0 2.862.39.52.39 1.3.78 2.21.78.78 0 4.032-.39 4.552-.39-.13 1.17 0 2.34.26 3.121z"/><path id="hz55N" d="M1051.921 1580.99c.13-.13.13-.26.13-.65 0 0 4.422 0 5.332-1.04 0 0-3.12.91-5.332.65 0 0 .26-1.82.39-2.341.13-.52.39-2.471.78-2.861.39-.39 1.691-3.902 1.171-5.722-.52-1.821-1.43-3.122-1.43-3.122s1.17 2.471 1.17 3.252c0 .65 0 2.21-.26 3.251-.26 1.17-1.17 2.731-1.17 2.731s-.65 3.771-.78 5.852z"/></defs><g><g transform="translate(-1041 -1545)"><g><use fill="#f5b54c" xlink:href="#hz55a"/></g><g><use fill="#ffd15c" xlink:href="#hz55b"/></g><g><g><use fill="#f5b54c" xlink:href="#hz55c"/></g><g><use fill="#f5b54c" xlink:href="#hz55d"/></g></g><g><use fill="#425a6b" xlink:href="#hz55e"/></g><g><use fill="#f3f3f3" xlink:href="#hz55f"/></g><g><use fill="#425a6b" xlink:href="#hz55g"/></g><g><use fill="#ffd15c" xlink:href="#hz55h"/></g><g><use fill="#425a6b" xlink:href="#hz55i"/></g><g><use fill="#f5b54c" xlink:href="#hz55j"/></g><g><use fill="#f05640" xlink:href="#hz55k"/></g><g><use fill="#f26f5a" xlink:href="#hz55l"/></g><g><use fill="#f05640" xlink:href="#hz55m"/></g><g><use fill="#ffd15c" xlink:href="#hz55n"/></g><g><use fill="#f5b54c" xlink:href="#hz55o"/></g><g><use fill="#f26f5a" xlink:href="#hz55p"/></g><g><use fill="#ffd15c" xlink:href="#hz55q"/></g><g><use fill="#f5b54c" xlink:href="#hz55r"/></g><g><use fill="#ffd15c" xlink:href="#hz55s"/></g><g><use fill="#f5b54c" xlink:href="#hz55t"/></g><g><use fill="#ffd15c" xlink:href="#hz55u"/></g><g><g><use fill="#f5b54c" xlink:href="#hz55v"/></g><g><use fill="#f5b54c" xlink:href="#hz55w"/></g><g><use fill="#f5b54c" xlink:href="#hz55x"/></g></g><g><g><use fill="#67c5b8" xlink:href="#hz55y"/></g><g><use fill="#67c5b8" xlink:href="#hz55z"/></g></g><g><use fill="#425a6b" xlink:href="#hz55A"/></g><g><use fill="#ffd15c" xlink:href="#hz55B"/></g><g><use fill="#e8eae8" xlink:href="#hz55C"/></g><g><use fill="#ffd15c" xlink:href="#hz55D"/></g><g><g><use fill="#425a6b" xlink:href="#hz55E"/></g><g><use fill="#425a6b" xlink:href="#hz55F"/></g><g><use fill="#425a6b" xlink:href="#hz55G"/></g><g><use fill="#425a6b" xlink:href="#hz55H"/></g></g><g><use fill="#f3f3f3" xlink:href="#hz55I"/></g><g><use fill="#51b0e5" xlink:href="#hz55J"/></g><g><use fill="#f05640" xlink:href="#hz55K"/></g><g><use fill="#56bfeb" xlink:href="#hz55K"/></g><g><use fill="#8ad6f7" xlink:href="#hz55L"/></g><g><use fill="#ffd15c" xlink:href="#hz55M"/></g><g><use fill="#f05640" xlink:href="#hz55N"/></g></g></g></svg>