<svg xmlns="http://www.w3.org/2000/svg" xmlns:xlink="http://www.w3.org/1999/xlink" width="101" height="100" viewBox="0 0 101 100"><defs><path id="l641a" d="M277.826 393.795h-81.43c-.865 0-1.566.701-1.566 1.566v61.073c0 .865.701 1.566 1.566 1.566h81.43c.865 0 1.566-.701 1.566-1.566v-61.073c0-.865-.701-1.566-1.566-1.566z"/><path id="l641b" d="M279.392 395.361c0-.865-.701-1.566-1.566-1.566h-81.43c-.865 0-1.566.701-1.566 1.566v10.766h84.562z"/><path id="l641c" d="M285.656 382.833h-97.09c-.865 0-1.566.702-1.566 1.566v17.226c0 .865.701 1.566 1.566 1.566h97.09c.865 0 1.566-.701 1.566-1.566V384.4c0-.865-.701-1.566-1.566-1.566z"/><path id="l641d" d="M285.656 382.638h-97.09c-.865 0-1.566.7-1.566 1.566v5.872c0-.865.701-1.566 1.566-1.566h97.09c.865 0 1.566.701 1.566 1.566v-5.872c0-.865-.701-1.566-1.566-1.566z"/><path id="l641e" d="M261.365 377.656c-2.641 1.293-8.769 1.844-14.422 2.046 4.18-1.27 8.563-2.918 10.542-4.682 2.15-1.915 3.557-4.42 3.965-7.054.281-1.819.066-3.553-.602-5.07 2.874.108 5.318 1.352 6.404 3.57 1.809 3.696-.832 8.716-5.887 11.19zm-54.395-11.19c1.085-2.218 3.53-3.46 6.403-3.568-.668 1.516-.883 3.25-.601 5.068.408 2.634 1.815 5.139 3.964 7.054 1.98 1.764 6.362 3.412 10.542 4.682-5.653-.202-11.779-.753-14.42-2.046-5.056-2.474-7.697-7.494-5.888-11.19zm14.275-5.53c.095 0 .192.002.289.006 1.984.077 3.981.925 5.622 2.388 1.67 1.488 3.73 5.653 5.46 9.74-3.761-4.55-8.589-9.836-11.906-11.46-.359-.174-.72-.333-1.082-.48a6.635 6.635 0 0 1 1.617-.194zm25.82 2.394c1.642-1.463 3.639-2.311 5.623-2.388a6.634 6.634 0 0 1 1.906.189c-.362.146-.723.304-1.082.48-3.317 1.623-8.145 6.909-11.906 11.458 1.73-4.087 3.79-8.25 5.46-9.739zm-30.521-.113c.958.225 1.926.567 2.875 1.031 3.453 1.69 9.562 8.862 13.589 13.993-5.148-1.324-12.105-3.44-14.318-5.413-1.641-1.463-2.712-3.35-3.016-5.312-.252-1.624.057-3.126.87-4.3zm42.004 4.3c-.304 1.962-1.375 3.848-3.016 5.311-2.212 1.972-9.169 4.088-14.318 5.412 4.027-5.13 10.136-12.302 13.59-13.992.948-.464 1.916-.806 2.874-1.031.813 1.173 1.122 2.675.87 4.3zm11.34-2.342c-1.85-3.784-6.307-5.648-11.122-5.11-1.633-1.424-3.792-2.15-6.192-2.057-2.663.104-5.314 1.215-7.462 3.13-2.915 2.599-6.176 10.405-8.001 15.245-1.825-4.84-5.086-12.646-8.001-15.245-2.149-1.915-4.799-3.026-7.462-3.13-2.399-.093-4.559.633-6.192 2.058-4.815-.539-9.271 1.325-11.123 5.109-2.52 5.15.724 11.933 7.234 15.118 4.351 2.13 15.272 2.445 21.355 2.445 1.085 0 2.014-.01 2.727-.022a1.447 1.447 0 0 0-.006.117v26.622a1.468 1.468 0 1 0 2.936 0v-26.622c0-.04-.003-.078-.006-.117.713.012 1.642.022 2.727.022 6.084 0 17.005-.315 21.356-2.445 6.509-3.185 9.754-9.967 7.233-15.118z"/><path id="l641f" d="M237.111 407.889c-12.952 0-23.49 10.537-23.49 23.49 0 12.952 10.538 23.489 23.49 23.489 12.952 0 23.49-10.537 23.49-23.49 0-12.952-10.538-23.489-23.49-23.489z"/><path id="l641g" d="M237.111 454.868c11.855 0 21.686-8.829 23.266-20.256-.591-12.339-10.781-22.161-23.266-22.161-12.485 0-22.675 9.822-23.266 22.16 1.58 11.428 11.41 20.257 23.266 20.257z"/><path id="l641h" d="M227.715 442.242c-1.284 0-1.942-1.601-1.038-2.506l18.792-18.791a1.468 1.468 0 0 1 2.076 2.076l-18.792 18.791c-.286.287-.662.43-1.038.43z"/><path id="l641i" d="M244.94 435.979c-.917 0-1.663.746-1.663 1.663 0 .918.746 1.664 1.664 1.664.917 0 1.664-.746 1.664-1.664 0-.917-.747-1.663-1.664-1.663zm0 6.263a4.605 4.605 0 0 1-4.6-4.6c0-2.536 2.064-4.6 4.6-4.6 2.537 0 4.6 2.064 4.6 4.6 0 2.537-2.063 4.6-4.6 4.6z"/><path id="l641j" d="M229.281 423.45c-.917 0-1.664.747-1.664 1.665 0 .917.747 1.664 1.664 1.664.918 0 1.664-.747 1.664-1.664 0-.918-.746-1.664-1.664-1.664zm0 6.265a4.605 4.605 0 0 1-4.6-4.6c0-2.537 2.064-4.6 4.6-4.6 2.537 0 4.6 2.063 4.6 4.6 0 2.536-2.063 4.6-4.6 4.6z"/></defs><g><g transform="translate(-187 -358)"><g><use fill="#d1c6e7" xlink:href="#l641a"/></g><g><use fill="#baa9da" xlink:href="#l641b"/></g><g><use fill="#a38dce" xlink:href="#l641c"/></g><g><use fill="#957fc2" xlink:href="#l641d"/></g><g><use fill="#7b5fb2" xlink:href="#l641e"/></g><g><use fill="#ee6482" xlink:href="#l641f"/></g><g><use fill="#f1819a" xlink:href="#l641g"/></g><g><g><use fill="#fff" xlink:href="#l641h"/></g><g><use fill="#fff" xlink:href="#l641i"/></g><g><use fill="#fff" xlink:href="#l641j"/></g></g></g></g></svg>