<svg xmlns="http://www.w3.org/2000/svg" xmlns:xlink="http://www.w3.org/1999/xlink" width="36" height="36" viewBox="0 0 36 36"><defs><path id="nelra" d="M610 110a18 18 0 1 1 36 0 18 18 0 0 1-36 0z"/><path id="nelrc" d="M626.24 114.54c0-.26.18-.47.4-.47.23 0 .42.21.42.47 0 .25-.19.46-.41.46-.23 0-.41-.2-.41-.46z"/><path id="nelrd" d="M624.54 113.1s.57.87.62.92c.05.1.56.31.56.31l.41-.3c.16-.16.42-.26.52-.31.1-.06.46 0 .51.15.05.15-.05.77-.05.77s-.41.15-.51-.3c0 0-.31.4-.57.45-.3.05.31.93.31.93s-.82.05-1.13-.1c-.3-.21-.87-.1-1.33-.47-.47-.4.66-2.05.66-2.05z"/><path id="nelre" d="M625.36 115.67c.06 0 .1-.06.16-.06.1 0 .2-.05.3-.05H626.3h-.16-.56c-.1.1-.15.1-.2.1z"/><path id="nelrf" d="M627.11 114.59c-.05 0-.05 0 0 0-.05-.05-.05-.05-.05-.1v-.06s0-.05.05-.05c0 0 .05 0 .05-.05 0 0 .05 0 .05-.05v-.05h-.1s-.05 0-.05.05l-.05.05s-.05.05 0 .1v.06l.05.05h.05v.05z"/><path id="nelrg" d="M624.8 114.74l5.03 3.29 2.72-1.03-4.82-2.41-2.93.05c-.05 0-.05.1 0 .1z"/><path id="nelrh" d="M625.21 114.8l4.57 2.97 2.36-.87-4.2-2.16z"/><path id="nelri" d="M624.18 120.44l-7.03-1.13s-.51 1.33-.51 2.72h8s-.25-1.18-.46-1.6z"/><path id="nelrj" d="M625.36 102.68l.06.87c.05.16.1.67-.2.62-.32-.05-.42-.1-.42-.1s0 .51-.26.36c0 0 .1.25-.1.3-.2.06-.36.31-.41.52-.05.2-.87.2-1.39-.41 0 0-.25.36-.35.92l-.1.57s-2.68-2.26-2.68-2.31l.06-.26s.56-.67.77-.98c.2-.25.61-.92.66-1.54l.05-.66 2.21-.16z"/><path id="nelrk" d="M621.87 101.4c.26-.36.83-.1.77.3v.06l-.1.46.31.1s.41-.72 1.28-.61c.88.05.88-.57.88-.62 0-.05-2.06-.98-2.1-.98-.06 0-1.75.47-1.75.47s0 .87-.2 1.28c0 0 .6-.05.91-.46z"/><path id="nelrl" d="M626.96 117.62s0-.06.05-.1c0-.06.05-.06.05-.1l.05-.06.05-.05.05-.05.05-.05.1-.1.1-.11s0 .05-.04.1c0 .05-.05.05-.05.1l-.05.06-.06.05-.05.05-.05.05-.1.1-.1.1z"/><path id="nelrm" d="M627.67 102.99c-.2.46-1.02-.3-1.02-.3l-.2-.32h.35c0 .05 1.03.16.87.62z"/><path id="nelrn" d="M623.1 101.09s.78 1.08 1.4 1.49c.6.4 1.28.46 1.79.3.51-.15.97-.3 1.13-.2.2.1.2.3.2.3s.1-.1.05-.25-1.02-.87-1.28-1.23l-.26-.3-3.07-.16z"/><path id="nelro" d="M621.16 100.63s.4.46 2 .72c1.59.2 3.23.2 3.23.2s.26-1.54-.56-2.51A3.15 3.15 0 0 0 623.2 98c-.87.1-2 1.44-2.05 2.62z"/><path id="nelrp" d="M621.67 101.76c0-.46.2-.82.46-.82s.46.36.46.82c0 .45-.2.82-.46.82-.25 0-.46-.37-.46-.82z"/><path id="nelrq" d="M622.7 104.89s-.26.36-.36.92l-.1.57s-.06-.06-.1-.06c-.42-.66-1.14-2-.78-1.74.3.2.41 0 .41-.15v-.26c-.1-.36-.2-.92-.2-1.6.15.32.82 1.8 1.13 2.32z"/><path id="nelrr" d="M619.77 103.66s.15.36.36.56c.2.2 1.44 1.28 1.8 1.39.36.05.61-.47.61-.47s1.18.83 1.39 1.13c.2.31.3 1.54.3 1.54s.72 1.6.47 2.83a85.39 85.39 0 0 0-.05 10.57s-1.08.51-3.4.15c-2.35-.36-3.9-1.23-4.2-1.85 0 0 .2-1.23-.1-1.43-.31-.2-.46-3.75-.41-4.67.05-.93-.1-1.85-.1-1.85s-.52-2.16-.21-3.39c.3-1.23 1.03-2.92 3.54-4.51z"/><path id="nelrs" d="M616.43 111.56c1.54.2 3.03.41 3.8.3 0 0-.4 1.3-.61 1.6-.2.3-.05.51-.05.51s1.18.46 1.74.77 1.9.77 2.57.77c.66 0 1.48.16 1.48.16s.72-.06.93-.1a3.4 3.4 0 0 1 1.8.4l-1.5 1.85s-.87-.36-1.23-.56h-.46c-.15 0-2.3-.05-3.33-.05-.98 0-3.24-.57-3.54-.62-.26-.05-.83-.1-1.03-.72-.1-.67-.67-3.6-.57-4.31z"/><path id="nelrt" d="M627.57 114.13a.46.46 0 1 1 .93 0 .46.46 0 0 1-.93 0z"/><path id="nelru" d="M627.88 113.97s-.15.05-.15.16l-.26.46-.2-.1s.1-.36.15-.47c.05-.1.2-.56.3-.56.1 0 .21.05.21.05z"/><path id="nelrv" d="M627.21 114.28c.05 0 .05-.05.05-.05l.06-.05c.05 0 .05-.05.1-.05h.2H627.47c-.05 0-.05.05-.1.05s-.05 0-.1.05h-.06c.05.05.05.05 0 .05z"/><path id="nelrw" d="M630.75 115.56l-1.84.26-.72.05s-.26-.2-.36-.36v-.05l-.2-.3s-.42-.26-.37-.52c0 0-.2-.05-.25-.15-.05-.1 0-.21.25-.26.26-.05.36-.26.52-.16.1.1.61.31.61.31s-.05-.1-.05-.2l-.2-.2s-.26.04-.26 0l-.2-.52s.2-.05.46.05c.25.1.61.2.61.2s.2.06.26.21c.05.15.26.46.36.62.1.15.2.51.51.66.26.06.87.36.87.36z"/><path id="nelrx" d="M627.21 114.7c.05.04.1.04.2.04.06 0 .16 0 .21.05.05.05.1.05.16.16 0 .05 0 .15-.05.2.15-.05.25 0 .4.05.1.06.21.2.16.36.15.05.36.1.51.2-.2-.2-.46-.35-.56-.6-.05-.06-.05-.16-.1-.21-.1-.16-.26-.26-.31-.26-.2 0-.36.05-.62 0z"/><path id="nelry" d="M627.57 115.2c0-.05 0-.05.16-.1.1-.05.15-.15.15-.15s0 .2-.3.25z"/><path id="nelrz" d="M628.34 115.4v.06c-.1.2-.36.15-.51.05v-.05c.4.2.51 0 .51 0z"/><path id="nelrA" d="M627.21 114.7v.14h-.05c-.26.1-.56.21-.87.21.2-.2.4-.36.67-.51.1.1.25.15.25.15z"/><path id="nelrB" d="M629.68 113.72l-.62.25-.67.31-.1.05a4.07 4.07 0 0 1-.46-.2l.36-.16.61-.3.72-.31z"/><path id="nelrC" d="M629.73 113.61l-.1.05-.1-.2.1-.05c.05 0 .1 0 .15.05.05.05 0 .1-.05.15z"/><path id="nelrD" d="M634.8 108.28s.37 1.12.11 1.8c-.26.66.51.4.57.35l1.53-2z"/><path id="nelrE" d="M634.7 109.97l.52-.41c.26-.2 1.13-.72 1.7-.72a4.1 4.1 0 0 1 1.22.15s1.95 4.73 1.95 5.65c0 .97-.25 4.05-.15 4.72.05.72-.36 1.75-.2 2.2.15.42.2.52.2.52l-7.18.05s.2-3.64.35-4.3c.16-.73-.1-2.27-.3-2.63-.2-.36-.31-1.13.2-2.05.52-.92 1.03-1.49 1.18-1.85.16-.36.52-1.33.52-1.33z"/><path id="nelrF" d="M631.99 103.86l-.21.16s-.2.92 0 1.33c.2.41.41.51.41.82 0 .3.3.98.57 1.28.25.26.35.52.4.77.06.26.47.41.88.31.4-.15.36-3.03.36-3.03z"/><path id="nelrG" d="M631.78 103.45s-.1.57.1.92c.2.31.57.42.57.42s.3 1.64.4 2.05c.06.36.68 1.8 1.44 2.05.77.26 1.9.16 2.21.3.26.16.36.73.36.73s.15-.67-.1-.98c0 0 .87.41 1.33 1.18.46.77 1.7 3.65 1.6 5.44 0 0 .35-.3.46-.92 0 0 .05 1.03-.31 1.8 0 0 1.49-2.26.72-4.73-.77-2.46-1.85-4.2-2.31-5.44-.47-1.23-1.13-3.28-2-4.05-.88-.77-1.6-.72-2.52-.41a3.08 3.08 0 0 0-1.95 1.64z"/><path id="nelrH" d="M633.53 107.25v.36c0 .05 0 .1.05.1 0 .05.05.1.05.15l.15.31c.05.05.05.1.1.16l.06.05.05.05.05.05s.05.05.1.05c0 0 .05.05.1.05l.05.05c.06 0 .06.06.1.06.06 0 .06.05.11.05s.05 0 .1.05h.11c.15.05.25.05.4.05.16 0 .31.05.42.05.15 0 .25.05.4.1.11.06.26.1.32.16.1.05.15.15.2.2.05.1.05.16.1.2V109.57a.39.39 0 0 0-.1-.2c-.05-.06-.1-.16-.2-.21l-.31-.16c-.1-.05-.26-.05-.36-.05h-.41c-.16 0-.31 0-.46-.05-.16-.05-.31-.05-.47-.15h-.05l-.05-.05c-.05 0-.05-.06-.1-.06s-.05-.05-.1-.05c-.06 0-.06-.05-.1-.05-.06 0-.06-.05-.11-.05s-.05-.05-.1-.05l-.16-.15c-.1-.1-.15-.21-.2-.31-.05-.05-.05-.1-.05-.16 0-.05-.05-.1-.05-.15 0-.05 0-.1-.06-.15v-.26-.05z"/><path id="nelrI" d="M636.45 108.48l.15.15.36.36.52.52c.1.1.15.2.25.3.1.1.16.21.26.36l.2.36c.06.1.1.26.16.36.05.1.1.26.1.36.05.1.05.26.05.36v.31c0-.1 0-.2-.05-.3 0-.11-.05-.21-.1-.32l-.15-.36c-.06-.1-.1-.25-.21-.36l-.2-.35c-.1-.1-.16-.21-.26-.31s-.16-.2-.26-.31l-.51-.51c-.16-.16-.3-.26-.36-.36l-.1-.1-.05-.06z"/><path id="nelrJ" d="M632.09 103.5l-.05.05v.05c0 .06 0 0-.05.06l-.06.05s0 .05-.05.05c0 0 0 .05-.05.05 0 0 0 .05-.05.05 0 0 0 .05-.05.05 0 .05-.05.05-.05.1 0 .06-.05.1-.05.1 0 .06-.06.11-.06.11 0 .05 0 .1-.05.1v.36-.36-.15c0-.05 0-.1.05-.15 0-.06.06-.1.06-.16 0-.05.05-.1.05-.1s0-.05.05-.05c0 0 0-.05.05-.05 0 0 0-.06.05-.06 0 0 0-.05.05-.05 0 0 0-.05.05-.05l.06-.05v-.05h.05z"/><path id="nelrK" d="M634.55 114.49s-.46-2 .26-2.83c.67-.82 1.28-.61 1.59-.4.3.2 1.03.81 1.08 1.63.05.83.1 3.55.1 4.06 0 .51 0 2.51-.1 2.92-.1.41-.46.52-.93.77-.46.2-4.15.83-4.15.83s-.88-.88-.62-2.37c0 0 .82.06 1.13-.1.3-.1 2.57-.51 2.57-.51s-.93-2.57-.93-4z"/><path id="nelrL" d="M629.06 118.54v.05l6.93-.46-3.8 1.08-5.7.2z"/><path id="nelrM" d="M626.24 116.54l2.51-1.03.31 3.08-2.57.82z"/><path id="nelrN" d="M635.99 118.13l-6.93.46-.3-3.08 7.02-.36z"/><path id="nelrO" d="M631.83 120.49c-.26 0-.61-.05-.87 0-.46.05-1.44 0-1.85-.1l-1.8-.41c-.2-.05-.5-.05-.61-.36-.1-.31-.05-1.23-.05-1.23s-.1-.31.1-.57l.2-.26s0-.25.06-.46l.25-.46s.31.05.2.36c0 0 .42.26-.1.82l-.2.46v.2s.1-.1.3.11c.21.16.27.3.47.36.2.05.92 0 1.13.15.2.16.51.31.87.31.31 0 1.6-.15 1.8-.15-.05.46 0 .92.1 1.23z"/><path id="nelrP" d="M620.23 111.87c.05-.05.05-.1.05-.26 0 0 1.75 0 2.1-.4 0 0-1.22.35-2.1.25 0 0 .1-.72.16-.93.05-.2.15-.97.3-1.13.16-.15.67-1.54.47-2.25-.2-.72-.57-1.24-.57-1.24s.46.98.46 1.29c0 .25 0 .87-.1 1.28-.1.46-.46 1.08-.46 1.08s-.26 1.49-.3 2.3z"/><clipPath id="nelrb"><use fill="#fff" xlink:href="#nelra"/></clipPath></defs><g><g transform="translate(-610 -92)"><g><use fill="#fff" xlink:href="#nelra"/><use fill="#fff" fill-opacity="0" stroke="#fff" stroke-miterlimit="50" stroke-width="2" clip-path="url(&quot;#nelrb&quot;)" xlink:href="#nelra"/></g><g><g><use fill="#f5b54c" xlink:href="#nelrc"/></g><g><use fill="#ffd15c" xlink:href="#nelrd"/></g><g><g><use fill="#f5b54c" xlink:href="#nelre"/></g><g><use fill="#f5b54c" xlink:href="#nelrf"/></g></g><g><use fill="#425a6b" xlink:href="#nelrg"/></g><g><use fill="#f3f3f3" xlink:href="#nelrh"/></g><g><use fill="#425a6b" xlink:href="#nelri"/></g><g><use fill="#ffd15c" xlink:href="#nelrj"/></g><g><use fill="#425a6b" xlink:href="#nelrk"/></g><g><use fill="#f5b54c" xlink:href="#nelrl"/></g><g><use fill="#f05640" xlink:href="#nelrm"/></g><g><use fill="#f26f5a" xlink:href="#nelrn"/></g><g><use fill="#f05640" xlink:href="#nelro"/></g><g><use fill="#ffd15c" xlink:href="#nelrp"/></g><g><use fill="#f5b54c" xlink:href="#nelrq"/></g><g><use fill="#f26f5a" xlink:href="#nelrr"/></g><g><use fill="#ffd15c" xlink:href="#nelrs"/></g><g><use fill="#f5b54c" xlink:href="#nelrt"/></g><g><use fill="#ffd15c" xlink:href="#nelru"/></g><g><use fill="#f5b54c" xlink:href="#nelrv"/></g><g><use fill="#ffd15c" xlink:href="#nelrw"/></g><g><g><use fill="#f5b54c" xlink:href="#nelrx"/></g><g><use fill="#f5b54c" xlink:href="#nelry"/></g><g><use fill="#f5b54c" xlink:href="#nelrz"/></g></g><g><g><use fill="#67c5b8" xlink:href="#nelrA"/></g><g><use fill="#67c5b8" xlink:href="#nelrB"/></g></g><g><use fill="#425a6b" xlink:href="#nelrC"/></g><g><use fill="#ffd15c" xlink:href="#nelrD"/></g><g><use fill="#e8eae8" xlink:href="#nelrE"/></g><g><use fill="#ffd15c" xlink:href="#nelrF"/></g><g><g><use fill="#425a6b" xlink:href="#nelrG"/></g><g><use fill="#425a6b" xlink:href="#nelrH"/></g><g><use fill="#425a6b" xlink:href="#nelrI"/></g><g><use fill="#425a6b" xlink:href="#nelrJ"/></g></g><g><use fill="#f3f3f3" xlink:href="#nelrK"/></g><g><use fill="#51b0e5" xlink:href="#nelrL"/></g><g><use fill="#f05640" xlink:href="#nelrM"/></g><g><use fill="#56bfeb" xlink:href="#nelrM"/></g><g><use fill="#8ad6f7" xlink:href="#nelrN"/></g><g><use fill="#ffd15c" xlink:href="#nelrO"/></g><g><use fill="#f05640" xlink:href="#nelrP"/></g></g></g></g></svg>