<svg xmlns="http://www.w3.org/2000/svg" xmlns:xlink="http://www.w3.org/1999/xlink" width="36" height="36" viewBox="0 0 36 36"><defs><path id="n4qna" d="M379 110a18 18 0 1 1 36 0 18 18 0 0 1-36 0z"/><path id="n4qnc" d="M400.27 121.43l-3.27-3.1 1.75-2.87 2.75 1.53-.64 2.86z"/><path id="n4qnd" d="M408 116.46h.06l1.46.47-.18 2.98-9.07 1.52.12-3.04 4.27-1.87z"/><path id="n4qne" d="M405.48 113.88l4.04 3.05-9.13 1.46-3.28-3.28z"/><path id="n4qnf" d="M401.62 110.37s.7.24 1.4.65c.65.4 1.76 1.23 2.46 1.64.7.4 1.4.7 1.64.87.3.18.47.47.47.76 0 .3.23.88.23 1 .06.12.24.47-.11.58-.3.06-.59 0-.53-.46 0 0 .06-.06-.18-.18-.17-.12-.64-.53-.64-.53s-.23-.11-.64-.17c-.47-.12-1.76-.47-2.34-.65-.59-.17-2.4-.4-3.28-1.34z"/><path id="n4qng" d="M391.9 103.76s-.29-.47-.05-.7c.23-.24.64-.35.64-.35l.3.58z"/><path id="n4qnh" d="M397.35 105.4s-1 1.87-1.17 1.87l-2.28-1.34-1.35-1.58-.64-.76s.52-.53.58-.77c.06-.17-.17-.87-.17-.87-.06-.12-1-2.87-1-2.87-.18-.3 1.81-2.4 1.81-2.4l3.22.7.3 1.11v1.82s0 .17-.12.76a2.94 2.94 0 0 1-.47 1.11s-.12.88-.12 1.17c0 .3-.11 1.05-.11 1.05z"/><path id="n4qni" d="M396.06 102.12c0 .06-.4 1.06-1.23 1.17-.82.12-1.05.3-.58.41.46.12.76.35-.18.47-.4.06-1 .12-1.52.12l-.64-.76s.52-.53.58-.76c.06-.18-.17-.88-.17-.88 0 .06.46.76 1.4 1 1 .23 1.93-.07 2.34-.77z"/><path id="n4qnj" d="M396.64 100.48c-.2-.01-.32-.47-.29-1.01.04-.55.23-.99.42-.97.2.01.32.46.29 1.01-.04.55-.23.98-.42.97z"/><path id="n4qnk" d="M392.1 101.18c-.19.07-.5-.29-.7-.8-.2-.51-.2-.98-.03-1.05.18-.07.5.29.7.8.19.51.2.98.02 1.05z"/><path id="n4qnl" d="M391.96 100.43s-.35-1.35-.35-1.94c-.06-.58-.06-.76-.06-.76l-.4 1.12s-.06.29.11.58c.24-.12.53 1.11.53 1.11z"/><path id="n4qnm" d="M395.88 97.15s.41.4.53.93c.06.47.12 1.53.12 1.53s.23-.3.23-.7l-.11-.83-.59-1.05z"/><path id="n4qnn" d="M391.44 98.32l.29.58s.12.24.35 0c.3-.23.7-.93 1.58-1.05.82-.12 1.87.3 2.17.41.29.12.29 0 .35-.06 0-.06.11-.58.11-.58v-.59l-4.68-.58z"/><path id="n4qno" d="M391.14 98.85s.41-.77 1-1.23c.58-.41 1.4-.76 2.4-.7 1 .05 1.81.52 2.1 1.1 0 0-.11-.87-.4-1.57a2.61 2.61 0 0 0-1.64-1.4c-.7-.18-2.4.23-2.93.64-.64.58-.64 1.81-.53 3.16z"/><path id="n4qnp" d="M394.83 104.87l.47-.17.7 1.7.12-1.53v-.82s1 .41 1.29.47c.23.06 1.05.3 1.46.94.4.58 1.52 2.87 1.75 3.33.24.47.53.94.7 1.17.18.24.42.3.42.59a3.2 3.2 0 0 1-1.82 2.28l-.64-.4s-.18 4.85-.18 5.96c-.06 1.11-.06 3.8.06 4.74h-9.83s-.17-2.05 0-2.7c.18-.63.82-4.97-.12-7.66l-1.23 1.64c-.29.41-.4.76-.4.76l-1.18.12c-.58.06-2.4-.06-2.4 0 0 0 0-1.29.36-2.17.29-.87 1.28-3.39 1.64-4.15.29-.76.87-1.93 1.4-2.46.53-.53 2.34-1.7 2.98-1.93.65-.23.82-.4.82-.4l2.11.63z"/><path id="n4qnq" d="M398.52 116.23v-.06c.12-.24.47-.59.64-.7l.06-.06v-.06l-.12-.12v-.12h.12l.12.12c.06.06.06.12.06.18 0 .05-.06.11-.12.17-.24.12-.53.47-.59.65h-.17z"/><path id="n4qnr" d="M392.08 122.6l7.67-5.5c.11-.11.17-.29.06-.4l-3.8-6.03c-.13-.18-.3-.18-.48-.06l-7.25 5.5c-.12.12-.18.3-.06.4l3.45 6.04c.06.11.3.17.41.05z"/><path id="n4qns" d="M399.45 116.81l-7.37 5.68-3.4-5.68 6.8-5.73z"/><path id="n4qnt" d="M396.82 112.66l-.3.17c-.05.06-.1.18-.05.24l1.23 2.1c0 .06.06.06.12.12h.17l.3-.18s.05-.05 0-.05l-1.47-2.4c.06 0 .06 0 0 0zm1.05 2.8h-.05c-.12 0-.18-.05-.24-.17l-1.23-2.1c-.11-.18-.06-.36.12-.48l.3-.17c.05-.06.11-.06.17-.06.06 0 .12.06.12.12l1.46 2.34c.06.12 0 .23-.06.3l-.3.17c-.11.05-.23.05-.29.05z"/><path id="n4qnu" d="M399.16 114.76l-1.93 1.93c-.35.35-.64.7-.88 1.12a4.1 4.1 0 0 0 1.11-.88l1.94-1.93z"/><path id="n4qnv" d="M399.4 114.94l-.18-.18.06-.06c.06-.05.12-.05.17 0 .06.06.06.12 0 .18z"/><path id="n4qnw" d="M397.38 116.53l.25.25-.13.12-.24-.25z"/><path id="n4qnx" d="M392.5 102.77s-.65.35-.65.52c0 .18.4.41.82.59l2.16 1s-1.4 1.05-1.58 1.1c0 0-.76-.29-1.23-.7-.47-.4-1.17-1.05-1.17-1.05s.35-.3.47-.53c.12-.23.47-1 1.17-.93z"/><path id="n4qny" d="M395.94 103.7s.76.88.88 1c.12.11.41 1.05.41 1.05l-.47-.4s-.64.81-.7 1.04c0 0 .12-1.63-.18-2.04z"/><path id="n4qnz" d="M387.58 115.17s.99 1.06 1.28 1.47c.3.4 1.29 1.34 1.7 1.58.4.23 1.29.7 1.52.7.18 0 .59-.18 1.46 0 .24.06.47.17.65.29.06.06.11.12.17.12.18.06.65.29.7.52l.42.35s0 .36-.3.36c0 0 .24.17.18.46-.06.36-.35.3-.35.3s0 .23-.18.29c-.17.12-.3.12-.3.12s-.23.4-.75.4c0 0-.47.42-1 .24 0 0-.52-.35-.76-.47-.23-.12-.64-.82-.82-.93-.17-.12-.4-.3-.52-.3a5.17 5.17 0 0 1-.65-.47c-.23-.23-2.8-1.28-3.27-1.75-.47-.41-1.58-1.46-2-1.76-.4-.29-.81-.4-.75-.82 0-.4.05-.76.05-.76z"/><path id="n4qnA" d="M384.12 114.12c-.11.64-.11 1.23-.11 1.23.05-.06 1.87.06 2.4 0l1.17-.12s.11-.35.4-.76c.06-.06.12-.18.24-.35z"/><path id="n4qnB" d="M395.18 120.61H394.9c-.06 0-.12 0-.12-.05-.06 0-.11-.06-.11-.06-.12-.06-.18-.12-.3-.18-.06-.06-.11-.06-.11-.12l-.06-.05-.06-.06c-.06-.06-.06-.06-.06-.12 0 0-.06 0-.06-.06h-.06l-.11-.11c0-.06-.06-.06-.06-.06v-.06l.06.06.06.06.05.05h.06s.06 0 .06.06c.06 0 .12.06.12.12l.06.06.05.06.12.11c.12.06.18.12.3.18.05 0 .05.06.11.06s.06.06.12.06c.06.05.12.05.17.05h.06z"/><path id="n4qnC" d="M395.42 120.2c0 .24-.24.3-.24.3s-.17-.12-.23-.12c-.06-.06-.06-.12 0-.18.06-.11.12-.29.12-.29z"/><path id="n4qnD" d="M394.66 121.26c-.12-.06-.24-.06-.36-.06h-.17s0 .06.23.12c.24 0 .53.06.65.06v-.06s-.24 0-.35-.06z"/><path id="n4qnE" d="M394.54 121.73s-.35.05-.47.05c-.17 0-.4.06-.3.06h.36c.12 0 .23 0 .35-.06l.06-.05z"/><path id="n4qnF" d="M393.78 122.08s0 .06 0 0c-.12 0-.24.06-.35.06h-.06l.4-.06z"/><path id="n4qnG" d="M407.41 115.35v.23c.06.06.3.12.41.06 0 0 .06-.12-.06-.23-.05-.06-.29-.12-.35-.06z"/><clipPath id="n4qnb"><use fill="#fff" xlink:href="#n4qna"/></clipPath></defs><g><g transform="translate(-379 -92)"><g><use fill="#fff" xlink:href="#n4qna"/><use fill="#fff" fill-opacity="0" stroke="#fff" stroke-miterlimit="50" stroke-width="2" clip-path="url(&quot;#n4qnb&quot;)" xlink:href="#n4qna"/></g><g><g><use fill="#55b2e5" xlink:href="#n4qnc"/></g><g><use fill="#56bfeb" xlink:href="#n4qnd"/></g><g><use fill="#8ad6f7" xlink:href="#n4qne"/></g><g><use fill="#ffd15c" xlink:href="#n4qnf"/></g><g><use fill="#344a5e" xlink:href="#n4qng"/></g><g><use fill="#ffd15c" xlink:href="#n4qnh"/></g><g><use fill="#f5b54c" xlink:href="#n4qni"/></g><g><g><use fill="#ffd15c" xlink:href="#n4qnj"/></g><g><use fill="#ffd15c" xlink:href="#n4qnk"/></g></g><g><g><use fill="#425a6b" xlink:href="#n4qnl"/></g><g><use fill="#425a6b" xlink:href="#n4qnm"/></g></g><g><use fill="#f05640" xlink:href="#n4qnn"/></g><g><use fill="#f26f5a" xlink:href="#n4qno"/></g><g><use fill="#344a5e" xlink:href="#n4qnp"/></g><g><use fill="#f26f5a" xlink:href="#n4qnq"/></g><g><use fill="#67c5b8" xlink:href="#n4qnr"/></g><g><use fill="#f3f3f3" xlink:href="#n4qns"/></g><g><use fill="#425a6b" xlink:href="#n4qnt"/></g><g><use fill="#f26f5a" xlink:href="#n4qnu"/></g><g><g><use fill="#344a5e" xlink:href="#n4qnv"/></g><g><use fill="#344a5e" xlink:href="#n4qnw"/></g></g><g><g><use fill="#425a6b" xlink:href="#n4qnx"/></g><g><use fill="#425a6b" xlink:href="#n4qny"/></g></g><g><use fill="#ffd15c" xlink:href="#n4qnz"/></g><g><use fill="#344a5e" xlink:href="#n4qnA"/></g><g><use fill="#f5b54c" xlink:href="#n4qnB"/></g><g><use fill="#fff" xlink:href="#n4qnC"/></g><g><g><use fill="#f5b54c" xlink:href="#n4qnD"/></g><g><use fill="#f5b54c" xlink:href="#n4qnE"/></g><g><use fill="#f5b54c" xlink:href="#n4qnF"/></g></g><g><use fill="#fff" xlink:href="#n4qnG"/></g></g></g></g></svg>