<svg xmlns="http://www.w3.org/2000/svg" xmlns:xlink="http://www.w3.org/1999/xlink" width="36" height="36" viewBox="0 0 36 36"><defs><path id="10e2a" d="M834 110a18 18 0 1 1 36 0 18 18 0 0 1-36 0z"/><path id="10e2c" d="M866.5 102.03v20.35c0 .73-.56 1.29-1.28 1.29h-25.4c-.72 0-1.28-.56-1.28-1.29v-20.35z"/><path id="10e2d" d="M852.72 107.72v3.05h-.32v-3.05z"/><path id="10e2e" d="M852.72 119.42v3.04h-.32v-3.04h.32z"/><path id="10e2f" d="M857.85 109.96l-2.17 2.17-.24-.24 2.17-2.17z"/><path id="10e2g" d="M849.6 118.3l-2.17 2.16-.24-.24 2.16-2.16.24.24z"/><path id="10e2h" d="M859.93 114.93v.32h-2.97v-.16-.16z"/><path id="10e2i" d="M848.23 115.1v.15h-2.96v-.32h2.96v.16z"/><path id="10e2j" d="M857.85 120.14l-.24.24-2.09-2.08.24-.24z"/><path id="10e2k" d="M849.6 111.89l-.25.24-2.16-2.17.24-.24z"/><path id="10e2l" d="M851.04 111c-.08 0-.17.09-.33.17l-.72-1.69.32-.16z"/><path id="1000m" d="M855.04 120.78l-.32.16-.72-1.68c.08 0 .16-.08.32-.16z"/><path id="10e2n" d="M848.63 113.25c-.08.08-.08.16-.16.32l-1.68-.72.16-.32z"/><path id="10e2o" d="M858.33 117.34l-.16.32-1.69-.72c.08-.08.08-.16.16-.32z"/><path id="10e2p" d="M848.63 116.86l-1.68.72-.16-.32 1.68-.72c.08.16.08.24.16.32z"/><path id="10e2q" d="M858.33 112.85l-1.69.72c0-.08-.08-.16-.16-.32l1.69-.72z"/><path id="10e2r" d="M851.04 119.18l-.73 1.68-.32-.16.72-1.68c.16.08.25.08.33.16z"/><path id="10e2s" d="M855.04 109.4l-.64 1.69c-.08-.08-.16-.08-.32-.16l.72-1.69z"/><path id="10e2t" d="M864.9 93.06h-24.68c-.88 0-1.6.72-1.6 1.6v4.17h27.96v-4.17c-.08-.88-.8-1.6-1.68-1.6z"/><path id="10e2u" d="M858.25 114.05l1.52 5.45 1.36-1.36 1.28 1.36 1.2-1.2-1.28-1.36 1.29-1.37z"/><path id="10e2v" d="M848.15 95.94a.96.96 0 1 1 1.92 0 .96.96 0 0 1-1.92 0z"/><path id="10e2w" d="M844.46 95.94a.96.96 0 1 1 1.93 0 .96.96 0 0 1-1.93 0z"/><path id="10e2x" d="M840.78 95.94a.96.96 0 1 1 1.92 0 .96.96 0 0 1-1.92 0z"/><path id="10e2y" d="M866.5 102.67v3.77c-.48.4-1.12.56-1.76.56a3.04 3.04 0 0 1-3.05-3.04 3.04 3.04 0 1 1-6.09 0 3.04 3.04 0 1 1-6.09 0 3.04 3.04 0 1 1-6.09 0 3.04 3.04 0 0 1-4.8 2.48v-3.77h27.88z"/><path id="10e2z" d="M843.42 102.03h-6.09l1.29-3.2h5.52z"/><path id="10e2A" d="M849.51 102.03h-6.09l.72-3.2h5.61z"/><path id="10e2B" d="M855.6 102.03h-6.09l.24-3.2h5.61z"/><path id="10e2C" d="M861.7 102.03h-6.1l-.24-3.2h5.61z"/><path id="10e2D" d="M867.78 102.03h-6.09l-.72-3.2h5.53z"/><path id="10e2E" d="M843.42 103.4a3.04 3.04 0 1 0 6.1 0v-1.37h-6.1v1.36z"/><path id="10e2F" d="M855.6 102.03v1.36a3.04 3.04 0 1 0 6.1 0v-1.36h-6.1z"/><path id="10e2G" d="M837.33 103.4a3.04 3.04 0 1 0 6.1 0v-1.37h-6.1z"/><path id="10e2H" d="M849.51 103.4a3.04 3.04 0 1 0 6.1 0v-1.37h-6.1v1.36z"/><path id="10e2I" d="M861.7 102.03v1.36a3.04 3.04 0 1 0 6.08 0v-1.36z"/><path id="10e2J" d="M847.83 115.1c0-2.66 2.12-4.81 4.73-4.81a4.77 4.77 0 0 1 4.73 4.8c0 2.66-2.12 4.81-4.73 4.81a4.77 4.77 0 0 1-4.73-4.8z"/><path id="10e2K" d="M854.8 113.57v1.84h-3.28l-.48-1.84zm-3.04 2.97l-.16-.57h3.68v-2.8h-4.4l-.25-1.04h-1.28v.48h.96l1.13 4.4h4v-.47z"/><path id="10e2L" d="M851.92 117.9a.56.56 0 1 1 1.12 0 .56.56 0 0 1-1.12 0z"/><path id="10e2M" d="M854 117.9a.56.56 0 1 1 1.12 0 .56.56 0 0 1-1.12 0z"/><clipPath id="10e2b"><use fill="#fff" xlink:href="#10e2a"/></clipPath></defs><g><g transform="translate(-834 -92)"><g><use fill="#fff" xlink:href="#10e2a"/><use fill="#fff" fill-opacity="0" stroke="#fff" stroke-miterlimit="50" stroke-width="2" clip-path="url(&quot;#10e2b&quot;)" xlink:href="#10e2a"/></g><g><g><use fill="#f2f2f2" xlink:href="#10e2c"/></g><g><g><use fill="#fff" xlink:href="#10e2d"/></g><g><use fill="#fff" xlink:href="#10e2e"/></g><g><use fill="#fff" xlink:href="#10e2f"/></g><g><use fill="#fff" xlink:href="#10e2g"/></g><g><use fill="#fff" xlink:href="#10e2h"/></g><g><use fill="#fff" xlink:href="#10e2i"/></g><g><use fill="#fff" xlink:href="#10e2j"/></g><g><use fill="#fff" xlink:href="#10e2k"/></g><g><use fill="#fff" xlink:href="#10e2l"/></g><g><use fill="#fff" xlink:href="#10e2m"/></g><g><use fill="#fff" xlink:href="#10e2n"/></g><g><use fill="#fff" xlink:href="#10e2o"/></g><g><use fill="#fff" xlink:href="#10e2p"/></g><g><use fill="#fff" xlink:href="#10e2q"/></g><g><use fill="#fff" xlink:href="#10e2r"/></g><g><use fill="#fff" xlink:href="#10e2s"/></g></g><g><use fill="#ffd15c" xlink:href="#10e2t"/></g><g><use fill="#40596b" xlink:href="#10e2u"/></g><g><use fill="#f8b64c" xlink:href="#10e2v"/></g><g><use fill="#ff7058" xlink:href="#10e2w"/></g><g><use fill="#f8b64c" xlink:href="#10e2x"/></g><g><use fill="#e4eaef" xlink:href="#10e2y"/></g><g><use fill="#ff7058" xlink:href="#10e2z"/></g><g><use fill="#cdd6e0" xlink:href="#10e2A"/></g><g><use fill="#ff7058" xlink:href="#10e2B"/></g><g><use fill="#cdd6e0" xlink:href="#10e2C"/></g><g><use fill="#ff7058" xlink:href="#10e2D"/></g><g><g><use fill="#acb3ba" xlink:href="#10e2E"/></g><g><use fill="#acb3ba" xlink:href="#10e2F"/></g></g><g><g><use fill="#f1543f" xlink:href="#10e2G"/></g><g><use fill="#f1543f" xlink:href="#10e2H"/></g><g><use fill="#f1543f" xlink:href="#10e2I"/></g></g><g><use fill="#ff7058" xlink:href="#10e2J"/></g><g><g><use fill="#fff" xlink:href="#10e2K"/></g><g><use fill="#fff" xlink:href="#10e2L"/></g><g><use fill="#fff" xlink:href="#10e2M"/></g></g></g></g></g></svg>