<svg xmlns="http://www.w3.org/2000/svg" xmlns:xlink="http://www.w3.org/1999/xlink" width="36" height="36" viewBox="0 0 36 36"><defs><path id="qxcba" d="M171 110a18 18 0 1 1 36 0 18 18 0 0 1-36 0z"/><path id="qxcbc" d="M200.27 109.88l-1.18 1.17a.19.19 0 0 1-.24 0l-1.92-1.92a.19.19 0 0 1 0-.24l1.17-1.18a.19.19 0 0 1 .25 0l1.92 1.92c.06.06.06.18 0 .25z"/><path id="qxcbd" d="M197.94 107.84l2.18 2.18-.3.3-2.19-2.18z"/><path id="qxcbe" d="M197.43 108.97l.39.39-.13.13-.4-.4z"/><path id="qxcbf" d="M197.98 109.54l.39.4-.13.12-.4-.4z"/><path id="qxcbg" d="M198.57 110.15l.4.4-.14.13-.4-.4z"/><path id="qxcbh" d="M193.16 106.17l.56-2.47.74.43.19 7.23-2.04-1.48z"/><path id="qxcbi" d="M188.6 109.5c0-.92 1.07-1.66 2.4-1.66 1.33 0 2.41.74 2.41 1.67 0 .92-1.08 1.66-2.4 1.66-1.34 0-2.42-.74-2.42-1.66z"/><path id="qxcbj" d="M194.15 104.56s.31 2.54-.99 4.33c0 0-.24.92 1.05 1.73l1.3.8-4.88 3.52-2.47-.74.43-3.83.68-.43.5-.25c.18-.06.18-.3.06-.43-.31-.31-.8-.93-.99-1.48l-.25-.74s.07-2.29.44-3.22c.37-.92.86-1.54 1.97-1.54 1.18-.06 2.97 1.42 3.15 2.28z"/><path id="qxcbk" d="M195.57 111.42l.87-.3s1.17.6 1.48 1.1c.25.5.99 3.46.99 3.46s-2.16.25-2.53.99l-.19-.31-.99-1.23z"/><path id="qxcbl" d="M198.04 111.42s.13-.12.13-.19c0-.06 0-.12.12-.43.12-.24.37-.5.5-.55l.43-.25s.24-.12.37 0c.12.06.18.43.18.62.06.18.06.55.06.55s.31.19.37.31c.13.06.19.25.19.37 0 0 .18.13.25.31.06.19-.07.25 0 .31.06.06.12.18 0 .43-.13.19-.44.56-.56.8-.12.25-.3.44-.37.56-.06.12 0 .56 0 .93s.68 3.33.8 3.95c.13.62.06 2.4 0 2.72-.06.3-.43.86-.8.92-.43.13-.8 0-1.11-.3-.31-.31-.37-.44-.68-.93-.31-.5-1.3-3.58-1.6-4.82.43-.56 1.17-.8 2.1-.86 0 0-.13-.68-.25-1.05-.13-.37-.13-.5-.19-.74-.12-.31-.37-.62-.3-.93 0-.25.24-.87.3-1.17 0-.5.06-.56.06-.56z"/><path id="qxcbm" d="M185.88 109.63s.98.5 1.48.62.86-.13 1.48-.25l.56-.12s-1.18 2.71-.44 3.58c.75.8 2.97.18 3.59-.43.61-.62 1.66-2.23 1.73-2.41 0 0 1.48.24 2.16.5 0 0-.74 3.45-.19 5.24 0 0-.99 1.98-1.36 3.21-.37 1.24-.43 2.35-.37 2.97.13.61.87 3.08.87 3.08h-10s.8-3.2.92-5.12c.06-1.92-.12-4.57-.12-5 0-.44.24-1 .12-1.55s-4.51-2.22-4.51-2.22 1.6-3.34 4.08-2.1z"/><path id="qxcbn" d="M180.01 96.1s.18-.18.3-.06c.2.06.32.31.32.31s.06-.06.12 0l.12.5s.13.06.13.24c0 .19.12.87.12.87s-.06.61-.12.86c-.06.19-.31 1.98-.31 1.98l-1.48-.19s.12-.99.12-1.1c0-.13-.19-.44-.37-.75-.25-.3-.5-.68-.62-1.17-.12-.5.13-.44.25-.5.06-.06.18-.24.18-.37.07-.12.07-.12.25-.18.06-.13.19-.13.19-.31.06-.19.18-.25.3-.19.13.06.31.19.5.06z"/><path id="qxcbo" d="M178.9 98.39s.06 0 0 0a54 54 0 0 0-1.18 4.2l-.18-.06c.06-.13.74-2.84 1.3-4.2 0 0 .06 0 .06.06z"/><path id="qxcbp" d="M182.67 102.53h-.19c0-.06-.74-4.63-1.42-5.31v-.07-.06-.06-.12c.06.06.12.12.25.18.61.74 1.36 5.25 1.36 5.44z"/><path id="qxcbq" d="M173.59 115.68l1.91 1.05 10.5-.86-1.85-1.67z"/><path id="qxcbr" d="M184.83 114.88l-.44.18-10.8.62.37-2.1.55-11.24 10.56-.92z"/><path id="qxcbs" d="M184.95 114.94l1.05.93-.3-14.02-.63.12-.43 12.35z"/><path id="qxcbt" d="M185.07 101.42l-.68 13.64 1.61.8-1.17-1.97.37-12.47z"/><path id="qxcbu" d="M178.77 98.27l.13.12c-.56 1.05-1.18 2.47-1.18 2.47l-.18-.06c.06-.06.68-1.55 1.23-2.53z"/><path id="qxcbv" d="M181.99 101.35h-.19c-.06-.98-.25-3.64-.68-4.13 0 0-.06-.07-.12-.07v-.06-.12c.12.06.18.12.24.25.56.55.75 4.01.75 4.13z"/><path id="qxcbw" d="M172.54 111.54l1.54 1.18 9.08.5-1.36-1.68z"/><path id="qxcbx" d="M182.3 112.22l-.38.13-9.38-.8.55-1.74 1.92-9.63 9.14.56z"/><path id="qxcby" d="M182.42 112.35l.74.86 1.48-12.04h-.55l-1.86 10.56z"/><path id="qxcbz" d="M184.15 100.74l-2.23 11.6 1.24.87-.74-1.85 1.85-10.62z"/><path id="qxcbA" d="M178.22 97.65c.12.12.25.25.3.37l.2.18c.05.07.12.13.18.19 0 0 .06.06.12.06h.06c.07.06.13.06.25.06h.06c.06 0 .06 0 .13-.06.06-.06.12-.12.12-.18h.12c.06 0 .06-.07.06-.07h.19v-.12l.06.06s.06.06.12.06c.07 0 .07 0 .13-.06 0 0 0-.06.06-.06v-.12-.13c0-.06-.06-.06-.06-.12a.85.85 0 0 1-.19-.25c0-.06-.06-.06-.06-.12v-.12-.19-.31s0-.06.06-.06v-.06l.06-.06s.07 0 .07-.07c0 0-.07 0-.07.07l-.06.06v.74c0 .06.06.06.06.12.07.06.13.13.19.25 0 .06.06.06.06.12v.31s0 .06-.06.06-.12.07-.12.07c-.07 0-.13 0-.13-.07h.06v.19h-.06-.06-.06-.06.06c-.06.06-.06.06-.12.06h-.13c0 .06-.06.19-.12.19s-.06.06-.12.06h-.13c-.06 0-.18 0-.24-.06-.07 0-.07-.07-.13-.07s-.06-.06-.12-.06l-.19-.18-.18-.19c-.13-.24-.19-.37-.31-.5z"/><path id="qxcbB" d="M180.32 98.08l-.06-.06c0-.06-.07-.12-.13-.19 0 0 0-.06-.06-.06v-.06c0-.06-.06-.12-.06-.12 0-.07-.06-.13-.06-.19s0-.12-.06-.18c0-.07-.07-.13-.07-.19v-.06-.19-.12c0-.06 0-.19.07-.19v-.06.37c0 .07 0 .13.06.13 0 .06.06.12.06.18s.06.13.06.19.06.12.06.18 0 .13.06.19c0 .06.07.12.07.12s0 .06.06.06c.06.07.06.13.12.19l-.12.06z"/><path id="qxcbC" d="M179.95 98.2s-.06 0 0 0c-.13-.06-.13-.12-.19-.12 0 0-.06-.06-.06-.12s-.06-.06-.06-.13c0-.06-.06-.06-.06-.12s-.06-.06-.06-.12c0-.07-.07-.07-.07-.13v-.06c-.06-.06-.06-.06-.06-.12s-.06-.06-.06-.13v-.24.31c0 .06 0 .06.06.12 0 .06.06.06.06.12v.13c0 .06.07.06.07.12.06.06.06.19.12.25 0 .06.06.06.06.12s.06.06.06.12c0-.06.06-.06.19 0-.06 0 0 0 0 0z"/><path id="qxcbD" d="M179.7 98.27c-.06 0-.06 0 0 0-.12-.07-.12-.07-.18-.13h-.07s-.06 0-.06-.06c-.06 0-.06-.06-.12-.06s-.06-.06-.12-.06c-.07 0-.07-.06-.13-.13l-.06-.06c0-.06-.06-.06-.06-.12v-.06-.13c-.13-.18-.13-.24-.13-.24s.07.06.07.24c0 .06 0 .06.06.13v.06c0 .06.06.06.06.12s.06.06.12.13l.13.12c.06 0 .06.06.12.06s.06.06.12.06c.07 0 .07.06.07.06.06 0 .06.07.18.07-.06 0-.06 0 0 0z"/><path id="qxcbE" d="M180.94 96.78l-.13-.5c-.06.07-.24.57.13.5z"/><path id="qxcbF" d="M190.57 102.96s-.62 1.98-1.42 2.22c0 0 .8.06 1.05-.06.3-.18.8.3 1.42.3.62 0 1.6-.98 1.73-1.66 0 0 .5.56.62 1.24.12.68.37 1.66.37 2.1 0 .5-.37 3.2-.19 4.01.19.87.43 1.05.8 1.3 0 0-.18-.25.07-.8.24-.56.68-.38.74-1.49.12-1.1-.37-5-.62-6.05-.3-1.05-1.24-2.72-3.03-2.84-1.79-.12-2.59 1.05-2.96 1.67a14.5 14.5 0 0 0-.86 4.07c0 .87-.44 3.9-.87 4.82-.37.99-.56 1.8-.62 2.29-.18 1.3.62 1.72.44 3.58 0 0 1.23-2.84 1.35-4.14 0 0 0 .37.25 1.11.25.74-.12 1.6-.12 1.6s.55-.61.68-1.35c.12-.74.12-1.24.37-1.73.3-.5.86-1.17.8-1.85-.06-.68-.06-1.42-.86-2.29-.31-.43-.75-1.6-.8-2.78-.07-1.17.24-2.22.61-2.65.43-.5 1.05-.62 1.05-.62z"/><path id="qxcbG" d="M189.95 109.5s.06.07.13.25c.06.06.12.13.18.25s.12.18.19.3a3 3 0 0 1 .18.44c0 .06 0 .06.06.12v.07c0 .06 0 .06.07.12v.12c.06.19.06.37.06.56 0 .12 0 .18-.06.3 0 .13-.07.2-.07.32-.06.18-.18.37-.3.49-.13.12-.25.3-.38.43 0 .06-.06.06-.06.13 0 0 0 .06-.06.06 0 .06-.06.06-.06.12s-.06.06-.06.12c-.06.13-.13.31-.13.44-.06.12-.06.24-.06.37v.43-.06-.37c0-.13 0-.25.06-.37 0-.13.07-.31.13-.44 0-.06.06-.06.06-.12s.06-.06.06-.12c0 0 0-.06.06-.06 0-.07.06-.07.06-.13.13-.12.25-.3.31-.43.13-.12.19-.3.25-.5 0-.06.06-.18.06-.24v-.25c0-.18 0-.37-.06-.5 0-.05 0-.05-.06-.12 0-.06 0-.06-.06-.12v-.06c0-.06 0-.06-.07-.12l-.18-.37a2.15 2.15 0 0 0-.37-.56c-.12-.12-.12-.19-.12-.19z"/><path id="qxcbH" d="M190.14 112.28V113.83c0 .12 0 .18-.06.3 0 .13-.07.2-.07.32 0 .06 0 .06-.06.12 0 .06 0 .06-.06.12 0 .06 0 .06-.06.13 0 .06 0 .06-.06.12 0 .06-.06.12-.06.19 0 .06-.07.12-.07.12 0 .06-.06.06-.06.06v0s0-.06.06-.12c0-.06.07-.06.07-.13 0-.06.06-.12.06-.18s0-.06.06-.13c0-.06 0-.06.06-.12v-.12-.13c0-.12 0-.18.06-.3v-.31-.13-.24-.13c0-.18-.06-.37-.06-.5v-.18-.37z"/><path id="qxcbI" d="M198.23 111.11s0 .06 0 0c0 .06 0 .06 0 0v.06h.06a3 3 0 0 0-.19.44c0 .06-.06.12-.06.18v.25l-.06.5h.19l-.07.55h.31s.06 0 .06-.06l.07-.07.06-.06s0-.06.06-.06v-.43.18s0 .06.06.06c.06.07.13.19.13.25h.18v-.06-.06-.13-.3-.13.13l.06.06h.13c-.07 0-.13-.06-.19-.06h-.06v.12c0 .06.06.12.06.18v.07l.06.06h0l-.06-.06v-.07c-.06-.06-.06-.12-.06-.18v-.12h.25l-.07-.07-.06-.06v-.06-.06V112.9h-.06-.06-.06-.06-.07c-.06-.06-.06-.18-.12-.25 0 0 0-.06-.06-.06 0 0 0-.06-.06-.06v-.06h.06v.37s0 .06-.06.06c0 0 0 .06-.07.06 0 0 0 .07-.06.07l-.06.06s-.06 0-.06.06h-.31l.06-.56-.06.07h-.06l-.06-.07.06-.5v-.24c0-.06.06-.12.06-.18a3 3 0 0 0 .19-.44h-.07c.13-.06.13-.06.13-.12 0 .06 0 .06 0 0 0 .06 0 0 0 0z"/><path id="qxcbJ" d="M199.15 112.96v-.12l-.06-.12-.12-.25v-.06-.13c0-.06.06-.12.06-.18s.06-.12.06-.19c0-.06.06-.12.06-.18v-.06-.07l.07-.06h.12c.06 0 .12 0 .12.06 0 0 .06 0 .06.07l.07.06.24.18c.07 0 .07.07.13.07l.06.06s.06 0 .06.06c.19-.06.19-.06.12-.06-.06 0-.12-.06-.12-.06a.47.47 0 0 0-.25-.13l-.12-.06c-.06 0-.06-.06-.12-.06h-.13s-.06 0-.06.06a.88.88 0 0 0-.12.37c0 .06-.06.12-.06.19v.18l.06.12v.31h-.13z"/><path id="qxcbK" d="M198.47 112.53c0-.12.07-.18.07-.3 0-.07 0-.13.06-.2 0-.05 0-.12.06-.12v-.12l.06-.12c.06-.13.06-.19.13-.31v-.06-.07l.06-.06h.37s.06 0 .06.06c0 0 .06 0 .06.07 0 0 .06 0 .06.06.06 0 .13.06.13.06.12.06.18.12.3.19h-.12s-.06 0-.06-.07c-.06 0-.12-.06-.19-.06-.12-.06-.18-.12-.3-.18 0 0-.07 0-.07-.07h-.24-.13-.06s-.06 0-.06.07v.12c-.06.12-.06.19-.12.3l-.07.13-.06.06v.07c0 .06-.06.12-.06.12 0 .06-.06.12-.06.12.25.13.18.25.18.31z"/><path id="qxcbL" d="M198.47 111.23l.07-.06c0-.06.06-.12.06-.18s.06-.06.06-.13c0-.06.06-.06.06-.12 0 0 0-.06.06-.06l.07-.06h.18s.06 0 .06.06c0 0 .06 0 .06.06.07 0 .13.06.13.06l.24.19c.07 0 .07.06.07.06l.06.06.06.06-.06-.06-.06-.06s-.07-.06-.13-.06a.47.47 0 0 0-.24-.13c-.07 0-.07-.06-.13-.06 0 0-.06 0-.06-.06 0 0-.06 0-.06-.06-.06 0-.12-.06-.12 0-.07 0-.07.06-.07.12s-.06.13-.06.13c0 .06-.06.06-.06.12-.06.06-.06.12-.12.18h-.07z"/><path id="qxcbM" d="M198.41 115.74v2.29c0 .18 0 .37-.06.5 0 .18-.06.36-.06.49 0 .06-.06.18-.06.24s0 .06-.06.13v1.6c0-.06 0-.18-.07-.25v-.37-.43c0-.12 0-.3.07-.5v-.05c0-.07 0-.07.06-.13 0-.06 0-.06.06-.12v-.12c.06-.19.06-.31.06-.5 0-.18.06-.37.06-.5 0-.18 0-.3.06-.49v-.49-.43-.37-.25c-.06-.19-.06-.25-.06-.25z"/><path id="qxcbN" d="M193.23 108.83a3.8 3.8 0 0 0-.19 2.47c.12.43.3.86.43 1.23.19.62.25 1.24.25 1.85.37-.74.37-1.66.37-2.53 0-.86.12-1.73.56-2.47"/><path id="qxcbO" d="M194.21 109.94v1.17c0 .06 0 .19.07.25 0 .06.06.18.06.25 0 .06.06.18.06.24s0 .06.06.13v.12c0 .06 0 .06.06.12 0 .06 0 .06.06.13 0 0 0 .06.07.06 0 0 0 .06.06.06 0 0 0 .06.06.06 0 0 0 .06.06.06.06.07.06.13.06.13s0-.07-.06-.13c0 0 0-.06-.06-.06 0 0 0-.06-.06-.06 0 0 0-.06-.06-.06 0 0 0-.06-.07-.06 0 0-.06-.07-.06-.13s-.06-.06-.06-.12v-.12c0-.07-.06-.07-.06-.13s-.06-.18-.06-.24c0-.07-.06-.19-.06-.25s-.07-.19-.07-.25 0-.18-.06-.25v-.24-.13-.12-.12-.19-.12h.06z"/><path id="qxcbP" d="M195.82 109.7c0 .05 0 .05 0 0v.3c0 .06 0 .12-.06.18 0 .07-.06.19-.06.25-.07.06-.07.19-.13.25-.06.18-.18.37-.24.55-.07.19-.19.38-.25.56 0 .06-.06.19 0 .25v.12c0 .06 0 .06.06.12 0 .07.06.13.12.19l.13.12c.06 0 .06.06.06.06h0s-.06 0-.06-.06c-.06 0-.06-.06-.13-.12-.06-.06-.06-.12-.12-.19 0-.06 0-.06-.06-.12v-.12-.25c0-.12.06-.18.06-.3.06-.13.06-.2.12-.32.07-.18.19-.37.25-.55.06-.06.06-.19.12-.25 0-.06.07-.19.07-.25v-.18-.25z"/><clipPath id="qxcbb"><use fill="#fff" xlink:href="#qxcba"/></clipPath></defs><g><g transform="translate(-171 -92)"><g><use fill="#fff" xlink:href="#qxcba"/><use fill="#fff" fill-opacity="0" stroke="#fff" stroke-miterlimit="50" stroke-width="2" clip-path="url(&quot;#qxcbb&quot;)" xlink:href="#qxcba"/></g><g><g><use fill="#8ad6f7" xlink:href="#qxcbc"/></g><g><g><use fill="#425a6b" xlink:href="#qxcbd"/></g><g><use fill="#425a6b" xlink:href="#qxcbe"/></g><g><use fill="#425a6b" xlink:href="#qxcbf"/></g><g><use fill="#425a6b" xlink:href="#qxcbg"/></g><g><use fill="#425a6b" xlink:href="#qxcbh"/></g><g><use fill="#425a6b" xlink:href="#qxcbi"/></g></g><g><use fill="#ffd15c" xlink:href="#qxcbj"/></g><g><use fill="#f05640" xlink:href="#qxcbk"/></g><g><use fill="#ffd15c" xlink:href="#qxcbl"/></g><g><use fill="#f26f5a" xlink:href="#qxcbm"/></g><g><use fill="#ffd15c" xlink:href="#qxcbn"/></g><g><g><use fill="#67c5b8" xlink:href="#qxcbo"/></g><g><use fill="#67c5b8" xlink:href="#qxcbp"/></g></g><g><use fill="#344a5e" xlink:href="#qxcbq"/></g><g><g><use fill="#48b9a5" xlink:href="#qxcbr"/></g><g><use fill="#48b9a5" xlink:href="#qxcbs"/></g></g><g><use fill="#67c5b8" xlink:href="#qxcbt"/></g><g><g><use fill="#ced6e0" xlink:href="#qxcbu"/></g><g><use fill="#ced6e0" xlink:href="#qxcbv"/></g></g><g><use fill="#e8eae8" xlink:href="#qxcbw"/></g><g><use fill="#f3f3f3" xlink:href="#qxcbx"/></g><g><use fill="#e8eae8" xlink:href="#qxcby"/></g><g><use fill="#ced6e0" xlink:href="#qxcbz"/></g><g><g><use fill="#f5b54c" xlink:href="#qxcbA"/></g><g><use fill="#f5b54c" xlink:href="#qxcbB"/></g><g><use fill="#f5b54c" xlink:href="#qxcbC"/></g><g><use fill="#f5b54c" xlink:href="#qxcbD"/></g></g><g><use fill="#f3f3f3" xlink:href="#qxcbE"/></g><g><g><use fill="#425a6b" xlink:href="#qxcbF"/></g><g><use fill="#425a6b" xlink:href="#qxcbG"/></g><g><use fill="#425a6b" xlink:href="#qxcbH"/></g></g><g><g><use fill="#f5b54c" xlink:href="#qxcbI"/></g><g><use fill="#f5b54c" xlink:href="#qxcbJ"/></g><g><use fill="#f5b54c" xlink:href="#qxcbK"/></g><g><use fill="#f5b54c" xlink:href="#qxcbL"/></g><g><use fill="#f5b54c" xlink:href="#qxcbM"/></g></g><g><g><use fill="#425a6b" xlink:href="#qxcbN"/></g><g><use fill="#425a6b" xlink:href="#qxcbO"/></g><g><use fill="#425a6b" xlink:href="#qxcbP"/></g></g></g></g></g></svg>