<svg xmlns="http://www.w3.org/2000/svg" xmlns:xlink="http://www.w3.org/1999/xlink" width="80" height="80" viewBox="0 0 80 80"><defs><path id="pvtoa" d="M1113.013 1544.022c-15.444 0-28.009-12.565-28.009-28.01 0-15.443 12.565-28.008 28.01-28.008 15.443 0 28.008 12.565 28.008 28.009s-12.565 28.009-28.009 28.009"/><path id="pvtob" d="M1113.013 1496.006a1.333 1.333 0 0 1-1.334-1.333v-2.668a1.333 1.333 0 1 1 2.668 0v2.668c0 .737-.598 1.333-1.334 1.333"/><path id="pvtoc" d="M1113.013 1541.354a1.333 1.333 0 0 1-1.334-1.333v-2.668a1.333 1.333 0 1 1 2.668 0v2.668c0 .737-.598 1.333-1.334 1.333"/><path id="pvtod" d="M1137.02 1517.347h-2.667a1.333 1.333 0 1 1 0-2.668h2.668a1.333 1.333 0 1 1 0 2.668"/><path id="pvtoe" d="M1091.673 1517.347h-2.668a1.333 1.333 0 1 1 0-2.668h2.668a1.333 1.333 0 1 1 0 2.668"/><path id="pvtof" d="M1113.013 1512.012a2.67 2.67 0 0 0-2.667 2.667 2.67 2.67 0 0 0 2.667 2.668 2.67 2.67 0 0 0 2.668-2.668 2.67 2.67 0 0 0-2.668-2.667m0 8.002a5.34 5.34 0 0 1-5.335-5.335 5.34 5.34 0 0 1 5.335-5.335 5.34 5.34 0 0 1 5.335 5.335 5.34 5.34 0 0 1-5.335 5.335"/><path id="pvtog" d="M1113.013 1512.012a1.333 1.333 0 0 1-1.334-1.334v-8.003a1.333 1.333 0 1 1 2.668 0v8.003c0 .737-.598 1.334-1.334 1.334"/><path id="pvtoh" d="M1098.342 1530.684a1.332 1.332 0 0 1-.943-2.277l11.842-11.842a1.332 1.332 0 0 1 1.886 0 1.332 1.332 0 0 1 0 1.886l-11.842 11.843c-.26.26-.602.39-.943.39"/><path id="pvtoi" d="M1074.334 1517.346a1.333 1.333 0 0 1-1.334-1.334c0-22.062 17.95-40.012 40.013-40.012 9.308 0 18.197 3.2 25.341 9.068v-7.734a1.333 1.333 0 1 1 2.668 0V1489.337h-1.074a1.34 1.34 0 0 1-.518 0h-10.411a1.333 1.333 0 1 1 0-2.667h7.073a37.13 37.13 0 0 0-23.079-8.002c-20.592 0-37.345 16.752-37.345 37.344 0 .738-.598 1.334-1.334 1.334zm77.278 1.494a1.339 1.339 0 0 1-1.28-1.387 1.34 1.34 0 0 1 1.386-1.28c.734.027 1.308.64 1.281 1.387a1.338 1.338 0 0 1-1.333 1.28zm-77.078 2.494a1.33 1.33 0 0 1-1.32-1.2 1.322 1.322 0 0 1 1.186-1.454 1.333 1.333 0 0 1 1.467 1.187 1.333 1.333 0 0 1-1.187 1.467zm76.584 1.468a1.327 1.327 0 0 1-1.133-1.507c.106-.72.787-1.24 1.508-1.135a1.334 1.334 0 1 1-.187 2.655c-.054 0-.12 0-.188-.013zm-77.264 1.427a1.319 1.319 0 0 1 1.027-1.575c.72-.16 1.427.307 1.573 1.028.16.72-.307 1.426-1.027 1.574-.092.026-.186.026-.28.026a1.312 1.312 0 0 1-1.293-1.053zm76.358 2.48a1.357 1.357 0 0 1-.974-1.626 1.356 1.356 0 0 1 1.627-.974 1.34 1.34 0 0 1 .96 1.628 1.339 1.339 0 0 1-1.294 1.014 1.445 1.445 0 0 1-.32-.041zm-75.305 1.521a1.334 1.334 0 0 1 .868-1.682 1.32 1.32 0 0 1 1.667.868 1.34 1.34 0 0 1-.854 1.68c-.134.041-.28.055-.414.055-.56 0-1.08-.36-1.267-.921zm73.997 2.255a1.325 1.325 0 0 1-.786-1.71 1.325 1.325 0 0 1 1.707-.798 1.323 1.323 0 0 1 .787 1.707c-.187.547-.707.88-1.254.88-.147 0-.307-.026-.454-.08zm-72.53 1.613a1.341 1.341 0 0 1 .68-1.76 1.343 1.343 0 0 1 1.762.68 1.34 1.34 0 0 1-.68 1.759 1.269 1.269 0 0 1-.534.121c-.52 0-1.001-.307-1.228-.8zm70.836 2.013a1.345 1.345 0 0 1-.613-1.788 1.336 1.336 0 0 1 1.787-.612c.667.32.934 1.119.614 1.786a1.339 1.339 0 0 1-1.788.614zm-68.968 1.682a1.318 1.318 0 0 1 .494-1.815 1.315 1.315 0 0 1 1.813.494h.014a1.333 1.333 0 0 1-1.161 1.988 1.33 1.33 0 0 1-1.16-.667zm66.915 1.747a1.338 1.338 0 0 1-.427-1.84 1.35 1.35 0 0 1 1.84-.43c.627.388.814 1.217.427 1.842a1.32 1.32 0 0 1-1.134.628c-.24 0-.48-.067-.706-.2zm-64.688 1.732a1.342 1.342 0 0 1 .307-1.866c.6-.426 1.44-.28 1.868.307a1.342 1.342 0 0 1-1.081 2.12c-.427 0-.827-.2-1.094-.56zm62.286 1.469a1.335 1.335 0 0 1-.225-1.868 1.322 1.322 0 0 1 1.866-.239c.588.453.694 1.293.24 1.866a1.328 1.328 0 0 1-1.053.52c-.294 0-.574-.093-.828-.28zm-59.698 1.76a1.329 1.329 0 0 1 .107-1.88c.56-.48 1.4-.44 1.88.12.494.547.44 1.387-.106 1.88a1.328 1.328 0 0 1-.88.334c-.374 0-.747-.147-1.001-.455zm56.991 1.174a1.316 1.316 0 0 1-.04-1.88 1.328 1.328 0 0 1 1.88-.04c.534.506.548 1.347.041 1.88-.253.28-.614.413-.96.413a1.29 1.29 0 0 1-.92-.373zm-54.097 1.787a1.333 1.333 0 0 1-.08-1.893 1.34 1.34 0 0 1 1.88-.08v.011a1.33 1.33 0 0 1 .08 1.882 1.367 1.367 0 0 1-.986.427c-.32 0-.641-.12-.894-.347zm51.097.866a1.332 1.332 0 1 1 2.026-1.732 1.331 1.331 0 0 1-1.013 2.2 1.34 1.34 0 0 1-1.013-.468zm-47.91 1.775c-.6-.441-.719-1.28-.28-1.867.441-.6 1.28-.72 1.868-.28.586.44.707 1.28.28 1.867-.267.36-.667.534-1.08.534-.28 0-.56-.081-.787-.254zm44.655.547c-.426-.6-.267-1.44.333-1.854a1.33 1.33 0 0 1 1.854.347c.427.6.267 1.44-.333 1.853-.24.16-.494.226-.76.226-.427 0-.84-.198-1.094-.572zm-41.227 1.747a1.326 1.326 0 0 1-.453-1.827 1.328 1.328 0 0 1 1.827-.467c.627.387.841 1.2.454 1.828a1.326 1.326 0 0 1-1.148.653c-.226 0-.466-.053-.68-.187zm37.746.227c-.36-.64-.12-1.455.534-1.8.64-.36 1.453-.12 1.8.533.36.639.12 1.454-.533 1.8-.2.12-.414.172-.627.172-.48 0-.934-.252-1.174-.705zm-34.091 1.706c-.667-.306-.947-1.107-.64-1.774a1.32 1.32 0 0 1 1.774-.639 1.32 1.32 0 0 1 .64 1.76 1.326 1.326 0 0 1-1.214.773c-.187 0-.373-.039-.56-.12zm30.423-.093c-.28-.68.04-1.466.72-1.746.68-.28 1.454.04 1.747.72.28.68-.04 1.452-.72 1.747a1.434 1.434 0 0 1-.52.093c-.52 0-1.013-.306-1.227-.814zm-26.582 1.641c-.694-.24-1.067-1-.827-1.694.24-.706 1-1.068 1.694-.827.694.227 1.067.988.827 1.694a1.328 1.328 0 0 1-1.254.893c-.147 0-.293-.025-.44-.066zm22.767-.427a1.317 1.317 0 0 1 .894-1.654 1.341 1.341 0 0 1 1.667.881 1.337 1.337 0 0 1-.893 1.667c-.134.04-.267.053-.387.053a1.34 1.34 0 0 1-1.28-.947zm-18.792 1.561a1.344 1.344 0 0 1-1-1.6 1.34 1.34 0 0 1 1.6-1c.72.16 1.174.88 1 1.6a1.326 1.326 0 0 1-1.293 1.027c-.107 0-.2 0-.307-.027zm14.871-.747a1.344 1.344 0 0 1 1.068-1.56 1.334 1.334 0 0 1 1.56 1.067 1.348 1.348 0 0 1-1.067 1.559c-.08.014-.16.014-.24.014-.627 0-1.2-.44-1.32-1.08zm-10.79 1.467v-.013a1.316 1.316 0 0 1-1.16-1.48 1.322 1.322 0 0 1 1.48-1.16 1.323 1.323 0 0 1 1.16 1.479 1.327 1.327 0 0 1-1.32 1.174zm8.15.16c-.694 0-1.281-.533-1.334-1.228a1.331 1.331 0 0 1 1.214-1.44 1.343 1.343 0 0 1 1.44 1.227 1.311 1.311 0 0 1-1.214 1.428v.012zm-4.029.12a1.33 1.33 0 0 1-1.307-1.36 1.338 1.338 0 0 1 1.361-1.308c.734.014 1.32.628 1.307 1.361a1.323 1.323 0 0 1-1.334 1.307z"/></defs><g><g transform="translate(-1073 -1476)"><g><use fill="#507dbc" xlink:href="#pvtoa"/></g><g><use fill="#fff" xlink:href="#pvtob"/></g><g><use fill="#fff" xlink:href="#pvtoc"/></g><g><use fill="#fff" xlink:href="#pvtod"/></g><g><use fill="#fff" xlink:href="#pvtoe"/></g><g><use fill="#fff" xlink:href="#pvtof"/></g><g><use fill="#fff" xlink:href="#pvtog"/></g><g><use fill="#fff" xlink:href="#pvtoh"/></g><g><use fill="#11273b" xlink:href="#pvtoi"/></g></g></g></svg>