<svg xmlns="http://www.w3.org/2000/svg" xmlns:xlink="http://www.w3.org/1999/xlink" width="40" height="40" viewBox="0 0 40 40"><defs><path id="lzvha" d="M170 1733c0-10 10-20 20-20s20 10 20 20-10 20-20 20-20-10-20-20z"/><path id="lzvhc" d="M189.6 1732.11a2.36 2.36 0 0 1-2.32-2.39c0-1.32 1.05-2.4 2.33-2.4a2.36 2.36 0 0 1 2.33 2.4c0 1.32-1.05 2.4-2.33 2.4zm0-6.6a4.2 4.2 0 0 0-4.14 4.21 4.2 4.2 0 0 0 4.15 4.22 4.2 4.2 0 0 0 4.15-4.22 4.2 4.2 0 0 0-4.15-4.22zm0 16.92c-.7-.79-1.81-2.09-2.92-3.66-2.35-3.34-3.6-6.32-3.6-8.64 0-6.54 5-7.04 6.53-7.04 6.05 0 6.52 5.38 6.52 7.04 0 4.59-4.67 10.24-6.52 12.3zm5.86-19.36a8.74 8.74 0 0 0-5.85-2.07c-2.28 0-4.36.74-5.86 2.07-1.8 1.6-2.75 4.04-2.75 7.06 0 6.55 7.55 14.24 7.87 14.56a1.04 1.04 0 0 0 1.48 0c.32-.32 7.87-8 7.87-14.56 0-3.02-.95-5.45-2.76-7.06z"/><path id="lzvhd" d="M176.5 1746.5l27-27"/><clipPath id="lzvhb"><use fill="#fff" xlink:href="#lzvha"/></clipPath></defs><g><g transform="translate(-170 -1713)"><g><use fill="#fff" fill-opacity="0" stroke="#e85151" stroke-miterlimit="50" stroke-width="4" clip-path="url(&quot;#lzvhb&quot;)" xlink:href="#lzvha"/></g><g><use fill="#a177ff" xlink:href="#lzvhc"/></g><g><use fill="#fff" fill-opacity="0" stroke="#e85151" stroke-miterlimit="50" stroke-width="2" xlink:href="#lzvhd"/></g></g></g></svg>