<svg xmlns="http://www.w3.org/2000/svg" xmlns:xlink="http://www.w3.org/1999/xlink" width="41" height="50" viewBox="0 0 41 50"><defs><path id="mxuca" d="M602.37 1445.51c-9.12 2.45-17.14 2.1-17.9-.75-.77-2.86 6-7.17 15.13-9.61 9.12-2.45 17.14-2.1 17.9.76.77 2.86-6 7.16-15.13 9.6z"/><path id="mxucb" d="M591.33 1447.9c-.37 0-.73 0-1.07-.02-3.8-.16-6.05-1.17-6.52-2.93a.75.75 0 0 1 1.46-.39c.26 1 2.22 1.69 5.12 1.81 3.3.14 7.52-.42 11.86-1.59 4.34-1.16 8.27-2.78 11.07-4.55 2.44-1.56 3.8-3.14 3.53-4.13a.75.75 0 0 1 1.46-.4c.47 1.76-.98 3.77-4.19 5.8-2.92 1.86-7 3.54-11.48 4.74a44.98 44.98 0 0 1-11.24 1.66z"/><path id="mxucc" d="M590.47 1440.16v7.54a7.9 7.9 0 0 0 7.66 7.89v-15.67z"/><path id="mxucd" d="M598.13 1439.92v15.67h6.16a7.9 7.9 0 0 0 7.9-7.9v-8.22z"/><path id="mxuce" d="M596.55 1451.56a1.5 1.5 0 0 0-1.3.75s-.67 1.1-1.8 1.85c-1.37.91-2.8.95-4.38.12a1.5 1.5 0 0 0-1.4 2.68 6.96 6.96 0 0 0 7.56-.36 9.43 9.43 0 0 0 1.75-1.58h.6v-3.46z"/><path id="mxucf" d="M615.19 1454.92a1.5 1.5 0 0 0-2.04-.64c-1.58.83-3.01.8-4.38-.12a6.66 6.66 0 0 1-1.8-1.85 1.5 1.5 0 0 0-1.3-.74h-8.09v3.45h7.66c.43.5 1.01 1.07 1.75 1.58a6.96 6.96 0 0 0 7.56.36 1.5 1.5 0 0 0 .64-2.04z"/><path id="mxucg" d="M601.05 1467.52v8.73h3.02v-11.5z"/><path id="mxuch" d="M601.05 1476.25v-8.73l-3.01-3.02v11.75z"/><path id="mxuci" d="M598.7 1474.23a2.3 2.3 0 0 0-2.17 2.32c0 .25.2.45.45.45h3.62c.25 0 .45-.2.45-.45v-.05c0-1.28-1.05-2.31-2.34-2.27z"/><path id="mxucj" d="M603.23 1474.23a2.3 2.3 0 0 0-2.18 2.32c0 .25.2.45.45.45h3.63c.25 0 .45-.2.45-.45v-.05c0-1.28-1.06-2.31-2.35-2.27z"/><path id="mxuck" d="M596.92 1456.02v-4.57h1.5v4.57z"/><path id="mxucl" d="M603.54 1456.02v-4.57h1.5v4.57z"/><path id="mxucm" d="M603.84 1454.01h-.04c-.47.01-1.3.35-1.66.6-.66.42-1.51.42-2.17 0a3.76 3.76 0 0 0-1.56-.6h-.04a2.1 2.1 0 0 0-2.1 2.1v2.35l-2.52 9.6a1.5 1.5 0 0 0 1.46 1.9h11.68a1.5 1.5 0 0 0 1.46-1.9l-2.52-9.6v-2.45c0-1.1-.89-2-2-2z"/><path id="mxucn" d="M608.35 1468.07l-2.52-9.6V1456c0-1.1-.89-2-2-2h-.03c-.26 0-.64.12-.99.26v4.2c0 .25.04.51.1.76l2.03 7.71h-10.9l-.29 1.13a1.5 1.5 0 0 0 1.46 1.89h11.68a1.5 1.5 0 0 0 1.46-1.9z"/><path id="mxuco" d="M606.03 1459.22l-.2-.76v-.75h-9.56v.75l-.2.76z"/><path id="mxucp" d="M605.83 1457.7h-3.02v.76c0 .26.04.51.1.76h3.12l-.2-.76v-.75z"/><path id="mxucq" d="M605.84 1434.07c-1.4-1-3.04-1.61-4.78-1.61-4.76 0-8.7 4.52-9.44 9.23a2.26 2.26 0 0 0-3.14 2.08 2.26 2.26 0 0 0 3.38 1.97c.27.95.7 1.83 1.24 2.64.26.4 1.78 1.58 3.94 2.03l5.15 1.08 4.63-4.53a8.41 8.41 0 0 0-.98-12.9z"/><path id="mxucr" d="M602.51 1452.47a9.52 9.52 0 0 0 7.82-7.03l.04-.15a2.01 2.01 0 1 0 .14-3.6l-.04-.23c-.5-2.98-2.16-5.7-4.63-7.4a10.89 10.89 0 0 1 2.12 6.47 9.5 9.5 0 0 1-9.56 9.43 9.61 9.61 0 0 1-5.3-1.58 9.57 9.57 0 0 0 9.41 4.09z"/><path id="mxucs" d="M596.83 1443.87a.75.75 0 1 1 1.5 0 .75.75 0 0 1-1.5 0z"/><path id="mxuct" d="M603.59 1443.87a.75.75 0 1 1 1.5 0 .75.75 0 0 1-1.5 0z"/><path id="mxucu" d="M601.59 1443.99a.75.75 0 0 1-1.07 0 .75.75 0 0 0-1.07 1.07 2.25 2.25 0 0 0 3.2 0 .75.75 0 0 0-1.06-1.07z"/><path id="mxucv" d="M589.99 1443.78a.75.75 0 1 1 1.5 0 .75.75 0 0 1-1.5 0z"/><path id="mxucw" d="M610.58 1443.52a.75.75 0 1 1 1.5 0 .75.75 0 0 1-1.5 0z"/><path id="mxucx" d="M612.05 1438.69a14.35 14.35 0 0 0-3.27-5.12 47.49 47.49 0 0 0-10.65 2v.88a17.22 17.22 0 0 0 12.38 5.24l.11-.06a2.3 2.3 0 0 0 1.43-2.94z"/><path id="mxucy" d="M591.04 1438.29c-.19.46-.36.93-.5 1.44-.24.8.2 1.61.98 1.9l.1.06a6.67 6.67 0 0 0 6.5-5.24v-.89a46.25 46.25 0 0 0-7.08 2.73z"/><path id="mxucz" d="M600.17 1427a8.84 8.84 0 0 0-6.73 3.29 12.81 12.81 0 0 0-2.93 7.99l-.01.28a46.85 46.85 0 0 1 9.1-3.41 46.94 46.94 0 0 1 9.53-1.6l-.75-1.43c-1.8-3.2-5-5.12-8.2-5.12z"/><path id="mxucA" d="M608.38 1432.12c-1.8-3.2-5-5.12-8.2-5.12-.64 0-1.26.07-1.87.21a9.96 9.96 0 0 1 6.34 4.9l.84 1.81c1.28-.18 2.5-.3 3.64-.37z"/><path id="mxucB" d="M608.38 1432.12a10.58 10.58 0 0 0-2.32-2.84c-1.04.13-2.1.29-3.2.5l2.6 4.15c1.28-.2 2.52-.32 3.67-.38z"/><path id="mxucC" d="M602.87 1429.77a57.18 57.18 0 0 0-11.17 3.26 13.49 13.49 0 0 0-1.2 5.25v.28a50.74 50.74 0 0 1 14.95-4.63l-.8-1.81c-.5-.89-1.1-1.67-1.78-2.35z"/><path id="mxucD" d="M618.24 1435.7c-.47-1.75-2.73-2.76-6.52-2.92-3.46-.14-7.83.44-12.32 1.64-4.48 1.2-8.56 2.88-11.48 4.74-3.2 2.03-4.65 4.04-4.18 5.8a.75.75 0 0 0 1.46-.4c-.27-1 1.08-2.58 3.53-4.13 2.8-1.77 6.72-3.4 11.06-4.55 4.34-1.17 8.56-1.73 11.86-1.6 2.9.13 4.86.82 5.13 1.82a.75.75 0 0 0 1.46-.4z"/><path id="mxucE" d="M590.62 1469.4h-8.87c-.45 0-.8-.4-.74-.85l.82-7.04a.75.75 0 0 1 .75-.67h7.21c.38 0 .7.29.75.67l.83 7.04c.05.45-.3.84-.75.84z"/><path id="mxucF" d="M591.37 1468.55l-.83-7.04a.75.75 0 0 0-.75-.67h-2.37l.66 5.54h-6.82l-.25 2.17c-.06.45.3.84.74.84h8.87c.45 0 .8-.39.75-.84z"/><path id="mxucG" d="M588.2 1463.56a.75.75 0 0 1-.75-.75v-5.49a1.26 1.26 0 0 0-2.52 0v5.49a.75.75 0 1 1-1.5 0v-5.49a2.77 2.77 0 0 1 5.52 0v5.49c0 .42-.33.75-.75.75z"/><path id="mxucH" d="M620.46 1469.4h-8.86c-.46 0-.8-.4-.75-.85l.83-7.04a.75.75 0 0 1 .74-.67h7.21c.39 0 .7.29.75.67l.83 7.04c.05.45-.3.84-.75.84z"/><path id="mxucI" d="M621.21 1468.55l-.83-7.04a.75.75 0 0 0-.75-.67h-2.36l.65 5.54h-6.82l-.25 2.17c-.06.45.3.84.75.84h8.86c.45 0 .8-.39.75-.84z"/><path id="mxucJ" d="M618.04 1463.56a.75.75 0 0 1-.75-.75v-5.49a1.26 1.26 0 0 0-2.52 0v5.49a.75.75 0 1 1-1.5 0v-5.49a2.77 2.77 0 0 1 5.53 0v5.49c0 .42-.34.75-.76.75z"/></defs><g><g transform="translate(-581 -1427)"><g><use fill="#ff983b" xlink:href="#mxuca"/></g><g><use fill="#ffb545" xlink:href="#mxucb"/></g><g><use fill="#b66652" xlink:href="#mxucc"/></g><g><use fill="#81493b" xlink:href="#mxucd"/></g><g><use fill="#ffc98c" xlink:href="#mxuce"/></g><g><g><use fill="#f7a16e" xlink:href="#mxucf"/></g><g><use fill="#f7a16e" xlink:href="#mxucg"/></g></g><g><use fill="#ffc98c" xlink:href="#mxuch"/></g><g><use fill="#ff7c8b" xlink:href="#mxuci"/></g><g><use fill="#ec4b62" xlink:href="#mxucj"/></g><g><use fill="#ffcf5d" xlink:href="#mxuck"/></g><g><use fill="#ffb545" xlink:href="#mxucl"/></g><g><use fill="#ffcf5d" xlink:href="#mxucm"/></g><g><use fill="#ffb545" xlink:href="#mxucn"/></g><g><use fill="#ff7c8b" xlink:href="#mxuco"/></g><g><use fill="#ec4b62" xlink:href="#mxucp"/></g><g><use fill="#ffc98c" xlink:href="#mxucq"/></g><g><use fill="#f7a16e" xlink:href="#mxucr"/></g><g><g><use fill="#35404a" xlink:href="#mxucs"/></g><g><use fill="#35404a" xlink:href="#mxuct"/></g><g><use fill="#35404a" xlink:href="#mxucu"/></g></g><g><use fill="#f7a16e" xlink:href="#mxucv"/></g><g><use fill="#ce795f" xlink:href="#mxucw"/></g><g><use fill="#81493b" xlink:href="#mxucx"/></g><g><use fill="#b66652" xlink:href="#mxucy"/></g><g><use fill="#ffcf5d" xlink:href="#mxucz"/></g><g><use fill="#ffb545" xlink:href="#mxucA"/></g><g><use fill="#ff5368" xlink:href="#mxucB"/></g><g><use fill="#ff7c8b" xlink:href="#mxucC"/></g><g><use fill="#ffb545" xlink:href="#mxucD"/></g><g><use fill="#ff7c8b" xlink:href="#mxucE"/></g><g><use fill="#ec4b62" xlink:href="#mxucF"/></g><g><use fill="#d3cdbf" xlink:href="#mxucG"/></g><g><use fill="#ffb545" xlink:href="#mxucH"/></g><g><use fill="#ff983b" xlink:href="#mxucI"/></g><g><use fill="#d3cdbf" xlink:href="#mxucJ"/></g></g></g></svg>