<svg xmlns="http://www.w3.org/2000/svg" viewBox="0 0 606 323.117">
  <defs>
    <style>
      .cls-1, .cls-3, .cls-36, .cls-43 {
        fill: #fff;
      }

      .cls-1 {
        stroke: rgba(146,156,165,0.2);
      }

      .cls-1, .cls-20, .cls-21, .cls-24, .cls-36, .cls-44, .cls-45 {
        stroke-linecap: round;
      }

      .cls-1, .cls-20, .cls-3, .cls-44 {
        stroke-width: 3px;
      }

      .cls-1, .cls-20, .cls-21, .cls-36 {
        stroke-dasharray: 5 5;
      }

      .cls-2, .cls-22 {
        fill: #11273b;
      }

      .cls-2 {
        font-size: 12px;
      }

      .cls-2, .cls-22, .cls-46 {
        font-family: Montserrat-SemiBold, Montserrat;
        font-weight: 600;
      }

      .cls-20, .cls-3, .cls-44 {
        stroke: #e85151;
      }

      .cls-4 {
        fill: #40596b;
      }

      .cls-5 {
        fill: #334a5e;
      }

      .cls-6 {
        fill: #ffd15c;
      }

      .cls-7 {
        fill: #f2f2f2;
      }

      .cls-8 {
        fill: #f8b64c;
      }

      .cls-9 {
        fill: #e8eaea;
      }

      .cls-10 {
        fill: #ff7058;
      }

      .cls-11 {
        fill: #87ced9;
      }

      .cls-12 {
        fill: #5eb3d1;
      }

      .cls-13 {
        fill: #4ea3c2;
      }

      .cls-14 {
        fill: #dadddf;
      }

      .cls-15 {
        fill: #71c4d1;
      }

      .cls-16 {
        fill: #bc8d5b;
      }

      .cls-17 {
        fill: #daae86;
      }

      .cls-18 {
        fill: #d8b18b;
      }

      .cls-19 {
        fill: #f4d5bd;
      }

      .cls-20, .cls-21, .cls-24, .cls-44, .cls-45, .cls-48 {
        fill: none;
      }

      .cls-21, .cls-24, .cls-36, .cls-45 {
        stroke: #e9c46a;
        stroke-width: 2px;
      }

      .cls-22, .cls-46 {
        font-size: 10px;
      }

      .cls-23, .cls-46 {
        fill: #929ca5;
      }

      .cls-24 {
        stroke-dasharray: 4 4;
      }

      .cls-25 {
        fill: #8ad6f7;
      }

      .cls-26 {
        fill: #425a6b;
      }

      .cls-27 {
        fill: #f05640;
      }

      .cls-28 {
        fill: #f26f5a;
      }

      .cls-29 {
        fill: #67c5b8;
      }

      .cls-30 {
        fill: #344a5e;
      }

      .cls-31 {
        fill: #48b9a5;
      }

      .cls-32 {
        fill: #ced6e0;
      }

      .cls-33 {
        fill: #e8eae8;
      }

      .cls-34 {
        fill: #f3f3f3;
      }

      .cls-35 {
        fill: #f5b54c;
      }

      .cls-37 {
        fill: #e8eae9;
      }

      .cls-38 {
        fill: #adb3ba;
      }

      .cls-39 {
        fill: #f3705a;
      }

      .cls-40 {
        fill: #3e4347;
      }

      .cls-41 {
        fill: #a67a58;
      }

      .cls-42 {
        fill: #5a5f63;
      }

      .cls-47 {
        stroke: none;
      }
    </style>
  </defs>
  <g id="step_2" transform="translate(-148 -1113.883)">
    <g id="Ellipse_262" data-name="Ellipse 262" class="cls-1" transform="translate(148 1250)">
      <circle class="cls-47" cx="39.5" cy="39.5" r="39.5"/>
      <circle class="cls-48" cx="39.5" cy="39.5" r="38"/>
    </g>
    <g id="Ellipse_298" data-name="Ellipse 298" class="cls-1" transform="translate(281 1113.883)">
      <ellipse class="cls-47" cx="75.058" cy="75.058" rx="75.058" ry="75.058"/>
      <ellipse class="cls-48" cx="75.058" cy="75.058" rx="73.558" ry="73.558"/>
    </g>
    <text id="Purchase_from_1000_Indian_Online_Stores" data-name="Purchase from 1000+
Indian Online Stores" class="cls-2" transform="translate(370 1147)"><tspan x="21.444" y="12">Purchase from 1000+</tspan><tspan x="24.162" y="27">Indian Online Stores</tspan></text>
    <g id="map" transform="translate(89 29)">
      <g id="Ellipse_263" data-name="Ellipse 263" class="cls-3" transform="translate(486 1168)">
        <circle class="cls-47" cx="83" cy="83" r="83"/>
        <circle class="cls-48" cx="83" cy="83" r="81.5"/>
      </g>
      <g id="_079-warehouse-1" data-name="079-warehouse-1" transform="translate(516.498 1194)">
        <rect id="Rectangle_1123" data-name="Rectangle 1123" class="cls-4" width="75.997" height="61.632" transform="translate(16.353 47.364)"/>
        <rect id="Rectangle_1124" data-name="Rectangle 1124" class="cls-5" width="75.997" height="4.226" transform="translate(16.353 47.364)"/>
        <rect id="Rectangle_1125" data-name="Rectangle 1125" class="cls-6" width="27.341" height="23.785" transform="translate(23.847 85.218)"/>
        <path id="Path_1041" data-name="Path 1041" class="cls-7" d="M156.219,409.665v-9.374h8.5v9.363l-4.249-3.572Z" transform="translate(-122.959 -315.071)"/>
        <rect id="Rectangle_1126" data-name="Rectangle 1126" class="cls-6" width="27.341" height="23.785" transform="translate(57.754 85.218)"/>
        <path id="Path_1042" data-name="Path 1042" class="cls-7" d="M315.473,409.665v-9.374h8.5v9.363l-4.249-3.572Z" transform="translate(-248.309 -315.071)"/>
        <rect id="Rectangle_1127" data-name="Rectangle 1127" class="cls-8" width="27.341" height="23.785" transform="translate(40.8 61.428)"/>
        <g id="Group_267" data-name="Group 267" transform="translate(7.704 32.897)">
          <path id="Path_1043" data-name="Path 1043" class="cls-7" d="M235.835,297.942v-9.374h8.5v9.363l-4.251-3.572Z" transform="translate(-193.329 -260.03)"/>
          <path id="Path_1044" data-name="Path 1044" class="cls-7" d="M129.7,154.52v76.106H120.37V169.669H45.508v60.957H36.177V154.52Z" transform="translate(-36.177 -154.52)"/>
        </g>
        <rect id="Rectangle_1128" data-name="Rectangle 1128" class="cls-9" width="93.537" height="5.934" transform="translate(7.704 32.897)"/>
        <path id="Path_1045" data-name="Path 1045" class="cls-10" d="M1.752,27.681,52.955.387a3.291,3.291,0,0,1,3.1,0l51.206,27.294a3.291,3.291,0,0,1-1.551,6.2H3.3a3.29,3.29,0,0,1-1.546-6.2" transform="translate(0)"/>
      </g>
      <g id="locker" transform="translate(568.852 1233.394)">
        <path id="Path_628" data-name="Path 628" class="cls-11" d="M.148,0H70.54V70.391H.148Zm0,0"/>
        <path id="Path_629" data-name="Path 629" class="cls-12" d="M70.54,33.892H48.38V0H45.773V33.892H24.916V0H22.308V33.892H.148V36.5h22.16V70.391h2.607V36.5H45.773V70.391H48.38V36.5H70.54Zm0,0"/>
        <path id="Path_630" data-name="Path 630" class="cls-12" d="M.148,557.688H5.362V562.9H.148Zm0,0" transform="translate(0 -487.297)"/>
        <path id="Path_631" data-name="Path 631" class="cls-12" d="M144.734,557.688h5.214V562.9h-5.214Zm0,0" transform="translate(-126.336 -487.297)"/>
        <path id="Path_632" data-name="Path 632" class="cls-13" d="M186.043,557.688h5.214V562.9h-5.214Zm0,0" transform="translate(-162.431 -487.297)"/>
        <path id="Path_633" data-name="Path 633" class="cls-13" d="M330.629,557.688h5.214V562.9h-5.214Zm0,0" transform="translate(-288.767 -487.297)"/>
        <path id="Path_634" data-name="Path 634" class="cls-12" d="M371.941,557.688h5.214V562.9h-5.214Zm0,0" transform="translate(-324.865 -487.297)"/>
        <path id="Path_635" data-name="Path 635" class="cls-12" d="M516.527,557.688h5.214V562.9h-5.214Zm0,0" transform="translate(-451.201 -487.297)"/>
        <path id="Path_636" data-name="Path 636" class="cls-12" d="M237.684,41.309h10.428v2.607H237.684Zm0,0" transform="translate(-207.554 -36.095)"/>
        <path id="Path_637" data-name="Path 637" class="cls-12" d="M237.684,82.621h10.428v2.607H237.684Zm0,0" transform="translate(-207.554 -72.193)"/>
        <path id="Path_638" data-name="Path 638" class="cls-12" d="M51.785,41.309H62.214v2.607H51.785Zm0,0" transform="translate(-45.119 -36.095)"/>
        <path id="Path_639" data-name="Path 639" class="cls-12" d="M51.785,82.621H62.214v2.607H51.785Zm0,0" transform="translate(-45.119 -72.193)"/>
        <path id="Path_640" data-name="Path 640" class="cls-12" d="M423.578,41.309h10.428v2.607H423.578Zm0,0" transform="translate(-369.984 -36.095)"/>
        <path id="Path_641" data-name="Path 641" class="cls-12" d="M423.578,82.621h10.428v2.607H423.578Zm0,0" transform="translate(-369.984 -72.193)"/>
        <path id="Path_642" data-name="Path 642" class="cls-12" d="M237.684,320.156h10.428v2.607H237.684Zm0,0" transform="translate(-207.554 -279.746)"/>
        <path id="Path_643" data-name="Path 643" class="cls-12" d="M237.684,361.465h10.428v2.607H237.684Zm0,0" transform="translate(-207.554 -315.841)"/>
        <path id="Path_644" data-name="Path 644" class="cls-12" d="M51.785,320.156H62.214v2.607H51.785Zm0,0" transform="translate(-45.119 -279.746)"/>
        <path id="Path_645" data-name="Path 645" class="cls-12" d="M51.785,361.465H62.214v2.607H51.785Zm0,0" transform="translate(-45.119 -315.841)"/>
        <path id="Path_646" data-name="Path 646" class="cls-12" d="M423.578,320.156h10.428v2.607H423.578Zm0,0" transform="translate(-369.984 -279.746)"/>
        <path id="Path_647" data-name="Path 647" class="cls-12" d="M423.578,361.465h10.428v2.607H423.578Zm0,0" transform="translate(-369.984 -315.841)"/>
        <path id="Path_648" data-name="Path 648" class="cls-14" d="M217.027,165.242h2.607v7.821h-2.607Zm0,0" transform="translate(-189.504 -144.385)"/>
        <path id="Path_649" data-name="Path 649" class="cls-14" d="M217.027,123.93h2.607v2.607h-2.607Zm0,0" transform="translate(-189.504 -108.288)"/>
        <path id="Path_650" data-name="Path 650" class="cls-14" d="M31.129,165.242h2.607v7.821H31.129Zm0,0" transform="translate(-27.07 -144.385)"/>
        <path id="Path_651" data-name="Path 651" class="cls-14" d="M31.129,123.93h2.607v2.607H31.129Zm0,0" transform="translate(-27.07 -108.288)"/>
        <path id="Path_652" data-name="Path 652" class="cls-14" d="M402.922,165.242h2.607v7.821h-2.607Zm0,0" transform="translate(-351.935 -144.385)"/>
        <path id="Path_653" data-name="Path 653" class="cls-14" d="M402.922,123.93h2.607v2.607h-2.607Zm0,0" transform="translate(-351.935 -108.288)"/>
        <path id="Path_654" data-name="Path 654" class="cls-14" d="M217.027,444.086h2.607v7.821h-2.607Zm0,0" transform="translate(-189.504 -388.033)"/>
        <path id="Path_655" data-name="Path 655" class="cls-14" d="M217.027,402.773h2.607v2.607h-2.607Zm0,0" transform="translate(-189.504 -351.935)"/>
        <path id="Path_656" data-name="Path 656" class="cls-14" d="M31.129,444.086h2.607v7.821H31.129Zm0,0" transform="translate(-27.07 -388.033)"/>
        <path id="Path_657" data-name="Path 657" class="cls-14" d="M31.129,402.773h2.607v2.607H31.129Zm0,0" transform="translate(-27.07 -351.935)"/>
        <path id="Path_658" data-name="Path 658" class="cls-14" d="M402.922,444.086h2.607v7.821h-2.607Zm0,0" transform="translate(-351.935 -388.033)"/>
        <path id="Path_659" data-name="Path 659" class="cls-14" d="M402.922,402.773h2.607v2.607h-2.607Zm0,0" transform="translate(-351.935 -351.935)"/>
        <path id="Path_660" data-name="Path 660" class="cls-15" d="M51.785,165.242h2.607v7.821H51.785Zm0,0" transform="translate(-45.119 -144.385)"/>
        <path id="Path_661" data-name="Path 661" class="cls-15" d="M51.785,123.93h2.607v2.607H51.785Zm0,0" transform="translate(-45.119 -108.288)"/>
        <path id="Path_662" data-name="Path 662" class="cls-15" d="M237.684,165.242h2.607v7.821h-2.607Zm0,0" transform="translate(-207.554 -144.385)"/>
        <path id="Path_663" data-name="Path 663" class="cls-15" d="M237.684,123.93h2.607v2.607h-2.607Zm0,0" transform="translate(-207.554 -108.288)"/>
        <path id="Path_664" data-name="Path 664" class="cls-15" d="M423.578,165.242h2.607v7.821h-2.607Zm0,0" transform="translate(-369.984 -144.385)"/>
        <path id="Path_665" data-name="Path 665" class="cls-15" d="M423.578,123.93h2.607v2.607h-2.607Zm0,0" transform="translate(-369.984 -108.288)"/>
        <path id="Path_666" data-name="Path 666" class="cls-15" d="M51.785,444.086h2.607v7.821H51.785Zm0,0" transform="translate(-45.119 -388.033)"/>
        <path id="Path_667" data-name="Path 667" class="cls-15" d="M51.785,402.773h2.607v2.607H51.785Zm0,0" transform="translate(-45.119 -351.935)"/>
        <path id="Path_668" data-name="Path 668" class="cls-15" d="M237.684,444.086h2.607v7.821h-2.607Zm0,0" transform="translate(-207.554 -388.033)"/>
        <path id="Path_669" data-name="Path 669" class="cls-15" d="M237.684,402.773h2.607v2.607h-2.607Zm0,0" transform="translate(-207.554 -351.935)"/>
        <path id="Path_670" data-name="Path 670" class="cls-15" d="M423.578,444.086h2.607v7.821h-2.607Zm0,0" transform="translate(-369.984 -388.033)"/>
        <path id="Path_671" data-name="Path 671" class="cls-15" d="M423.578,402.773h2.607v2.607h-2.607Zm0,0" transform="translate(-369.984 -351.935)"/>
      </g>
      <g id="box_2_" data-name="box (2)" transform="translate(559.281 1278.505)">
        <path id="Path_618" data-name="Path 618" class="cls-16" d="M25.514,0H5.315L0,8.5V30.83H30.83V8.5Z"/>
        <path id="Path_619" data-name="Path 619" class="cls-17" d="M5.315,0,0,8.5H30.83L25.514,0Z"/>
        <path id="Path_620" data-name="Path 620" class="cls-18" d="M28.315,52.126,26.189,50l-2.126,2.126L23,51.063v3.189h6.379V51.063Z" transform="translate(-10.774 -23.423)"/>
        <rect id="Rectangle_1104" data-name="Rectangle 1104" class="cls-19" width="6.379" height="8.505" transform="translate(12.226)"/>
        <path id="Path_621" data-name="Path 621" class="cls-18" d="M24.063,18.658l2.126,2.126,2.126-2.126,1.063,1.063V16H23v3.721Z" transform="translate(-10.774 -7.495)"/>
      </g>
    </g>
    <g id="Group_274" data-name="Group 274">
      <line id="Line_145" data-name="Line 145" class="cls-20" x2="169" y2="32" transform="translate(406 1248.5)"/>
      <line id="Line_150" data-name="Line 150" class="cls-21" y1="30.306" x2="76.559" transform="translate(217 1233.194)"/>
      <line id="Line_154" data-name="Line 154" class="cls-21" x2="135" y2="56" transform="translate(221 1307.5)"/>
      <line id="Line_151" data-name="Line 151" class="cls-21" y1="48" x2="139" transform="translate(446 1331.5)"/>
      <text id="Add_your_Virtual_Locker_Address_as_delivery_Address_Cash_on_delivery_available" data-name="Add your Virtual Locker Address as delivery Address
* Cash on delivery available" class="cls-22" transform="translate(363 1272)"><tspan x="18.15" y="10">Add your Virtual Locker </tspan><tspan x="7.025" y="23">Address as delivery Address</tspan><tspan class="cls-23"><tspan x="8.945" y="36">* Cash on delivery available</tspan></tspan></text>
      <text id="Your_Locker_at_ShoppRe_s_Warehouse" data-name="Your Locker at
ShoppRe&apos;s Warehouse" class="cls-2" transform="translate(564 1390)"><tspan x="50.594" y="12">Your Locker at</tspan><tspan x="25.634" y="27">ShoppRe&apos;s Warehouse</tspan></text>
      <line id="Line_147" data-name="Line 147" class="cls-24" y1="36" transform="translate(658.5 1343.5)"/>
      <g id="shopping" transform="translate(300.473 1133.19)">
        <path id="Path_927" data-name="Path 927" class="cls-25" d="M444.878,209.235l-4.093,4.093a.655.655,0,0,1-.862,0l-6.679-6.678a.655.655,0,0,1,0-.862l4.093-4.093a.655.655,0,0,1,.862,0l6.678,6.678A.655.655,0,0,1,444.878,209.235Z" transform="translate(-348.148 -160.829)"/>
        <g id="Group_247" data-name="Group 247" transform="translate(56.013 26.862)">
          <rect id="Rectangle_1107" data-name="Rectangle 1107" class="cls-26" width="1.508" height="10.772" transform="translate(40.212 22.048) rotate(135)"/>
          <rect id="Rectangle_1108" data-name="Rectangle 1108" class="cls-26" width="0.646" height="1.939" transform="translate(32.18 19.741) rotate(135.012)"/>
          <rect id="Rectangle_1109" data-name="Rectangle 1109" class="cls-26" width="0.646" height="1.939" transform="translate(34.097 21.735) rotate(135)"/>
          <rect id="Rectangle_1110" data-name="Rectangle 1110" class="cls-26" width="0.646" height="1.939" transform="translate(36.166 23.88) rotate(135)"/>
          <path id="Path_928" data-name="Path 928" class="cls-26" d="M361.157,141.617,363.1,133l2.585,1.508.646,25.206-7.109-5.17Z" transform="translate(-345.215 -133)"/>
          <ellipse id="Ellipse_285" data-name="Ellipse 285" class="cls-26" cx="8.402" cy="5.817" rx="8.402" ry="5.817" transform="translate(0 14.434)"/>
        </g>
        <path id="Path_929" data-name="Path 929" class="cls-6" d="M303.313,116.411s1.077,8.833-3.447,15.08c0,0-.862,3.232,3.662,6.032l4.524,2.8L291.033,152.6l-8.617-2.585,1.508-13.357,2.37-1.508,1.723-.862a.911.911,0,0,0,.216-1.508,15.493,15.493,0,0,1-3.447-5.17l-.862-2.585s.216-7.971,1.508-11.2,3.016-5.386,6.894-5.386C296.419,108.225,302.667,113.4,303.313,116.411Z" transform="translate(-227.912 -86.534)"/>
        <path id="Path_930" data-name="Path 930" class="cls-27" d="M405.31,262.077,408.326,261s4.093,2.154,5.17,3.878c.862,1.723,3.447,12.064,3.447,12.064s-7.54.862-8.833,3.447l-.646-1.077L404.017,275Z" transform="translate(-324.953 -208.286)"/>
        <path id="Path_931" data-name="Path 931" class="cls-6" d="M429.25,246s.431-.431.431-.646a3.722,3.722,0,0,1,.431-1.508,5.206,5.206,0,0,1,1.723-1.939c.431-.215,1.508-.862,1.508-.862s.862-.431,1.293,0c.431.216.646,1.508.646,2.154a8.332,8.332,0,0,1,.216,1.939,4.739,4.739,0,0,1,1.293,1.077,1.536,1.536,0,0,1,.646,1.293,2.424,2.424,0,0,1,.862,1.077c.216.646-.216.862,0,1.077s.431.646,0,1.508a31.514,31.514,0,0,0-1.939,2.8c-.431.862-1.077,1.508-1.293,1.939a15.549,15.549,0,0,0,0,3.232c0,1.293,2.37,11.633,2.8,13.788a46.132,46.132,0,0,1,0,9.479c-.216,1.077-1.508,3.016-2.8,3.231a3.737,3.737,0,0,1-3.878-1.077,13.948,13.948,0,0,1-2.37-3.232c-1.077-1.723-4.524-12.5-5.6-16.8,1.508-1.939,4.093-2.8,7.325-3.016a35.451,35.451,0,0,0-.862-3.662,22.3,22.3,0,0,1-.646-2.585c-.431-1.077-1.293-2.154-1.077-3.231a38.885,38.885,0,0,1,1.077-4.093C429.035,246.213,429.25,246,429.25,246Z" transform="translate(-340.276 -192.207)"/>
        <path id="Path_932" data-name="Path 932" class="cls-28" d="M186.769,231.618a37.331,37.331,0,0,0,5.17,2.154c1.723.431,3.016-.431,5.17-.862l1.939-.431s-4.093,9.479-1.508,12.5c2.585,2.8,10.341.646,12.5-1.508a49.913,49.913,0,0,0,6.032-8.4,60.232,60.232,0,0,1,7.54,1.723s-2.585,12.064-.646,18.312a93.409,93.409,0,0,0-4.74,11.2,28.87,28.87,0,0,0-1.293,10.341c.431,2.154,3.016,10.772,3.016,10.772h-34.9s2.8-11.2,3.232-17.881c.215-6.678-.431-15.942-.431-17.45s.862-3.447.431-5.386-15.727-7.756-15.727-7.756S178.151,227.309,186.769,231.618Z" transform="translate(-140.235 -184.074)"/>
        <path id="Path_933" data-name="Path 933" class="cls-6" d="M118.169.363s.646-.646,1.077-.216a2.379,2.379,0,0,1,1.077,1.077.3.3,0,0,1,.431,0l.431,1.723a.934.934,0,0,1,.431.862c0,.646.431,3.016.431,3.016s-.216,2.154-.431,3.016c-.215.646-1.077,6.894-1.077,6.894l-5.17-.646s.431-3.447.431-3.878a9.206,9.206,0,0,0-1.293-2.585,10.544,10.544,0,0,1-2.154-4.093c-.431-1.724.431-1.508.862-1.723a2.457,2.457,0,0,0,.646-1.293c.215-.431.215-.431.862-.646.216-.431.646-.431.646-1.077.215-.646.646-.862,1.077-.646S117.523.794,118.169.363Z" transform="translate(-92.101 0)"/>
        <g id="Group_248" data-name="Group 248" transform="translate(17.45 3.164)">
          <path id="Path_934" data-name="Path 934" class="cls-29" d="M103.691,40.415h0C101.967,45.37,99.6,54.85,99.6,55.065l-.646-.215c.215-.431,2.585-9.91,4.524-14.649A.211.211,0,0,1,103.691,40.415Z" transform="translate(-98.951 -35.245)"/>
          <path id="Path_935" data-name="Path 935" class="cls-29" d="M165.352,35.27h-.646c0-.216-2.585-16.157-4.955-18.527V15.666a2.973,2.973,0,0,0,.862.646C162.767,18.9,165.352,34.624,165.352,35.27Z" transform="translate(-147.471 -15.666)"/>
        </g>
        <path id="Path_936" data-name="Path 936" class="cls-30" d="M30.684,319.5l6.679,3.663,36.624-3.016-6.463-5.817Z" transform="translate(-27.022 -250.848)"/>
        <g id="Group_249" data-name="Group 249" transform="translate(3.662 18.891)">
          <path id="Path_937" data-name="Path 937" class="cls-31" d="M69.893,140.5l-1.508.646-37.7,2.154,1.293-7.325,1.939-39.209,36.839-3.231Z" transform="translate(-30.684 -93.533)"/>
          <path id="Path_938" data-name="Path 938" class="cls-31" d="M222.7,146.672l3.662,3.231L225.28,101l-2.154.431-1.508,43.087Z" transform="translate(-183.055 -99.492)"/>
        </g>
        <path id="Path_939" data-name="Path 939" class="cls-29" d="M219.721,93.533l-2.37,47.611,5.6,2.8-4.093-6.894,1.293-43.518Z" transform="translate(-175.988 -74.642)"/>
        <g id="Group_250" data-name="Group 250" transform="translate(17.45 3.38)">
          <path id="Path_940" data-name="Path 940" class="cls-32" d="M103.259,39.133l.431.431c-1.939,3.662-4.093,8.617-4.093,8.617l-.646-.215C99.166,47.75,101.32,42.58,103.259,39.133Z" transform="translate(-98.95 -34.609)"/>
          <path id="Path_941" data-name="Path 941" class="cls-32" d="M162.132,32.029h-.646c-.216-3.447-.862-12.711-2.37-14.434a.752.752,0,0,0-.431-.215v-.646a1.682,1.682,0,0,1,.862.862C161.486,19.534,162.132,31.6,162.132,32.029Z" transform="translate(-146.62 -16.733)"/>
        </g>
        <path id="Path_942" data-name="Path 942" class="cls-33" d="M12.551,268.467l5.386,4.093,31.669,1.724-4.74-5.817Z" transform="translate(-12.551 -214.245)"/>
        <path id="Path_943" data-name="Path 943" class="cls-34" d="M46.589,114.209l-1.293.431-32.746-2.8,1.939-6.032L21.168,72.2l31.884,1.939Z" transform="translate(-12.551 -57.618)"/>
        <path id="Path_944" data-name="Path 944" class="cls-33" d="M180.664,128.26l2.585,3.016,5.17-42.009h-1.939l-6.463,36.839Z" transform="translate(-146.195 -71.238)"/>
        <path id="Path_945" data-name="Path 945" class="cls-32" d="M182.44,81.8l-7.756,40.5,4.309,3.016-2.585-6.463L182.871,81.8Z" transform="translate(-141.938 -65.279)"/>
        <g id="Group_251" data-name="Group 251" transform="translate(19.82 1.44)">
          <path id="Path_946" data-name="Path 946" class="cls-35" d="M110.684,12.292a5.71,5.71,0,0,1,1.077,1.293l.646.646.646.646a.752.752,0,0,0,.431.215h.215c.215.216.431.216.862.216h.215c.215,0,.215,0,.431-.216s.431-.431.431-.646h.431a.211.211,0,0,0,.215-.215h.647v-.216h0V13.8l.215.216a.752.752,0,0,0,.431.216c.215,0,.215,0,.431-.216h0a.211.211,0,0,1,.215-.216v-.862c0-.215-.215-.215-.215-.431a2.973,2.973,0,0,1-.646-.862c0-.216-.216-.216-.216-.431h0V9.06a.211.211,0,0,1,.216-.215V8.629h0l.215-.215a.211.211,0,0,0,.215-.215.211.211,0,0,0-.215.215l-.215.215h0v2.586h0c0,.215.215.215.215.431a2.974,2.974,0,0,1,.646.862c0,.216.215.216.215.431v1.077a.211.211,0,0,1-.215.215h0a.752.752,0,0,0-.431.216c-.215,0-.431,0-.431-.216h.215v.647h-.646c-.215.215-.215.215-.431.215h-.431c0,.216-.215.646-.431.646s-.215.216-.431.216h-.431a1.3,1.3,0,0,1-.862-.216c-.215,0-.215-.215-.431-.215s-.215-.216-.431-.216l-.646-.646-.646-.646A5.958,5.958,0,0,0,110.684,12.292Z" transform="translate(-110.684 -7.983)"/>
          <path id="Path_947" data-name="Path 947" class="cls-35" d="M140.14,12.949l-.215-.215c0-.215-.216-.431-.431-.646a.211.211,0,0,0-.215-.216h0v-.215a.752.752,0,0,0-.216-.431c0-.215-.215-.431-.215-.646a.791.791,0,0,0-.216-.646c0-.216-.215-.431-.215-.646V7.994c0-.215,0-.646.215-.646V8.425c0,.215,0,.431.216.431,0,.215.215.431.215.646s.216.431.216.646.215.431.215.646a.791.791,0,0,0,.215.646.752.752,0,0,0,.215.431h0a.211.211,0,0,0,.216.215c.215.216.215.431.431.646Z" transform="translate(-132.815 -7.132)"/>
          <path id="Path_948" data-name="Path 948" class="cls-35" d="M132.037,20.191h0c-.431-.216-.431-.431-.646-.431a.752.752,0,0,1-.216-.431c0-.215-.216-.215-.216-.431s-.215-.215-.215-.431-.216-.216-.216-.431-.216-.216-.216-.431V17.39h0c-.215-.215-.215-.215-.215-.431s-.215-.215-.215-.431v-.862h0v1.077c0,.215,0,.215.215.431,0,.215.215.215.215.431h0v.431c0,.216.216.216.216.431.216.216.216.646.431.862,0,.215.216.215.216.431s.215.215.215.431q0-.323.647,0Z" transform="translate(-126.005 -13.943)"/>
          <path id="Path_949" data-name="Path 949" class="cls-35" d="M123.515,24.662h0a1.66,1.66,0,0,1-.646-.431h-.215a.211.211,0,0,1-.216-.215c-.215,0-.215-.215-.431-.215s-.215-.215-.431-.215-.215-.216-.431-.431l-.215-.215c0-.216-.215-.216-.215-.431h0v-.646c-.431-.646-.431-.862-.431-.862a1.259,1.259,0,0,1,.215.862c0,.215,0,.215.215.431v.215h0c0,.215.216.215.216.431s.215.215.431.431l.431.431c.215,0,.215.215.431.215s.216.215.431.215a.211.211,0,0,1,.215.215c.215,0,.215.215.646.215Z" transform="translate(-118.345 -18.199)"/>
        </g>
        <path id="Path_950" data-name="Path 950" class="cls-34" d="M154.521,6.723h0L154.09,5C153.875,5.215,153.229,6.939,154.521,6.723Z" transform="translate(-125.222 -3.99)"/>
        <g id="Group_252" data-name="Group 252" transform="translate(49.668 18.213)">
          <path id="Path_951" data-name="Path 951" class="cls-26" d="M271.708,96.24s-2.154,6.894-4.955,7.756c0,0,2.8.216,3.662-.215,1.077-.646,2.8,1.077,4.955,1.077s5.6-3.447,6.032-5.817a10.148,10.148,0,0,1,2.154,4.309,66.6,66.6,0,0,1,1.293,7.325c0,1.723-1.293,11.2-.646,14,.646,3.016,1.508,3.662,2.8,4.524,0,0-.646-.862.215-2.8s2.37-1.293,2.585-5.17c.431-3.878-1.293-17.45-2.154-21.112-1.077-3.662-4.309-9.479-10.556-9.91s-9.048,3.662-10.341,5.817c-1.293,2.37-3.016,11.2-3.016,14.219s-1.508,13.572-3.016,16.8a37.427,37.427,0,0,0-2.154,7.971c-.646,4.524,2.154,6.032,1.508,12.5,0,0,4.309-9.91,4.74-14.434a13.935,13.935,0,0,0,.862,3.878,9.077,9.077,0,0,1-.431,5.6,10.8,10.8,0,0,0,2.37-4.74c.431-2.585.431-4.309,1.293-6.032,1.077-1.723,3.016-4.093,2.8-6.463s-.215-4.955-3.016-7.971a21.659,21.659,0,0,1-2.8-9.694c-.216-4.093.862-7.756,2.154-9.264A7.3,7.3,0,0,1,271.708,96.24Z" transform="translate(-258.469 -90.176)"/>
          <path id="Path_952" data-name="Path 952" class="cls-26" d="M308.243,233.267a2.356,2.356,0,0,1,.431.862,2.973,2.973,0,0,1,.646.862c.216.431.431.646.646,1.077a10.506,10.506,0,0,1,.646,1.508c0,.215,0,.215.215.431h0v.215c0,.216,0,.216.215.431v.431a5.962,5.962,0,0,1,.216,1.939,1.941,1.941,0,0,1-.216,1.077c0,.431-.215.646-.215,1.077a4.691,4.691,0,0,1-1.077,1.723c-.431.431-.862,1.077-1.293,1.508,0,.216-.215.216-.215.431h0a.211.211,0,0,1-.216.215c0,.215-.216.215-.216.431s-.216.216-.216.431a3.992,3.992,0,0,0-.431,1.508,2.732,2.732,0,0,0-.216,1.293v0a2.732,2.732,0,0,1,.216-1.293,4,4,0,0,1,.431-1.508c0-.215.216-.215.216-.431s.216-.215.216-.431a.211.211,0,0,1,.216-.215h0c0-.216.215-.216.215-.431a6.541,6.541,0,0,0,1.077-1.508,4.331,4.331,0,0,0,.862-1.723c0-.215.216-.646.216-.862v-.862a4.2,4.2,0,0,0-.216-1.723c0-.216,0-.216-.215-.431,0-.215,0-.215-.216-.431v-.215h0c0-.216,0-.216-.216-.431l-.646-1.293a7.515,7.515,0,0,0-1.293-1.939c-.431-.431-.431-.646-.431-.646Z" transform="translate(-297.158 -204.367)"/>
          <path id="Path_953" data-name="Path 953" class="cls-26" d="M308.888,280.415h0V285.8a1.941,1.941,0,0,1-.216,1.077c0,.431-.216.646-.216,1.077,0,.216,0,.216-.215.431,0,.216,0,.216-.216.431,0,.215,0,.215-.216.431,0,.215,0,.215-.215.431,0,.216-.216.431-.216.646a.752.752,0,0,1-.215.431.211.211,0,0,1-.216.215v0a.667.667,0,0,1,.216-.431c0-.216.215-.216.215-.431s.216-.431.216-.646,0-.215.215-.431c0-.215,0-.215.216-.431v-.862a1.941,1.941,0,0,1,.216-1.077v-2.8c0-.646-.216-1.293-.216-1.723V280.2Z" transform="translate(-297.157 -241.821)"/>
        </g>
        <g id="Group_253" data-name="Group 253" transform="translate(88.327 50.99)">
          <path id="Path_954" data-name="Path 954" class="cls-35" d="M451.175,261h0v.215h.215a10.507,10.507,0,0,0-.646,1.508c0,.216-.216.431-.216.646v.862h0l-.216,1.723h.646l-.215,1.939h1.078a.211.211,0,0,0,.215-.216l.216-.215.216-.216a.211.211,0,0,1,.215-.216v-1.508h0v.431h0v.216a.211.211,0,0,0,.216.215,1.633,1.633,0,0,1,.431.862h.647v-1.508h0v-.862h0v.431l.215.215h.431c-.216,0-.431-.215-.646-.215h-.215v.431c0,.216.215.431.215.646v.216l.216.216h0l-.216-.216v-.216a.791.791,0,0,1-.215-.646v-.431h.862l-.216-.216-.216-.216v-.431h0v.862h0v1.939h-1.077c-.215-.216-.215-.646-.431-.862a.211.211,0,0,0-.216-.215h0a.211.211,0,0,0-.216-.216v-.216h.216v1.293a2151.931,2151.931,0,0,0-.431.431.211.211,0,0,1-.215.216l-.216.215a.211.211,0,0,0-.216.216h-1.077l.215-1.939h0l-.215.215H450.1l-.216-.215h0l.216-1.723h0v-.863c0-.216.215-.431.215-.646a10.51,10.51,0,0,0,.646-1.508h-.216c.431-.215.431-.215.431-.431Z" transform="translate(-449.882 -259.276)"/>
          <path id="Path_955" data-name="Path 955" class="cls-35" d="M469.73,273.42v-.431l-.216-.431-.431-.862h0v-.646c0-.215.216-.431.216-.646s.216-.431.216-.646.215-.431.215-.646h0v-.431l.216-.215h.431c.216,0,.431,0,.431.215a.211.211,0,0,1,.216.216l.216.216.862.646c.216,0,.216.215.431.215l.216.216a.211.211,0,0,1,.216.216c.646-.216.646-.216.431-.216a.751.751,0,0,1-.431-.216,1.633,1.633,0,0,0-.862-.431l-.431-.215c-.216,0-.216-.216-.431-.216h-.431a.211.211,0,0,0-.216.216h0a3.061,3.061,0,0,0-.431,1.293c0,.215-.216.431-.216.646v.646h0l.216.431v1.077Z" transform="translate(-465.206 -265.234)"/>
          <path id="Path_956" data-name="Path 956" class="cls-35" d="M458,266.806c0-.431.216-.646.216-1.077a.791.791,0,0,1,.216-.646c0-.216,0-.431.216-.431v-.431l.216-.431c.216-.431.216-.646.431-1.077h0v-.431l.216-.216H460.8a1340456095781.594,1340456095781.594,0,0,0,.431.431.211.211,0,0,1,.215.216.751.751,0,0,1,.431.215c.431.216.646.431,1.077.646h-.431a.211.211,0,0,1-.216-.216c-.215,0-.431-.215-.646-.215-.431-.216-.646-.431-1.077-.646a.211.211,0,0,1-.216-.216h-1.508a.211.211,0,0,0-.216.216v.431h0c-.216.431-.216.646-.431,1.077l-.216.431-.215.216v.215a8504.447,8504.447,0,0,0-.431.862C458.212,266.159,458,266.59,458,266.806Z" transform="translate(-455.842 -260.127)"/>
          <path id="Path_957" data-name="Path 957" class="cls-35" d="M460.551,254.62l.215-.215c0-.215.216-.431.216-.646s.215-.215.215-.431.216-.215.216-.431a.211.211,0,0,1,.216-.216l.215-.215h.646a1434.6,1434.6,0,0,1,.431.431.751.751,0,0,1,.431.216c.216.216.646.431.862.646a.211.211,0,0,1,.215.215l.216.216.216.215-.216-.215-.216-.216a.752.752,0,0,0-.431-.215,1.632,1.632,0,0,0-.862-.431c-.216,0-.216-.216-.431-.216a.211.211,0,0,1-.216-.216.211.211,0,0,1-.216-.216c-.216,0-.431-.215-.431,0-.215,0-.215.216-.215.431a.752.752,0,0,1-.216.431c0,.215-.215.215-.215.431-.216.216-.216.431-.431.646Z" transform="translate(-458.396 -252.466)"/>
          <path id="Path_958" data-name="Path 958" class="cls-35" d="M455.227,341v7.971a4.2,4.2,0,0,1-.216,1.723c0,.646-.216,1.293-.216,1.723,0,.215-.215.646-.215.862s0,.215-.215.431h0v5.6a1.3,1.3,0,0,0-.216-.862v-2.8a5.35,5.35,0,0,1,.216-1.723v-.216h0c0-.215,0-.215.215-.431,0-.216,0-.216.215-.431v-.431a4.741,4.741,0,0,0,.216-1.723c0-.646.216-1.293.216-1.723a4.743,4.743,0,0,1,.215-1.723v-5.386A3.394,3.394,0,0,1,455.227,341Z" transform="translate(-453.287 -323.119)"/>
        </g>
        <g id="Group_254" data-name="Group 254" transform="translate(71.065 44.743)">
          <path id="Path_959" data-name="Path 959" class="cls-26" d="M365.519,221.533a13.235,13.235,0,0,0-.646,8.617c.431,1.508,1.077,3.016,1.508,4.309a22.237,22.237,0,0,1,.862,6.463c1.293-2.585,1.293-5.817,1.293-8.833a16.9,16.9,0,0,1,1.939-8.617" transform="translate(-364.414 -221.533)"/>
          <path id="Path_960" data-name="Path 960" class="cls-26" d="M386.1,240.732v4.093a1.3,1.3,0,0,0,.216.862c0,.215.215.646.215.862s.216.646.216.862,0,.216.215.431v.431c0,.216,0,.216.216.431,0,.216,0,.216.215.431a1435.078,1435.078,0,0,1,.431.431,4303.4,4303.4,0,0,0,.431.431.667.667,0,0,1,.216.431.667.667,0,0,0-.216-.431,4303.4,4303.4,0,0,1-.431-.431,1435.078,1435.078,0,0,0-.431-.431.753.753,0,0,1-.215-.431c0-.215-.216-.215-.216-.431v-.431c0-.216-.215-.216-.215-.431s-.216-.646-.216-.862-.215-.646-.215-.862-.216-.646-.216-.862a1.3,1.3,0,0,0-.215-.862v-3.231h.215Z" transform="translate(-381.548 -236.854)"/>
          <path id="Path_961" data-name="Path 961" class="cls-26" d="M404.09,236.467h0v1.077a.791.791,0,0,1-.216.646c0,.215-.216.646-.216.862-.216.215-.216.646-.431.862-.216.646-.646,1.293-.862,1.939s-.646,1.293-.862,1.939c0,.216-.216.646,0,.862v.431c0,.215,0,.216.216.431,0,.216.216.431.431.646l.431.431a.211.211,0,0,1,.216.216h0a.211.211,0,0,1-.216-.216c-.215,0-.215-.215-.431-.431s-.215-.431-.431-.646c0-.215,0-.215-.216-.431v-1.293c0-.431.216-.646.216-1.077.216-.431.216-.646.431-1.077.216-.646.646-1.293.862-1.939.216-.216.216-.646.431-.862,0-.215.216-.646.216-.862v-1.293h0v-.216Z" transform="translate(-393.937 -233.451)"/>
        </g>
      </g>
      <g id="Group_268" data-name="Group 268" transform="translate(-19 210)">
        <g id="Ellipse_299" data-name="Ellipse 299" class="cls-36" transform="translate(363 1125)">
          <circle class="cls-47" cx="51" cy="51" r="51"/>
          <circle class="cls-48" cx="51" cy="51" r="50"/>
        </g>
        <g id="_125-warehouse" data-name="125-warehouse" transform="translate(375.5 1141.192)">
          <path id="Path_1035" data-name="Path 1035" class="cls-37" d="M71.494,54.917l-19.748,9.5V98.792h39.5V64.415Z" transform="translate(-46.743 -46.666)"/>
          <rect id="Rectangle_1117" data-name="Rectangle 1117" class="cls-38" width="28.081" height="4.779" transform="translate(10.709 23.447)"/>
          <rect id="Rectangle_1118" data-name="Rectangle 1118" class="cls-32" width="28.081" height="4.781" transform="translate(10.709 28.227)"/>
          <rect id="Rectangle_1119" data-name="Rectangle 1119" class="cls-38" width="28.081" height="4.78" transform="translate(10.709 33.002)"/>
          <rect id="Rectangle_1120" data-name="Rectangle 1120" class="cls-32" width="28.081" height="4.78" transform="translate(10.709 37.787)"/>
          <rect id="Rectangle_1121" data-name="Rectangle 1121" class="cls-38" width="28.081" height="4.781" transform="translate(10.709 42.566)"/>
          <rect id="Rectangle_1122" data-name="Rectangle 1122" class="cls-32" width="28.081" height="4.78" transform="translate(10.709 47.347)"/>
          <path id="Path_1036" data-name="Path 1036" class="cls-39" d="M47.8,14.266,26.1,3.571a3.052,3.052,0,0,0-2.7,0L1.7,14.266a3.054,3.054,0,1,0,2.7,5.478L24.752,9.713,45.1,19.744a3.054,3.054,0,0,0,2.7-5.478" transform="translate(0 0)"/>
        </g>
        <g id="_001-suitcase-4" data-name="001-suitcase-4" transform="translate(386.5 1120.333)">
          <g id="Group_265" data-name="Group 265" transform="translate(22 42.029)">
            <rect id="Rectangle_1113" data-name="Rectangle 1113" class="cls-40" width="1.953" height="7.771" transform="translate(16.547 0)"/>
            <rect id="Rectangle_1114" data-name="Rectangle 1114" class="cls-40" width="1.953" height="7.771" transform="translate(0 0)"/>
          </g>
          <path id="Path_1031" data-name="Path 1031" class="cls-41" d="M58.594,163.339H3.906A3.905,3.905,0,0,1,0,159.433V124.054a3.906,3.906,0,0,1,3.906-3.906H58.594a3.906,3.906,0,0,1,3.906,3.906v35.379A3.906,3.906,0,0,1,58.594,163.339Z" transform="translate(0 -72.096)"/>
          <path id="Path_1032" data-name="Path 1032" class="cls-42" d="M182.021,43.841a1.911,1.911,0,0,1-.836-.189c-4.791-2.266-12.891-2.266-17.682,0a1.953,1.953,0,1,1-1.672-3.529c5.9-2.793,15.131-2.793,21.027,0a1.953,1.953,0,0,1-.838,3.719Z" transform="translate(-141.095)"/>
          <rect id="Rectangle_1115" data-name="Rectangle 1115" class="cls-40" width="4.9" height="43.184" transform="translate(11.283 48.052)"/>
          <path id="Path_1033" data-name="Path 1033" class="cls-43" d="M85.651,330.868h-6.4a.977.977,0,0,0-.977.977v6.736a.977.977,0,0,0,.977.977h6.4a.977.977,0,0,0,.977-.977v-6.736A.977.977,0,0,0,85.651,330.868Zm-.75,7.127H80v-5.566H81.79v1.248h1.322v-1.248H84.9Z" transform="translate(-68.717 -257.093)"/>
          <rect id="Rectangle_1116" data-name="Rectangle 1116" class="cls-40" width="4.9" height="43.184" transform="translate(46.316 48.052)"/>
          <path id="Path_1034" data-name="Path 1034" class="cls-43" d="M372.659,330.868h-6.4a.977.977,0,0,0-.977.977v6.736a.977.977,0,0,0,.977.977h6.4a.977.977,0,0,0,.977-.977v-6.736A.977.977,0,0,0,372.659,330.868Zm-.752,7.127h-4.9v-5.566H368.8v1.248h1.322v-1.248h1.789Z" transform="translate(-320.69 -257.093)"/>
        </g>
      </g>
      <text id="Extra_Luggage_at_your_home" data-name="Extra Luggage at
your home" class="cls-22" transform="translate(299.5 1394)"><tspan x="-44.25" y="0">Extra Luggage at</tspan><tspan x="-28" y="13">your home</tspan></text>
      <path id="Path_1037" data-name="Path 1037" class="cls-44" d="M566.415,1272.486l8.037,8.037-8.037,8.036" transform="translate(327.731 -99.963) rotate(14)"/>
      <path id="Path_1038" data-name="Path 1038" class="cls-45" d="M566.415,1272.486l4.912,4.912-4.912,4.912" transform="matrix(0.777, -0.629, 0.629, 0.777, -657.217, 694.541)"/>
      <path id="Path_1039" data-name="Path 1039" class="cls-45" d="M566.415,1272.486l4.912,4.912-4.912,4.912" transform="matrix(0.927, -0.375, 0.375, 0.927, -713.689, 262.292)"/>
      <text id="You" class="cls-46" transform="translate(187.5 1293)"><tspan x="-9.635" y="0">You</tspan></text>
    </g>
  </g>
</svg>
