<svg xmlns="http://www.w3.org/2000/svg" xmlns:xlink="http://www.w3.org/1999/xlink" width="40" height="40" viewBox="0 0 40 40"><defs><path id="s5w0a" d="M170 1663c0-10 10-20 20-20s20 10 20 20-10 20-20 20-20-10-20-20z"/><path id="s5w0c" d="M186.71 1667.08c-4.94-4.92-6.28-10.44-5.82-11.38l2.77-2.4h.01l2.76 3.46-1.4.93a1.77 1.77 0 0 0-.73 1.37c-.04.52-.12 2.08 4.13 6.31 1.04 1.05 4.24 4.23 6.33 4.12a1.78 1.78 0 0 0 1.37-.73l.94-1.4 3.48 2.75-2.42 2.77c-.94.45-6.48-.88-11.42-5.8zm12.92 7.32l.05-.05 2.5-2.86c.37-.39.55-.94.5-1.53a2.24 2.24 0 0 0-.72-1.45l-3.56-2.8a2.03 2.03 0 0 0-2.8.04c-.05.05-.1.1-.13.17l-.96 1.43c-.5-.11-1.95-.86-4.58-3.48-2.62-2.62-3.38-4.06-3.5-4.56l1.45-.96.16-.13a2 2 0 0 0 .05-2.8l-2.81-3.53a1.18 1.18 0 0 0-.08-.1c-.82-.8-2.14-.85-2.92-.12l-2.87 2.49a1.2 1.2 0 0 0-.05.05c-.5.49-.67 1.23-.67 2.03 0 1.46.58 3.15.93 4.02.66 1.7 2.28 5.03 5.58 8.32a25.25 25.25 0 0 0 8.35 5.57c1.37.53 4.7 1.63 6.08.25z"/><path id="s5w0d" d="M176.5 1676.5l27-27"/><clipPath id="s5w0b"><use fill="#fff" xlink:href="#s5w0a"/></clipPath></defs><g><g transform="translate(-170 -1643)"><g><use fill="#fff" fill-opacity="0" stroke="#e85151" stroke-miterlimit="50" stroke-width="4" clip-path="url(&quot;#s5w0b&quot;)" xlink:href="#s5w0a"/></g><g><use fill="#507dbc" xlink:href="#s5w0c"/></g><g><use fill="#fff" fill-opacity="0" stroke="#e85151" stroke-miterlimit="50" stroke-width="2" xlink:href="#s5w0d"/></g></g></g></svg>