<svg xmlns="http://www.w3.org/2000/svg" xmlns:xlink="http://www.w3.org/1999/xlink" width="56" height="126" viewBox="0 0 56 126"><defs><path id="edeaa" d="M141.24 213.87c0-1.35 1.35-2.7 2.7-2.7 1.36 0 2.71 1.35 2.71 2.7v73.42c0 1.36-1.35 2.71-2.7 2.71a2.91 2.91 0 0 1-2.7-2.7z"/><path id="edeab" d="M159.28 180.37h-30.66l12.62 33.72h30.66v-21.1c0-6.97-5.65-12.62-12.62-12.62z"/><path id="edeac" d="M128.62 180.37A12.62 12.62 0 0 0 116 192.99v21.1h25.24v-21.1c0-6.97-5.65-12.62-12.62-12.62z"/><path id="edead" d="M157.63 164.31h-9.88l-1.1 8.47h10.98c.73 0 1.31-.59 1.31-1.31v-5.84c0-.73-.58-1.32-1.31-1.32z"/><path id="edeae" d="M145.56 164.31v39.23a1.1 1.1 0 1 0 2.19 0V164.3z"/><path id="edeaf" d="M128.62 192.12c-.6 0-1.1-.49-1.1-1.1v-3.35a1.1 1.1 0 1 1 2.2 0v3.36c0 .6-.5 1.1-1.1 1.1z"/></defs><g><g transform="translate(-116 -164)"><g><use fill="#f99d88" xlink:href="#edeaa"/></g><g><use fill="#ffd24d" xlink:href="#edeab"/></g><g><use fill="#fee191" xlink:href="#edeac"/></g><g><use fill="#f14742" xlink:href="#edead"/></g><g><use fill="#cd3f39" xlink:href="#edeae"/></g><g><use fill="#fff" xlink:href="#edeaf"/></g></g></g></svg>