<svg xmlns="http://www.w3.org/2000/svg" xmlns:xlink="http://www.w3.org/1999/xlink" width="60" height="60" viewBox="0 0 60 60"><defs><path id="d6tka" d="M710.5 2016.375h-55a2.507 2.507 0 0 0-2.5 2.5v37.25c0 1.375 1.125 2.5 2.5 2.5h55c1.375 0 2.5-1.125 2.5-2.5v-37.25c0-1.375-1.125-2.5-2.5-2.5z"/><path id="d6tkb" d="M656.75 2054.75v-34.625h52.5v34.625z"/><path id="d6tkc" d="M671.5 2065.375v-6.75h22.875v6.75z"/><path id="d6tkd" d="M664.625 2067v-1.625h36.75V2067z"/><path id="d6tke" d="M671.5 2060.5v-1.875h22.875v1.875z"/><path id="d6tkf" d="M704.75 2021v31.75c0 1.125-.875 2-2 2h-39.625c-1.125 0-2-.875-2-2V2021z"/><path id="d6tkg" d="M702.25 2007h-38.5a2.507 2.507 0 0 0-2.5 2.5v6.5h43.625v-6.5c-.125-1.375-1.25-2.5-2.625-2.5z"/><path id="d6tkh" d="M691.875 2039.75l2.375 8.5 2.125-2.125 2 2.125 1.875-1.875-2-2.125 2-2.125z"/><path id="d6tki" d="M676.125 2011.5a1.5 1.5 0 1 1 3 0 1.5 1.5 0 0 1-3 0z"/><path id="d6tkj" d="M670.375 2011.5a1.5 1.5 0 1 1 3 0 1.5 1.5 0 0 1-3 0z"/><path id="d6tkk" d="M664.625 2011.5a1.5 1.5 0 1 1 3 0 1.5 1.5 0 0 1-3 0z"/><path id="d6tkl" d="M704.75 2022v5.875c-.75.625-1.75.875-2.75.875a4.748 4.748 0 0 1-4.75-4.75 4.748 4.748 0 0 1-4.75 4.75 4.748 4.748 0 0 1-4.75-4.75 4.748 4.748 0 0 1-4.75 4.75 4.748 4.748 0 0 1-4.75-4.75 4.748 4.748 0 0 1-4.75 4.75 4.748 4.748 0 0 1-4.75-4.75 4.748 4.748 0 0 1-4.75 4.75c-1 0-2-.375-2.75-.875V2022h43.5z"/><path id="d6tkm" d="M668.75 2021h-9.5l2-5h8.625z"/><path id="d6tkn" d="M678.25 2021h-9.5l1.125-5h8.75z"/><path id="d6tko" d="M687.75 2021h-9.5l.375-5h8.75z"/><path id="d6tkp" d="M697.25 2021h-9.5l-.375-5h8.75z"/><path id="d6tkq" d="M706.75 2021h-9.5l-1.125-5h8.625z"/><path id="d6tkr" d="M668.75 2023.125a4.748 4.748 0 0 0 4.75 4.75 4.748 4.748 0 0 0 4.75-4.75V2021h-9.5z"/><path id="d6tks" d="M687.75 2021v2.125a4.748 4.748 0 0 0 4.75 4.75 4.748 4.748 0 0 0 4.75-4.75V2021z"/><path id="d6tkt" d="M659.25 2023.125a4.748 4.748 0 0 0 4.75 4.75 4.748 4.748 0 0 0 4.75-4.75V2021h-9.5z"/><path id="d6tku" d="M678.25 2023.125a4.748 4.748 0 0 0 4.75 4.75 4.748 4.748 0 0 0 4.75-4.75V2021h-9.5z"/><path id="d6tkv" d="M697.25 2021v2.125a4.748 4.748 0 0 0 4.75 4.75 4.748 4.748 0 0 0 4.75-4.75V2021z"/><path id="d6tkw" d="M666 2037v-4h34v4z"/><path id="d6tkx" d="M666 2044v-4h21v4z"/><path id="d6tky" d="M666 2051v-4h21v4z"/></defs><g><g transform="translate(-653 -2007)"><g><use fill="#40596b" xlink:href="#d6tka"/></g><g><use fill="#fff" xlink:href="#d6tkb"/></g><g><use fill="#cdd6e0" xlink:href="#d6tkc"/></g><g><use fill="#f2f2f2" xlink:href="#d6tkd"/></g><g><use fill="#acb3ba" xlink:href="#d6tke"/></g><g><use fill="#f2f2f2" xlink:href="#d6tkf"/></g><g><use fill="#ffd15c" xlink:href="#d6tkg"/></g><g><use fill="#40596b" xlink:href="#d6tkh"/></g><g><use fill="#f8b64c" xlink:href="#d6tki"/></g><g><use fill="#ff7058" xlink:href="#d6tkj"/></g><g><use fill="#f8b64c" xlink:href="#d6tkk"/></g><g><use fill="#e4eaef" xlink:href="#d6tkl"/></g><g><use fill="#ff7058" xlink:href="#d6tkm"/></g><g><use fill="#cdd6e0" xlink:href="#d6tkn"/></g><g><use fill="#ff7058" xlink:href="#d6tko"/></g><g><use fill="#cdd6e0" xlink:href="#d6tkp"/></g><g><use fill="#ff7058" xlink:href="#d6tkq"/></g><g><g><use fill="#acb3ba" xlink:href="#d6tkr"/></g><g><use fill="#acb3ba" xlink:href="#d6tks"/></g></g><g><g><use fill="#f1543f" xlink:href="#d6tkt"/></g><g><use fill="#f1543f" xlink:href="#d6tku"/></g><g><use fill="#f1543f" xlink:href="#d6tkv"/></g></g><g opacity=".3"><use fill="#929ca5" xlink:href="#d6tkw"/></g><g opacity=".3"><use fill="#929ca5" xlink:href="#d6tkx"/></g><g opacity=".3"><use fill="#929ca5" xlink:href="#d6tky"/></g></g></g></svg>