<svg xmlns="http://www.w3.org/2000/svg" xmlns:xlink="http://www.w3.org/1999/xlink" width="36" height="36" viewBox="0 0 36 36"><defs><path id="8ii6a" d="M1040 110a18 18 0 1 1 36 0 18 18 0 0 1-36 0z"/><path id="8ii6c" d="M1042.98 100.06l-.47.76s-2.52 4.25-2.52 7.84c0 3.58 3.01 6.16 3.01 6.16l2.17 1.37 6.6-10.39z"/><path id="8ii6d" d="M1073.55 100.87l-.29-.4-8.48 5.33 6.6 10.4 2.17-1.38s2.31-2.03 2.4-5.73a14.9 14.9 0 0 0-1.04-5.3c-.55-1.52-1.36-2.92-1.36-2.92z"/><path id="8ii6e" d="M1067.88 118.31a4.08 4.08 0 0 0 1.08-5.71l-1.57-2.46c-1.28-1.98-3.8-2.62-5.67-1.43l-5.62 3.54a4.08 4.08 0 0 0-1.08 5.72l1.58 2.46c1.28 1.97 3.8 2.61 5.66 1.43z"/><path id="8ii6f" d="M1067.19 118.76a1.5 1.5 0 0 0 .44-2.07 1.5 1.5 0 0 0-2.07-.45l-10.34 6.56a1.5 1.5 0 0 0-.45 2.07 1.5 1.5 0 0 0 2.07.44z"/><path id="8ii6g" d="M1055.07 117.97l1.58 2.46c1.28 1.97 3.79 2.61 5.66 1.43l5.62-3.55a4.08 4.08 0 0 0 1.08-5.71l-1.57-2.46"/><path id="8ii6h" d="M1060.79 116.34a1.5 1.5 0 0 0 .44-2.07 1.5 1.5 0 0 0-2.07-.44l-10.35 6.6a1.5 1.5 0 0 0-.44 2.07 1.5 1.5 0 0 0 2.07.44z"/><path id="8ii6i" d="M1062.95 118.31a1.5 1.5 0 0 0 .45-2.07 1.5 1.5 0 0 0-2.07-.44l-10.35 6.6a1.5 1.5 0 0 0-.44 2.07 1.5 1.5 0 0 0 2.07.45z"/><path id="8ii6j" d="M1060.74 112.94a1.5 1.5 0 0 0 .44-2.07 1.5 1.5 0 0 0-2.07-.44l-10.35 6.6a1.5 1.5 0 0 0-.44 2.07 1.5 1.5 0 0 0 2.07.45z"/><path id="8ii6k" d="M1062.8 108.21s-5.8.84-6.3.99c-.44.15-1.82 3.5-.25 3.9 1.63.39 4.19-1.68 4.19-1.68z"/><path id="8ii6l" d="M1069.94 116.32l-5.71-8.98 1.53-.98 5.71 8.99z"/><path id="8ii6m" d="M1065.76 106.4l-1.53.98 5.72 8.96"/><path id="8ii6n" d="M1073.26 100.48l-8.48 5.32 6.6 10.4"/><path id="8ii6o" d="M1067.73 120.38l-.93-.59a1.5 1.5 0 0 0 .99-2.76l-6.9-4.38c.49-1.04-.5-3.25-.84-3.4-.45-.15-5.77-.89-6.26-.99-1.68-.49-3.6.25-4.63 1.88l-1.58 2.46a4.08 4.08 0 0 0 1.09 5.71l.44.3c.05.05.15.15.25.2l10.34 6.6a1.5 1.5 0 0 0 2.07-.45c.25-.39.3-.83.15-1.23l1.97 1.28a1.5 1.5 0 0 0 2.07-.44c.34-.5.3-1.13 0-1.58l.1.05a1.5 1.5 0 0 0 2.07-.44c.54-.84.34-1.77-.4-2.22z"/><path id="8ii6p" d="M1060.2 124.82c-.3-.2-.4-.55-.2-.84l.2-.35c.2-.3.54-.39.83-.2.3.2.4.55.2.84l-.2.35c-.15.3-.54.4-.84.2z"/><path id="8ii6q" d="M1066.6 122.4c-.3-.2-.4-.54-.2-.84l.2-.34c.2-.3.54-.4.84-.2.3.2.39.54.2.84l-.2.35c-.15.3-.55.39-.84.2z"/><path id="8ii6r" d="M1064.43 124.37c-.3-.2-.4-.54-.2-.83l.2-.35c.2-.3.54-.4.84-.2.3.2.4.55.2.84l-.2.35c-.2.3-.54.39-.84.2z"/><path id="8ii6s" d="M1066.65 119.05c-.3-.2-.4-.54-.2-.84l.2-.34c.2-.3.54-.4.84-.2.3.2.39.54.2.84l-.16.35c-.2.3-.59.34-.88.2z"/><path id="8ii6t" d="M1052.3 107.36l-5.7 8.99-1.54-.98 5.7-8.98z"/><path id="8ii6u" d="M1050.78 106.4l1.53.98-5.71 8.96"/><path id="8ii6v" d="M1043 100.23l8.77 5.57-6.6 10.4"/><path id="8ii6w" d="M1046.45 109.7c-.3.48-.94.58-1.38.29a.98.98 0 0 1-.3-1.38c.3-.5.94-.6 1.38-.3.45.3.6.94.3 1.38z"/><path id="8ii6x" d="M1067.78 116.98l-6.9-4.38c.5-1.04-.49-3.25-.83-3.4-.2-.1-1.58-.3-3-.5l-1.59 4.93 12.96 4.14c-.1-.3-.3-.59-.64-.79z"/><path id="8ii6y" d="M1061.23 109.54c.44.74.64 2.66.05 3l-4.98 1.1c-.59.34-1.38 0-1.82-.7-.44-.74-.3-1.57.3-1.92l3.54-2.07c.6-.34 2.42-.24 2.86.45z"/><clipPath id="8ii6b"><use fill="#fff" xlink:href="#8ii6a"/></clipPath></defs><g><g transform="translate(-1040 -92)"><g><use fill="#fff" xlink:href="#8ii6a"/><use fill="#fff" fill-opacity="0" stroke="#fff" stroke-miterlimit="50" stroke-width="2" clip-path="url(&quot;#8ii6b&quot;)" xlink:href="#8ii6a"/></g><g><g><use fill="#05365b" xlink:href="#8ii6c"/></g><g><use fill="#008c61" xlink:href="#8ii6d"/></g><g><g><use fill="#e29d81" xlink:href="#8ii6e"/></g><g><use fill="#e29d81" xlink:href="#8ii6f"/></g></g><g><use fill="#d3856a" xlink:href="#8ii6g"/></g><g><g><use fill="#e29d81" xlink:href="#8ii6h"/></g><g><use fill="#e29d81" xlink:href="#8ii6i"/></g><g><use fill="#e29d81" xlink:href="#8ii6j"/></g><g><use fill="#e29d81" xlink:href="#8ii6k"/></g></g><g><use fill="#fff" xlink:href="#8ii6l"/></g><g><use fill="#dfe2e5" xlink:href="#8ii6m"/></g><g><use fill="#006d49" xlink:href="#8ii6n"/></g><g><use fill="#f9bda0" xlink:href="#8ii6o"/></g><g><g><use fill="#ffe4c7" xlink:href="#8ii6p"/></g><g><use fill="#ffe4c7" xlink:href="#8ii6q"/></g><g><use fill="#ffe4c7" xlink:href="#8ii6r"/></g><g><use fill="#ffe4c7" xlink:href="#8ii6s"/></g></g><g><use fill="#fff" xlink:href="#8ii6t"/></g><g><use fill="#dfe2e5" xlink:href="#8ii6u"/></g><g><use fill="#00263d" xlink:href="#8ii6v"/></g><g><use fill="#ffc114" xlink:href="#8ii6w"/></g><g><use fill="#e8ab92" xlink:href="#8ii6x"/></g><g><use fill="#e29d81" xlink:href="#8ii6y"/></g></g></g></g></svg>