<svg xmlns="http://www.w3.org/2000/svg" xmlns:xlink="http://www.w3.org/1999/xlink" width="66" height="66" viewBox="0 0 66 66"><defs><path id="6neca" d="M567.134 1274.599v31.324H510.14V1274.6a3.598 3.598 0 0 1 3.598-3.599h49.8a3.599 3.599 0 0 1 3.597 3.599"/><path id="6necb" d="M563.193 1274.942v27.04H514.08v-27.04h49.112"/><path id="6necc" d="M563.536 1271h-30.812l.97 3.186h24.667l.015.427.011.33h4.806v27.038h-21.027l1.105 3.627h23.863v-31.01a3.599 3.599 0 0 0-3.598-3.597"/><path id="6necd" d="M563.193 1274.942h-4.806l.678 19.58h-4.874l-.028.02-9.434 5.962a4.675 4.675 0 0 1-2.797.712l.234.765h21.027v-27.039m-17.033 19.58h-6.267l.158.521 2.972.504a2.86 2.86 0 0 0 1.858-.317l1.28-.708"/><path id="6nece" d="M533.695 1274.186h-8.42l-.027.756h8.677l-.23-.756"/><path id="6necf" d="M533.925 1274.942h-8.677l-.281 8.152-.337 9.711c-.178.124-.36.243-.545.358l-10.004 6.52v2.299h11.431l3.242-2.13a2.351 2.351 0 0 1 1.643-.362l11.143 1.684c.13.02.262.034.393.042l-1.882-6.173-3.074-.52h2.915l-5.967-19.58"/><path id="6necg" d="M558.361 1274.186h-24.666l.23.756h24.462l-.011-.329-.015-.427"/><path id="6nech" d="M558.387 1274.942h-24.462l5.968 19.58h6.267l-1.28.708a2.858 2.858 0 0 1-1.857.317l-2.972-.504 1.881 6.174a4.675 4.675 0 0 0 2.797-.712l9.434-5.962.028-.02h4.874l-.678-19.58"/><path id="6neci" d="M559.065 1291.337H524.57l.396-11.428.958-27.738h31.785l.666 19.257z"/><path id="6necj" d="M554.163 1292.385l-9.434 5.962c-.949.6-2.081.837-3.19.67l-11.142-1.684a2.35 2.35 0 0 0-1.643.361l-6.524 4.287h-8.149v-4.455l10.004-6.52c.8-.494 1.54-1.072 2.206-1.727a12.548 12.548 0 0 0 1.765-2.175c.889-1.391 2.43-2.247 4.08-2.216.375.007.75.048 1.124.122l9.918 1.988a1.635 1.635 0 0 1 1.263 1.993 1.63 1.63 0 0 1-1.845 1.215l-6.252-1.015a1.513 1.513 0 0 0-.495 2.983l7.174 1.216a2.86 2.86 0 0 0 1.858-.317l7.3-4.036a1.946 1.946 0 0 1 1.982 3.348z"/><path id="6neck" d="M537.119 1265.86c-.968 0-1.755.787-1.755 1.755 0 .968.787 1.755 1.755 1.755.968 0 1.755-.787 1.755-1.755 0-.968-.787-1.755-1.755-1.755zm0 4.81a3.059 3.059 0 0 1-3.056-3.055 3.059 3.059 0 0 1 3.056-3.055 3.06 3.06 0 0 1 3.056 3.055 3.059 3.059 0 0 1-3.056 3.056z"/><path id="6necl" d="M546.517 1274.139c-.968 0-1.755.787-1.755 1.755 0 .968.787 1.755 1.755 1.755.968 0 1.755-.787 1.755-1.755 0-.968-.788-1.755-1.755-1.755zm0 4.81a3.06 3.06 0 0 1-3.056-3.055 3.06 3.06 0 0 1 3.056-3.056 3.06 3.06 0 0 1 3.055 3.056 3.06 3.06 0 0 1-3.055 3.056z"/><path id="6necm" d="M543.968 1264.271l-3.02 15.217-1.276-.253 3.02-15.217z"/><path id="6necn" d="M549.788 1257.812a1.01 1.01 0 0 1-1.01-1.01v-3.67c0-3.8-2.993-6.998-6.792-7.088-3.915-.093-7.129 3.064-7.129 6.958v3.8a1.01 1.01 0 1 1-2.02 0v-3.65c0-4.917 3.89-9.036 8.807-9.13 5.031-.095 9.155 3.97 9.155 8.98v3.8a1.01 1.01 0 0 1-1.01 1.01z"/><path id="6neco" d="M571.273 1305.608a4.494 4.494 0 0 1-4.493 4.493h-56.286a4.478 4.478 0 0 1-3.177-1.316 4.475 4.475 0 0 1-1.317-3.177h65.273"/><path id="6necp" d="M571.273 1305.608h-32.36l1.37 4.493h26.497a4.494 4.494 0 0 0 4.493-4.493"/></defs><g><g transform="translate(-506 -1244)"><g><use fill="#11273b" xlink:href="#6neca"/></g><g><use fill="#507dbc" xlink:href="#6necb"/></g><g><use fill="#507dbc" xlink:href="#6necc"/></g><g><use fill="#b1d1ff" xlink:href="#6necd"/></g><g><use fill="#676767" xlink:href="#6nece"/></g><g><use fill="#224464" xlink:href="#6necf"/></g><g><use fill="#838383" xlink:href="#6necg"/></g><g><use fill="#11273b" fill-opacity=".37" xlink:href="#6nech"/></g><g><use fill="#fdf699" xlink:href="#6neci"/></g><g><use fill="#fcd18b" xlink:href="#6necj"/></g><g><g><use fill="#e85151" xlink:href="#6neck"/></g><g><use fill="#e85151" xlink:href="#6necl"/></g><g><use fill="#e85151" xlink:href="#6necm"/></g></g><g><use fill="#e76f51" xlink:href="#6necn"/></g><g><use fill="#224464" xlink:href="#6neco"/></g><g><use fill="#507dbc" xlink:href="#6necp"/></g></g></g></svg>