<svg xmlns="http://www.w3.org/2000/svg" viewBox="0 0 164 60">
  <defs>
    <style>
      .cls-1 {
        fill: #fff;
        stroke: rgba(146,156,165,0.1);
      }

      .cls-2 {
        fill: #139ad6;
      }

      .cls-3 {
        fill: #263b80;
      }

      .cls-4 {
        fill: #232c65;
      }

      .cls-5 {
        stroke: none;
      }

      .cls-6 {
        fill: none;
      }
    </style>
  </defs>
  <g id="ic_payment_paypal" transform="translate(-94 9.6)">
    <g id="base" class="cls-1" transform="translate(94 -9.6)">
      <rect class="cls-5" width="164" height="60"/>
      <rect class="cls-6" x="0.5" y="0.5" width="163" height="59"/>
    </g>
    <g id="ic_payment_paypal-2" data-name="ic_payment_paypal" transform="translate(117.6 5.4)">
      <path id="Path_93" data-name="Path 93" class="cls-2" d="M357.076,221.2H350.74a1.238,1.238,0,0,0-.932.745l-2.609,16.4a.494.494,0,0,0,.559.559h3.354a.494.494,0,0,0,.559-.559l.745-4.658a.853.853,0,0,1,.932-.745h2.05q6.429,0,7.267-6.149a4.884,4.884,0,0,0-.745-4.1,7.516,7.516,0,0,0-4.845-1.491m.745,6.149c-.373,2.236-2.05,2.236-3.727,2.236h-1.118l.745-4.286c0-.186.186-.373.559-.373h.373c1.118,0,2.236,0,2.795.745.373.186.373.745.373,1.677" transform="translate(-266.33 -213.374)"/>
      <g id="Group_30" data-name="Group 30" transform="translate(35.217 7.826)">
        <path id="Path_94" data-name="Path 94" class="cls-3" d="M161.076,221.2H154.74a1.238,1.238,0,0,0-.932.745l-2.609,16.4a.494.494,0,0,0,.559.559h2.981a1.238,1.238,0,0,0,.932-.745l.745-4.472a.853.853,0,0,1,.932-.745h2.05q6.429,0,7.267-6.149a4.884,4.884,0,0,0-.745-4.1,7.162,7.162,0,0,0-4.845-1.491m.745,6.149c-.373,2.236-2.05,2.236-3.727,2.236h-.932l.745-4.286c0-.186.186-.373.559-.373h.373c1.118,0,2.236,0,2.8.745a2,2,0,0,1,.186,1.677" transform="translate(-151.2 -221.2)"/>
        <path id="Path_95" data-name="Path 95" class="cls-3" d="M228.363,245.573h-2.981c-.186,0-.559.186-.559.373l-.186.932-.186-.373a4.383,4.383,0,0,0-3.54-1.3,7.16,7.16,0,0,0-6.894,6.149,5.554,5.554,0,0,0,1.118,4.658,4.7,4.7,0,0,0,3.913,1.491,5.956,5.956,0,0,0,4.286-1.677l-.186.932a.494.494,0,0,0,.559.559h2.8a1.238,1.238,0,0,0,.932-.745l1.677-10.435c-.186-.186-.559-.559-.745-.559m-4.286,5.963a3.6,3.6,0,0,1-3.54,2.981,2.98,2.98,0,0,1-2.05-.745,3.973,3.973,0,0,1-.559-2.236,3.324,3.324,0,0,1,5.4-2.236,3.253,3.253,0,0,1,.745,2.236" transform="translate(-199.295 -239.61)"/>
      </g>
      <path id="Path_96" data-name="Path 96" class="cls-2" d="M423.563,245.573h-2.981c-.186,0-.559.186-.559.373l-.186.932-.186-.373a4.383,4.383,0,0,0-3.54-1.3,7.16,7.16,0,0,0-6.894,6.149,5.554,5.554,0,0,0,1.118,4.658,4.7,4.7,0,0,0,3.913,1.491,5.956,5.956,0,0,0,4.286-1.677l-.186.932a.494.494,0,0,0,.559.559H421.7a1.238,1.238,0,0,0,.932-.745l1.677-10.435c-.186-.186-.373-.559-.745-.559m-4.286,5.963a3.6,3.6,0,0,1-3.54,2.981,2.98,2.98,0,0,1-2.05-.745,3.974,3.974,0,0,1-.559-2.236,3.324,3.324,0,0,1,5.4-2.236,2.139,2.139,0,0,1,.745,2.236" transform="translate(-313.812 -231.784)"/>
      <path id="Path_97" data-name="Path 97" class="cls-3" d="M298.348,246.8H295.18a.968.968,0,0,0-.745.373l-4.1,6.335-1.863-5.963a.861.861,0,0,0-.932-.559h-2.981c-.373,0-.559.373-.559.745l3.354,9.876-3.168,4.472c-.186.373,0,.932.373.932h2.981a.968.968,0,0,0,.745-.373l10.248-14.72c.559-.559.186-1.118-.186-1.118" transform="translate(-217.851 -233.011)"/>
      <path id="Path_98" data-name="Path 98" class="cls-2" d="M477.809,222.132,475.2,238.9a.494.494,0,0,0,.559.559h2.609a1.238,1.238,0,0,0,.932-.745l2.609-16.4a.494.494,0,0,0-.559-.559h-2.981c-.186-.186-.373,0-.559.373" transform="translate(-364.517 -213.747)"/>
      <path id="Path_99" data-name="Path 99" class="cls-3" d="M21.429,189.836c-1.3-1.491-3.727-2.236-7.081-2.236H5.031a1.6,1.6,0,0,0-1.3,1.118L0,213.128a.852.852,0,0,0,.745.932H6.522l1.491-9.13v.373a1.6,1.6,0,0,1,1.3-1.118h2.8c5.4,0,9.5-2.236,10.807-8.385v-.559h0c.186-2.422-.186-3.913-1.491-5.4" transform="translate(0 -187.6)"/>
      <path id="Path_100" data-name="Path 100" class="cls-2" d="M42.37,220.4h0v.559c-1.3,6.335-5.4,8.385-10.807,8.385h-2.8a1.6,1.6,0,0,0-1.3,1.118L25.6,241.829a.683.683,0,0,0,.745.745H31.19a1.043,1.043,0,0,0,1.118-.932v-.186l.932-5.776v-.373a1.043,1.043,0,0,1,1.118-.932H35.1c4.658,0,8.385-1.863,9.317-7.453.373-2.236.186-4.286-.932-5.59a1.909,1.909,0,0,0-1.118-.932" transform="translate(-19.637 -212.76)"/>
      <path id="Path_101" data-name="Path 101" class="cls-4" d="M47.816,216.159c-.186,0-.373-.186-.559-.186a.685.685,0,0,1-.559-.186,9.844,9.844,0,0,0-2.422-.186H37.009a.685.685,0,0,0-.559.186,1.025,1.025,0,0,0-.559.932L34.4,226.407v.373a1.6,1.6,0,0,1,1.3-1.118h2.8c5.4,0,9.5-2.236,10.807-8.385a.684.684,0,0,1,.186-.559c-.373-.186-.559-.373-.932-.373-.559-.186-.559-.186-.745-.186" transform="translate(-26.388 -209.078)"/>
    </g>
  </g>
</svg>
