<svg xmlns="http://www.w3.org/2000/svg" viewBox="0 0 85.96 85.96">
  <defs>
    <style>
      .cls-1 {
        fill: #e4eaf6;
      }

      .cls-2 {
        fill: #ff6464;
      }

      .cls-3 {
        fill: #d2555a;
      }

      .cls-4 {
        fill: #afb9d2;
      }
    </style>
  </defs>
  <g id="ic_24_hour" transform="translate(0)">
    <path id="Path_1203" data-name="Path 1203" class="cls-1" d="M178.6,62.935a1.535,1.535,0,0,1-.976-2.72,32.237,32.237,0,1,0-46.837-43.447A1.535,1.535,0,1,1,128.279,15a35.307,35.307,0,1,1,51.3,47.585A1.53,1.53,0,0,1,178.6,62.935Z" transform="translate(-106.509)"/>
    <path id="Path_1204" data-name="Path 1204" class="cls-2" d="M72.835,123.393,53.657,112.352a4.749,4.749,0,0,0-5.727.758l-3.777,3.777a4.032,4.032,0,0,1-5.378.3A112.091,112.091,0,0,1,22.031,100.44a4.032,4.032,0,0,1,.3-5.378l3.777-3.777a4.749,4.749,0,0,0,.758-5.727L15.821,66.38a4.748,4.748,0,0,0-7.473-.988L2.657,71.083C-4.761,78.5,3.883,99.171,21.963,117.251s38.75,26.724,46.168,19.307l5.692-5.692A4.748,4.748,0,0,0,72.835,123.393Z" transform="translate(0 -53.255)"/>
    <g id="Group_276" data-name="Group 276" transform="translate(6.747 10.745)">
      <path id="Path_1205" data-name="Path 1205" class="cls-3" d="M40.191,66.993l15.949,27.7,3.409-3.409a4.748,4.748,0,0,0,.757-5.727L49.265,66.38a4.749,4.749,0,0,0-7.473-.988Z" transform="translate(-40.191 -64)"/>
      <path id="Path_1206" data-name="Path 1206" class="cls-3" d="M292.442,368.97l1.6-1.6a4.749,4.749,0,0,0-.988-7.473l-19.177-11.042a4.749,4.749,0,0,0-5.727.758l-3.5,3.5Z" transform="translate(-226.967 -300.503)"/>
    </g>
    <g id="Group_277" data-name="Group 277" transform="translate(35.304 21.49)">
      <path id="Path_1207" data-name="Path 1207" class="cls-2" d="M326.207,144.884h-1.535v-15.35a1.535,1.535,0,1,0-3.07,0v15.35h-7.371l2.741-15.075a1.535,1.535,0,1,0-3.021-.549l-3.07,16.885a1.535,1.535,0,0,0,1.51,1.81h9.21v3.07a1.535,1.535,0,1,0,3.07,0v-3.07h1.535a1.535,1.535,0,0,0,0-3.07Z" transform="translate(-293.971 -127.999)"/>
      <path id="Path_1208" data-name="Path 1208" class="cls-2" d="M224.1,152.56h-12.28a1.535,1.535,0,0,1-1.535-1.535c0-4.7,3.564-6.791,6.709-8.639,2.989-1.757,5.57-3.274,5.57-6.71a4.605,4.605,0,0,0-9.21,0,1.535,1.535,0,0,1-3.07,0,7.675,7.675,0,0,1,15.35,0c0,5.193-3.928,7.5-7.085,9.357-2.568,1.509-4.343,2.643-4.957,4.458H224.1a1.535,1.535,0,0,1,0,3.07Z" transform="translate(-210.284 -128)"/>
    </g>
    <path id="Path_1209" data-name="Path 1209" class="cls-1" d="M412.964,330.744a1.535,1.535,0,0,1-1.505-1.836l1.535-7.675a1.535,1.535,0,1,1,3.01.6l-1.083,5.417,5.417-1.083a1.535,1.535,0,0,1,.6,3.011l-7.675,1.535A1.552,1.552,0,0,1,412.964,330.744Z" transform="translate(-342.354 -266.274)"/>
    <g id="Group_278" data-name="Group 278" transform="translate(49.119 6.14)">
      <path id="Path_1210" data-name="Path 1210" class="cls-4" d="M294.106,42.711a1.535,1.535,0,0,1-1.535-1.535v-3.07a1.535,1.535,0,0,1,3.07,0v3.07A1.535,1.535,0,0,1,294.106,42.711Z" transform="translate(-292.571 -36.571)"/>
      <path id="Path_1211" data-name="Path 1211" class="cls-4" d="M443.462,204.213h-3.07a1.535,1.535,0,1,1,0-3.07h3.07a1.535,1.535,0,0,1,0,3.07Z" transform="translate(-414.297 -173.513)"/>
    </g>
    <g id="Group_279" data-name="Group 279" transform="translate(25.191 9.841)">
      <path id="Path_1212" data-name="Path 1212" class="cls-1" d="M371.819,63.018a1.535,1.535,0,0,1-1.328-2.3l.767-1.329a1.535,1.535,0,0,1,2.659,1.535l-.767,1.329A1.535,1.535,0,0,1,371.819,63.018Z" transform="translate(-333.309 -58.618)"/>
      <path id="Path_1213" data-name="Path 1213" class="cls-1" d="M212.588,63.019a1.534,1.534,0,0,1-1.331-.768l-.767-1.329a1.535,1.535,0,0,1,2.659-1.535l.767,1.329a1.535,1.535,0,0,1-1.328,2.3Z" transform="translate(-200.171 -58.619)"/>
      <path id="Path_1214" data-name="Path 1214" class="cls-1" d="M152.91,122.694a1.528,1.528,0,0,1-.766-.206l-1.33-.767a1.535,1.535,0,1,1,1.535-2.659l1.33.767a1.535,1.535,0,0,1-.769,2.864Z" transform="translate(-150.047 -108.743)"/>
      <path id="Path_1215" data-name="Path 1215" class="cls-1" d="M430.038,282.694a1.528,1.528,0,0,1-.766-.206l-1.329-.767a1.535,1.535,0,1,1,1.535-2.659l1.329.767a1.535,1.535,0,0,1-.769,2.864Z" transform="translate(-380.648 -241.881)"/>
      <path id="Path_1216" data-name="Path 1216" class="cls-1" d="M428.711,122.694a1.535,1.535,0,0,1-.769-2.865l1.329-.767a1.535,1.535,0,1,1,1.535,2.659l-1.329.767A1.527,1.527,0,0,1,428.711,122.694Z" transform="translate(-380.647 -108.743)"/>
    </g>
  </g>
</svg>
