<svg xmlns="http://www.w3.org/2000/svg" xmlns:xlink="http://www.w3.org/1999/xlink" width="100" height="110" viewBox="0 0 100 110"><defs><path id="ct5la" d="M314.77 1026.46l-12.84-12.16 6.88-11.23 10.77 5.96-2.52 11.24z"/><path id="ct5lb" d="M345.04 1006.97h.23l5.73 1.83-.69 11.7-35.54 5.96.46-11.93 16.74-7.33z"/><path id="ct5lc" d="M335.18 996.88L351 1008.8l-35.77 5.73-12.84-12.84z"/><path id="ct5ld" d="M320.04 983.12s2.76.92 5.5 2.52c2.53 1.6 6.89 4.82 9.64 6.42 2.75 1.6 5.5 2.75 6.42 3.44a3.58 3.58 0 0 1 1.83 2.98c0 1.15.92 3.44.92 3.9.23.46.92 1.84-.46 2.3-1.14.22-2.3 0-2.06-1.84 0 0 .23-.23-.69-.69a42.28 42.28 0 0 1-2.52-2.06s-.92-.46-2.52-.69c-1.84-.46-6.88-1.83-9.18-2.52-2.29-.7-9.4-1.6-12.84-5.28z"/><path id="ct5le" d="M281.98 957.2s-1.15-1.83-.23-2.74c.92-.92 2.52-1.38 2.52-1.38l1.15 2.3z"/><path id="ct5lf" d="M303.3 963.63s-3.9 7.34-4.58 7.34c-.46-.23-8.95-5.28-8.95-5.28l-5.27-6.19-2.52-2.98s2.06-2.06 2.3-2.98c.22-.69-.7-3.44-.7-3.44-.23-.46-3.9-11.24-3.9-11.24-.68-1.14 7.11-9.4 7.11-9.4l12.62 2.75 1.14 4.36v7.1s0 .7-.46 2.99c-.23 2.06-1.83 4.36-1.83 4.36s-.46 3.44-.46 4.58c0 1.15-.46 4.13-.46 4.13z"/><path id="ct5lg" d="M298.26 950.79c0 .23-1.6 4.12-4.82 4.58-3.2.46-4.12 1.15-2.29 1.6 1.83.47 2.98 1.38-.69 1.84-1.6.23-3.9.46-5.96.46l-2.52-2.98s2.06-2.06 2.3-2.98c.22-.69-.7-3.44-.7-3.44 0 .23 1.84 2.98 5.5 3.9 3.9.91 7.57-.23 9.18-2.98z"/><path id="ct5lh" d="M300.52 944.36c-.76-.06-1.25-1.84-1.1-3.99.14-2.14.87-3.84 1.63-3.8.76.06 1.25 1.84 1.1 4-.14 2.14-.87 3.84-1.63 3.79z"/><path id="ct5li" d="M282.72 947.1c-.71.28-1.92-1.12-2.7-3.13-.78-2-.83-3.86-.12-4.13.7-.28 1.9 1.13 2.69 3.13.78 2.01.84 3.86.13 4.13z"/><path id="ct5lj" d="M282.2 944.14s-1.37-5.28-1.37-7.57c-.23-2.3-.23-2.98-.23-2.98l-1.6 4.36s-.23 1.14.46 2.29c.91-.46 2.06 4.36 2.06 4.36z"/><path id="ct5lk" d="M297.57 931.3s1.6 1.6 2.07 3.66c.22 1.84.45 5.97.45 5.97s.92-1.15.92-2.76l-.46-3.2-2.3-4.13z"/><path id="ct5ll" d="M280.14 935.88l1.15 2.3s.46.91 1.38 0c1.14-.92 2.75-3.67 6.19-4.13 3.2-.46 7.34 1.14 8.48 1.6 1.15.46 1.15 0 1.38-.23 0-.23.46-2.29.46-2.29v-2.3l-18.35-2.29z"/><path id="ct5lm" d="M279 937.95s1.6-2.99 3.9-4.82a14.8 14.8 0 0 1 9.4-2.75c3.9.23 7.1 2.06 8.25 4.35 0 0-.46-3.43-1.6-6.19a10.24 10.24 0 0 0-6.42-5.5c-2.76-.69-9.4.92-11.47 2.52-2.52 2.3-2.52 7.11-2.06 12.39z"/><path id="ct5ln" d="M293.44 961.56l1.84-.68 2.75 6.65.46-5.97v-3.2s3.9 1.6 5.04 1.83c.92.23 4.13 1.14 5.74 3.67 1.6 2.29 5.96 11.23 6.88 13.07a34.13 34.13 0 0 0 2.75 4.58c.68.92 1.6 1.15 1.6 2.3 0 .91-1.83 6.88-7.1 8.94l-2.53-1.6s-.69 19.03-.69 23.38c-.23 4.36-.23 14.9.23 18.58H271.9s-.69-8.03 0-10.55c.69-2.52 3.2-19.5-.46-30.04 0 0-3.67 4.82-4.82 6.42-1.14 1.6-1.6 2.98-1.6 2.98l-4.59.46c-2.29.23-9.4-.23-9.4 0 0 0 0-5.04 1.38-8.48a267.5 267.5 0 0 1 6.42-16.28c1.15-2.99 3.44-7.57 5.5-9.64 2.07-2.06 9.17-6.65 11.7-7.56 2.52-.92 3.2-1.6 3.2-1.6l8.26 2.51z"/><path id="ct5lo" d="M307.89 1006.05v-.23a9.77 9.77 0 0 1 2.52-2.75l.23-.23v-.23l-.46-.46v-.46h.46l.46.46c.23.23.23.46.23.69 0 .23-.23.46-.46.69a5.94 5.94 0 0 0-2.3 2.52h-.68z"/><path id="ct5lp" d="M282.67 1031.04l30.04-21.55c.45-.46.68-1.15.22-1.6l-14.9-23.62c-.46-.7-1.15-.7-1.83-.23l-28.44 21.55c-.46.46-.69 1.15-.23 1.6l13.53 23.63c.23.45 1.15.68 1.6.22z"/><path id="ct5lq" d="M311.56 1008.34l-28.9 22.25-13.3-22.25 26.6-22.47z"/><path id="ct5lr" d="M301.24 992.06l-1.15.69c-.23.23-.45.69-.23.92l4.82 8.25c0 .23.23.23.46.46h.69l1.14-.69s.23-.23 0-.23l-5.73-9.4c.23 0 .23 0 0 0zm4.13 11h-.23c-.46 0-.69-.22-.92-.68l-4.81-8.25c-.46-.7-.23-1.38.45-1.84l1.15-.69c.23-.23.46-.23.69-.23a.5.5 0 0 1 .46.46l5.73 9.17c.23.46 0 .92-.23 1.15l-1.15.69c-.45.23-.91.23-1.14.23z"/><path id="ct5ls" d="M310.41 1000.32l-7.56 7.56a20.55 20.55 0 0 0-3.44 4.36c1.6-.92 3.2-2.06 4.35-3.44l7.57-7.57z"/><path id="ct5lt" d="M311.33 1001l-.69-.68.23-.23c.23-.23.46-.23.69 0 .23.23.23.46 0 .69z"/><path id="ct5lu" d="M303.43 1007.24l.97.97-.49.49-.97-.98z"/><path id="ct5lv" d="M284.27 953.3s-2.52 1.38-2.52 2.07c0 .7 1.6 1.6 3.2 2.3 1.39.68 8.5 3.9 8.5 3.9s-5.51 4.12-6.2 4.35c0 0-2.98-1.15-4.81-2.75-1.84-1.6-4.59-4.13-4.59-4.13s1.38-1.14 1.84-2.06c.45-.92 1.83-3.9 4.58-3.67z"/><path id="ct5lw" d="M297.8 956.98s2.98 3.44 3.44 3.9c.46.45 1.6 4.12 1.6 4.12l-1.83-1.6s-2.52 3.2-2.75 4.13c0 0 .46-6.42-.69-8.03z"/><path id="ct5lx" d="M265.01 1001.92s3.9 4.13 5.04 5.73c1.15 1.61 5.05 5.28 6.65 6.2 1.6.91 5.05 2.75 5.97 2.75.68 0 2.29-.69 5.73 0 .92.23 1.83.69 2.52 1.14.23.23.46.46.69.46.69.23 2.52 1.15 2.75 2.07l1.6 1.37s0 1.38-1.14 1.38c0 0 .92.69.69 1.83-.23 1.38-1.38 1.15-1.38 1.15s0 .92-.69 1.15c-.68.45-1.14.45-1.14.45s-.92 1.6-2.98 1.6c0 0-1.84 1.61-3.9.93 0 0-2.07-1.38-2.98-1.84-.92-.46-2.53-3.2-3.21-3.67-.7-.46-1.6-1.14-2.07-1.14-.46-.23-1.37-.92-2.52-1.84-.92-.91-11-5.04-12.84-6.88-1.83-1.6-6.2-5.73-7.8-6.88-1.6-1.14-3.2-1.6-2.98-3.2 0-1.61.23-2.99.23-2.99z"/><path id="ct5ly" d="M251.48 997.8c-.46 2.52-.46 4.81-.46 4.81.23-.23 7.34.23 9.4 0l4.59-.46s.46-1.37 1.6-2.98c.23-.23.46-.69.92-1.38z"/><path id="ct5lz" d="M294.82 1023.25H293.67c-.23 0-.46 0-.46-.23-.23 0-.45-.23-.45-.23-.46-.23-.7-.46-1.15-.69-.23-.23-.46-.23-.46-.46l-.23-.23-.23-.23c-.23-.23-.23-.23-.23-.45 0 0-.23 0-.23-.23H290l-.45-.46c0-.23-.23-.23-.23-.23v-.23l.23.23.22.23.23.23h.23s.23 0 .23.23a.5.5 0 0 1 .46.45l.23.23.23.23.46.46c.46.23.69.46 1.15.69.22 0 .22.23.45.23s.23.23.46.23c.23.23.46.23.69.23h.23z"/><path id="ct5lA" d="M295.74 1021.64c0 .92-.92 1.15-.92 1.15s-.69-.46-.92-.46c-.23-.23-.23-.46 0-.69.23-.46.46-1.14.46-1.14z"/><path id="ct5lB" d="M292.76 1025.77c-.46-.23-.92-.23-1.38-.23h-.69s0 .23.92.46c.92 0 2.06.23 2.52.23v-.23s-.92 0-1.37-.23z"/><path id="ct5lC" d="M292.3 1027.6s-1.38.23-1.84.23c-.69 0-1.6.23-1.14.23h1.37c.46 0 .92 0 1.38-.23l.23-.23z"/><path id="ct5lD" d="M289.32 1028.98s0 .23 0 0c-.46 0-.92.23-1.38.23h-.23c.23 0 1.6-.23 1.6-.23z"/><path id="ct5lE" d="M342.74 1002.61v.92c.23.23 1.15.46 1.61.23 0 0 .23-.46-.23-.92-.23-.23-1.15-.46-1.38-.23z"/></defs><g><g transform="translate(-251 -923)"><g><use fill="#55b2e5" xlink:href="#ct5la"/></g><g><use fill="#56bfeb" xlink:href="#ct5lb"/></g><g><use fill="#8ad6f7" xlink:href="#ct5lc"/></g><g><use fill="#ffd15c" xlink:href="#ct5ld"/></g><g><use fill="#344a5e" xlink:href="#ct5le"/></g><g><use fill="#ffd15c" xlink:href="#ct5lf"/></g><g><use fill="#f5b54c" xlink:href="#ct5lg"/></g><g><g><use fill="#ffd15c" xlink:href="#ct5lh"/></g><g><use fill="#ffd15c" xlink:href="#ct5li"/></g></g><g><g><use fill="#425a6b" xlink:href="#ct5lj"/></g><g><use fill="#425a6b" xlink:href="#ct5lk"/></g></g><g><use fill="#f05640" xlink:href="#ct5ll"/></g><g><use fill="#f26f5a" xlink:href="#ct5lm"/></g><g><use fill="#344a5e" xlink:href="#ct5ln"/></g><g><use fill="#f26f5a" xlink:href="#ct5lo"/></g><g><use fill="#67c5b8" xlink:href="#ct5lp"/></g><g><use fill="#f3f3f3" xlink:href="#ct5lq"/></g><g><use fill="#425a6b" xlink:href="#ct5lr"/></g><g><use fill="#f26f5a" xlink:href="#ct5ls"/></g><g><g><use fill="#344a5e" xlink:href="#ct5lt"/></g><g><use fill="#344a5e" xlink:href="#ct5lu"/></g></g><g><g><use fill="#425a6b" xlink:href="#ct5lv"/></g><g><use fill="#425a6b" xlink:href="#ct5lw"/></g></g><g><use fill="#ffd15c" xlink:href="#ct5lx"/></g><g><use fill="#344a5e" xlink:href="#ct5ly"/></g><g><use fill="#f5b54c" xlink:href="#ct5lz"/></g><g><use fill="#fff" xlink:href="#ct5lA"/></g><g><g><use fill="#f5b54c" xlink:href="#ct5lB"/></g><g><use fill="#f5b54c" xlink:href="#ct5lC"/></g><g><use fill="#f5b54c" xlink:href="#ct5lD"/></g></g><g><use fill="#fff" xlink:href="#ct5lE"/></g></g></g></svg>