<svg xmlns="http://www.w3.org/2000/svg" xmlns:xlink="http://www.w3.org/1999/xlink" width="80" height="80" viewBox="0 0 80 80"><defs><path id="auf5a" d="M1019.1 325.7c-1.1-1.2-3-1.3-4.2-.2-1.2 1.1-1.3 3-.2 4.2l15.1 16.4c.6.6 1.3 1 2.1 1h.1c.8 0 1.6-.3 2.1-.9l38.2-38.1c1.2-1.2 1.2-3.1 0-4.2s-3.1-1.2-4.2 0l-36 35.9z"/><path id="auf5c" d="M1071.6 329.8c-1.7 0-3 1.3-3 3 0 18.6-15.2 33.8-33.8 33.8-18.6 0-33.8-15.2-33.8-33.8 0-18.6 15.2-33.8 33.8-33.8 1.7 0 3-1.3 3-3s-1.3-3-3-3c-21.9 0-39.8 17.9-39.8 39.8s17.9 39.8 39.8 39.8 39.8-17.9 39.8-39.8c0-1.7-1.3-3-3-3z"/><linearGradient id="auf5b" x1="1043.56" x2="1043.56" y1="375.8" y2="286.13" gradientUnits="userSpaceOnUse"><stop offset="0" stop-color="#00efd1"/><stop offset="1" stop-color="#00acea"/></linearGradient><linearGradient id="auf5d" x1="1034.8" x2="1034.8" y1="375.8" y2="286.12" gradientUnits="userSpaceOnUse"><stop offset="0" stop-color="#00efd1"/><stop offset="1" stop-color="#00acea"/></linearGradient></defs><g><g transform="translate(-995 -293)"><g><use fill="url(#auf5b)" xlink:href="#auf5a"/></g><g><use fill="url(#auf5d)" xlink:href="#auf5c"/></g></g></g></svg>