<svg xmlns="http://www.w3.org/2000/svg" xmlns:xlink="http://www.w3.org/1999/xlink" width="82" height="71" viewBox="0 0 82 71"><defs><path id="lf50a" d="M500 1519.067c0-12.903 10.46-23.362 23.362-23.362 12.903 0 23.362 10.46 23.362 23.362 0 12.902-10.46 23.362-23.362 23.362-12.902 0-23.362-10.46-23.362-23.362z"/><path id="lf50b" d="M546.889 1484.232l17.037 8.768 17.107 8.697-17.107 8.767-17.037 8.768-17.037-8.768-17.108-8.767 17.108-8.697z"/><path id="lf50c" d="M568.203 1516.238v-7.912l-8.554 4.348v7.913l4.704-5.774z"/><path id="lf50d" d="M546.889 1519.232v35l34.144-17.464v-35.071l-12.83 6.629-.286.142v7.699l-3.564-1.354-4.704 5.774v-7.913z"/><path id="lf50e" d="M546.889 1554.232v-35l-17.037-8.768-17.108-8.767v35.07z"/><path id="lf50f" d="M525.575 1495.138l34.074 17.536 8.268-4.206.285-.142-34.073-17.536-4.277 2.21z"/><path id="lf50h" d="M529.219 1514a2.987 2.987 0 0 1 0-4.23 2.987 2.987 0 0 1 4.23 0 2.987 2.987 0 0 1 0 4.23 2.987 2.987 0 0 1-4.23 0zm11.267 2.185l-2.257-9.025a3.015 3.015 0 0 0-.79-1.382 3.015 3.015 0 0 0-1.381-.79l-9.025-2.255a3.005 3.005 0 0 0-2.849.79l-16.118 16.117a2.987 2.987 0 0 0 0 4.23l11.281 11.282a2.987 2.987 0 0 0 4.231 0l16.118-16.118a3.005 3.005 0 0 0 .79-2.849z"/><path id="lf50i" d="M539.696 1519.034l-16.118 16.118a2.987 2.987 0 0 1-4.23 0l-5.641-5.64L529.218 1514a2.987 2.987 0 0 0 4.231 0 2.987 2.987 0 0 0 0-4.23l3.99-3.992c.382.381.65.847.79 1.382l2.257 9.025a3.004 3.004 0 0 1-.79 2.849z"/><path id="lf50j" d="M522.168 1515.41a.998.998 0 1 0-1.41 1.412.998.998 0 0 0 1.41-1.412zm-2.82 2.82a2.995 2.995 0 0 1 0-4.23 2.995 2.995 0 0 1 4.23 0 2.995 2.995 0 0 1 0 4.23 2.995 2.995 0 0 1-4.23 0z"/><path id="lf50k" d="M523.578 1525.281a.998.998 0 1 0-1.41 1.412.998.998 0 0 0 1.41-1.412zm-2.82 2.82a2.995 2.995 0 0 1 0-4.23 2.995 2.995 0 0 1 4.23 0 2.995 2.995 0 0 1 0 4.23 2.995 2.995 0 0 1-4.23 0z"/><path id="lf50l" d="M528.626 1521.332l-7.586.847-5.105.564a.953.953 0 0 1-.818-.282 1.018 1.018 0 0 1-.282-.593.988.988 0 0 1 .874-1.1l7.587-.846 5.105-.564a.988.988 0 0 1 1.1.875.988.988 0 0 1-.875 1.1z"/><path id="lf50m" d="M528.626 1521.333l-7.586.846 2.256-2.257 5.105-.564a.988.988 0 0 1 1.1.874.989.989 0 0 1-.875 1.1z"/><path id="lf50n" d="M540.928 1503.7l-7.479 7.48a.987.987 0 0 1-1.41 0 .987.987 0 0 1 0-1.41l7.478-7.48a.987.987 0 0 1 1.41 0 .987.987 0 0 1 0 1.41z"/><path id="lf50o" d="M532.039 1511.18l8.889-8.89a.987.987 0 0 1 0 1.41l-7.479 7.48a.988.988 0 0 1-1.41 0z"/><clipPath id="lf50g"><use fill="#fff" xlink:href="#lf50a"/></clipPath></defs><g><g transform="translate(-500 -1484)"><g><g><g><use fill="#d9ac80" xlink:href="#lf50b"/></g><g><use fill="#d7baa4" xlink:href="#lf50c"/></g><g><use fill="#a67e4f" xlink:href="#lf50d"/></g><g><use fill="#926e43" xlink:href="#lf50e"/></g><g><use fill="#f2d3ba" xlink:href="#lf50f"/></g></g><g><use fill="#fff" xlink:href="#lf50a"/><use fill="#fff" fill-opacity="0" stroke="#d8635f" stroke-miterlimit="50" stroke-width="4" clip-path="url(&quot;#lf50g&quot;)" xlink:href="#lf50a"/></g><g><g><use fill="#ff6c6c" xlink:href="#lf50h"/></g><g><use fill="#ff4949" xlink:href="#lf50i"/></g><g><use fill="#ffe470" xlink:href="#lf50j"/></g><g><use fill="#ffd400" xlink:href="#lf50k"/></g><g><use fill="#ffe470" xlink:href="#lf50l"/></g><g><use fill="#ffd400" xlink:href="#lf50m"/></g><g><use fill="#3e5959" xlink:href="#lf50n"/></g><g><use fill="#384949" xlink:href="#lf50o"/></g></g></g></g></g></svg>