<svg xmlns="http://www.w3.org/2000/svg" xmlns:xlink="http://www.w3.org/1999/xlink" width="50" height="50" viewBox="0 0 50 50"><defs><path id="m1eba" d="M806 1439.2v38.8h50v-38.79z"/><path id="m1ebb" d="M807.72 1470.24v-31.03h8.62v31.03z"/><path id="m1ebc" d="M816.34 1439.2h-8.62v31.04h8.62zm-1.72 1.73v27.59h-5.17v-27.59h5.17"/><path id="m1ebd" d="M835.31 1470.24v-31.03h18.1v31.03z"/><path id="m1ebe" d="M853.41 1439.2h-18.1v31.04h18.1zm-1.72 1.73v27.59h-14.66v-27.59h14.66"/><path id="m1ebf" d="M818.07 1478v-38.8h13.8v38.8z"/><path id="m1ebg" d="M819.8 1476.28v-17.25h10.34v17.25z"/><path id="m1ebh" d="M840.48 1455.59c.22 0 .44-.09.61-.26l3.45-3.44a.86.86 0 1 0-1.22-1.22l-3.45 3.44a.86.86 0 0 0 .61 1.48z"/><path id="m1ebi" d="M840.48 1459.9c.22 0 .44-.09.61-.26l1.73-1.72a.86.86 0 1 0-1.22-1.22l-1.73 1.72a.86.86 0 0 0 .61 1.48z"/><path id="m1ebj" d="M843.32 1454.97a.88.88 0 0 0-.25.62c0 .22.1.44.25.6a.9.9 0 0 0 .61.26.9.9 0 0 0 .61-.25.9.9 0 0 0 .25-.61.9.9 0 0 0-.25-.62.9.9 0 0 0-1.22 0z"/><path id="m1ebk" d="M845.05 1454.47a.86.86 0 0 0 1.21 0l2.6-2.58a.86.86 0 1 0-1.23-1.22l-2.58 2.58a.86.86 0 0 0 0 1.22z"/><path id="m1ebl" d="M847.63 1454.98l-7.76 7.76a.86.86 0 1 0 1.22 1.21l7.76-7.75a.86.86 0 1 0-1.22-1.22z"/><path id="m1ebm" d="M850.58 1453.25a.9.9 0 0 0-1.23 0 .88.88 0 0 0-.25.61c0 .23.1.45.25.61a.9.9 0 0 0 .62.25c.23 0 .44-.1.6-.25a.9.9 0 0 0 .26-.6c0-.24-.1-.46-.25-.62z"/><path id="m1ebn" d="M806 1478v-5.17h12.07v5.17z"/><path id="m1ebo" d="M831.86 1478v-5.17H856v5.17z"/><path id="m1ebp" d="M809.45 1478v-5.17h1.72v5.17z"/><path id="m1ebq" d="M812.9 1478v-5.17h1.72v5.17z"/><path id="m1ebr" d="M835.31 1478v-5.17h1.72v5.17z"/><path id="m1ebs" d="M838.76 1478v-5.17h1.72v5.17z"/><path id="m1ebt" d="M842.2 1478v-5.17h1.73v5.17z"/><path id="m1ebu" d="M845.66 1478v-5.17h1.72v5.17z"/><path id="m1ebv" d="M849.1 1478v-5.17h1.73v5.17z"/><path id="m1ebw" d="M852.55 1478v-5.17h1.73v5.17z"/><path id="m1ebx" d="M824.97 1445.24a6.02 6.02 0 0 1-4.95-2.58h-.23v14.65h10.35v-14.65h-.23a6.02 6.02 0 0 1-4.94 2.58z"/><path id="m1eby" d="M820.66 1428h-2.59c-5.6.01-10.48 3.77-11.98 9.17-.18.66.07.31.24.31H831V1428z"/><path id="m1ebz" d="M844.8 1437.48h10.9c.15 0 .34.15.22-.3l-.01-.01a12.43 12.43 0 0 0-11.12-9.13v-.04H831v9.48h12.07z"/><path id="m1ebA" d="M831 1437.48h-12.07c1-5.49 5.78-9.48 11.36-9.48h.71z"/><path id="m1ebB" d="M843.07 1437.48H831V1428h.7c5.59 0 10.37 4 11.37 9.48z"/><path id="m1ebC" d="M812.9 1445.24h-.87a6.03 6.03 0 0 1-6.03-6.03v-1.59c0-.08.06-.14.14-.14h12.8v1.73c0 3.33-2.71 6.03-6.04 6.03z"/><path id="m1ebD" d="M824.97 1445.24a6.03 6.03 0 0 1-6.04-6.03v-1.73H831v1.73c0 3.33-2.7 6.03-6.03 6.03z"/><path id="m1ebE" d="M837.03 1445.24a6.03 6.03 0 0 1-6.03-6.03v-1.73h12.07v1.73c0 3.33-2.7 6.03-6.04 6.03z"/><path id="m1ebF" d="M849.97 1445.24h-.87a6.03 6.03 0 0 1-6.03-6.03v-1.73h12.8c.07 0 .13.06.13.14v1.59c0 3.33-2.7 6.03-6.03 6.03z"/></defs><g><g transform="translate(-806 -1428)"><g><use fill="#cbb292" xlink:href="#m1eba"/></g><g><g><use fill="#90bae1" xlink:href="#m1ebb"/></g><g><use fill="#ecf0f1" xlink:href="#m1ebc"/></g></g><g><g><use fill="#90bae1" xlink:href="#m1ebd"/></g><g><use fill="#ecf0f1" xlink:href="#m1ebe"/></g></g><g><use fill="#ecf0f1" xlink:href="#m1ebf"/></g><g><use fill="#90bae1" xlink:href="#m1ebg"/></g><g><g><use fill="#fff" xlink:href="#m1ebh"/></g><g><use fill="#fff" xlink:href="#m1ebi"/></g><g><use fill="#fff" xlink:href="#m1ebj"/></g><g><use fill="#fff" xlink:href="#m1ebk"/></g><g><use fill="#fff" xlink:href="#m1ebl"/></g><g><use fill="#fff" xlink:href="#m1ebm"/></g></g><g><use fill="#7f6e5d" xlink:href="#m1ebn"/></g><g><use fill="#7f6e5d" xlink:href="#m1ebo"/></g><g><use fill="#5e5146" xlink:href="#m1ebp"/></g><g><use fill="#5e5146" xlink:href="#m1ebq"/></g><g><use fill="#5e5146" xlink:href="#m1ebr"/></g><g><use fill="#5e5146" xlink:href="#m1ebs"/></g><g><use fill="#5e5146" xlink:href="#m1ebt"/></g><g><use fill="#5e5146" xlink:href="#m1ebu"/></g><g><use fill="#5e5146" xlink:href="#m1ebv"/></g><g><use fill="#5e5146" xlink:href="#m1ebw"/></g><g><use fill="#90bae1" xlink:href="#m1ebx"/></g><g><use fill="#e64c3c" xlink:href="#m1eby"/></g><g><use fill="#f3d55b" xlink:href="#m1ebz"/></g><g><use fill="#f3d55b" xlink:href="#m1ebA"/></g><g><use fill="#e64c3c" xlink:href="#m1ebB"/></g><g><use fill="#c03a2b" xlink:href="#m1ebC"/></g><g><use fill="#ddc357" xlink:href="#m1ebD"/></g><g><use fill="#c03a2b" xlink:href="#m1ebE"/></g><g><use fill="#ddc357" xlink:href="#m1ebF"/></g></g></g></svg>