<svg xmlns="http://www.w3.org/2000/svg" viewBox="0 0 34.988 26.606">
  <defs>
    <style>
      .cls-1 {
        fill: #efc75e;
      }

      .cls-2 {
        fill: #e7bf55;
      }

      .cls-3 {
        fill: #dbb551;
      }

      .cls-4 {
        fill: #f7e3af;
      }

      .cls-5 {
        fill: #f1d999;
      }

      .cls-6 {
        fill: #f2f2f2;
      }

      .cls-7 {
        fill: #495059;
      }

      .cls-8 {
        fill: #eeeeed;
      }

      .cls-9 {
        fill: #dfdfdd;
      }

      .cls-10 {
        fill: #a2d5ec;
      }

      .cls-11 {
        fill: #79ace2;
      }

      .cls-12 {
        fill: #6d9bcc;
      }

      .cls-13 {
        fill: #fff;
      }

      .cls-14 {
        fill: #8fcae6;
      }
    </style>
  </defs>
  <g id="ic_footer_courier" transform="translate(-1007 -112)">
    <g id="box_1_" data-name="box (1)" transform="translate(1007 121.163)">
      <path id="Path_591" data-name="Path 591" class="cls-1" d="M0,5.391,8.077,1.378l8.077,4.013v.53L8.077,9.935,0,5.934Z"/>
      <path id="Path_592" data-name="Path 592" class="cls-2" d="M0,126.622l8.077,4.013,8.077-4.013v8.039l-8.1,4.013L0,134.661Z" transform="translate(0 -121.231)"/>
      <path id="Path_593" data-name="Path 593" class="cls-3" d="M8.077,139.424V131.4L.05,127.409H0v8.014l8.052,4.013Z" transform="translate(0 -121.992)"/>
      <path id="Path_594" data-name="Path 594" class="cls-4" d="M102.794,51.418l8.064,4.013,1.641-.808-8.09-4.013Z" transform="translate(-99.5 -47.654)"/>
      <path id="Path_595" data-name="Path 595" class="cls-5" d="M354.462,176.661l1.641-.808v2.524l-.442-.076-.467.568-.732-.05S354.462,176.661,354.462,176.661Z" transform="translate(-343.104 -168.884)"/>
      <path id="Path_596" data-name="Path 596" class="cls-6" d="M109.342,309.913l-2.726-1.363c-.151-.076-.278.013-.278.2v1.83a.579.579,0,0,0,.278.48l2.739,1.363c.151.076.278-.013.278-.2V310.38A.6.6,0,0,0,109.342,309.913Zm-.618,1.5-1.742-.871a.3.3,0,0,1-.139-.252c0-.1.063-.151.139-.114l1.742.871a.3.3,0,0,1,.139.252C108.862,311.4,108.8,311.453,108.723,311.415Zm.252-.631-1.994-1.01a.3.3,0,0,1-.139-.252c0-.1.063-.151.139-.114l1.994,1.01a.3.3,0,0,1,.139.252C109.114,310.784,109.051,310.822,108.976,310.784Z" transform="translate(-102.931 -297.303)"/>
    </g>
    <g id="airplane" transform="translate(1010.001 112)">
      <path id="Path_576" data-name="Path 576" class="cls-7" d="M221.354,257.332H218.99a.705.705,0,0,1-.706-.706v-1.5a.705.705,0,0,1,.706-.706h2.363a.706.706,0,0,1,.706.706v1.5A.706.706,0,0,1,221.354,257.332Zm0,0" transform="translate(-204.648 -238.53)"/>
      <path id="Path_577" data-name="Path 577" class="cls-8" d="M8.119,4.544,6.444,1.9A4.086,4.086,0,0,0,2.992,0H1.424A1.424,1.424,0,0,0,.036,1.741L1.513,8.2a7.619,7.619,0,0,0,7.427,5.92H24.532a9.967,9.967,0,0,0,6.52-2.428,2.7,2.7,0,0,0,0-4.09,9.968,9.968,0,0,0-6.52-2.428H9.261a1.352,1.352,0,0,1-1.142-.628Zm0,0" transform="translate(0 0)"/>
      <path id="Path_578" data-name="Path 578" class="cls-8" d="M8.119,4.544,6.444,1.9A4.086,4.086,0,0,0,2.992,0H1.424A1.424,1.424,0,0,0,.036,1.741L1.513,8.2a7.619,7.619,0,0,0,7.427,5.92H24.532a9.967,9.967,0,0,0,6.52-2.428,2.7,2.7,0,0,0,0-4.09,9.968,9.968,0,0,0-6.52-2.428H9.261a1.352,1.352,0,0,1-1.142-.628Zm0,0" transform="translate(0 0)"/>
      <path id="Path_579" data-name="Path 579" class="cls-9" d="M2.217,0H1.423A1.424,1.424,0,0,0,.036,1.741L1.513,8.2a7.619,7.619,0,0,0,7.427,5.92H11.5C6.2,12.574,3.108,5.083,2.217,0Zm0,0" transform="translate(0 0)"/>
      <path id="Path_580" data-name="Path 580" class="cls-9" d="M168.508,184.077h-.617a.813.813,0,0,1-.8-.979l1.571-7.538a1.283,1.283,0,0,1,1.256-1.021h3.5a.851.851,0,0,1,.79,1.167l-2.472,6.181A3.484,3.484,0,0,1,168.508,184.077Zm0,0" transform="translate(-156.64 -163.635)"/>
      <g id="Group_192" data-name="Group 192" transform="translate(9.848 6.938)">
        <path id="Path_581" data-name="Path 581" class="cls-10" d="M397.772,113.339h5.49a2.686,2.686,0,0,0-.9-1.618,9.969,9.969,0,0,0-.856-.662h-4.891a.561.561,0,0,0-.516.782l.234.547A1.567,1.567,0,0,0,397.772,113.339Zm0,0" transform="translate(-381.157 -111.059)"/>
        <path id="Path_582" data-name="Path 582" class="cls-10" d="M309.722,113.343h.58a1.14,1.14,0,0,0,0-2.28h-.58a1.14,1.14,0,0,0,0,2.28Zm0,0" transform="translate(-299.152 -111.063)"/>
        <path id="Path_583" data-name="Path 583" class="cls-10" d="M234.257,113.343h.58a1.14,1.14,0,1,0,0-2.28h-.58a1.14,1.14,0,0,0,0,2.28Zm0,0" transform="translate(-228.402 -111.063)"/>
        <path id="Path_584" data-name="Path 584" class="cls-10" d="M158.789,113.343h.58a1.14,1.14,0,1,0,0-2.28h-.58a1.14,1.14,0,1,0,0,2.28Zm0,0" transform="translate(-157.649 -111.063)"/>
      </g>
      <path id="Path_585" data-name="Path 585" class="cls-11" d="M2.724,10.9C2.367,7.371,5.41,4.174,7.138,3l-.7-1.1A4.085,4.085,0,0,0,2.992,0H1.424A1.424,1.424,0,0,0,.036,1.741L1.513,8.2A7.6,7.6,0,0,0,2.724,10.9Zm0,0" transform="translate(0 0)"/>
      <path id="Path_586" data-name="Path 586" class="cls-12" d="M2.724,10.9A7.393,7.393,0,0,1,4.089,6.158,27.649,27.649,0,0,1,2.217,0H1.424A1.424,1.424,0,0,0,.036,1.741L1.513,8.2A7.6,7.6,0,0,0,2.724,10.9Zm0,0" transform="translate(0 0)"/>
      <path id="Path_587" data-name="Path 587" class="cls-9" d="M342.031,185.846h3.091a9.967,9.967,0,0,0,6.52-2.428,2.783,2.783,0,0,0,.25-.247h-7.828a2.109,2.109,0,0,0-2.032,2.675Zm0,0" transform="translate(-320.589 -171.728)"/>
      <path id="Path_588" data-name="Path 588" class="cls-11" d="M171.742,246.685l1.212-3.03-5.243,1.282-.617,2.959a.813.813,0,0,0,.8.979h.617A3.484,3.484,0,0,0,171.742,246.685Zm0,0" transform="translate(-156.64 -228.433)"/>
      <path id="Path_589" data-name="Path 589" class="cls-13" d="M31.387,29.218H30.152a.469.469,0,0,1,0-.937h1.234a.469.469,0,0,1,0,.937Zm0,0" transform="translate(-27.83 -26.515)"/>
      <path id="Path_590" data-name="Path 590" class="cls-14" d="M446.08,113.339a2.686,2.686,0,0,0-.9-1.618,9.984,9.984,0,0,0-.856-.662H444l-2.28,2.28Zm0,0" transform="translate(-414.127 -104.121)"/>
    </g>
  </g>
</svg>
