<svg id="earth-globe" xmlns="http://www.w3.org/2000/svg" viewBox="0 0 80 80">
  <defs>
    <style>
      .cls-1 {
        fill: #87dcff;
      }

      .cls-2 {
        fill: #bee86e;
      }

      .cls-3 {
        fill: #00c3ff;
      }

      .cls-4 {
        fill: #afd755;
      }
    </style>
  </defs>
  <circle id="Ellipse_7" data-name="Ellipse 7" class="cls-1" cx="40" cy="40" r="40"/>
  <path id="Path_47" data-name="Path 47" class="cls-2" d="M133.317,1.783l-1.651,5.145A3.871,3.871,0,0,1,129,9.478l-4.142,1.136a3.873,3.873,0,0,1-1.024.138h-6.2a1.29,1.29,0,0,0-1.279,1.12l-.711,5.332-3.959.207a1.29,1.29,0,0,0-1.222,1.237l-.137,3.441a1.29,1.29,0,0,0,1.4,1.337l2.638-.22a2.322,2.322,0,0,0,1.694-.961l2.44-3.4,5.218-.186a1.557,1.557,0,0,1,1.5,2.124c-.909,2.335-.91,2.535-.91,2.74a1.29,1.29,0,0,0,2.562.219c.088-.3.482-1.328,1-2.637a.727.727,0,0,1,1.282-.137l.334.5a2.58,2.58,0,0,0,2.843,1.064l2.3-.639a2.088,2.088,0,0,0,1.4-1.276l.442-1.172a2.581,2.581,0,0,1,1.893-1.617l1.489-.307a1.883,1.883,0,0,1,2.264,1.423,1.8,1.8,0,0,1-1.568,2.1l-3.59.1a1.371,1.371,0,0,0-1.334,1.338l-.008.344a.718.718,0,0,0,.392.657l2.065,1.053a1.466,1.466,0,0,1,.546,2.13h0a1.466,1.466,0,0,1-1.212.642H126.51a2.27,2.27,0,0,1-.833-.158l-9.138-3.6a1.893,1.893,0,0,0-1.979.371l-8.654,8a2.581,2.581,0,0,0-.754,2.512l1.76,7.148a2.581,2.581,0,0,0,2.367,1.96l9.75.524a3.871,3.871,0,0,1,3.647,3.51l.74,8.029a5.04,5.04,0,0,0,.474,1.724,53.825,53.825,0,0,0,3.8,6.956c1.371,1.734,4.749,1.8,5.887.766l7.927-6.487a3.872,3.872,0,0,0,1.225-2.3l.929-6.371,6.295-6.937a1.288,1.288,0,0,0-.442-2.047l-.113.076a3.414,3.414,0,0,1-1.6.565c-.1.009-.2.014-.3.014a3.388,3.388,0,0,1-2.878-1.593l-4.806-7.631A1.291,1.291,0,0,1,142,30.961l4.806,7.632a.819.819,0,0,0,.77.383.848.848,0,0,0,.388-.137l6.5-3.56a1.244,1.244,0,0,0,.375-1.867h0a1.245,1.245,0,0,0-1.115-.461l-1.365.157a1.291,1.291,0,0,1-1.009-.32l-4.086-3.655a1.29,1.29,0,0,1,1.721-1.923l3.654,3.269,2.22-.256a1.282,1.282,0,0,1,1.19.52l.427.585,2.164-.26a2.581,2.581,0,0,1,2.577,1.335l4.37,8.08a2.58,2.58,0,0,0,1.483,1.23l1.572.552c0-.254.019-.506.019-.761A40,40,0,0,0,133.317,1.783Zm16.71,22.08a1.288,1.288,0,0,1-1.791-.347l-2.688-3.978a1.29,1.29,0,1,1,2.137-1.444l2.688,3.978A1.288,1.288,0,0,1,150.027,23.863Z" transform="translate(-88.659 -1.504)"/>
  <path id="Path_48" data-name="Path 48" class="cls-3" d="M53.118,98.89A40,40,0,0,1,19.046,37.936,40,40,0,1,0,74.073,92.963,39.805,39.805,0,0,1,53.118,98.89Z" transform="translate(0 -32.009)"/>
  <g id="Group_9" data-name="Group 9" transform="translate(27.78 0.808)">
    <path id="Path_49" data-name="Path 49" class="cls-2" d="M360.514,355.518a1.29,1.29,0,0,1-.987-2.121l3.387-4.032a1.291,1.291,0,1,1,1.976,1.661l-3.387,4.032A1.288,1.288,0,0,1,360.514,355.518Z" transform="translate(-330.876 -295.197)"/>
    <path id="Path_50" data-name="Path 50" class="cls-2" d="M179.01,5.908l-1.148,3.421a1.291,1.291,0,0,0,2.447.822l1.671-4.98C180.974,5.376,179.987,5.629,179.01,5.908Z" transform="translate(-177.794 -5.171)"/>
  </g>
  <path id="Path_51" data-name="Path 51" class="cls-4" d="M7.544,296.687,8.66,286.544a2.58,2.58,0,0,0-.773-2.145L1,277.96A39.761,39.761,0,0,0,7.544,296.687Z" transform="translate(-0.845 -234.529)"/>
  <path id="Path_52" data-name="Path 52" class="cls-2" d="M231.612,0a40.419,40.419,0,0,0-4.282.231L227.2,3.259a1.935,1.935,0,1,0,3.672,1.225L232.355.019C232.107.014,231.861,0,231.612,0Z" transform="translate(-191.612)"/>
</svg>
