<svg xmlns="http://www.w3.org/2000/svg" xmlns:xlink="http://www.w3.org/1999/xlink" width="140" height="101" viewBox="0 0 140 101"><defs><path id="vzxsa" d="M715.9 964.11h-8.78l-1.78 20.43h10.55c6.26 0 9.09 3.24 12.07 6.67 2.84 3.26 6.05 6.95 12.12 6.95h1.87l.16-1.86c.2-2.39.34-4.4.34-5.63a26.58 26.58 0 0 0-26.56-26.56z"/><path id="vzxsb" d="M715.9 964.11h-8.18a26.59 26.59 0 0 1 26.56 26.56c0 1.23-.13 3.24-.34 5.63l-.03.3c1.7.94 3.7 1.56 6.17 1.56h1.87l.16-1.86c.2-2.39.34-4.4.34-5.63a26.58 26.58 0 0 0-26.56-26.56z"/><path id="vzxsc" d="M709.77 933.54v-.08l-.01-.12-.02-.09c0-.04 0-.07-.02-.11l-.02-.09-.03-.1c0-.04-.02-.06-.03-.1l-.04-.09-.04-.1-.04-.08-.07-.11-.03-.05a1.98 1.98 0 0 0-.1-.13l-.02-.03a2 2 0 0 0-.75-.57h-.03c-.05-.03-.09-.04-.13-.05l-.07-.03-.1-.03-.1-.02-.1-.01-.1-.02h-74.68c-.97 0-1.8.67-2 1.6v.02c-.02.05-.02.1-.03.16v.05l-6.07 62.54-.02.21h.01c0 1.13.92 2.05 2.04 2.05h75.11l.2-.01h.04c.05-.02.1-.02.16-.03l.07-.02.12-.03c.03 0 .05-.02.08-.03l.1-.04c.03 0 .06-.02.08-.03l.1-.05.08-.04.08-.05a1.91 1.91 0 0 0 .43-.38 2.42 2.42 0 0 0 .23-.32l.04-.07.04-.1.04-.08.04-.1.02-.08.03-.1.02-.1.02-.1.01-.1 5.45-62.52v-.04-.05-.13-.02z"/><path id="vzxsd" d="M709.77 933.54v-.08l-.01-.12-.02-.09c0-.04 0-.07-.02-.11l-.02-.09-.03-.1c0-.04-.02-.06-.03-.1l-.04-.09-.04-.1-.04-.08-.07-.11-.03-.05a1.96 1.96 0 0 0-.1-.13l-.02-.03a2 2 0 0 0-.75-.57h-.03c-.05-.03-.09-.04-.13-.05l-.07-.03-.1-.03-.1-.02-.1-.01-.1-.02H699.55 699.75l.1.02.1.01.1.02.1.03.07.03.12.04.04.02.14.07h.01c.23.13.43.3.6.5l.01.02.1.13.04.05.06.11.04.08.05.1.04.1c0 .03.02.05.03.08l.03.11.02.09.02.11.01.09.01.12V933.78l-5.45 62.51v.02l-.02.1-.01.1-.02.1-.03.09-.03.09-.03.1-.04.07-.05.1c0 .03-.02.05-.04.07a2.23 2.23 0 0 1-.35.46 2.27 2.27 0 0 1-.47.33l-.09.05-.08.03-.1.04-.08.03-.13.03-.06.02-.16.02h-.04l-.2.02h8.17l.2-.01h.04c.05-.02.1-.02.16-.03l.07-.02.12-.03.08-.03.1-.04c.03 0 .05-.02.08-.03l.1-.05.07-.04.09-.05a1.92 1.92 0 0 0 .43-.38 2.41 2.41 0 0 0 .23-.32l.04-.07.04-.1.04-.08.03-.1c.01-.02.03-.05.03-.08l.03-.1.02-.1.02-.1.01-.1 5.45-62.52v-.04-.05-.13-.02z"/><path id="vzxse" d="M715.9 984.54c.66 0 1.29.04 1.88.1l1.77-20.28c-1.2-.16-2.42-.25-3.66-.25h-.42l-1.78 20.43h2.2z"/><path id="vzxsf" d="M644.13 981.81H619.6a2.04 2.04 0 1 1 0-4.08h24.52a2.04 2.04 0 1 1 0 4.08z"/><path id="vzxsg" d="M622.34 968.2h-9.99a2.04 2.04 0 1 1 0-4.09h9.99a2.04 2.04 0 1 1 0 4.09z"/><path id="vzxsh" d="M655.02 951.86h-49.98a2.04 2.04 0 1 1 0-4.09h49.98a2.04 2.04 0 1 1 0 4.09z"/><path id="vzxsi" d="M742.11 996.33l-.16 1.78.16-1.78z"/><path id="vzxsj" d="M740.08 998.16c-6.07 0-9.28-3.7-12.12-6.95-2.98-3.43-5.8-6.67-12.07-6.67h-10.55l-1.03 11.75v.02l-.01.1-.02.1-.02.1-.03.09-.03.09-.03.1-.04.07-.04.1-.04.07a2.17 2.17 0 0 1-.44.53 1.92 1.92 0 0 1-.3.22l-.09.04-.09.05-.08.03-.1.04-.08.03-.12.03-.07.02-.16.02h-.04l-.2.02h-75.1a2.04 2.04 0 0 1-2.05-2.04l-2.1 21.57v.1l-.01.11v.16l.01.05.02.16.01.05c0 .04.02.07.03.11l.02.08.01.03c.1.3.27.57.49.8l.08.07c.14.13.3.24.47.32l.1.06h.04l.16.07h.01l.19.05h.02l.18.03H737.92a2 2 0 0 0 .16-.03l.07-.02.12-.03.07-.02.1-.04.09-.04.09-.04a1.5 1.5 0 0 0 .16-.1l.08-.05.08-.06.06-.05.09-.07.05-.06.08-.09.05-.05.08-.11.03-.04.1-.15v-.01l.08-.18.02-.05.05-.13.02-.08.03-.1.02-.1.01-.08c.08-.65 1.47-11.77 2.24-20h-1.87z"/><path id="vzxsk" d="M740.08 998.16c-2.47 0-4.46-.61-6.15-1.55-.77 8.23-2.31 20.9-2.4 21.55v.08l-.02.1-.03.1-.02.08-.05.13-.02.05-.08.18-.1.16-.03.04-.08.11-.05.05-.08.1-.06.05-.08.07-.06.05-.08.06-.08.05a2 2 0 0 1-.17.1l-.08.04-.09.04a1.9 1.9 0 0 1-.1.04l-.08.02-.12.03-.06.02-.16.02h-.03l-.2.02h8.16l.2-.01h.04l.16-.03.07-.02.12-.03.08-.02a1.9 1.9 0 0 0 .18-.08l.09-.04a1.5 1.5 0 0 0 .16-.1l.08-.05.08-.06.07-.05.08-.07.05-.06.08-.09.05-.05.08-.11.03-.04.1-.15v-.01l.08-.18.02-.05.05-.13.02-.08.03-.1.02-.1.01-.08c.08-.65 1.47-11.77 2.24-20z"/><path id="vzxsl" d="M649.58 1031.52c-7.51 0-13.62-6.1-13.62-13.62 0-7.5 6.1-13.62 13.62-13.62 7.5 0 13.61 6.11 13.61 13.62 0 7.51-6.1 13.62-13.61 13.62z"/><path id="vzxsm" d="M649.58 1023.35a5.45 5.45 0 1 1 0-10.9 5.45 5.45 0 0 1 0 10.9z"/><path id="vzxsn" d="M713.17 1031.52c-7.5 0-13.62-6.1-13.62-13.62 0-7.5 6.11-13.62 13.62-13.62 7.51 0 13.62 6.11 13.62 13.62 0 7.51-6.11 13.62-13.62 13.62z"/><path id="vzxso" d="M713.17 1023.35a5.45 5.45 0 1 1 .01-10.9 5.45 5.45 0 0 1 0 10.9z"/></defs><g><g transform="translate(-603 -931)"><g><use fill="#5d9cec" xlink:href="#vzxsa"/></g><g><use fill="#4a89dc" xlink:href="#vzxsb"/></g><g><use fill="#ed5565" xlink:href="#vzxsc"/></g><g><use fill="#da4453" xlink:href="#vzxsd"/></g><g><use fill="#ccd1d9" xlink:href="#vzxse"/></g><g><g><use fill="#e6e9ed" xlink:href="#vzxsf"/></g><g><use fill="#e6e9ed" xlink:href="#vzxsg"/></g><g><use fill="#e6e9ed" xlink:href="#vzxsh"/></g></g><g><g><use fill="#ccd1d9" xlink:href="#vzxsi"/></g><g><use fill="#ccd1d9" xlink:href="#vzxsj"/></g></g><g><g><use fill="#aab2bc" xlink:href="#vzxsk"/></g><g/></g><g><use fill="#656d78" xlink:href="#vzxsl"/></g><g><use fill="#ccd1d9" xlink:href="#vzxsm"/></g><g><use fill="#656d78" xlink:href="#vzxsn"/></g><g><use fill="#ccd1d9" xlink:href="#vzxso"/></g></g></g></svg>