<svg xmlns="http://www.w3.org/2000/svg" viewBox="0 0 31.877 31.877">
  <defs>
    <style>
      .cls-1 {
        fill: #f2f2f2;
      }

      .cls-2 {
        fill: #e5e5e5;
      }

      .cls-3 {
        fill: #e85151;
      }

      .cls-4 {
        fill: #f7d04a;
      }

      .cls-5 {
        fill: #f3b41b;
      }

      .cls-6 {
        fill: #eb6836;
      }

      .cls-7 {
        fill: #62c9cc;
      }

      .cls-8 {
        fill: #ef9d3c;
      }

      .cls-9 {
        fill: #666;
      }

      .cls-10 {
        fill: #50a9a9;
      }

      .cls-11 {
        fill: gray;
      }
    </style>
  </defs>
  <g id="ic_footer_calculator" transform="translate(-1010 -110.124)">
    <path id="Path_551" data-name="Path 551" class="cls-1" d="M111.918,31.124,106.594,25.8a.5.5,0,0,0-.353-.146H86.01a.5.5,0,0,0-.5.5V55.435a.5.5,0,0,0,.5.5h25.555a.5.5,0,0,0,.5-.5V31.477A.5.5,0,0,0,111.918,31.124Z" transform="translate(929.813 86.067)"/>
    <g id="Group_186" data-name="Group 186" transform="translate(1015.324 111.721)">
      <path id="Path_552" data-name="Path 552" class="cls-2" d="M423.96,31.455a.5.5,0,0,0-.145-.331L418.491,25.8a.5.5,0,0,0-.353-.146h-.022v5.3a.5.5,0,0,0,.5.5h5.345Z" transform="translate(-397.408 -25.654)"/>
      <path id="Path_553" data-name="Path 553" class="cls-2" d="M86.01,25.653a.5.5,0,0,0-.5.5V55.434a.5.5,0,0,0,.5.5h23.4l-20.75-30.28Z" transform="translate(-85.511 -25.653)"/>
    </g>
    <path id="Path_554" data-name="Path 554" class="cls-3" d="M13.343,0H1.5A1.5,1.5,0,0,0,0,1.5V17.6a1.5,1.5,0,0,0,1.5,1.5H13.343a1.5,1.5,0,0,0,1.5-1.5V1.5A1.5,1.5,0,0,0,13.343,0Z" transform="translate(1010 110.124)"/>
    <path id="Path_555" data-name="Path 555" class="cls-4" d="M246.852,247.983a7.42,7.42,0,1,0,7.42,7.42A7.429,7.429,0,0,0,246.852,247.983Z" transform="translate(785.475 -122.42)"/>
    <path id="Path_556" data-name="Path 556" class="cls-5" d="M248.315,283.875a7.416,7.416,0,0,1-5.926-11.882,7.418,7.418,0,1,0,10.387,10.387A7.382,7.382,0,0,1,248.315,283.875Z" transform="translate(785.476 -144.935)"/>
    <path id="Path_557" data-name="Path 557" class="cls-6" d="M320.159,287.044l-.773-.023v-2.772h1.764a.5.5,0,0,0,0-1h-1.764v-.566a.5.5,0,0,0-1,0v.566h-.5a1.5,1.5,0,0,0-1.5,1.5v1.73a1.5,1.5,0,0,0,1.489,1.5l.507.015V290.7h-1.5a.5.5,0,0,0,0,1h1.5v.566a.5.5,0,0,0,1,0V291.7h.765a1.5,1.5,0,0,0,1.5-1.5v-1.664A1.5,1.5,0,0,0,320.159,287.044Zm-2.256-.066h-.015a.5.5,0,0,1-.5-.5v-1.73a.5.5,0,0,1,.5-.5h.5v2.743Zm2.747,3.228a.5.5,0,0,1-.5.5h-.765V288.02l.751.022h.015a.5.5,0,0,1,.5.5Z" transform="translate(713.308 -154.493)"/>
    <path id="Path_558" data-name="Path 558" class="cls-1" d="M36.8,25.653H26.152a.5.5,0,0,0-.5.5v2.662a.5.5,0,0,0,.5.5H36.8a.5.5,0,0,0,.5-.5V26.152A.5.5,0,0,0,36.8,25.653Z" transform="translate(985.944 86.068)"/>
    <g id="Group_187" data-name="Group 187" transform="translate(1011.597 111.721)">
      <path id="Path_559" data-name="Path 559" class="cls-7" d="M26.152,25.653a.5.5,0,0,0-.5.5v2.662a.5.5,0,0,0,.5.5h2.163l3.66-3.66H26.152Z" transform="translate(-25.653 -25.653)"/>
      <path id="Path_560" data-name="Path 560" class="cls-7" d="M121.5,25.653h-1.863l-3.66,3.66H121.5a.5.5,0,0,0,.5-.5V26.152A.5.5,0,0,0,121.5,25.653Z" transform="translate(-110.351 -25.653)"/>
    </g>
    <g id="Group_188" data-name="Group 188" transform="translate(1011.597 115.98)">
      <path id="Path_561" data-name="Path 561" class="cls-8" d="M28.282,94.063h-2.13a.5.5,0,0,0-.5.5v2.13a.5.5,0,0,0,.5.5h2.13a.5.5,0,0,0,.5-.5v-2.13A.5.5,0,0,0,28.282,94.063Z" transform="translate(-25.653 -94.063)"/>
      <path id="Path_562" data-name="Path 562" class="cls-8" d="M96.156,94.063h-2.13a.5.5,0,0,0-.5.5v2.13a.5.5,0,0,0,.5.5h2.13a.5.5,0,0,0,.5-.5v-2.13A.5.5,0,0,0,96.156,94.063Z" transform="translate(-89.301 -94.063)"/>
      <path id="Path_563" data-name="Path 563" class="cls-8" d="M28.282,162.472h-2.13a.5.5,0,0,0-.5.5v2.13a.5.5,0,0,0,.5.5h2.13a.5.5,0,0,0,.5-.5v-2.13A.5.5,0,0,0,28.282,162.472Z" transform="translate(-25.653 -158.213)"/>
      <path id="Path_564" data-name="Path 564" class="cls-8" d="M96.156,162.472h-2.13a.5.5,0,0,0-.5.5v2.13a.5.5,0,0,0,.5.5h2.13a.5.5,0,0,0,.5-.5v-2.13A.5.5,0,0,0,96.156,162.472Z" transform="translate(-89.301 -158.213)"/>
      <path id="Path_565" data-name="Path 565" class="cls-8" d="M28.282,230.881h-2.13a.5.5,0,0,0-.5.5v2.13a.5.5,0,0,0,.5.5h2.13a.5.5,0,0,0,.5-.5v-2.13A.5.5,0,0,0,28.282,230.881Z" transform="translate(-25.653 -222.363)"/>
      <path id="Path_566" data-name="Path 566" class="cls-8" d="M96.156,230.881h-2.13a.5.5,0,0,0-.5.5v2.13a.5.5,0,0,0,.5.5h2.13a.5.5,0,0,0,.5-.5v-2.13A.5.5,0,0,0,96.156,230.881Z" transform="translate(-89.301 -222.363)"/>
      <path id="Path_567" data-name="Path 567" class="cls-8" d="M164.566,94.063h-2.13a.5.5,0,0,0-.5.5v2.13a.5.5,0,0,0,.5.5h2.13a.5.5,0,0,0,.5-.5v-2.13A.5.5,0,0,0,164.566,94.063Z" transform="translate(-153.452 -94.063)"/>
    </g>
    <path id="Path_568" data-name="Path 568" class="cls-4" d="M165.1,162.472h-2.13a.5.5,0,0,0-.5.5v6.389a.5.5,0,0,0,.5.5h2.13a.5.5,0,0,0,.5-.5v-6.389A.5.5,0,0,0,165.1,162.472Z" transform="translate(857.645 -42.233)"/>
    <path id="Path_569" data-name="Path 569" class="cls-9" d="M275.782,61.919a.5.5,0,0,1-.37-.164l-.966-1.065a.5.5,0,1,1,.74-.671l.966,1.065a.5.5,0,0,1-.37.834Z" transform="translate(752.762 53.994)"/>
    <g id="Group_189" data-name="Group 189" transform="translate(1028.209 114.98)">
      <path id="Path_570" data-name="Path 570" class="cls-7" d="M303.146,86.474l-7.953-7.953a.5.5,0,0,0-.255-.136l-1.882-.376a.5.5,0,0,0-.587.587l.376,1.882a.5.5,0,0,0,.136.255l7.953,7.953a1.507,1.507,0,0,0,1.221.429,1.631,1.631,0,0,0,.991-.523A1.5,1.5,0,0,0,303.146,86.474Z" transform="translate(-292.459 -77.999)"/>
      <rect id="Rectangle_89" data-name="Rectangle 89" class="cls-7" width="7.716" height="3.128" transform="translate(5.979 8.191) rotate(-135)"/>
    </g>
    <path id="Path_571" data-name="Path 571" class="cls-4" d="M293.058,78.011a.5.5,0,0,0-.587.587l.376,1.882a.5.5,0,0,0,.136.255l2.212-2.212a.5.5,0,0,0-.255-.136Z" transform="translate(735.748 36.979)"/>
    <path id="Path_572" data-name="Path 572" class="cls-10" d="M393.2,176.527l-2.5-2.5-2.212,2.212,2.5,2.5a1.511,1.511,0,0,0,1.2.426,1.616,1.616,0,0,0,1.013-.52A1.5,1.5,0,0,0,393.2,176.527Z" transform="translate(645.698 -53.072)"/>
    <path id="Path_573" data-name="Path 573" class="cls-9" d="M420.184,150.081a.5.5,0,0,1-.353-.852l.767-.767-2.347-2.229a.5.5,0,1,1,.687-.724l2.719,2.582a.5.5,0,0,1,.009.715l-1.129,1.129A.5.5,0,0,1,420.184,150.081Z" transform="translate(617.936 -26.197)"/>
    <g id="Group_190" data-name="Group 190" transform="translate(1018.518 133.017)">
      <path id="Path_574" data-name="Path 574" class="cls-11" d="M140.645,368.7h-3.328a.5.5,0,0,1,0-1h3.328a.5.5,0,0,1,0,1Z" transform="translate(-136.818 -367.699)"/>
      <path id="Path_575" data-name="Path 575" class="cls-11" d="M140.645,411.453h-3.328a.5.5,0,1,1,0-1h3.328a.5.5,0,0,1,0,1Z" transform="translate(-136.818 -407.793)"/>
    </g>
  </g>
</svg>
