<svg xmlns="http://www.w3.org/2000/svg" viewBox="0 0 30 30">
  <defs>
    <style>
      .cls-1 {
        fill: #fff;
      }

      .cls-2 {
        fill: #e85151;
        fill-rule: evenodd;
      }
    </style>
  </defs>
  <g id="ic_social_google" transform="translate(-1 -1)">
    <ellipse id="Ellipse_37" data-name="Ellipse 37" class="cls-1" cx="13.75" cy="13.75" rx="13.75" ry="13.75" transform="translate(2 2)"/>
    <path id="youtube" class="cls-2" d="M15,30A15,15,0,1,1,30,15,15,15,0,0,1,15,30ZM11.656,5.09l-.773,2.972-.8-2.972H8.886c.239.7.488,1.407.726,2.109a18.588,18.588,0,0,1,.693,2.395V12.66h1.133V9.594L12.8,5.09ZM15.83,8.858a2.214,2.214,0,0,0-.317-1.329,1.515,1.515,0,0,0-2.382,0,2.191,2.191,0,0,0-.32,1.329v1.975a2.185,2.185,0,0,0,.32,1.326,1.517,1.517,0,0,0,2.382,0,2.208,2.208,0,0,0,.317-1.326Zm3.78-1.839H18.588V11.33c-.227.32-.441.478-.646.478-.137,0-.217-.081-.24-.239a2.41,2.41,0,0,1-.012-.4V7.019H16.671v4.46a2.856,2.856,0,0,0,.091.839.628.628,0,0,0,.659.419,1.642,1.642,0,0,0,1.168-.693v.615H19.61Zm3.471,8.109a2.115,2.115,0,0,0-1.809-1.645,56.282,56.282,0,0,0-6.267-.231,56.288,56.288,0,0,0-6.267.231A2.113,2.113,0,0,0,6.93,15.128a17.932,17.932,0,0,0-.3,3.956,17.909,17.909,0,0,0,.292,3.956,2.113,2.113,0,0,0,1.809,1.645A56.205,56.205,0,0,0,15,24.916a56.208,56.208,0,0,0,6.267-.232,2.114,2.114,0,0,0,1.809-1.645,17.892,17.892,0,0,0,.293-3.956A17.93,17.93,0,0,0,23.082,15.128Zm-1.216,6.891a1.4,1.4,0,0,1-1.223.6,1.446,1.446,0,0,1-1.224-.572,2.156,2.156,0,0,1-.325-1.312V18.784a2.176,2.176,0,0,1,.313-1.315,1.437,1.437,0,0,1,1.211-.572,1.4,1.4,0,0,1,1.193.572,2.2,2.2,0,0,1,.313,1.315V19.94H20.1v.99c0,.516.17.774.517.774a.435.435,0,0,0,.452-.406,6.646,6.646,0,0,0,.022-.685h1.032v.147c0,.326-.012.55-.021.652A1.438,1.438,0,0,1,21.866,22.019ZM20.1,19.1h1.011v-.516c0-.516-.169-.774-.5-.774s-.508.258-.508.774Zm-2.7,3.526a1.378,1.378,0,0,1-1.045-.617v.541H15.34V15.055h1.011V17.5A1.369,1.369,0,0,1,17.4,16.9a.8.8,0,0,1,.808.63,4.3,4.3,0,0,1,.1,1.122v2.223A4.451,4.451,0,0,1,18.2,22,.8.8,0,0,1,17.4,22.624Zm-.1-4.055c0-.5-.148-.762-.44-.762a.725.725,0,0,0-.5.246v3.4a.721.721,0,0,0,.5.249c.292,0,.44-.249.44-.753Zm-3.842,3.369a1.62,1.62,0,0,1-1.156.686.621.621,0,0,1-.651-.415,2.837,2.837,0,0,1-.089-.83V16.965h1.011v4.109a3.128,3.128,0,0,0,.009.393c.024.157.1.237.237.237.2,0,.415-.156.64-.473V16.965h1.012v5.582H13.453Zm-3.255.609H9.072V16.11H7.883V15.056h3.526V16.11H10.2Zm4.123-10.738c-.329,0-.488-.261-.488-.783V8.653c0-.522.159-.782.488-.782s.488.26.488.782v2.373C14.809,11.547,14.65,11.809,14.321,11.809Z" transform="translate(0.997 0.997)"/>
  </g>
</svg>
