<svg xmlns="http://www.w3.org/2000/svg" xmlns:xlink="http://www.w3.org/1999/xlink" width="80" height="67" viewBox="0 0 80 67"><defs><path id="bdx6a" d="M265.222 1249.3c-4.404-3.487-13.828-5.681-14.227-5.772a1.368 1.368 0 0 0-1.673 1.342c0 1.86-3.79 4.135-8.21 4.135-4.421 0-8.212-2.274-8.212-4.135 0-.42-.19-.816-.515-1.078a1.329 1.329 0 0 0-1.158-.275c-.4.09-9.82 2.288-14.233 5.772-4.557 3.621-5.854 21.074-5.991 23.05a1.38 1.38 0 0 0 .771 1.334 32.278 32.278 0 0 0 10.177 2.839v28.996c.001.51.28.977.728 1.215.222.122 5.595 2.92 18.432 2.92s18.21-2.798 18.432-2.92a1.38 1.38 0 0 0 .728-1.215v-28.996a32.28 32.28 0 0 0 10.174-2.839 1.38 1.38 0 0 0 .775-1.334c-.137-1.976-1.435-19.429-5.998-23.04z"/><path id="bdx6b" d="M223.676 1276.864c-.778 0-1.409-.63-1.409-1.408v-8.449a11.265 11.265 0 0 0-2.405-7.452 1.408 1.408 0 0 1 1.991-1.99 13.768 13.768 0 0 1 3.23 9.442v8.449c0 .777-.63 1.408-1.407 1.408z"/><path id="bdx6c" d="M258.546 1276.864c-.777 0-1.408-.63-1.408-1.408v-8.449a13.769 13.769 0 0 1 3.228-9.446 1.408 1.408 0 1 1 1.99 1.992 11.264 11.264 0 0 0-2.401 7.454v8.449c0 .777-.63 1.408-1.409 1.408z"/><path id="bdx6d" d="M251.863 1243.816a1.388 1.388 0 0 0-1.16-.298 85.24 85.24 0 0 1-9.592 1.382 85.173 85.173 0 0 1-9.592-1.382 1.391 1.391 0 0 0-1.16.298 1.408 1.408 0 0 0-.513 1.084c0 4.225 5.824 7.04 11.265 7.04 5.441 0 11.265-2.815 11.265-7.04 0-.42-.189-.817-.513-1.084z"/><path id="bdx6e" d="M232.856 1305.846v-26.704a3.69 3.69 0 0 1 3.69-3.69h50.763a3.69 3.69 0 0 1 3.69 3.69v26.703a3.69 3.69 0 0 1-3.69 3.691h-50.762a3.69 3.69 0 0 1-3.691-3.69z"/><path id="bdx6f" d="M238.87 1275.452h46.115v34.084H238.87z"/><path id="bdx6g" d="M286.99 1286.48c0-.262.11-.523.29-.713.19-.181.451-.29.712-.29.26 0 .522.109.712.29.37.381.37 1.043 0 1.424-.19.18-.451.29-.712.29-.26 0-.521-.11-.712-.29-.18-.19-.29-.451-.29-.712z"/><path id="bdx6h" d="M286.99 1278.46c0-.272.11-.523.29-.712.19-.182.441-.291.712-.291.272 0 .522.11.712.29.37.371.37 1.043 0 1.424-.19.18-.451.29-.712.29-.26 0-.521-.11-.712-.29-.18-.19-.29-.451-.29-.712z"/><path id="bdx6i" d="M286.99 1306.529c0-.272.11-.523.29-.712.19-.182.451-.29.712-.29.26 0 .522.108.712.29.37.37.37 1.053 0 1.423-.19.18-.451.291-.712.291-.26 0-.521-.11-.712-.29-.18-.191-.29-.442-.29-.712z"/><path id="bdx6j" d="M286.99 1289.487c0-.261.11-.523.29-.712.19-.182.451-.29.712-.29.26 0 .522.108.712.29.37.37.37 1.042 0 1.423a1.014 1.014 0 0 1-1.424 0c-.18-.19-.29-.45-.29-.711z"/><path id="bdx6k" d="M286.99 1292.494c0-.26.1-.522.29-.712.19-.181.451-.29.712-.29.272 0 .522.109.712.29.37.36.37 1.053 0 1.424-.19.18-.451.29-.712.29-.26 0-.521-.11-.712-.29-.19-.19-.29-.451-.29-.712z"/><path id="bdx6l" d="M286.99 1295.501c0-.26.11-.522.29-.711.19-.182.451-.291.712-.291.26 0 .522.11.712.29.37.372.37 1.043 0 1.424a1.014 1.014 0 0 1-1.424 0c-.18-.19-.29-.45-.29-.712z"/><path id="bdx6m" d="M286.99 1298.509c0-.26.11-.522.29-.712.19-.181.451-.29.712-.29.272 0 .522.109.712.29.37.381.37 1.053 0 1.424-.19.18-.451.29-.712.29-.26 0-.521-.11-.712-.29-.18-.19-.29-.451-.29-.712z"/><path id="bdx6n" d="M236.575 1285.767a1.048 1.048 0 0 0-.712-.29c-.26 0-.521.109-.712.29-.18.19-.29.451-.29.712 0 .26.11.521.29.712.191.18.452.29.712.29.272 0 .523-.11.712-.29.37-.371.37-1.053 0-1.424z"/><path id="bdx6o" d="M236.575 1288.775a1.048 1.048 0 0 0-.712-.29c-.27 0-.521.108-.712.29-.18.19-.29.44-.29.712 0 .26.11.52.29.711.191.18.452.291.712.291.26 0 .523-.101.712-.29.37-.382.37-1.053 0-1.424z"/><path id="bdx6p" d="M236.575 1291.782a1.048 1.048 0 0 0-.712-.29c-.26 0-.521.109-.712.29-.18.19-.29.44-.29.712 0 .26.11.521.29.712.191.18.452.29.712.29.26 0 .523-.11.712-.29.37-.371.37-1.053 0-1.424z"/><path id="bdx6q" d="M236.575 1294.79a1.048 1.048 0 0 0-.712-.291c-.26 0-.521.11-.712.29-.18.19-.29.452-.29.712 0 .261.11.522.29.712.191.18.452.29.712.29.26 0 .523-.1.712-.29a1.05 1.05 0 0 0 0-1.423z"/><path id="bdx6r" d="M236.565 1299.22c.38-.37.38-1.052.01-1.423a1.048 1.048 0 0 0-.712-.29c-.27 0-.521.109-.712.29-.18.19-.29.451-.29.712 0 .26.11.521.29.712.191.18.452.29.712.29.26 0 .523-.11.702-.29z"/><path id="bdx6s" d="M276.965 1278.46a1 1 0 0 0 .294.708l4.01 4.01a1.001 1.001 0 1 0 1.417-1.418l-4.01-4.01a1.001 1.001 0 0 0-1.711.71z"/><path id="bdx6t" d="M271.952 1278.46a1 1 0 0 0 .294.708l2.005 2.005a1.001 1.001 0 1 0 1.418-1.417l-2.005-2.005a1.001 1.001 0 0 0-1.712.708z"/><path id="bdx6u" d="M277.677 1281.757c-.19-.181-.44-.29-.712-.29-.26 0-.521.109-.712.29-.18.19-.29.452-.29.712 0 .26.11.522.29.712.19.18.451.29.712.29.26 0 .522-.11.712-.29.37-.381.37-1.053 0-1.424z"/><path id="bdx6v" d="M278.261 1283.765a1 1 0 0 0 0 1.418l3.007 3.007a1.001 1.001 0 1 0 1.418-1.417l-3.007-3.008a1.001 1.001 0 0 0-1.418 0z"/><path id="bdx6w" d="M277.674 1286.773l-9.023-9.022a1.001 1.001 0 1 0-1.417 1.417l9.022 9.022a1.001 1.001 0 1 0 1.418-1.417z"/><path id="bdx6x" d="M279.682 1288.775c-.19-.182-.44-.29-.712-.29-.26 0-.522.108-.712.29-.18.19-.29.45-.29.712 0 .26.11.52.29.711a1.014 1.014 0 0 0 1.424 0c.37-.38.37-1.052 0-1.423z"/><path id="bdx6y" d="M282.686 1293.203a1.001 1.001 0 0 0 0-1.418l-1.003-1.002a1.001 1.001 0 1 0-1.417 1.417l1.002 1.003a1.001 1.001 0 0 0 1.418 0z"/></defs><g><g transform="translate(-211 -1243)"><g><g><use fill="#03a9f4" xlink:href="#bdx6a"/></g><g><g><use fill="#0288d1" xlink:href="#bdx6b"/></g><g><use fill="#0288d1" xlink:href="#bdx6c"/></g></g><g><use fill="#1976d2" xlink:href="#bdx6d"/></g></g><g><g><use fill="#cbd4d8" xlink:href="#bdx6e"/></g><g><use fill="#434c6d" xlink:href="#bdx6f"/></g><g><use fill="#839594" xlink:href="#bdx6g"/></g><g><use fill="#839594" xlink:href="#bdx6h"/></g><g><use fill="#839594" xlink:href="#bdx6i"/></g><g><use fill="#839594" xlink:href="#bdx6j"/></g><g><use fill="#839594" xlink:href="#bdx6k"/></g><g><use fill="#839594" xlink:href="#bdx6l"/></g><g><use fill="#839594" xlink:href="#bdx6m"/></g><g><g><use fill="#839594" xlink:href="#bdx6n"/></g><g><use fill="#839594" xlink:href="#bdx6o"/></g><g><use fill="#839594" xlink:href="#bdx6p"/></g><g><use fill="#839594" xlink:href="#bdx6q"/></g><g><use fill="#839594" xlink:href="#bdx6r"/></g></g><g><g><use fill="#6363ad" xlink:href="#bdx6s"/></g><g><use fill="#6363ad" xlink:href="#bdx6t"/></g><g><use fill="#6363ad" xlink:href="#bdx6u"/></g><g><use fill="#6363ad" xlink:href="#bdx6v"/></g><g><use fill="#6363ad" xlink:href="#bdx6w"/></g><g><use fill="#6363ad" xlink:href="#bdx6x"/></g><g><use fill="#6363ad" xlink:href="#bdx6y"/></g></g></g></g></g></svg>