<svg xmlns="http://www.w3.org/2000/svg" viewBox="0 0 29.898 29.898">
  <defs>
    <style>
      .cls-1 {
        fill: #55acee;
      }

      .cls-2 {
        fill: #f1f2f2;
      }
    </style>
  </defs>
  <g id="ic_social_twitter" transform="translate(0 0)">
    <circle id="Ellipse_36" data-name="Ellipse 36" class="cls-1" cx="14.949" cy="14.949" r="14.949" transform="translate(0 0)"/>
    <g id="Group_178" data-name="Group 178" transform="translate(6.689 9.068)">
      <path id="Path_511" data-name="Path 511" class="cls-2" d="M42.52,35.7a7.129,7.129,0,0,1-2.052.562,3.583,3.583,0,0,0,1.571-1.976,7.153,7.153,0,0,1-2.269.867,3.576,3.576,0,0,0-6.089,3.26,10.143,10.143,0,0,1-7.365-3.734,3.577,3.577,0,0,0,1.106,4.771,3.548,3.548,0,0,1-1.618-.447c0,.015,0,.03,0,.045a3.575,3.575,0,0,0,2.867,3.5,3.587,3.587,0,0,1-1.614.062A3.577,3.577,0,0,0,30.393,45.1a7.213,7.213,0,0,1-5.29,1.479,10.162,10.162,0,0,0,15.644-8.561c0-.155,0-.309-.01-.462A7.246,7.246,0,0,0,42.52,35.7Z" transform="translate(-25.103 -34.028)"/>
    </g>
  </g>
</svg>
