<svg xmlns="http://www.w3.org/2000/svg" viewBox="0 0 31.645 31.099">
  <defs>
    <style>
      .cls-1 {
        fill: #fff;
      }

      .cls-2 {
        fill: #507dbc;
      }

      .cls-3 {
        fill: #d8625e;
      }

      .cls-4 {
        fill: #f0c419;
      }

      .cls-5 {
        fill: #8697cb;
      }

      .cls-6 {
        fill: #fb7b76;
      }
    </style>
  </defs>
  <g id="ic_footer_shop_ship" transform="translate(-1009 -110.901)">
    <g id="Group_194" data-name="Group 194" transform="translate(1013.365 119.63)">
      <rect id="Rectangle_90" data-name="Rectangle 90" class="cls-1" width="26.189" height="13.094" transform="translate(0.546 0.546)"/>
      <path id="Path_605" data-name="Path 605" class="cls-2" d="M35.28,30.686H8V16.5H35.28ZM9.091,29.594h25.1v-12H9.091Z" transform="translate(-8 -16.5)"/>
    </g>
    <g id="Group_195" data-name="Group 195" transform="translate(1009 110.401)">
      <path id="Path_606" data-name="Path 606" class="cls-2" d="M6.274,8.591H3.546a.546.546,0,1,1,0-1.091H6.274a.546.546,0,1,1,0,1.091Z" transform="translate(-1.363 -3.181)"/>
      <path id="Path_607" data-name="Path 607" class="cls-2" d="M8.546,13.5A.545.545,0,0,1,8,12.956V8.046a.546.546,0,0,1,1.091,0v4.91A.545.545,0,0,1,8.546,13.5Z" transform="translate(-3.635 -3.181)"/>
      <path id="Path_608" data-name="Path 608" class="cls-2" d="M8.546,45.41A.545.545,0,0,1,8,44.865V41.046a.546.546,0,1,1,1.091,0v3.819A.545.545,0,0,1,8.546,45.41Z" transform="translate(-3.635 -18.176)"/>
      <path id="Path_609" data-name="Path 609" class="cls-2" d="M32.006,48.591H8.546a.546.546,0,0,1,0-1.091H32.006a.546.546,0,1,1,0,1.091Z" transform="translate(-3.635 -21.357)"/>
      <path id="Path_610" data-name="Path 610" class="cls-2" d="M34.734,25.591H8.546a.546.546,0,0,1,0-1.091H34.734a.546.546,0,0,1,0,1.091Z" transform="translate(-3.635 -10.906)"/>
      <path id="Path_611" data-name="Path 611" class="cls-2" d="M34.734,33.591H8.546a.546.546,0,1,1,0-1.091H34.734a.546.546,0,1,1,0,1.091Z" transform="translate(-3.635 -14.541)"/>
      <path id="Path_612" data-name="Path 612" class="cls-2" d="M16.546,30.686A.545.545,0,0,1,16,30.14V17.046a.546.546,0,1,1,1.091,0V30.14A.545.545,0,0,1,16.546,30.686Z" transform="translate(-7.27 -7.27)"/>
      <path id="Path_613" data-name="Path 613" class="cls-2" d="M24.546,30.686A.545.545,0,0,1,24,30.14V17.046a.546.546,0,0,1,1.091,0V30.14A.545.545,0,0,1,24.546,30.686Z" transform="translate(-10.906 -7.27)"/>
      <path id="Path_614" data-name="Path 614" class="cls-2" d="M32.546,30.686A.545.545,0,0,1,32,30.14V17.046a.546.546,0,1,1,1.091,0V30.14A.545.545,0,0,1,32.546,30.686Z" transform="translate(-14.541 -7.27)"/>
      <path id="Path_615" data-name="Path 615" class="cls-2" d="M40.546,30.686A.545.545,0,0,1,40,30.14V17.046a.546.546,0,1,1,1.091,0V30.14A.545.545,0,0,1,40.546,30.686Z" transform="translate(-18.176 -7.27)"/>
      <path id="Path_616" data-name="Path 616" class="cls-2" d="M48.546,30.686A.545.545,0,0,1,48,30.14V17.046a.546.546,0,0,1,1.091,0V30.14A.545.545,0,0,1,48.546,30.686Z" transform="translate(-21.811 -7.27)"/>
    </g>
    <circle id="Ellipse_50" data-name="Ellipse 50" class="cls-2" cx="2.182" cy="2.182" r="2.182" transform="translate(1017.184 137.635)"/>
    <circle id="Ellipse_51" data-name="Ellipse 51" class="cls-2" cx="2.182" cy="2.182" r="2.182" transform="translate(1030.278 137.635)"/>
    <circle id="Ellipse_52" data-name="Ellipse 52" class="cls-3" cx="1.637" cy="1.637" r="1.637" transform="translate(1009 113.629)"/>
    <rect id="Rectangle_91" data-name="Rectangle 91" class="cls-4" width="7.638" height="4.365" transform="translate(1016.638 115.266)"/>
    <rect id="Rectangle_92" data-name="Rectangle 92" class="cls-5" width="8.73" height="8.73" transform="translate(1024.277 110.901)"/>
    <rect id="Rectangle_93" data-name="Rectangle 93" class="cls-6" width="5.456" height="7.093" transform="translate(1033.006 112.538)"/>
  </g>
</svg>
