<svg xmlns="http://www.w3.org/2000/svg" xmlns:xlink="http://www.w3.org/1999/xlink" width="66" height="10" viewBox="0 0 66 10"><defs><path id="2i30a" d="M125 4226.8a.18.18 0 0 0-.15-.12l-3.24-.5-1.45-3.08a.18.18 0 0 0-.16-.1.18.18 0 0 0-.16.1l-1.45 3.08-3.24.5a.18.18 0 0 0-.14.13.2.2 0 0 0 .04.19l2.35 2.4-.56 3.38a.2.2 0 0 0 .08.18c.05.05.12.05.18.02l2.9-1.6 2.9 1.6a.17.17 0 0 0 .19-.02.2.2 0 0 0 .07-.18l-.56-3.38 2.35-2.4a.2.2 0 0 0 .04-.2z"/><path id="2i30b" d="M139 4226.8a.18.18 0 0 0-.15-.12l-3.24-.5-1.45-3.08a.18.18 0 0 0-.16-.1.18.18 0 0 0-.16.1l-1.45 3.08-3.24.5a.18.18 0 0 0-.14.13.2.2 0 0 0 .04.19l2.35 2.4-.56 3.38a.2.2 0 0 0 .08.18c.05.05.12.05.18.02l2.9-1.6 2.9 1.6a.17.17 0 0 0 .19-.02.2.2 0 0 0 .07-.18l-.56-3.38 2.35-2.4a.2.2 0 0 0 .04-.2z"/><path id="2i30c" d="M153 4226.8a.18.18 0 0 0-.15-.12l-3.24-.5-1.45-3.08a.18.18 0 0 0-.16-.1.18.18 0 0 0-.16.1l-1.45 3.08-3.24.5a.18.18 0 0 0-.14.13.2.2 0 0 0 .04.19l2.35 2.4-.56 3.38a.2.2 0 0 0 .08.18c.05.05.12.05.18.02l2.9-1.6 2.9 1.6a.17.17 0 0 0 .19-.02.2.2 0 0 0 .07-.18l-.56-3.38 2.35-2.4a.2.2 0 0 0 .04-.2z"/><path id="2i30d" d="M167 4226.8a.18.18 0 0 0-.15-.12l-3.24-.5-1.45-3.08a.18.18 0 0 0-.16-.1.18.18 0 0 0-.16.1l-1.45 3.08-3.24.5a.18.18 0 0 0-.14.13.2.2 0 0 0 .04.19l2.35 2.4-.56 3.38a.2.2 0 0 0 .08.18c.05.05.12.05.18.02l2.9-1.6 2.9 1.6a.17.17 0 0 0 .19-.02.2.2 0 0 0 .07-.18l-.56-3.38 2.35-2.4a.2.2 0 0 0 .04-.2z"/><path id="2i30e" d="M181 4226.8a.18.18 0 0 0-.15-.12l-3.24-.5-1.45-3.08a.18.18 0 0 0-.16-.1.18.18 0 0 0-.16.1l-1.45 3.08-3.24.5a.18.18 0 0 0-.14.13.2.2 0 0 0 .04.19l2.35 2.4-.56 3.38a.2.2 0 0 0 .08.18c.05.05.12.05.18.02l2.9-1.6 2.9 1.6a.17.17 0 0 0 .19-.02.2.2 0 0 0 .07-.18l-.56-3.38 2.35-2.4a.2.2 0 0 0 .04-.2z"/></defs><g><g clip-path="url(#clip-47ea3ac3-fba9-4448-9573-9e6e42981381)" transform="translate(-115 -4223)"><g><use fill="#e76f51" xlink:href="#2i30a"/></g></g><g clip-path="url(#clip-47ea3ac3-fba9-4448-9573-9e6e42981381)" transform="translate(-115 -4223)"><g><use fill="#e76f51" xlink:href="#2i30b"/></g></g><g clip-path="url(#clip-47ea3ac3-fba9-4448-9573-9e6e42981381)" transform="translate(-115 -4223)"><g><use fill="#e76f51" xlink:href="#2i30c"/></g></g><g clip-path="url(#clip-47ea3ac3-fba9-4448-9573-9e6e42981381)" transform="translate(-115 -4223)"><g><use fill="#e76f51" xlink:href="#2i30d"/></g></g><g clip-path="url(#clip-47ea3ac3-fba9-4448-9573-9e6e42981381)" transform="translate(-115 -4223)"><g><use fill="#e76f51" xlink:href="#2i30e"/></g></g></g></svg>