<svg xmlns="http://www.w3.org/2000/svg" xmlns:xlink="http://www.w3.org/1999/xlink" width="70" height="71" viewBox="0 0 70 71"><defs><path id="d8x7a" d="M839.694 1487.842v26.46a2.527 2.527 0 0 1-2.528 2.528h-42.638a2.527 2.527 0 0 1-2.528-2.528v-26.46a2.527 2.527 0 0 1 2.528-2.528h42.638a2.527 2.527 0 0 1 2.527 2.528z"/><path id="d8x7b" d="M839.694 1487.841v2.515H792v-2.515a2.527 2.527 0 0 1 2.527-2.527h42.64a2.527 2.527 0 0 1 2.527 2.527z"/><path id="d8x7c" d="M793.89 1487.835a1.576 1.576 0 1 1 3.153 0 1.576 1.576 0 0 1-3.152 0z"/><path id="d8x7d" d="M798.093 1487.835a1.576 1.576 0 1 1 3.152 0 1.576 1.576 0 0 1-3.152 0z"/><path id="d8x7e" d="M796.708 1496.659v-1.714h36.615v1.714z"/><path id="d8x7f" d="M796.708 1500.412v-1.713h36.615v1.713z"/><path id="d8x7g" d="M796.708 1504.166v-1.714h36.615v1.714z"/><path id="d8x7h" d="M796.708 1507.92v-1.714h36.615v1.714z"/><path id="d8x7i" d="M796.708 1511.673v-1.714h36.615v1.714z"/><path id="d8x7j" d="M839.538 1519.934l-6.377 5.882a7.501 7.501 0 0 1-10.172 0l-6.376-5.882a7.675 7.675 0 0 1-2.45-6.215l.372-7.634a13.513 13.513 0 0 1 3.157-7.73 13.52 13.52 0 0 1 2.204-2.09 13.52 13.52 0 0 1 8.18-2.74 13.53 13.53 0 0 1 8.18 2.74 13.563 13.563 0 0 1 2.204 2.088 13.51 13.51 0 0 1 3.157 7.732l.369 7.634a7.675 7.675 0 0 1-2.448 6.215z"/><path id="d8x7k" d="M832.723 1517.985a4.65 4.65 0 0 1-9.084 1.388 4.63 4.63 0 0 1-.211-1.388z"/><path id="d8x7l" d="M845.447 1504.777h-2.026c0-8.461-6.884-15.346-15.346-15.346s-15.346 6.885-15.346 15.346h-2.025c0-9.578 7.793-17.371 17.371-17.371 9.579 0 17.372 7.793 17.372 17.371z"/><path id="d8x7m" d="M841.417 1504.573a13.51 13.51 0 0 0-2.957-6.22 13.778 13.778 0 0 0-1.65-1.646l-.104-.083c-.139-.115-.28-.228-.423-.337l-.028-.021a13.534 13.534 0 0 0-8.18-2.74 13.526 13.526 0 0 0-8.179 2.74l-.01.008c-.188.142-.373.29-.553.441l-.053.044c-.172.147-.34.299-.506.454l-.06.056c-.166.158-.328.32-.485.486l-.044.046a13.513 13.513 0 0 0-3.45 6.772 11.43 11.43 0 0 0 5.16-3.039 11.415 11.415 0 0 0 8.18 3.441c3.206 0 6.103-1.318 8.18-3.44a11.43 11.43 0 0 0 5.162 3.038z"/><path id="d8x7n" d="M820.44 1510.858a1.558 1.558 0 1 1 3.117 0 1.558 1.558 0 0 1-3.116 0z"/><path id="d8x7o" d="M832.593 1510.858a1.558 1.558 0 1 1 3.117 0 1.558 1.558 0 0 1-3.117 0z"/><path id="d8x7p" d="M819.677 1524.413l7.946 7.947-3.74 6.076-6.231-12.464z"/><path id="d8x7q" d="M836.473 1524.413l-7.946 7.947 3.74 6.076 6.231-12.464z"/><path id="d8x7r" d="M830.279 1537.501l-2.204-3.74-2.203 3.74 2.203 2.204z"/><path id="d8x7s" d="M834.134 1550.02l-6.059-10.281-6.058 10.281 6.058 6.059z"/><path id="d8x7t" d="M820.435 1520.363a1.014 1.014 0 0 1-1.013 1.012h-4.788a4.068 4.068 0 0 1-4.068-4.068v-2.71h2.026v2.71c0 1.128.914 2.043 2.042 2.043h4.788c.56 0 1.013.453 1.013 1.013z"/><path id="d8x7u" d="M813.034 1503.053a6.363 6.363 0 1 0 0 12.726"/><path id="d8x7v" d="M843.116 1503.053a6.363 6.363 0 1 1 0 12.726"/><path id="d8x7w" d="M820.435 1520.363a1.014 1.014 0 0 1-1.013 1.012h-2.96v-2.025h2.96c.56 0 1.013.453 1.013 1.013z"/><path id="d8x7x" d="M860.148 1551.508h-18.732a1.852 1.852 0 0 1-1.852-1.852v-24.185c0-1.023.83-1.852 1.852-1.852h18.732c1.023 0 1.852.83 1.852 1.852v24.185c0 1.023-.83 1.852-1.852 1.852z"/><path id="d8x7y" d="M841.9 1549.171v-23.215h17.763v23.215z"/><path id="d8x7z" d="M852.874 1522.373h-4.184a1.18 1.18 0 0 0-1.18 1.18v3.961h6.544v-3.962a1.18 1.18 0 0 0-1.18-1.18z"/><path id="d8x7A" d="M844.082 1531.565v-1.714h13.4v1.714z"/><path id="d8x7B" d="M844.082 1535.319v-1.714h13.4v1.714z"/><path id="d8x7C" d="M844.082 1539.072v-1.714h13.4v1.714z"/><path id="d8x7D" d="M844.082 1542.826v-1.714h13.4v1.714z"/><path id="d8x7E" d="M844.082 1546.58v-1.714h6.7v1.713z"/><path id="d8x7F" d="M800.698 1522.608a8.567 8.567 0 0 0-5.457 15.171l-1.735 4.857 4.467-3.336-.002-.003a8.567 8.567 0 1 0 2.727-16.689z"/><path id="d8x7G" d="M799.43 1536.196v-2.148h1.728v2.148zm-.031-3.627c0-.509.083-.965.249-1.37.166-.405.508-.757 1.027-1.059.156-.093.348-.2.576-.319.228-.119.452-.262.67-.428.218-.166.402-.36.552-.584.15-.222.226-.48.226-.77a1.274 1.274 0 0 0-.451-.996 1.363 1.363 0 0 0-.475-.257 1.84 1.84 0 0 0-.553-.086c-.228 0-.436.04-.622.117a2.121 2.121 0 0 0-.506.296c-.15.12-.286.254-.405.405-.12.15-.22.293-.304.428l-1.354-.934c.135-.322.314-.607.537-.857.223-.249.477-.459.763-.63.285-.171.594-.3.926-.389a4.082 4.082 0 0 1 2.195.039 2.827 2.827 0 0 1 1.782 1.502c.192.39.288.854.288 1.393 0 .333-.038.626-.116.88a2.45 2.45 0 0 1-.335.693 2.922 2.922 0 0 1-.514.56c-.197.166-.42.327-.67.483-.207.124-.414.244-.622.358a3.752 3.752 0 0 0-.568.381c-.171.14-.311.301-.42.483a1.265 1.265 0 0 0-.164.661H799.4z"/><path id="d8x7H" d="M820.654 1535.347l1.734-4.857-4.467 3.336.002.003a8.567 8.567 0 1 0 2.73 1.518z"/><path id="d8x7I" d="M814.285 1546.848v-2.051h1.821v2.051zm0-3.628v-6.114h1.821v6.114z"/></defs><g><g transform="translate(-792 -1485)"><g><g><use fill="#e6e6e6" xlink:href="#d8x7a"/></g><g><use fill="#b3b3b3" xlink:href="#d8x7b"/></g><g><use fill="#fc7a51" xlink:href="#d8x7c"/></g><g><use fill="#f9de58" xlink:href="#d8x7d"/></g></g><g><g><use fill="gray" xlink:href="#d8x7e"/></g><g><use fill="gray" xlink:href="#d8x7f"/></g><g><use fill="gray" xlink:href="#d8x7g"/></g><g><use fill="gray" xlink:href="#d8x7h"/></g><g><use fill="gray" xlink:href="#d8x7i"/></g></g><g><use fill="#fcd18b" xlink:href="#d8x7j"/></g><g><use fill="#fff" xlink:href="#d8x7k"/></g><g><use fill="#f9de58" xlink:href="#d8x7l"/></g><g><use fill="gray" xlink:href="#d8x7m"/></g><g><g><use fill="gray" xlink:href="#d8x7n"/></g><g><use fill="gray" xlink:href="#d8x7o"/></g></g><g><g><use fill="#e6e6e6" xlink:href="#d8x7p"/></g><g><use fill="#e6e6e6" xlink:href="#d8x7q"/></g></g><g><use fill="#2be0c6" xlink:href="#d8x7r"/></g><g><use fill="#2be0c6" xlink:href="#d8x7s"/></g><g><use fill="#fc7a51" xlink:href="#d8x7t"/></g><g><g><use fill="#29abe2" xlink:href="#d8x7u"/></g><g><use fill="#29abe2" xlink:href="#d8x7v"/></g></g><g><use fill="gray" xlink:href="#d8x7w"/></g><g><g><use fill="gray" xlink:href="#d8x7x"/></g><g><use fill="#e6e6e6" xlink:href="#d8x7y"/></g><g><use fill="#29abe2" xlink:href="#d8x7z"/></g><g><g><use fill="#29abe2" xlink:href="#d8x7A"/></g><g><use fill="#29abe2" xlink:href="#d8x7B"/></g><g><use fill="#29abe2" xlink:href="#d8x7C"/></g><g><use fill="#29abe2" xlink:href="#d8x7D"/></g><g><use fill="#29abe2" xlink:href="#d8x7E"/></g></g></g><g><use fill="#fc7a51" xlink:href="#d8x7F"/></g><g><g><use fill="#fff" xlink:href="#d8x7G"/></g></g><g><g><use fill="#29abe2" xlink:href="#d8x7H"/></g><g><g><use fill="#fff" xlink:href="#d8x7I"/></g></g></g></g></g></svg>