<svg xmlns="http://www.w3.org/2000/svg" xmlns:xlink="http://www.w3.org/1999/xlink" width="202" height="166" viewBox="0 0 202 166"><defs><path id="ru34a" d="M430 960a83 83 0 1 1 166 0 83 83 0 0 1-166 0z"/><path id="ru34b" d="M525.87 903a25.73 25.73 0 0 1 25.7 25.78c0 .26-.1 6.9-2.3 11.6-5.23 12.14-17.81 24.99-21.98 29.15-1.06.97-1.5 1.15-2.83-.09-4.26-4.16-16.66-16.83-21.88-28.88-1.86-3.54-2.4-11.16-2.4-11.78a25.73 25.73 0 0 1 25.7-25.78z"/><path id="ru34d" d="M543.6 1004.34c4.86 2.13 18.33 8.24 23.11 10.2.53.26 1.78.17 1.6-.98-1.07-11.52-7.53-77.52-8.68-89.21-.18-1.68-.71-1.95-1.95-2.4-3.81-1.41-13.02-4.69-16.83-6.02a4.14 4.14 0 0 0-3.55 0c-5.93 1.69-24.71 7.44-24.71 7.44s-19.58-5.93-25.7-7.61a4.15 4.15 0 0 0-3.54.09c-3.9 1.24-12.93 4.6-16.83 6.02-1.6.62-1.77 1.33-1.95 2.4-1.24 11.42-8.32 77.68-9.57 89.29-.08 1.33 1.07 1.24 2.13.88 5.32-2.12 18.78-7.97 23.57-9.92a3.8 3.8 0 0 1 3.54 0c5.4 2.22 21.26 9.4 26.49 11.52 1.15.53 2.21.62 3.54 0 5.23-2.22 20.55-9.3 25.69-11.6a4.32 4.32 0 0 1 3.63-.1z"/><path id="ru34e" d="M538.63 915.5c-.35.08-.7.17-1.15.35-5.94 1.77-24 7.26-24.8 7.52v93.02c.53 0 1.15-.18 1.77-.44 5.22-2.22 20.55-9.3 25.69-11.6.35-.18.8-.27 1.24-.36l-2.75-88.5zm-52.89 0a4.9 4.9 0 0 0-2.39.35c-3.9 1.24-12.93 4.6-16.83 6.02-1.6.62-1.77 1.33-1.95 2.4-1.24 11.42-8.32 77.68-9.57 89.29-.08 1.33 1.07 1.24 2.13.88 5.32-2.12 18.78-7.97 23.57-9.92.7-.26 1.32-.53 2.3-.35l2.74-88.68z"/><path id="ru34f" d="M496.38 1009.75l15.5-15.5 15.77 15.76c3.27-1.5 6.46-3 9.03-4.16l-56.6-56.52 27.46-27.46c-2.84-.89-6.56-1.95-10.1-3.01l-23.92 23.92-9.83-9.84c-.36 3.37-.8 7.44-1.24 11.96l42.87 42.88-17.98 17.98c2.48 1.06 5.76 2.48 9.04 3.99z"/><path id="ru34g" d="M512.59 995.04l14.97 14.97c3.28-1.5 6.46-3 9.03-4.16l-24-24zm-27.73-50.5l.44-13.55-11.78 11.7-9.83-9.75c-.36 3.37-.8 7.44-1.24 11.96l21.79 21.8.35-12.85-4.43-4.43z"/><path id="ru34j" d="M525.87 936.66a7.94 7.94 0 0 1-7.97-7.97 7.94 7.94 0 0 1 7.97-7.97 7.94 7.94 0 0 1 7.98 7.97 7.94 7.94 0 0 1-7.98 7.97zm0-21.26a13.27 13.27 0 0 0-13.28 13.29c0 7.35 5.93 13.29 13.28 13.29 7.36 0 13.3-5.94 13.3-13.29 0-7.35-5.94-13.29-13.3-13.29z"/><path id="ru34k" d="M503 903h43.76v43.76H503z"/><path id="ru34l" d="M546.76 924.07h-13.78V903h-1.62v21.07H518.4V903h-1.62v21.07H503v1.62h13.78v21.07h1.62v-21.07h12.96v21.07h1.62v-21.07h13.78z"/><path id="ru34m" d="M503 946.76h3.24V950H503z"/><path id="ru34n" d="M514.34 946.76h3.25V950h-3.25z"/><path id="ru34o" d="M517.59 946.76h3.24V950h-3.24z"/><path id="ru34p" d="M528.93 946.76h3.24V950h-3.24z"/><path id="ru34q" d="M532.17 946.76h3.24V950h-3.24z"/><path id="ru34r" d="M543.52 946.76h3.24V950h-3.24z"/><path id="ru34s" d="M521.64 906.24h6.48v1.62h-6.48z"/><path id="ru34t" d="M521.64 909.48h6.48v1.62h-6.48z"/><path id="ru34u" d="M507.05 906.24h6.48v1.62h-6.48z"/><path id="ru34v" d="M507.05 909.48h6.48v1.62h-6.48z"/><path id="ru34w" d="M536.22 906.24h6.49v1.62h-6.49z"/><path id="ru34x" d="M536.22 909.48h6.49v1.62h-6.49z"/><path id="ru34y" d="M521.64 928.12h6.48v1.62h-6.48z"/><path id="ru34z" d="M521.64 931.36h6.48v1.62h-6.48z"/><path id="ru34A" d="M507.05 928.12h6.48v1.62h-6.48z"/><path id="ru34B" d="M507.05 931.36h6.48v1.62h-6.48z"/><path id="ru34C" d="M536.22 928.12h6.49v1.62h-6.49z"/><path id="ru34D" d="M536.22 931.36h6.49v1.62h-6.49z"/><path id="ru34E" d="M520.02 915.97h1.62v4.86h-1.62z"/><path id="ru34F" d="M520.02 912.72h1.62v1.62h-1.62z"/><path id="ru34G" d="M505.43 915.97h1.62v4.86h-1.62z"/><path id="ru34H" d="M505.43 912.72h1.62v1.62h-1.62z"/><path id="ru34I" d="M534.6 915.97h1.62v4.86h-1.62z"/><path id="ru34J" d="M534.6 912.72h1.62v1.62h-1.62z"/><path id="ru34K" d="M520.02 937.84h1.62v4.87h-1.62z"/><path id="ru34L" d="M520.02 934.6h1.62v1.62h-1.62z"/><path id="ru34M" d="M505.43 937.84h1.62v4.87h-1.62z"/><path id="ru34N" d="M505.43 934.6h1.62v1.62h-1.62z"/><path id="ru34O" d="M534.6 937.84h1.62v4.87h-1.62z"/><path id="ru34P" d="M534.6 934.6h1.62v1.62h-1.62z"/><path id="ru34Q" d="M507.05 915.97h1.62v4.86h-1.62z"/><path id="ru34R" d="M507.05 912.72h1.62v1.62h-1.62z"/><path id="ru34S" d="M521.64 915.97h1.62v4.86h-1.62z"/><path id="ru34T" d="M521.64 912.72h1.62v1.62h-1.62z"/><path id="ru34U" d="M536.22 915.97h1.62v4.86h-1.62z"/><path id="ru34V" d="M536.22 912.72h1.62v1.62h-1.62z"/><path id="ru34W" d="M507.05 937.84h1.62v4.87h-1.62z"/><path id="ru34X" d="M507.05 934.6h1.62v1.62h-1.62z"/><path id="ru34Y" d="M521.64 937.84h1.62v4.87h-1.62z"/><path id="ru34Z" d="M521.64 934.6h1.62v1.62h-1.62z"/><path id="ru34aa" d="M536.22 937.84h1.62v4.87h-1.62z"/><path id="ru34ab" d="M536.22 934.6h1.62v1.62h-1.62z"/><path id="ru34ac" d="M544.8 924.5h-20.2l-5.32 8.51v22.32h30.83v-22.32z"/><path id="ru34ad" d="M524.6 924.5l-5.32 8.51h30.83l-5.31-8.5z"/><path id="ru34ae" d="M536.82 953.2l-2.12-2.12-2.13 2.13-1.06-1.06v3.18h6.38v-3.18z"/><path id="ru34af" d="M531.5 933.01v-8.5h6.39v8.5z"/><path id="ru34ag" d="M532.57 935.67l2.13 2.12 2.12-2.12 1.07 1.06v-3.72h-6.38v3.72z"/><path id="ru34ah" d="M558.29 975.32l45.4 45.4h26.6"/><path id="ru34ai" d="M546.25 910.5L600.4 878h29.85"/><path id="ru34aj" d="M541.5 949.5h89"/><clipPath id="ru34c"><use fill="#fff" xlink:href="#ru34a"/></clipPath><mask id="ru34i" width="2" height="2" x="-1" y="-1"><path fill="#fff" d="M500 903h52v68h-52z"/><use xlink:href="#ru34b"/></mask><filter id="ru34h" width="132" height="168" x="460" y="863" filterUnits="userSpaceOnUse"><feOffset dy="20" in="SourceGraphic" result="FeOffset1055Out"/><feGaussianBlur in="FeOffset1055Out" result="FeGaussianBlur1056Out" stdDeviation="12 12"/></filter></defs><g><g transform="translate(-430 -877)"><g><use fill="#fff" xlink:href="#ru34a"/><use fill="#fff" fill-opacity="0" stroke="#e85151" stroke-miterlimit="50" stroke-width="6" clip-path="url(&quot;#ru34c&quot;)" xlink:href="#ru34a"/></g><g><g><use fill="#bdd9bf" xlink:href="#ru34d"/></g><g><use fill="#99cbae" xlink:href="#ru34e"/></g><g><use fill="#fdf699" xlink:href="#ru34f"/></g><g><use fill="#fdf699" xlink:href="#ru34g"/></g><g><g filter="url(#ru34h)"><use fill="none" stroke-opacity=".16" stroke-width="0" mask="url(&quot;#ru34i&quot;)" xlink:href="#ru34b"/><use fill-opacity=".16" xlink:href="#ru34b"/></g><use fill="#e85151" xlink:href="#ru34b"/></g><g><use fill="#e85151" xlink:href="#ru34j"/></g></g><g><g><use fill="#87ced9" xlink:href="#ru34k"/></g><g><use fill="#5eb3d1" xlink:href="#ru34l"/></g><g><use fill="#5eb3d1" xlink:href="#ru34m"/></g><g><use fill="#5eb3d1" xlink:href="#ru34n"/></g><g><use fill="#4ea3c2" xlink:href="#ru34o"/></g><g><use fill="#4ea3c2" xlink:href="#ru34p"/></g><g><use fill="#5eb3d1" xlink:href="#ru34q"/></g><g><use fill="#5eb3d1" xlink:href="#ru34r"/></g><g><use fill="#5eb3d1" xlink:href="#ru34s"/></g><g><use fill="#5eb3d1" xlink:href="#ru34t"/></g><g><use fill="#5eb3d1" xlink:href="#ru34u"/></g><g><use fill="#5eb3d1" xlink:href="#ru34v"/></g><g><use fill="#5eb3d1" xlink:href="#ru34w"/></g><g><use fill="#5eb3d1" xlink:href="#ru34x"/></g><g><use fill="#5eb3d1" xlink:href="#ru34y"/></g><g><use fill="#5eb3d1" xlink:href="#ru34z"/></g><g><use fill="#5eb3d1" xlink:href="#ru34A"/></g><g><use fill="#5eb3d1" xlink:href="#ru34B"/></g><g><use fill="#5eb3d1" xlink:href="#ru34C"/></g><g><use fill="#5eb3d1" xlink:href="#ru34D"/></g><g><use fill="#dadddf" xlink:href="#ru34E"/></g><g><use fill="#dadddf" xlink:href="#ru34F"/></g><g><use fill="#dadddf" xlink:href="#ru34G"/></g><g><use fill="#dadddf" xlink:href="#ru34H"/></g><g><use fill="#dadddf" xlink:href="#ru34I"/></g><g><use fill="#dadddf" xlink:href="#ru34J"/></g><g><use fill="#dadddf" xlink:href="#ru34K"/></g><g><use fill="#dadddf" xlink:href="#ru34L"/></g><g><use fill="#dadddf" xlink:href="#ru34M"/></g><g><use fill="#dadddf" xlink:href="#ru34N"/></g><g><use fill="#dadddf" xlink:href="#ru34O"/></g><g><use fill="#dadddf" xlink:href="#ru34P"/></g><g><use fill="#71c4d1" xlink:href="#ru34Q"/></g><g><use fill="#71c4d1" xlink:href="#ru34R"/></g><g><use fill="#71c4d1" xlink:href="#ru34S"/></g><g><use fill="#71c4d1" xlink:href="#ru34T"/></g><g><use fill="#71c4d1" xlink:href="#ru34U"/></g><g><use fill="#71c4d1" xlink:href="#ru34V"/></g><g><use fill="#71c4d1" xlink:href="#ru34W"/></g><g><use fill="#71c4d1" xlink:href="#ru34X"/></g><g><use fill="#71c4d1" xlink:href="#ru34Y"/></g><g><use fill="#71c4d1" xlink:href="#ru34Z"/></g><g><use fill="#71c4d1" xlink:href="#ru34aa"/></g><g><use fill="#71c4d1" xlink:href="#ru34ab"/></g></g><g><g><use fill="#bc8d5b" xlink:href="#ru34ac"/></g><g><use fill="#daae86" xlink:href="#ru34ad"/></g><g><use fill="#d8b18b" xlink:href="#ru34ae"/></g><g><use fill="#f4d5bd" xlink:href="#ru34af"/></g><g><use fill="#d8b18b" xlink:href="#ru34ag"/></g></g></g><g transform="translate(-430 -877)"><use fill="#fff" fill-opacity="0" stroke="#e9c46a" stroke-dasharray="3 4" stroke-linecap="round" stroke-miterlimit="50" stroke-width="2" xlink:href="#ru34ah"/></g><g transform="translate(-430 -877)"><use fill="#fff" fill-opacity="0" stroke="#e9c46a" stroke-dasharray="4 4" stroke-linecap="round" stroke-miterlimit="50" stroke-width="2" xlink:href="#ru34ai"/></g><g transform="translate(-430 -877)"><use fill="#fff" fill-opacity="0" stroke="#e9c46a" stroke-dasharray="4 4" stroke-linecap="round" stroke-miterlimit="50" stroke-width="2" xlink:href="#ru34aj"/></g></g></svg>