<svg xmlns="http://www.w3.org/2000/svg" xmlns:xlink="http://www.w3.org/1999/xlink" width="50" height="50" viewBox="0 0 50 50"><defs><path id="98gka" d="M1083.5 1477.17h-45v-33.34l22.5-15 22.5 15z"/><path id="98gkb" d="M1045.17 1477.17v-27.5h31.66v27.5z"/><path id="98gkc" d="M1060.17 1470.5v-5h6.66v5z"/><path id="98gkd" d="M1061 1470.5v-13.33h-12.5v20h12.5z"/><path id="98gke" d="M1059.33 1477.17v-6.67h10.84v6.67z"/><path id="98gkf" d="M1066 1463.83v6.67h4.17v6.67h3.33v-13.34z"/><path id="98gkg" d="M1045.17 1477.17v-6.67h10v6.67z"/><path id="98gkh" d="M1061 1433.84l-16.67 10h33.34z"/><path id="98gki" d="M1036.83 1445.5a.83.83 0 0 1-.46-1.53l24.17-15.83a.83.83 0 0 1 .92 1.4l-24.17 15.82c-.14.1-.3.14-.46.14z"/><path id="98gkj" d="M1085.16 1445.5a.83.83 0 0 1-.45-.14l-24.17-15.83a.83.83 0 0 1 .92-1.4l24.16 15.84a.83.83 0 0 1-.46 1.53z"/><path id="98gkk" d="M1043.5 1450.5v-3.33h35v3.33z"/><path id="98gkl" d="M1062.67 1473.83v-3.33h4.16v3.33z"/><path id="98gkm" d="M1052.67 1460.5v-3.33h4.16v3.33z"/><path id="98gkn" d="M1064.33 1443.83h1.67v-7l-1.67-1z"/><path id="98gko" d="M1056 1443.83h1.67v-8l-1.67 1z"/></defs><g><g transform="translate(-1036 -1428)"><g><use fill="#e7eced" xlink:href="#98gka"/></g><g><use fill="#28384c" xlink:href="#98gkb"/></g><g><use fill="#d68f6b" xlink:href="#98gkc"/></g><g><use fill="#be6e41" xlink:href="#98gkd"/></g><g><use fill="#894e30" xlink:href="#98gke"/></g><g><use fill="#be6e41" xlink:href="#98gkf"/></g><g><use fill="#894e30" xlink:href="#98gkg"/></g><g><use fill="#c6e2f7" xlink:href="#98gkh"/></g><g><g><use fill="#dd352e" xlink:href="#98gki"/></g><g><use fill="#dd352e" xlink:href="#98gkj"/></g></g><g><use fill="#50657c" xlink:href="#98gkk"/></g><g><g><use fill="#f7e6a1" xlink:href="#98gkl"/></g><g><use fill="#f7e6a1" xlink:href="#98gkm"/></g></g><g><g><use fill="#97b4c6" xlink:href="#98gkn"/></g><g><use fill="#97b4c6" xlink:href="#98gko"/></g></g></g></g></svg>