<svg xmlns="http://www.w3.org/2000/svg" viewBox="0 0 63.998 65.223">
  <defs>
    <style>
      .cls-1 {
        fill: #e85151;
        fill-rule: evenodd;
      }

      .cls-2, .cls-3 {
        stroke: none;
      }

      .cls-3 {
        fill: #fff;
      }
    </style>
  </defs>
  <g id="ic_offer_red" transform="translate(-203 -2606.5)">
    <g id="Path_537" data-name="Path 537" class="cls-1" transform="translate(204.545 2607.538)">
      <path class="cls-2" d="M 30.67295455932617 63.18535614013672 C 29.26093482971191 63.18540573120117 27.90703582763672 62.58196640014648 26.9583854675293 61.52977752685547 L 25.9136848449707 60.35942459106445 C 25.34933471679688 59.72700500488281 24.53924560546875 59.36435699462891 23.6910457611084 59.36435699462891 C 23.28417587280273 59.36435699462891 22.88816452026367 59.44628524780273 22.51399421691895 59.60787582397461 L 21.06650543212891 60.2245979309082 C 20.43781471252441 60.49603652954102 19.77091598510742 60.6346549987793 19.0887451171875 60.63470458984375 C 18.03442573547363 60.63478469848633 16.98491477966309 60.28994750976563 16.133544921875 59.66371536254883 C 15.2449951171875 59.01012802124023 14.61295509338379 58.10106658935547 14.30575466156006 57.03481674194336 L 13.86751461029053 55.53259658813477 C 13.51005458831787 54.30048751831055 12.40590476989746 53.43547439575195 11.11955547332764 53.37871551513672 L 9.555315017700195 53.31621551513672 C 8.122585296630859 53.25619506835938 6.784965038299561 52.58266448974609 5.883504867553711 51.46824645996094 C 4.984375 50.35671615600586 4.605955123901367 48.9130859375 4.845244884490967 47.50750732421875 L 5.108785152435303 45.96399688720703 C 5.324665069580078 44.69701766967773 4.70981502532959 43.44027709960938 3.578765153884888 42.83710479736328 L 2.196525096893311 42.09590530395508 C 0.9321050643920898 41.41517639160156 0.01979504525661469 40.22720718383789 -0.3079449534416199 38.8358154296875 C -0.634844958782196 37.44802474975586 -0.3506849408149719 35.98334503173828 0.4716650545597076 34.81732559204102 L 1.375375032424927 33.53730773925781 C 2.114064931869507 32.4902458190918 2.102324962615967 31.08791542053223 1.345955014228821 30.048095703125 L 0.4195250570774078 28.78391647338867 C -0.4241249561309814 27.63437652587891 -0.7337949275970459 26.17532539367676 -0.4296549558639526 24.78144645690918 C -0.1246849521994591 23.38374519348145 0.7679950594902039 22.18248558044434 2.019505023956299 21.48568534851074 L 3.38531494140625 20.72142601013184 C 4.511374950408936 20.09701538085938 5.107924938201904 18.83329582214355 4.873135089874268 17.57493591308594 L 4.584565162658691 16.03232574462891 C 4.322665214538574 14.62578582763672 4.678375244140625 13.17394638061523 5.560335159301758 12.04823589324951 C 6.443115234375 10.92149639129639 7.769345283508301 10.22804641723633 9.198974609375 10.14568614959717 L 10.76900482177734 10.05782604217529 C 12.04961490631104 9.991886138916016 13.13479518890381 9.112786293029785 13.47379493713379 7.870036125183105 L 13.88785457611084 6.352086067199707 C 14.4879846572876 4.187166213989258 16.46817588806152 2.677926063537598 18.70442581176758 2.677926063537598 C 19.35605430603027 2.677926063537598 19.99521446228027 2.805246114730835 20.60413551330566 3.05634617805481 L 22.06065559387207 3.658936023712158 C 22.42389488220215 3.808806180953979 22.80728530883789 3.884986162185669 23.19931411743164 3.884986162185669 C 24.06276512145996 3.884986162185669 24.88494491577148 3.510876178741455 25.45503425598145 2.858576059341431 L 26.48329544067383 1.679956078529358 C 27.43178558349609 0.5887061357498169 28.8040657043457 -0.0379638634622097 30.24705505371094 -0.0379638634622097 C 31.6605052947998 -0.0379638634622097 33.01189422607422 0.5665461421012878 33.95470428466797 1.620546102523804 L 34.99688339233398 2.787926197052002 C 35.56122589111328 3.420386075973511 36.37124633789063 3.783016204833984 37.21939468383789 3.783016204833984 C 37.62627410888672 3.783016204833984 38.02231597900391 3.701066255569458 38.3964958190918 3.539446115493774 L 38.39879608154297 3.538456201553345 L 38.40109634399414 3.537476062774658 L 39.84406661987305 2.922776222229004 C 40.47286605834961 2.65130615234375 41.13979339599609 2.512686252593994 41.82190322875977 2.512686252593994 C 42.87622451782227 2.512686252593994 43.92571640014648 2.857546091079712 44.77702331542969 3.483726024627686 C 45.66559600830078 4.137306213378906 46.29762649536133 5.046356201171875 46.60478591918945 6.112606048583984 L 47.04301452636719 7.614796161651611 C 47.40048599243164 8.846905708312988 48.50463485717773 9.711915969848633 49.79097366333008 9.768675804138184 L 51.3553352355957 9.831246376037598 C 52.7879753112793 9.891216278076172 54.12557601928711 10.56470584869385 55.02703475952148 11.67907619476318 C 55.92620468139648 12.79061603546143 56.30466461181641 14.23429584503174 56.06537628173828 15.63993644714355 L 55.80182647705078 17.18341636657715 C 55.58587646484375 18.4504566192627 56.20070648193359 19.70715522766113 57.33179473876953 20.31026649475098 L 58.71402359008789 21.0514965057373 C 59.97843551635742 21.73222541809082 60.8907356262207 22.92020606994629 61.21847534179688 24.31159591674805 C 61.54536437988281 25.69937705993652 61.26120376586914 27.1640567779541 60.43886566162109 28.33007621765137 L 59.53516387939453 29.61007690429688 C 58.79652404785156 30.65717697143555 58.80824661254883 32.05950546264648 59.5645751953125 33.09929656982422 L 60.49100494384766 34.36349487304688 C 61.33937454223633 35.52699661254883 61.64687347412109 36.99540710449219 61.33606338500977 38.39413452148438 C 61.02724838256836 39.78388214111328 60.13594055175781 40.97480010986328 58.89043426513672 41.6621208190918 L 57.52528381347656 42.42597579956055 C 56.39917373657227 43.05037689208984 55.8026237487793 44.3140754699707 56.03748321533203 45.57240676879883 L 56.32597351074219 47.11511611938477 C 56.58787536621094 48.52167510986328 56.23214340209961 49.97357559204102 55.35014343261719 51.09929656982422 C 54.46737670898438 52.22599792480469 53.14117431640625 52.91940689086914 51.71160507202148 53.00171661376953 L 50.14152526855469 53.08956527709961 C 48.8609733581543 53.15549468994141 47.77579498291016 54.03461456298828 47.43672561645508 55.27739715576172 L 47.02277374267578 56.79526519775391 C 46.42255401611328 58.96024703979492 44.44235610961914 60.46946716308594 42.2061767578125 60.46946716308594 C 41.55454635620117 60.46946716308594 40.9153938293457 60.34215545654297 40.30647659301758 60.09105682373047 L 38.84989547729492 59.48845672607422 C 38.48666381835938 59.33858489990234 38.10329437255859 59.26240539550781 37.71126556396484 59.26240539550781 C 36.84779357910156 59.26240539550781 36.025634765625 59.63651657104492 35.45559692382813 60.28879547119141 L 34.4295654296875 61.46477508544922 C 33.48589324951172 62.55817031860352 32.11677169799805 63.18531799316406 30.67295455932617 63.18535614013672 Z M 38.57967376708984 31.58893585205078 C 35.72709655761719 31.58893585205078 33.40634536743164 33.90916442871094 33.40634536743164 36.76111602783203 C 33.40634536743164 39.61305618286133 35.72709655761719 41.93328475952148 38.57967376708984 41.93328475952148 C 41.43225479125977 41.93328475952148 43.75299453735352 39.61305618286133 43.75299453735352 36.76111602783203 C 43.75299453735352 33.90916442871094 41.43225479125977 31.58893585205078 38.57967376708984 31.58893585205078 Z M 38.53559494018555 21.32192611694336 C 38.38306427001953 21.32192611694336 38.24147415161133 21.38762664794922 38.14712524414063 21.5021858215332 L 21.9457950592041 41.01293563842773 C 21.83236503601074 41.15065765380859 21.82747459411621 41.3040657043457 21.83488464355469 41.38298797607422 C 21.84221458435059 41.46097564697266 21.87507438659668 41.60875701904297 22.01288414001465 41.72222518920898 C 22.12910461425781 41.81792449951172 22.25346565246582 41.83801651000977 22.33732414245605 41.83801651000977 C 22.33733367919922 41.83801651000977 22.33735084533691 41.83801651000977 22.33736038208008 41.83801651000977 C 22.48988914489746 41.83801651000977 22.63149070739746 41.77230072021484 22.72588539123535 41.65769577026367 L 38.92709350585938 22.14700698852539 C 39.04055404663086 22.0092658996582 39.04543685913086 21.85589599609375 39.03802490234375 21.77699661254883 C 39.03070449829102 21.69900703430176 38.99783325195313 21.55121612548828 38.8599967956543 21.4377269744873 C 38.74375534057617 21.34201622009277 38.61942672729492 21.32192611694336 38.53559494018555 21.32192611694336 Z M 22.30576515197754 21.20162582397461 C 19.45318412780762 21.20162582397461 17.1324348449707 23.5218563079834 17.1324348449707 26.37380599975586 C 17.1324348449707 29.22571563720703 19.45318412780762 31.54590606689453 22.30576515197754 31.54590606689453 C 25.15830421447754 31.54590606689453 27.4790153503418 29.22571563720703 27.4790153503418 26.37380599975586 C 27.4790153503418 23.5218563079834 25.15830421447754 21.20162582397461 22.30576515197754 21.20162582397461 Z M 38.57967376708984 40.32023620605469 C 36.61687469482422 40.32023620605469 35.02001571655273 38.72362518310547 35.02001571655273 36.76111602783203 C 35.02001571655273 34.79856491088867 36.61687469482422 33.2019157409668 38.57967376708984 33.2019157409668 C 40.54252624511719 33.2019157409668 42.1394157409668 34.79856491088867 42.1394157409668 36.76111602783203 C 42.1394157409668 38.72362518310547 40.54252624511719 40.32023620605469 38.57967376708984 40.32023620605469 Z M 22.31831550598145 29.93292617797852 C 20.35551452636719 29.93292617797852 18.7586555480957 28.33631706237793 18.7586555480957 26.37380599975586 C 18.7586555480957 24.41121673583984 20.35551452636719 22.81453704833984 22.31831550598145 22.81453704833984 C 24.28111457824707 22.81453704833984 25.87797546386719 24.41121673583984 25.87797546386719 26.37380599975586 C 25.87797546386719 28.33631706237793 24.28111457824707 29.93292617797852 22.31831550598145 29.93292617797852 Z"/>
      <path class="cls-3" d="M 30.24704933166504 0.9620323181152344 C 29.1412239074707 0.962066650390625 28.03419494628906 1.419975280761719 27.23683547973633 2.337356567382813 L 26.2079963684082 3.516635894775391 C 25.43090438842773 4.405776977539063 24.32736206054688 4.884979248046875 23.19930267333984 4.884979248046875 C 22.68800354003906 4.884979248046875 22.17145919799805 4.786434173583984 21.6783561706543 4.582977294921875 L 20.22291564941406 3.980827331542969 C 19.7231330871582 3.774734497070313 19.20883941650391 3.677913665771484 18.70441818237305 3.677925109863281 C 16.96733474731445 3.677974700927734 15.34848785400391 4.826404571533203 14.85260391235352 6.615234375 L 14.43854522705078 8.133205413818359 C 13.98683547973633 9.789134979248047 12.53131484985352 10.96842575073242 10.82487487792969 11.05626678466797 L 9.256484985351563 11.14403533935547 C 6.859893798828125 11.28207778930664 5.12835693359375 13.48996734619141 5.567516326904297 15.84844589233398 L 5.856155395507813 17.39151763916016 C 6.169826507568359 19.07254791259766 5.366806030273438 20.7661247253418 3.873626708984375 21.59409713745117 L 2.505954742431641 22.3593864440918 C 0.4105567932128906 23.52604675292969 -0.1917533874511719 26.2608642578125 1.226123809814453 28.19280624389648 L 2.154644012451172 29.45985794067383 C 3.158454895019531 30.8398551940918 3.183555603027344 32.70897674560547 2.192283630371094 34.11406707763672 L 1.288875579833984 35.3936653137207 C -0.0913543701171875 37.35071563720703 0.5485954284667969 40.0729866027832 2.669094085693359 41.21460723876953 L 4.049324035644531 41.95473480224609 C 5.554965972900391 42.75767517089844 6.383083343505859 44.43871688842773 6.094524383544922 46.13229370117188 L 5.8310546875 47.67534637451172 C 5.429546356201172 50.03375625610352 7.198734283447266 52.21661376953125 9.595245361328125 52.3170166015625 L 11.16363525390625 52.37968444824219 C 12.87007522583008 52.45498657226563 14.3506965637207 53.60908508300781 14.8275032043457 55.25254821777344 L 15.26666641235352 56.75796508789063 C 15.77511215209961 58.522705078125 17.3759880065918 59.63470840454102 19.08866500854492 59.63470840454102 C 19.61616897583008 59.63470840454102 20.15455627441406 59.52911376953125 20.67454528808594 59.30461502075195 L 22.11751556396484 58.68983459472656 C 22.62527847290039 58.47054672241211 23.16042709350586 58.36434936523438 23.69104766845703 58.36434936523438 C 24.79951477050781 58.36434936523438 25.88750076293945 58.82815170288086 26.65970611572266 59.69350433349609 L 27.70109558105469 60.86015701293945 C 28.49719619750977 61.7431526184082 29.58602714538574 62.18535995483398 30.67292213439941 62.18535995483398 C 31.77882385253906 62.18535995483398 32.88271331787109 61.7274169921875 33.6737060546875 60.81003570556641 L 34.70261383056641 59.63075637817383 C 35.47965240478516 58.74161529541016 36.58320617675781 58.26240921020508 37.71125793457031 58.26240921020508 C 38.22255706787109 58.26240921020508 38.73909378051758 58.36095428466797 39.232177734375 58.56441497802734 L 40.68769454956055 59.16657638549805 C 41.18747711181641 59.37266540527344 41.70175552368164 59.4694709777832 42.20616912841797 59.4694709777832 C 43.94324111938477 59.4694709777832 45.56206512451172 58.32098770141602 46.05800628662109 56.53215789794922 L 46.47198486328125 55.01418685913086 C 46.92377471923828 53.35825729370117 48.37921524047852 52.1789665222168 50.08565521240234 52.09112548828125 L 51.65412521362305 52.00335693359375 C 54.05063629150391 51.86538696289063 55.78217315673828 49.65749740600586 55.34301376342773 47.29893493652344 L 55.054443359375 45.75587463378906 C 54.74071502685547 44.07485580444336 55.54372406005859 42.38126373291016 57.0369758605957 41.55329895019531 L 58.40457534790039 40.78807830810547 C 60.49996566772461 39.63390350341797 61.10227584838867 36.89916610717773 59.68440628051758 34.95458602905273 L 58.75588607788086 33.68752670288086 C 57.75215530395508 32.3076171875 57.72704315185547 30.43842697143555 58.71824645996094 29.0333251953125 L 59.62165451049805 27.75372695922852 C 61.00188446044922 25.79668426513672 60.36192321777344 23.07441711425781 58.24143600463867 21.93277740478516 L 56.86128616333008 21.19266510009766 C 55.35556411743164 20.38979721069336 54.52744293212891 18.70868682861328 54.81608581542969 17.01510620117188 L 55.07955551147461 15.47211456298828 C 55.48105621337891 13.1136360168457 53.71187591552734 10.93076705932617 51.31536483764648 10.8304557800293 L 49.74689483642578 10.76770782470703 C 48.04037475585938 10.69240570068359 46.55983734130859 9.538307189941406 46.08303451538086 7.89483642578125 L 45.64386367797852 6.389427185058594 C 45.13547897338867 4.624683380126953 43.53462219238281 3.512683868408203 41.82190704345703 3.512683868408203 C 41.29439544677734 3.512683868408203 40.7559928894043 3.618278503417969 40.23598480224609 3.842777252197266 L 38.79301452636719 4.457477569580078 C 38.28525543212891 4.676788330078125 37.75002288818359 4.783012390136719 37.21940231323242 4.783012390136719 C 36.11094665527344 4.783012390136719 35.02306365966797 4.319240570068359 34.25090789794922 3.453887939453125 L 33.20937347412109 2.287235260009766 C 32.41953277587891 1.404239654541016 31.33387184143066 0.9620018005371094 30.24704933166504 0.9620323181152344 M 22.30576324462891 32.54590606689453 C 18.89288330078125 32.54590606689453 16.1324348449707 29.77352523803711 16.1324348449707 26.37380599975586 C 16.1324348449707 22.9615478515625 18.89288330078125 20.20162582397461 22.30576324462891 20.20162582397461 C 25.71864318847656 20.20162582397461 28.4790153503418 22.9615478515625 28.4790153503418 26.37380599975586 C 28.4790153503418 29.78599548339844 25.71864318847656 32.54590606689453 22.30576324462891 32.54590606689453 M 22.33728790283203 42.83801651000977 C 21.99858474731445 42.83801651000977 21.65774536132813 42.72515869140625 21.37725448608398 42.49421691894531 C 20.73728561401367 41.96728515625 20.6495246887207 41.01381683349609 21.17645645141602 40.37409591674805 L 37.37521362304688 20.86644744873047 C 37.67116546630859 20.50710678100586 38.10163497924805 20.3218994140625 38.53559494018555 20.32192230224609 C 38.87429046630859 20.32193756103516 39.21514511108398 20.43478393554688 39.49563598632813 20.66573715209961 C 40.13559722900391 21.19266510009766 40.22344589233398 22.14612579345703 39.69643402099609 22.78584671020508 L 23.49774551391602 42.29349517822266 C 23.20175170898438 42.65283203125 22.77125549316406 42.83801651000977 22.33728790283203 42.83801651000977 M 38.57967376708984 42.93328857421875 C 35.16679382324219 42.93328857421875 32.40634536743164 40.17338562011719 32.40634536743164 36.76111602783203 C 32.40634536743164 33.34877777099609 35.16679382324219 30.58893585205078 38.57967376708984 30.58893585205078 C 41.99262237548828 30.58893585205078 44.75299453735352 33.34877777099609 44.75299453735352 36.76111602783203 C 44.75299453735352 40.17338562011719 41.99262237548828 42.93328857421875 38.57967376708984 42.93328857421875 M 22.31831359863281 23.81453704833984 C 20.90464401245117 23.81453704833984 19.7586555480957 24.96037673950195 19.7586555480957 26.37380599975586 C 19.7586555480957 27.78716659545898 20.90464401245117 28.93292617797852 22.31831359863281 28.93292617797852 C 23.73190689086914 28.93292617797852 24.87796401977539 27.78716659545898 24.87796401977539 26.37380599975586 C 24.87796401977539 24.96037673950195 23.73190689086914 23.81453704833984 22.31831359863281 23.81453704833984 M 38.57967376708984 34.2019157409668 C 37.1660041809082 34.2019157409668 36.02001571655273 35.34767532348633 36.02001571655273 36.76111602783203 C 36.02001571655273 38.17447662353516 37.1660041809082 39.32023620605469 38.57967376708984 39.32023620605469 C 39.99334716796875 39.32023620605469 41.1394157409668 38.17447662353516 41.1394157409668 36.76111602783203 C 41.1394157409668 35.34767532348633 39.99334716796875 34.2019157409668 38.57967376708984 34.2019157409668 M 30.24697494506836 -1.0379638671875 C 30.24699592590332 -1.0379638671875 30.24699592590332 -1.0379638671875 30.24699592590332 -1.0379638671875 C 31.94462585449219 -1.03802490234375 33.56770324707031 -0.312042236328125 34.70003509521484 0.9538459777832031 L 35.74285507202148 2.121944427490234 C 36.11785507202148 2.542194366455078 36.65591430664063 2.783016204833984 37.21940612792969 2.783016204833984 C 37.48910522460938 2.783016204833984 37.75172424316406 2.728645324707031 37.99999237060547 2.621417999267578 L 38.00458526611328 2.619434356689453 L 38.00918579101563 2.617477416992188 L 39.4476203918457 2.004707336425781 C 40.20545959472656 1.678207397460938 41.00422668457031 1.512687683105469 41.82190704345703 1.512687683105469 C 43.08784484863281 1.512687683105469 44.34776306152344 1.926597595214844 45.36955642700195 2.678176879882813 C 46.43611526489258 3.462680816650391 47.1949577331543 4.552772521972656 47.56428527832031 5.830860137939453 L 48.00300598144531 7.334724426269531 C 48.24112319946289 8.155494689941406 48.97590637207031 8.730674743652344 49.83261108398438 8.769535064697266 L 51.39531707763672 8.832057952880859 C 53.11668395996094 8.904106140136719 54.7224235534668 9.712505340576172 55.80448532104492 11.05013656616211 C 56.88427352905273 12.38493728637695 57.33867645263672 14.11902618408203 57.05118560791016 15.80775451660156 L 56.78755569458008 17.35173797607422 C 56.64414596557617 18.19316482543945 57.05189514160156 19.02774429321289 57.80229568481445 19.42787551879883 L 59.18661499023438 20.17021560668945 C 60.70424652099609 20.98727798461914 61.79854583740234 22.41261672973633 62.19184494018555 24.08232498168945 C 62.58428573608398 25.7484245300293 62.24321365356445 27.50673675537109 61.25606536865234 28.90641784667969 L 60.35208511352539 30.18683624267578 C 59.86115646362305 30.88276290893555 59.86892318725586 31.81578826904297 60.37166213989258 32.50885009765625 L 61.29761505126953 33.77240753173828 C 62.31654357910156 35.16983795166016 62.68533325195313 36.93205642700195 62.3122444152832 38.61105346679688 C 61.94144058227539 40.2797966003418 60.87168502807617 41.70991516113281 59.37649154663086 42.53604888916016 L 58.01356506347656 43.29865646362305 L 58.01019668579102 43.300537109375 L 58.00681304931641 43.30241394042969 C 57.26111602783203 43.71588897705078 56.86474609375 44.55439758300781 57.0204963684082 45.38894653320313 L 57.30893325805664 46.9312858581543 C 57.62353515625 48.62089538574219 57.19638442993164 50.36430740356445 56.13730621337891 51.71604537963867 C 55.07745361328125 53.06875610351563 53.48529434204102 53.9012451171875 51.76907348632813 54.00004577636719 L 50.19739532470703 54.08800506591797 L 50.19293594360352 54.0882568359375 L 50.1884765625 54.08848571777344 C 49.3447265625 54.13191604614258 48.6265869140625 54.71547698974609 48.40146636962891 55.54060745239258 L 47.98753356933594 57.05837631225586 L 47.98643493652344 57.06243515014648 L 47.98530578613281 57.06648635864258 C 47.26658630371094 59.65889739990234 44.89011383056641 61.46946716308594 42.2061767578125 61.46946716308594 C 41.423095703125 61.46946716308594 40.65568542480469 61.31674575805664 39.92525482177734 61.01554489135742 L 38.46760559082031 60.41250610351563 C 38.226806640625 60.31314468383789 37.97175598144531 60.26240539550781 37.71126556396484 60.26240539550781 C 37.13640594482422 60.26240539550781 36.58870697021484 60.51187515258789 36.20858764648438 60.94683456420898 L 35.1834716796875 62.12176895141602 C 34.04974746704102 63.43326950073242 32.40614318847656 64.18535614013672 30.67292594909668 64.18535614013672 C 28.97818565368652 64.18535614013672 27.35357666015625 63.46149444580078 26.21567535400391 62.19938659667969 L 26.21235656738281 62.19570541381836 L 26.20905685424805 62.1920051574707 L 25.16766357421875 61.02535629272461 C 24.792724609375 60.60519790649414 24.25459671020508 60.36434555053711 23.69104385375977 60.36434555053711 C 23.42134475708008 60.36434555053711 23.15872573852539 60.41870498657227 22.91047668457031 60.52592468261719 L 22.90596389770508 60.52787780761719 L 22.90143585205078 60.5297966003418 L 21.46384811401367 61.14228057861328 C 20.70577239990234 61.46902084350586 19.90665435791016 61.63470458984375 19.08866500854492 61.63470458984375 C 17.82273483276367 61.63470458984375 16.56283569335938 61.22079467773438 15.54104614257813 60.4692268371582 C 14.47415924072266 59.68449401855469 13.71519088745117 58.59407806396484 13.34595108032227 57.31550598144531 L 12.90753555297852 55.81263732910156 C 12.66950607299805 54.9921989440918 11.93521118164063 54.41714096069336 11.07890319824219 54.37789916992188 L 9.515396118164063 54.31542587280273 C 7.7938232421875 54.24330520629883 6.188076019287109 53.43483734130859 5.106025695800781 52.09716796875 C 4.02630615234375 50.76237487792969 3.571933746337891 49.02833557128906 3.859424591064453 47.33968734741211 L 4.123054504394531 45.79567718505859 C 4.266414642333984 44.95430755615234 3.858623504638672 44.11966705322266 3.10821533203125 43.71947479248047 L 1.723934173583984 42.97718811035156 C 0.2063064575195313 42.16013336181641 -0.8879966735839844 40.73480606079102 -1.281303405761719 39.06510543823242 C -1.673763275146484 37.39900588989258 -1.332695007324219 35.64067840576172 -0.3455352783203125 34.24097442626953 L 0.5584449768066406 32.96055603027344 C 1.049774169921875 32.26411819458008 1.041622161865234 31.33026313781738 0.5377693176269531 30.63702774047852 L -0.3870735168457031 29.37499618530273 C -1.400016784667969 27.99481582641602 -1.771953582763672 26.24242782592773 -1.406673431396484 24.56829452514648 C -1.040565490722656 22.89033508300781 0.030914306640625 21.44831466674805 1.533046722412109 20.61197662353516 L 2.897003173828125 19.8487548828125 L 2.900375366210938 19.84686660766602 L 2.903743743896484 19.84499740600586 C 3.649436950683594 19.43151473999023 4.045814514160156 18.59296798706055 3.890083312988281 17.75837707519531 L 3.601615905761719 16.2161750793457 C 3.287006378173828 14.52657699584961 3.714126586914063 12.7832145690918 4.773155212402344 11.4315071105957 C 5.833003997802734 10.0787467956543 7.425205230712891 9.246196746826172 9.141475677490234 9.147346496582031 L 10.7131233215332 9.05938720703125 L 10.71759414672852 9.059135437011719 L 10.72205352783203 9.058906555175781 C 11.56584548950195 9.015476226806641 12.28397369384766 8.43194580078125 12.5090446472168 7.606864929199219 L 12.923095703125 6.088916778564453 L 12.92418670654297 6.084934234619141 L 12.92528533935547 6.080966949462891 C 13.64391326904297 3.488597869873047 16.02035522460938 1.678005218505859 18.70435333251953 1.677925109863281 C 19.48744583129883 1.677906036376953 20.25487518310547 1.830635070800781 20.98535537719727 2.131855010986328 L 22.44294357299805 2.734897613525391 C 22.6837158203125 2.834236145019531 22.93877410888672 2.884975433349609 23.19930648803711 2.884975433349609 C 23.77416610717773 2.884975433349609 24.32190322875977 2.635494232177734 24.70208358764648 2.200496673583984 L 25.72976684570313 1.022544860839844 C 26.86699676513672 -0.2858734130859375 28.51434326171875 -1.037910461425781 30.24699592590332 -1.0379638671875 L 30.24697494506836 -1.0379638671875 Z"/>
    </g>
  </g>
</svg>
