<svg xmlns="http://www.w3.org/2000/svg" viewBox="0 0 200 137.931">
  <defs>
    <style>
      .cls-1 {
        fill: #b4e1fa;
      }

      .cls-2 {
        fill: #707487;
      }

      .cls-3 {
        fill: #5b5d6e;
      }

      .cls-4 {
        fill: #ffd782;
      }

      .cls-5 {
        fill: #464655;
      }

      .cls-6 {
        fill: #c7cfe2;
      }

      .cls-7 {
        fill: #afb9d2;
      }

      .cls-8 {
        fill: #ffc36e;
      }

      .cls-9 {
        fill: #959cb3;
      }
    </style>
  </defs>
  <g id="ic_service_truck" transform="translate(-1309 36)">
    <path id="Path_540" data-name="Path 540" class="cls-1" d="M382.207,166.9H344.276V132.414h31.034Z" transform="translate(1099.207 -147.724)"/>
    <path id="Path_541" data-name="Path 541" class="cls-2" d="M12.276,327.724H198.483a3.449,3.449,0,0,0,3.448-3.448V300.138H8.828v24.138A3.448,3.448,0,0,0,12.276,327.724Z" transform="translate(1303.62 -249.931)"/>
    <path id="Path_542" data-name="Path 542" class="cls-3" d="M139.862,214.069V158.9H126.069v55.172H8.828v13.793h193.1V214.069Z" transform="translate(1303.62 -163.862)"/>
    <g id="Group_184" data-name="Group 184" transform="translate(1309 -36)">
      <path id="Path_543" data-name="Path 543" class="cls-4" d="M3.448,79.448H120.69a3.449,3.449,0,0,1,3.448,3.448v82.759a3.449,3.449,0,0,1-3.448,3.448H3.448A3.449,3.449,0,0,1,0,165.655V82.9A3.449,3.449,0,0,1,3.448,79.448Z" transform="translate(0 -79.448)"/>
      <path id="Path_544" data-name="Path 544" class="cls-4" d="M395.963,158.157l-16.1-4.6-4.994-27.476a13.789,13.789,0,0,0-13.57-11.321H338.9a3.447,3.447,0,0,0-3.448,3.448v62.069h65.517V164.789A6.9,6.9,0,0,0,395.963,158.157Zm-46.722-5.467a6.9,6.9,0,0,1-6.9-6.9V128.552a3.449,3.449,0,0,1,3.448-3.448h19.05a3.447,3.447,0,0,1,3.393,2.837l4.034,22.38a2.013,2.013,0,0,1-1.981,2.37Z" transform="translate(-204.414 -100.966)"/>
    </g>
    <ellipse id="Ellipse_41" data-name="Ellipse 41" class="cls-5" cx="20.69" cy="20.69" rx="20.69" ry="20.69" transform="translate(1450.379 60.552)"/>
    <ellipse id="Ellipse_42" data-name="Ellipse 42" class="cls-6" cx="13.793" cy="13.793" rx="13.793" ry="13.793" transform="translate(1457.276 67.449)"/>
    <ellipse id="Ellipse_43" data-name="Ellipse 43" class="cls-7" cx="5.172" cy="5.172" rx="5.172" ry="5.172" transform="translate(1465.897 76.069)"/>
    <ellipse id="Ellipse_44" data-name="Ellipse 44" class="cls-5" cx="20.69" cy="20.69" rx="20.69" ry="20.69" transform="translate(1322.793 60.552)"/>
    <ellipse id="Ellipse_45" data-name="Ellipse 45" class="cls-6" cx="13.793" cy="13.793" rx="13.793" ry="13.793" transform="translate(1329.69 67.449)"/>
    <ellipse id="Ellipse_46" data-name="Ellipse 46" class="cls-7" cx="5.172" cy="5.172" rx="5.172" ry="5.172" transform="translate(1338.311 76.069)"/>
    <path id="Path_545" data-name="Path 545" class="cls-8" d="M338.9,308.138h1.317a3.448,3.448,0,0,0,3.084-1.906l7.486-14.971a6.9,6.9,0,0,1,6.168-3.812h19.062a6.9,6.9,0,0,1,6.168,3.812l7.486,14.971a3.449,3.449,0,0,0,3.084,1.906h8.213a3.449,3.449,0,0,0,3.448-3.448V280.552a6.9,6.9,0,0,0-6.9-6.9H335.448V304.69A3.449,3.449,0,0,0,338.9,308.138Z" transform="translate(1104.586 -233.793)"/>
    <path id="Path_546" data-name="Path 546" class="cls-7" d="M249.793,356.138H215.31a3.449,3.449,0,0,1-3.448-3.448V338.9a3.449,3.449,0,0,1,3.448-3.448h34.483a3.449,3.449,0,0,1,3.448,3.448V352.69A3.449,3.449,0,0,1,249.793,356.138Z" transform="translate(1179.897 -271.448)"/>
    <g id="Group_185" data-name="Group 185" transform="translate(1402.103 70.897)">
      <path id="Path_547" data-name="Path 547" class="cls-9" d="M241.792,353.1h0a3.449,3.449,0,0,0-3.448,3.448V366.9h6.9V356.552A3.449,3.449,0,0,0,241.792,353.1Z" transform="translate(-238.344 -353.103)"/>
      <path id="Path_548" data-name="Path 548" class="cls-9" d="M277.1,353.1h0a3.449,3.449,0,0,0-3.448,3.448V366.9h6.9V356.552A3.449,3.449,0,0,0,277.1,353.1Z" transform="translate(-259.862 -353.103)"/>
    </g>
    <path id="Path_549" data-name="Path 549" class="cls-8" d="M124.552,280.551H21.1a3.449,3.449,0,0,1-3.448-3.448h0a3.449,3.449,0,0,1,3.448-3.448H124.552A3.449,3.449,0,0,1,128,277.1h0A3.448,3.448,0,0,1,124.552,280.551Z" transform="translate(1298.241 -233.792)"/>
  </g>
</svg>
