<svg id="online-shop" xmlns="http://www.w3.org/2000/svg" viewBox="0 0 80 80">
  <defs>
    <style>
      .cls-1 {
        fill: #40596b;
      }

      .cls-2 {
        fill: #fff;
      }

      .cls-3 {
        fill: #cdd6e0;
      }

      .cls-4 {
        fill: #f2f2f2;
      }

      .cls-5 {
        fill: #acb3ba;
      }

      .cls-6 {
        fill: #ffd15c;
      }

      .cls-7 {
        fill: #f8b64c;
      }

      .cls-8 {
        fill: #ff7058;
      }

      .cls-9 {
        fill: #e4eaef;
      }

      .cls-10 {
        fill: #f1543f;
      }
    </style>
  </defs>
  <path id="Path_15" data-name="Path 15" class="cls-1" d="M76.667,78.367H3.333A3.343,3.343,0,0,0,0,81.7v49.667A3.343,3.343,0,0,0,3.333,134.7H76.667A3.343,3.343,0,0,0,80,131.367V81.7A3.343,3.343,0,0,0,76.667,78.367Z" transform="translate(0 -65.867)"/>
  <rect id="Rectangle_7" data-name="Rectangle 7" class="cls-2" width="70" height="46.167" transform="translate(5 17.5)"/>
  <rect id="Rectangle_8" data-name="Rectangle 8" class="cls-3" width="30.5" height="9" transform="translate(24.667 68.833)"/>
  <rect id="Rectangle_9" data-name="Rectangle 9" class="cls-4" width="49" height="2.167" transform="translate(15.5 77.833)"/>
  <rect id="Rectangle_10" data-name="Rectangle 10" class="cls-5" width="30.5" height="2.5" transform="translate(24.667 68.833)"/>
  <path id="Path_16" data-name="Path 16" class="cls-4" d="M126.086,117.029v42.333a2.632,2.632,0,0,1-2.667,2.667H70.586a2.632,2.632,0,0,1-2.667-2.667V117.029Z" transform="translate(-57.086 -98.362)"/>
  <g id="Group_5" data-name="Group 5" transform="translate(24.833 30.5)">
    <path id="Path_17" data-name="Path 17" class="cls-2" d="M249.352,191.216v6.333h-.667v-6.333Z" transform="translate(-233.852 -191.216)"/>
    <path id="Path_18" data-name="Path 18" class="cls-2" d="M249.352,343.771V350.1h-.667v-6.333h.667Z" transform="translate(-233.852 -319.438)"/>
    <path id="Path_19" data-name="Path 19" class="cls-2" d="M293.392,217.838l-4.5,4.5-.5-.5,4.5-4.5Z" transform="translate(-267.225 -213.171)"/>
    <path id="Path_20" data-name="Path 20" class="cls-2" d="M185.767,326.508l-4.5,4.5-.5-.5,4.5-4.5Z" transform="translate(-176.767 -304.508)"/>
    <path id="Path_21" data-name="Path 21" class="cls-2" d="M314.412,285.257v.667h-6.167v-.667Z" transform="translate(-283.912 -270.257)"/>
    <path id="Path_22" data-name="Path 22" class="cls-2" d="M161.857,285.59v.333H155.69v-.667h6.167Z" transform="translate(-155.69 -270.257)"/>
    <path id="Path_23" data-name="Path 23" class="cls-2" d="M294.27,330.342l-.5.5-4.333-4.333.5-.5Z" transform="translate(-268.104 -304.509)"/>
    <path id="Path_24" data-name="Path 24" class="cls-2" d="M185.767,221.839l-.5.5-4.5-4.5.5-.5Z" transform="translate(-176.767 -213.172)"/>
    <path id="Path_25" data-name="Path 25" class="cls-2" d="M219.5,215.614c-.167,0-.333.167-.667.333l-1.5-3.5.667-.333Z" transform="translate(-207.505 -208.781)"/>
    <path id="Path_26" data-name="Path 26" class="cls-2" d="M271.75,343.092l-.667.333-1.5-3.5c.167,0,.333-.167.667-.333Z" transform="translate(-251.416 -315.925)"/>
    <path id="Path_27" data-name="Path 27" class="cls-2" d="M179.376,255.41c-.167.167-.167.333-.333.667l-3.5-1.5.333-.667Z" transform="translate(-172.376 -243.91)"/>
    <path id="Path_28" data-name="Path 28" class="cls-2" d="M305.808,308.7l-.333.667-3.5-1.5c.167-.167.167-.333.333-.667Z" transform="translate(-278.642 -288.7)"/>
    <path id="Path_29" data-name="Path 29" class="cls-2" d="M179.376,306.822l-3.5,1.5-.333-.667,3.5-1.5C179.21,306.488,179.21,306.655,179.376,306.822Z" transform="translate(-172.376 -287.822)"/>
    <path id="Path_30" data-name="Path 30" class="cls-2" d="M305.808,254.577l-3.5,1.5c0-.167-.167-.333-.333-.667l3.5-1.5Z" transform="translate(-278.642 -243.91)"/>
    <path id="Path_31" data-name="Path 31" class="cls-2" d="M219.5,338.88l-1.5,3.5-.667-.333,1.5-3.5C219.172,338.714,219.338,338.714,219.5,338.88Z" transform="translate(-207.505 -315.047)"/>
    <path id="Path_32" data-name="Path 32" class="cls-2" d="M272.628,211.4l-1.333,3.5c-.167-.167-.333-.167-.667-.333l1.5-3.5Z" transform="translate(-252.295 -207.902)"/>
  </g>
  <path id="Path_33" data-name="Path 33" class="cls-6" d="M123.63,0H72.3a3.343,3.343,0,0,0-3.333,3.333V12H127.13V3.333A3.608,3.608,0,0,0,123.63,0Z" transform="translate(-57.963)"/>
  <path id="Path_34" data-name="Path 34" class="cls-1" d="M324.963,273.763,328.13,285.1l2.833-2.833,2.667,2.833,2.5-2.5-2.667-2.833,2.667-2.833Z" transform="translate(-273.13 -230.096)"/>
  <circle id="Ellipse_1" data-name="Ellipse 1" class="cls-7" cx="2" cy="2" r="2" transform="translate(30.833 4)"/>
  <circle id="Ellipse_2" data-name="Ellipse 2" class="cls-8" cx="2" cy="2" r="2" transform="translate(23.167 4)"/>
  <circle id="Ellipse_3" data-name="Ellipse 3" class="cls-7" cx="2" cy="2" r="2" transform="translate(15.5 4)"/>
  <path id="Path_35" data-name="Path 35" class="cls-9" d="M126.964,125.388v7.833a5.681,5.681,0,0,1-3.667,1.167,6.33,6.33,0,0,1-6.333-6.333,6.333,6.333,0,0,1-12.667,0,6.333,6.333,0,0,1-12.667,0,6.333,6.333,0,0,1-12.667,0,6.33,6.33,0,0,1-6.333,6.333,6.838,6.838,0,0,1-3.667-1.167v-7.833Z" transform="translate(-57.964 -105.388)"/>
  <path id="Path_36" data-name="Path 36" class="cls-8" d="M64.912,81.9H52.245l2.667-6.667h11.5Z" transform="translate(-43.912 -63.233)"/>
  <path id="Path_37" data-name="Path 37" class="cls-3" d="M144.324,81.9H131.657l1.5-6.667h11.667Z" transform="translate(-110.657 -63.233)"/>
  <path id="Path_38" data-name="Path 38" class="cls-8" d="M223.736,81.9H211.069l.5-6.667h11.667Z" transform="translate(-177.402 -63.233)"/>
  <path id="Path_39" data-name="Path 39" class="cls-3" d="M300.514,81.9H287.847l-.5-6.667h11.667Z" transform="translate(-241.514 -63.233)"/>
  <path id="Path_40" data-name="Path 40" class="cls-8" d="M374.657,81.9H361.99l-1.5-6.667h11.5Z" transform="translate(-302.99 -63.233)"/>
  <g id="Group_6" data-name="Group 6" transform="translate(21 18.667)">
    <path id="Path_41" data-name="Path 41" class="cls-5" d="M131.657,119.862a6.333,6.333,0,0,0,12.667,0v-2.833H131.657v2.833Z" transform="translate(-131.657 -117.029)"/>
    <path id="Path_42" data-name="Path 42" class="cls-5" d="M290.482,117.029v2.833a6.333,6.333,0,0,0,12.667,0v-2.833Z" transform="translate(-265.149 -117.029)"/>
  </g>
  <g id="Group_7" data-name="Group 7" transform="translate(8.333 18.667)">
    <path id="Path_43" data-name="Path 43" class="cls-10" d="M52.245,119.862a6.333,6.333,0,0,0,12.667,0v-2.833H52.245Z" transform="translate(-52.245 -117.029)"/>
    <path id="Path_44" data-name="Path 44" class="cls-10" d="M211.069,119.862a6.333,6.333,0,0,0,12.667,0v-2.833H211.069v2.833Z" transform="translate(-185.736 -117.029)"/>
    <path id="Path_45" data-name="Path 45" class="cls-10" d="M369.894,117.029v2.833a6.333,6.333,0,0,0,12.667,0v-2.833Z" transform="translate(-319.227 -117.029)"/>
  </g>
  <ellipse id="Ellipse_4" data-name="Ellipse 4" class="cls-8" cx="9.833" cy="10" rx="9.833" ry="10" transform="translate(30.167 35.833)"/>
  <g id="Group_8" data-name="Group 8" transform="translate(33.333 39.667)">
    <path id="Path_46" data-name="Path 46" class="cls-2" d="M213.98,257.853l-.333-1.167h7.667v-5.833h-9.167l-.5-2.167H208.98v1h2l2.333,9.167h8.333v-1Zm6.333-6.167v3.833H213.48l-1-3.833Z" transform="translate(-208.98 -248.686)"/>
    <ellipse id="Ellipse_5" data-name="Ellipse 5" class="cls-2" cx="1.167" cy="1.167" rx="1.167" ry="1.167" transform="translate(5.333 10.833)"/>
    <ellipse id="Ellipse_6" data-name="Ellipse 6" class="cls-2" cx="1.167" cy="1.167" rx="1.167" ry="1.167" transform="translate(9.667 10.833)"/>
  </g>
</svg>
