<svg xmlns="http://www.w3.org/2000/svg" viewBox="0 0 22.282 19.758">
  <defs>
    <style>
      .cls-1 {
        fill: #929ca5;
        fill-rule: evenodd;
      }
    </style>
  </defs>
  <path id="qoute_up" class="cls-1" d="M.038,4.328A4.214,4.214,0,0,0,4.127,8.654a3.865,3.865,0,0,0,1.982-.565c-.2,2.313-1.347,5.687-5.537,9.124a1.482,1.482,0,0,0-.237,2A1.319,1.319,0,0,0,1.4,19.76a1.3,1.3,0,0,0,.825-.3c5.142-4.227,6.427-8.57,6.6-11.47C9.114,4.28,8.009,2.329,7,1.312l-.28-.294L6.072.55,6.05.533,6.007.516,5.539.287,5.55.321A3.664,3.664,0,0,0,4.127,0,4.212,4.212,0,0,0,.038,4.328Zm13.455,0a4.208,4.208,0,0,0,4.086,4.326,3.865,3.865,0,0,0,1.982-.565c-.2,2.313-1.347,5.687-5.535,9.124a1.477,1.477,0,0,0-.24,2,1.319,1.319,0,0,0,1.062.551,1.3,1.3,0,0,0,.825-.3c5.139-4.227,6.427-8.57,6.6-11.47.294-3.71-.813-5.662-1.821-6.678l-.282-.294L19.525.55,19.5.533,19.46.516,18.988.287,19,.321A3.678,3.678,0,0,0,17.574,0,4.207,4.207,0,0,0,13.493,4.328Z" transform="translate(22.32 19.76) rotate(180)"/>
</svg>
