<svg xmlns="http://www.w3.org/2000/svg" viewBox="0 0 80 80.012">
  <defs>
    <style>
      .cls-1 {
        fill: #507dbc;
      }

      .cls-2 {
        fill: #fff;
      }

      .cls-3 {
        fill: #11273b;
      }
    </style>
  </defs>
  <g id="time-passing" transform="translate(-0.005 0)">
    <path id="XMLID_148_" class="cls-1" d="M37.014,65.018A28.009,28.009,0,1,1,65.023,37.009,28.041,28.041,0,0,1,37.014,65.018" transform="translate(3.004 3.004)"/>
    <path id="XMLID_147_" class="cls-2" d="M30.339,16.335A1.333,1.333,0,0,1,29,15V12.334a1.334,1.334,0,0,1,2.668,0V15a1.333,1.333,0,0,1-1.334,1.334" transform="translate(9.679 3.671)"/>
    <path id="XMLID_146_" class="cls-2" d="M30.339,50.335A1.333,1.333,0,0,1,29,49V46.334a1.334,1.334,0,0,1,2.668,0V49a1.333,1.333,0,0,1-1.334,1.334" transform="translate(9.679 15.019)"/>
    <path id="XMLID_145_" class="cls-2" d="M49.006,31.668H46.339a1.334,1.334,0,0,1,0-2.668h2.668a1.334,1.334,0,0,1,0,2.668" transform="translate(15.019 9.679)"/>
    <path id="XMLID_144_" class="cls-2" d="M15.006,31.668H12.339a1.334,1.334,0,1,1,0-2.668h2.668a1.334,1.334,0,0,1,0,2.668" transform="translate(3.671 9.679)"/>
    <path id="XMLID_141_" class="cls-2" d="M31.34,35.67a5.335,5.335,0,1,1,5.335-5.335A5.34,5.34,0,0,1,31.34,35.67m0-8a2.668,2.668,0,1,0,2.668,2.668,2.67,2.67,0,0,0-2.668-2.668" transform="translate(8.678 8.344)"/>
    <path id="XMLID_140_" class="cls-2" d="M30.339,29.67A1.333,1.333,0,0,1,29,28.336v-8a1.334,1.334,0,0,1,2.668,0v8a1.333,1.333,0,0,1-1.334,1.334" transform="translate(9.679 6.341)"/>
    <path id="XMLID_139_" class="cls-2" d="M19.339,44.631a1.334,1.334,0,0,1-.943-2.277L30.238,30.512A1.334,1.334,0,0,1,32.124,32.4L20.282,44.24a1.33,1.33,0,0,1-.943.391" transform="translate(6.008 10.053)"/>
    <path id="Union_2" data-name="Union 2" class="cls-3" d="M-3502.756-876.988a1.329,1.329,0,0,1-1.307-1.36,1.338,1.338,0,0,1,1.361-1.308,1.338,1.338,0,0,1,1.307,1.361,1.323,1.323,0,0,1-1.334,1.307Zm4.029-.121a1.336,1.336,0,0,1-1.334-1.228,1.331,1.331,0,0,1,1.214-1.44,1.343,1.343,0,0,1,1.44,1.227,1.311,1.311,0,0,1-1.214,1.428v.013Zm-8.15-.159v-.013a1.316,1.316,0,0,1-1.16-1.481,1.322,1.322,0,0,1,1.48-1.16,1.323,1.323,0,0,1,1.16,1.48,1.327,1.327,0,0,1-1.32,1.174Zm10.79-1.467a1.344,1.344,0,0,1,1.067-1.561,1.334,1.334,0,0,1,1.56,1.067,1.348,1.348,0,0,1-1.066,1.559,1.345,1.345,0,0,1-.24.014A1.342,1.342,0,0,1-3496.087-878.735Zm-14.872.747a1.344,1.344,0,0,1-1-1.6,1.34,1.34,0,0,1,1.6-1,1.325,1.325,0,0,1,1,1.6,1.326,1.326,0,0,1-1.294,1.027A1.185,1.185,0,0,1-3510.958-877.988Zm18.793-1.562a1.317,1.317,0,0,1,.894-1.653,1.341,1.341,0,0,1,1.667.881,1.337,1.337,0,0,1-.893,1.667,1.369,1.369,0,0,1-.387.053A1.34,1.34,0,0,1-3492.166-879.549Zm-22.767.427a1.335,1.335,0,0,1-.827-1.694,1.324,1.324,0,0,1,1.694-.827,1.325,1.325,0,0,1,.827,1.694,1.328,1.328,0,0,1-1.254.893A1.655,1.655,0,0,1-3514.933-879.122Zm26.582-1.641a1.339,1.339,0,0,1,.721-1.747,1.344,1.344,0,0,1,1.747.72,1.345,1.345,0,0,1-.72,1.748,1.434,1.434,0,0,1-.52.093A1.332,1.332,0,0,1-3488.352-880.763Zm-30.423.093a1.336,1.336,0,0,1-.64-1.774,1.32,1.32,0,0,1,1.774-.639,1.321,1.321,0,0,1,.64,1.76,1.326,1.326,0,0,1-1.214.772A1.4,1.4,0,0,1-3518.774-880.67Zm34.091-1.706a1.311,1.311,0,0,1,.534-1.8,1.311,1.311,0,0,1,1.8.533,1.313,1.313,0,0,1-.533,1.8,1.218,1.218,0,0,1-.627.172A1.315,1.315,0,0,1-3484.683-882.376Zm-37.746-.227a1.326,1.326,0,0,1-.453-1.827,1.328,1.328,0,0,1,1.827-.467,1.331,1.331,0,0,1,.454,1.828,1.326,1.326,0,0,1-1.148.653A1.276,1.276,0,0,1-3522.429-882.6Zm41.227-1.747a1.329,1.329,0,0,1,.333-1.854,1.33,1.33,0,0,1,1.854.346,1.328,1.328,0,0,1-.333,1.853,1.327,1.327,0,0,1-.76.227A1.311,1.311,0,0,1-3481.2-884.35Zm-44.654-.547a1.328,1.328,0,0,1-.28-1.867,1.328,1.328,0,0,1,1.867-.281,1.352,1.352,0,0,1,.28,1.867,1.319,1.319,0,0,1-1.08.534A1.294,1.294,0,0,1-3525.856-884.9Zm47.909-1.775a1.332,1.332,0,0,1,.147-1.881,1.332,1.332,0,0,1,1.88.148,1.331,1.331,0,0,1-.147,1.88,1.337,1.337,0,0,1-.867.32A1.341,1.341,0,0,1-3477.948-886.672Zm-51.1-.866a1.333,1.333,0,0,1-.08-1.894,1.34,1.34,0,0,1,1.88-.08v.012a1.33,1.33,0,0,1,.08,1.882,1.367,1.367,0,0,1-.986.427A1.343,1.343,0,0,1-3529.044-887.538Zm54.1-1.787a1.316,1.316,0,0,1-.04-1.88,1.328,1.328,0,0,1,1.88-.041,1.329,1.329,0,0,1,.041,1.881,1.294,1.294,0,0,1-.96.413A1.289,1.289,0,0,1-3474.947-889.325Zm-56.992-1.174a1.329,1.329,0,0,1,.107-1.879,1.329,1.329,0,0,1,1.88.12,1.331,1.331,0,0,1-.106,1.881,1.328,1.328,0,0,1-.88.333A1.283,1.283,0,0,1-3531.938-890.5Zm59.7-1.759a1.335,1.335,0,0,1-.226-1.868,1.322,1.322,0,0,1,1.867-.239,1.322,1.322,0,0,1,.24,1.866,1.328,1.328,0,0,1-1.054.521A1.379,1.379,0,0,1-3472.24-892.259Zm-62.286-1.469a1.342,1.342,0,0,1,.307-1.866,1.354,1.354,0,0,1,1.867.307,1.342,1.342,0,0,1-.307,1.867,1.31,1.31,0,0,1-.774.252A1.348,1.348,0,0,1-3534.526-893.728Zm64.688-1.733a1.338,1.338,0,0,1-.427-1.84,1.35,1.35,0,0,1,1.841-.428,1.339,1.339,0,0,1,.427,1.841,1.32,1.32,0,0,1-1.134.628A1.39,1.39,0,0,1-3469.838-895.46Zm-66.915-1.747a1.318,1.318,0,0,1,.494-1.814,1.315,1.315,0,0,1,1.813.494h.013a1.333,1.333,0,0,1-.507,1.814,1.3,1.3,0,0,1-.655.174A1.329,1.329,0,0,1-3536.753-897.207Zm68.969-1.682a1.345,1.345,0,0,1-.613-1.787,1.336,1.336,0,0,1,1.787-.612A1.332,1.332,0,0,1-3466-899.5a1.339,1.339,0,0,1-1.2.749A1.291,1.291,0,0,1-3467.785-898.889Zm-70.836-2.012a1.341,1.341,0,0,1,.68-1.76,1.343,1.343,0,0,1,1.761.68,1.34,1.34,0,0,1-.68,1.759,1.269,1.269,0,0,1-.534.121A1.356,1.356,0,0,1-3538.621-900.9Zm72.53-1.614a1.325,1.325,0,0,1-.787-1.709,1.325,1.325,0,0,1,1.707-.8,1.323,1.323,0,0,1,.787,1.707,1.318,1.318,0,0,1-1.254.88A1.362,1.362,0,0,1-3466.091-902.516Zm-74-2.255a1.334,1.334,0,0,1,.867-1.682,1.32,1.32,0,0,1,1.667.869,1.341,1.341,0,0,1-.853,1.68,1.457,1.457,0,0,1-.414.054A1.342,1.342,0,0,1-3540.088-904.77Zm75.3-1.52a1.357,1.357,0,0,1-.974-1.627,1.356,1.356,0,0,1,1.627-.974,1.341,1.341,0,0,1,.96,1.628,1.339,1.339,0,0,1-1.294,1.014A1.445,1.445,0,0,1-3464.783-906.29Zm-76.358-2.481a1.319,1.319,0,0,1,1.027-1.575,1.318,1.318,0,0,1,1.573,1.029,1.318,1.318,0,0,1-1.027,1.573.982.982,0,0,1-.28.027A1.312,1.312,0,0,1-3541.141-908.771Zm77.264-1.427a1.327,1.327,0,0,1-1.133-1.508,1.346,1.346,0,0,1,1.508-1.135,1.336,1.336,0,0,1,1.133,1.508,1.334,1.334,0,0,1-1.32,1.147A1.009,1.009,0,0,1-3463.877-910.2Zm-76.584-1.468a1.33,1.33,0,0,1-1.32-1.2,1.322,1.322,0,0,1,1.187-1.454,1.333,1.333,0,0,1,1.467,1.187,1.333,1.333,0,0,1-1.187,1.467Zm77.079-2.494a1.339,1.339,0,0,1-1.281-1.387,1.34,1.34,0,0,1,1.387-1.281A1.332,1.332,0,0,1-3462-915.44a1.338,1.338,0,0,1-1.334,1.28Zm-77.279-1.494a1.333,1.333,0,0,1-1.334-1.334A40.058,40.058,0,0,1-3501.982-957a39.789,39.789,0,0,1,25.341,9.068v-7.734a1.333,1.333,0,0,1,1.334-1.334,1.333,1.333,0,0,1,1.334,1.334v10.672c0,.016,0,.031,0,.047v1.285h-1.074a1.34,1.34,0,0,1-.518,0h-10.411a1.333,1.333,0,0,1-1.335-1.334,1.334,1.334,0,0,1,1.335-1.334h7.073a37.13,37.13,0,0,0-23.078-8,37.387,37.387,0,0,0-37.345,37.345,1.333,1.333,0,0,1-1.334,1.334Z" transform="translate(3542 957)"/>
  </g>
</svg>
