<svg xmlns="http://www.w3.org/2000/svg" viewBox="0 0 217.069 56.476"><defs><style>.a{fill:#11273b;}.b{fill:#e9c46a;font-size:16px;font-family:Montserrat-Bold, Montserrat;font-weight:700;letter-spacing:-0.005em;}.c{fill:#e1ad3d;}.d{fill:none;stroke:#e9c46a;stroke-linecap:round;stroke-width:2px;}</style></defs><g transform="translate(-523.789 -673.201)"><rect class="a" width="200" height="40" rx="20" transform="translate(533 677)"/><text class="b" transform="translate(633 692)"><tspan x="-31.424" y="0">Explore</tspan></text><g transform="translate(520.476 687.724) rotate(-30)"><g transform="translate(0)"><g transform="translate(15.329)"><path class="c" d="M57.092,14.613A2.775,2.775,0,0,1,55.6,12.892a2.78,2.78,0,0,1,3.763,1.755A2.774,2.774,0,0,1,57.092,14.613Z" transform="translate(-55.374 -9.121)"/><path class="c" d="M56.729,2.275a2.775,2.775,0,0,1-1.721,1.488A2.78,2.78,0,0,1,56.762,0,2.772,2.772,0,0,1,56.729,2.275Z" transform="translate(-54.781)"/></g><g transform="translate(11.858 1.543)"><path class="c" d="M45.791,20.133A2.775,2.775,0,0,1,44.027,18.7a2.78,2.78,0,0,1,4.011,1.075A2.775,2.775,0,0,1,45.791,20.133Z" transform="translate(-43.565 -14.678)"/><path class="c" d="M44.271,7.759a2.775,2.775,0,0,1-1.436,1.764,2.78,2.78,0,0,1,1.075-4.011A2.775,2.775,0,0,1,44.271,7.759Z" transform="translate(-42.377 -5.513)"/></g><g transform="translate(8.676 3.747)"><path class="c" d="M35.717,27.357a2.774,2.774,0,0,1-1.987-1.108,2.78,2.78,0,0,1,4.136.362A2.776,2.776,0,0,1,35.717,27.357Z" transform="translate(-32.967 -22.106)"/><path class="c" d="M32.869,15.54a2.774,2.774,0,0,1-1.108,1.987,2.78,2.78,0,0,1,.362-4.136A2.774,2.774,0,0,1,32.869,15.54Z" transform="translate(-31.004 -13.391)"/></g><g transform="translate(5.877 6.546)"><path class="c" d="M27.173,36.061a2.774,2.774,0,0,1-2.149-.746,2.78,2.78,0,0,1,4.136-.362A2.774,2.774,0,0,1,27.173,36.061Z" transform="translate(-23.898 -31.173)"/><path class="c" d="M22.867,25.38a2.774,2.774,0,0,1-.746,2.149,2.78,2.78,0,0,1-.362-4.136A2.775,2.775,0,0,1,22.867,25.38Z" transform="translate(-21.002 -23.393)"/></g><g transform="translate(3.547 9.854)"><path class="c" d="M20.422,45.982a2.775,2.775,0,0,1-2.246-.362,2.78,2.78,0,0,1,4.01-1.075A2.773,2.773,0,0,1,20.422,45.982Z" transform="translate(-16.637 -41.606)"/><path class="c" d="M14.568,36.98a2.774,2.774,0,0,1-.362,2.246,2.78,2.78,0,0,1-1.075-4.01A2.774,2.774,0,0,1,14.568,36.98Z" transform="translate(-12.675 -35.216)"/></g><g transform="translate(1.757 13.572)"><path class="c" d="M15.669,56.823a2.774,2.774,0,0,1-2.275.034A2.78,2.78,0,0,1,17.157,55.1,2.774,2.774,0,0,1,15.669,56.823Z" transform="translate(-11.403 -53.09)"/><path class="c" d="M8.229,49.988a2.774,2.774,0,0,1,.034,2.275A2.78,2.78,0,0,1,6.508,48.5,2.773,2.773,0,0,1,8.229,49.988Z" transform="translate(-6.28 -48.5)"/></g><g transform="translate(0.563 17.585)"><path class="c" d="M13.056,68.251a2.774,2.774,0,0,1-2.234.428,2.78,2.78,0,0,1,3.4-2.381A2.774,2.774,0,0,1,13.056,68.251Z" transform="translate(-8.357 -65.276)"/><path class="c" d="M4.041,64.008a2.773,2.773,0,0,1,.428,2.234,2.78,2.78,0,0,1-2.381-3.4A2.774,2.774,0,0,1,4.041,64.008Z" transform="translate(-2.013 -62.841)"/></g><g transform="translate(0 21.767)"><path class="c" d="M12.654,79.918a2.774,2.774,0,0,1-2.126.81,2.78,2.78,0,0,1,2.936-2.936A2.775,2.775,0,0,1,12.654,79.918Z" transform="translate(-7.579 -77.788)"/><path class="c" d="M2.13,78.6a2.774,2.774,0,0,1,.81,2.126A2.78,2.78,0,0,1,0,77.793,2.774,2.774,0,0,1,2.13,78.6Z" transform="translate(0 -77.788)"/></g><g transform="translate(0.106 24.96)"><path class="c" d="M14.323,91.43A2.775,2.775,0,0,1,12.37,92.6a2.78,2.78,0,0,1,2.381-3.4A2.773,2.773,0,0,1,14.323,91.43Z" transform="translate(-8.96 -89.196)"/><path class="c" d="M2.611,93.082a2.775,2.775,0,0,1,1.167,1.953,2.78,2.78,0,0,1-3.4-2.381A2.773,2.773,0,0,1,2.611,93.082Z" transform="translate(-0.377 -91.632)"/></g><g transform="translate(0.94 28.097)"><path class="c" d="M17.972,102.683a2.774,2.774,0,0,1-1.721,1.488,2.78,2.78,0,0,1,1.755-3.763A2.773,2.773,0,0,1,17.972,102.683Z" transform="translate(-12.48 -100.408)"/><path class="c" d="M5.634,107.045a2.775,2.775,0,0,1,1.488,1.721,2.78,2.78,0,0,1-3.763-1.755A2.772,2.772,0,0,1,5.634,107.045Z" transform="translate(-3.36 -105)"/></g><g transform="translate(2.483 31.09)"><path class="c" d="M23.492,113.348a2.775,2.775,0,0,1-1.436,1.764,2.78,2.78,0,0,1,1.075-4.01A2.773,2.773,0,0,1,23.492,113.348Z" transform="translate(-18.037 -111.102)"/><path class="c" d="M11.119,120.071a2.775,2.775,0,0,1,1.764,1.436,2.78,2.78,0,0,1-4.01-1.075A2.774,2.774,0,0,1,11.119,120.071Z" transform="translate(-8.873 -117.492)"/></g><g transform="translate(4.687 33.845)"><path class="c" d="M30.716,123.1a2.774,2.774,0,0,1-1.108,1.987,2.78,2.78,0,0,1,.362-4.136A2.775,2.775,0,0,1,30.716,123.1Z" transform="translate(-25.465 -120.95)"/><path class="c" d="M18.9,131.763a2.774,2.774,0,0,1,1.987,1.108,2.78,2.78,0,0,1-4.136-.362A2.775,2.775,0,0,1,18.9,131.763Z" transform="translate(-16.75 -128.73)"/></g><g transform="translate(7.486 36.281)"><path class="c" d="M39.421,131.642a2.774,2.774,0,0,1-.746,2.149,2.78,2.78,0,0,1-.362-4.136A2.775,2.775,0,0,1,39.421,131.642Z" transform="translate(-34.533 -129.655)"/><path class="c" d="M28.74,141.765a2.774,2.774,0,0,1,2.149.746,2.78,2.78,0,0,1-4.136.362A2.774,2.774,0,0,1,28.74,141.765Z" transform="translate(-26.753 -138.369)"/></g><g transform="translate(10.795 38.324)"><path class="c" d="M49.343,138.717a2.775,2.775,0,0,1-.362,2.246,2.78,2.78,0,0,1-1.075-4.01A2.774,2.774,0,0,1,49.343,138.717Z" transform="translate(-44.966 -136.953)"/><path class="c" d="M40.339,149.773a2.774,2.774,0,0,1,2.246.362,2.78,2.78,0,0,1-4.01,1.075A2.775,2.775,0,0,1,40.339,149.773Z" transform="translate(-38.575 -146.117)"/></g><g transform="translate(14.512 39.909)"><path class="c" d="M60.181,144.106a2.774,2.774,0,0,1,.034,2.275,2.781,2.781,0,0,1-1.755-3.763A2.774,2.774,0,0,1,60.181,144.106Z" transform="translate(-56.449 -142.618)"/><path class="c" d="M53.348,155.544a2.774,2.774,0,0,1,2.275-.034,2.78,2.78,0,0,1-3.763,1.755A2.773,2.773,0,0,1,53.348,155.544Z" transform="translate(-51.86 -151.739)"/></g><path class="c" d="M69.069,4.913A2.774,2.774,0,0,1,66.8,4.748a2.78,2.78,0,0,1,3.9-1.42A2.774,2.774,0,0,1,69.069,4.913Z" transform="translate(-48.107 -2.157)"/></g><path class="c" d="M35.074,55.043a24.6,24.6,0,0,0-9.927-6.117c-.251-.085-.484-.164-.7-.238A21.833,21.833,0,0,1,9.627,28.268,21.984,21.984,0,0,1,27.544,7l.066.33A21.646,21.646,0,0,0,9.964,28.268a21.5,21.5,0,0,0,14.6,20.1c.212.074.444.153.694.238C27.89,49.5,32.581,51,36.43,54.8Z" transform="translate(-6.933 -5.043)"/></g><g transform="matrix(0.914, 0.407, -0.407, 0.914, 717.169, 672.163)"><g transform="translate(6.903)"><g transform="translate(3.271)"><path class="c" d="M112.211,14.613a2.774,2.774,0,0,0,1.488-1.721,2.78,2.78,0,0,0-3.763,1.755A2.774,2.774,0,0,0,112.211,14.613Z" transform="translate(-109.936 -9.121)"/><path class="c" d="M116.572,2.275a2.775,2.775,0,0,0,1.721,1.488A2.78,2.78,0,0,0,116.539,0,2.775,2.775,0,0,0,116.572,2.275Z" transform="translate(-114.527)"/><g transform="translate(2.992 1.543)"><path class="c" d="M122.875,20.133A2.775,2.775,0,0,0,124.64,18.7a2.78,2.78,0,0,0-4.011,1.075A2.775,2.775,0,0,0,122.875,20.133Z" transform="translate(-120.629 -14.678)"/><path class="c" d="M129.6,7.759a2.775,2.775,0,0,0,1.436,1.764,2.78,2.78,0,0,0-1.075-4.011A2.774,2.774,0,0,0,129.6,7.759Z" transform="translate(-127.02 -5.513)"/></g><g transform="translate(5.748 3.747)"><path class="c" d="M132.627,27.357a2.775,2.775,0,0,0,1.987-1.108,2.78,2.78,0,0,0-4.136.362A2.775,2.775,0,0,0,132.627,27.357Z" transform="translate(-130.478 -22.106)"/><path class="c" d="M141.291,15.54a2.774,2.774,0,0,0,1.108,1.987,2.78,2.78,0,0,0-.362-4.136A2.774,2.774,0,0,0,141.291,15.54Z" transform="translate(-138.258 -13.391)"/></g><g transform="translate(8.184 6.546)"><path class="c" d="M141.17,36.061a2.774,2.774,0,0,0,2.149-.746,2.78,2.78,0,0,0-4.136-.362A2.775,2.775,0,0,0,141.17,36.061Z" transform="translate(-139.183 -31.173)"/><path class="c" d="M151.293,25.38a2.774,2.774,0,0,0,.746,2.149,2.78,2.78,0,0,0,.362-4.136A2.775,2.775,0,0,0,151.293,25.38Z" transform="translate(-147.897 -23.393)"/></g><g transform="translate(10.226 9.854)"><path class="c" d="M148.243,45.982a2.774,2.774,0,0,0,2.246-.362,2.78,2.78,0,0,0-4.01-1.075A2.775,2.775,0,0,0,148.243,45.982Z" transform="translate(-146.479 -41.606)"/><path class="c" d="M159.3,36.98a2.774,2.774,0,0,0,.362,2.246,2.78,2.78,0,0,0,1.075-4.01A2.773,2.773,0,0,0,159.3,36.98Z" transform="translate(-155.644 -35.216)"/></g><g transform="translate(11.812 13.572)"><path class="c" d="M153.635,56.823a2.773,2.773,0,0,0,2.275.034,2.78,2.78,0,0,0-3.763-1.755A2.774,2.774,0,0,0,153.635,56.823Z" transform="translate(-152.147 -53.09)"/><path class="c" d="M165.072,49.988a2.774,2.774,0,0,0-.034,2.275,2.78,2.78,0,0,0,1.755-3.763A2.774,2.774,0,0,0,165.072,49.988Z" transform="translate(-161.267 -48.5)"/></g><g transform="translate(12.893 17.585)"><path class="c" d="M157.178,68.251a2.774,2.774,0,0,0,2.234.428,2.78,2.78,0,0,0-3.4-2.381A2.775,2.775,0,0,0,157.178,68.251Z" transform="translate(-156.011 -65.276)"/><path class="c" d="M168.433,64.008A2.773,2.773,0,0,0,168,66.242a2.78,2.78,0,0,0,2.381-3.4A2.775,2.775,0,0,0,168.433,64.008Z" transform="translate(-164.594 -62.841)"/></g><g transform="translate(13.433 21.767)"><path class="c" d="M158.755,79.918a2.774,2.774,0,0,0,2.126.81,2.78,2.78,0,0,0-2.936-2.936A2.773,2.773,0,0,0,158.755,79.918Z" transform="translate(-157.941 -77.788)"/><path class="c" d="M169.279,78.6a2.774,2.774,0,0,0-.81,2.126,2.78,2.78,0,0,0,2.936-2.936A2.773,2.773,0,0,0,169.279,78.6Z" transform="translate(-165.52 -77.788)"/></g><g transform="translate(13.351 24.96)"><path class="c" d="M158.151,91.43A2.774,2.774,0,0,0,160.1,92.6a2.78,2.78,0,0,0-2.381-3.4A2.775,2.775,0,0,0,158.151,91.43Z" transform="translate(-157.648 -89.196)"/><path class="c" d="M167.624,93.082a2.775,2.775,0,0,0-1.167,1.953,2.78,2.78,0,0,0,3.4-2.381A2.773,2.773,0,0,0,167.624,93.082Z" transform="translate(-163.992 -91.632)"/></g><g transform="translate(12.629 28.097)"><path class="c" d="M155.329,102.683a2.774,2.774,0,0,0,1.721,1.488,2.78,2.78,0,0,0-1.755-3.763A2.775,2.775,0,0,0,155.329,102.683Z" transform="translate(-155.069 -100.408)"/><path class="c" d="M163.669,107.045a2.775,2.775,0,0,0-1.488,1.721,2.78,2.78,0,0,0,3.763-1.755A2.772,2.772,0,0,0,163.669,107.045Z" transform="translate(-160.191 -105)"/></g><g transform="translate(11.29 31.09)"><path class="c" d="M150.377,113.348a2.775,2.775,0,0,0,1.436,1.764,2.78,2.78,0,0,0-1.075-4.01A2.775,2.775,0,0,0,150.377,113.348Z" transform="translate(-150.281 -111.102)"/><path class="c" d="M157.547,120.071a2.775,2.775,0,0,0-1.764,1.436,2.78,2.78,0,0,0,4.011-1.075A2.775,2.775,0,0,0,157.547,120.071Z" transform="translate(-154.244 -117.492)"/></g><g transform="translate(9.374 33.845)"><path class="c" d="M143.444,123.1a2.774,2.774,0,0,0,1.108,1.987,2.78,2.78,0,0,0-.362-4.136A2.775,2.775,0,0,0,143.444,123.1Z" transform="translate(-143.434 -120.95)"/><path class="c" d="M149.444,131.763a2.774,2.774,0,0,0-1.987,1.108,2.78,2.78,0,0,0,4.136-.362A2.774,2.774,0,0,0,149.444,131.763Z" transform="translate(-146.331 -128.73)"/></g><g transform="translate(6.938 36.281)"><path class="c" d="M134.739,131.642a2.774,2.774,0,0,0,.746,2.149,2.78,2.78,0,0,0,.362-4.136A2.775,2.775,0,0,0,134.739,131.642Z" transform="translate(-134.729 -129.655)"/><path class="c" d="M139.6,141.765a2.774,2.774,0,0,0-2.149.746,2.78,2.78,0,0,0,4.136.362A2.774,2.774,0,0,0,139.6,141.765Z" transform="translate(-136.692 -138.369)"/></g><g transform="translate(4.056 38.324)"><path class="c" d="M124.527,138.717a2.775,2.775,0,0,0,.362,2.246,2.78,2.78,0,0,0,1.075-4.01A2.774,2.774,0,0,0,124.527,138.717Z" transform="translate(-124.431 -136.953)"/><path class="c" d="M128.328,149.773a2.774,2.774,0,0,0-2.246.362,2.78,2.78,0,0,0,4.01,1.075A2.776,2.776,0,0,0,128.328,149.773Z" transform="translate(-125.62 -146.117)"/></g><g transform="translate(0.818 39.909)"><path class="c" d="M113.119,144.106a2.774,2.774,0,0,0-.034,2.275,2.78,2.78,0,0,0,1.755-3.763A2.776,2.776,0,0,0,113.119,144.106Z" transform="translate(-112.858 -142.618)"/><path class="c" d="M115.957,155.544a2.774,2.774,0,0,0-2.275-.034,2.78,2.78,0,0,0,3.763,1.755A2.774,2.774,0,0,0,115.957,155.544Z" transform="translate(-113.451 -151.739)"/></g></g><path class="c" d="M99.878,4.913a2.774,2.774,0,0,0,2.269-.165,2.78,2.78,0,0,0-3.9-1.42A2.773,2.773,0,0,0,99.878,4.913Z" transform="translate(-98.246 -2.157)"/></g><path class="c" d="M72.981,54.407l-1.252-1.968c3.848-3.807,10.387-2.937,13.023-3.831.25-.085.482-.164.694-.238a21.5,21.5,0,0,0,14.6-20.1A21.646,21.646,0,0,0,82.4,7.334L82.463,7A21.983,21.983,0,0,1,100.38,28.269a21.833,21.833,0,0,1-14.823,20.42c-.212.074-.445.153-.7.238C82.252,49.812,76.774,50.655,72.981,54.407Z" transform="translate(-73.577 -5.044)"/></g><line class="d" x2="108" transform="translate(578.976 716.5)"/></g></svg>
