<svg xmlns="http://www.w3.org/2000/svg" xmlns:xlink="http://www.w3.org/1999/xlink" width="19" height="24" viewBox="0 0 19 24"><defs><path id="6ns9a" d="M85.034 318.862l-5.793-5.793H68.07V335h16.965z"/><path id="6ns9b" d="M68.069 313.069h11.172l3.725 3.724V311H66v21.931h2.069z"/><path id="6ns9c" d="M71.38 321.759h10.344a.414.414 0 1 0 0-.828H71.38a.414.414 0 1 0 0 .828z"/><path id="6ns9d" d="M71.38 318.448h4.137a.414.414 0 1 0 0-.827H71.38a.414.414 0 1 0 0 .827z"/><path id="6ns9e" d="M81.724 324.241H71.38a.414.414 0 1 0 0 .828h10.345a.414.414 0 1 0 0-.828z"/><path id="6ns9f" d="M81.724 327.552H71.38a.414.414 0 1 0 0 .827h10.345a.414.414 0 1 0 0-.827z"/><path id="6ns9g" d="M81.724 330.862H71.38a.414.414 0 1 0 0 .828h10.345a.414.414 0 1 0 0-.828z"/><path id="6ns9h" d="M79.241 313.069v5.793h5.793z"/></defs><g><g transform="translate(-66 -311)"><g><use fill="#e9c46a" xlink:href="#6ns9a"/></g><g><use fill="#d5a83a" xlink:href="#6ns9b"/></g><g><g><use fill="#fff" xlink:href="#6ns9c"/></g><g><use fill="#fff" xlink:href="#6ns9d"/></g><g><use fill="#fff" xlink:href="#6ns9e"/></g><g><use fill="#fff" xlink:href="#6ns9f"/></g><g><use fill="#fff" xlink:href="#6ns9g"/></g></g><g><use fill="#fff1a8" xlink:href="#6ns9h"/></g></g></g></svg>
