<svg xmlns="http://www.w3.org/2000/svg" xmlns:xlink="http://www.w3.org/1999/xlink" width="150" height="44" viewBox="0 0 150 44"><defs><path id="rkzja" d="M164 2121a22 22 0 1 1 44 0 22 22 0 0 1-44 0z"/><path id="rkzjd" d="M228 2105l1.88 3.75 4.12.6-3 2.92.68 4.13-3.68-1.95-3.67 1.95.67-4.13-3-2.92 4.13-.6z"/><path id="rkzje" d="M244 2105l1.88 3.75 4.12.6-3 2.92.68 4.13-3.68-1.95-3.67 1.95.67-4.13-3-2.92 4.13-.6z"/><path id="rkzjf" d="M260 2105l1.88 3.75 4.12.6-3 2.92.68 4.13-3.68-1.95-3.67 1.95.67-4.13-3-2.92 4.13-.6z"/><path id="rkzjg" d="M276 2105l1.88 3.75 4.12.6-3 2.92.68 4.13-3.68-1.95-3.67 1.95.67-4.13-3-2.92 4.13-.6z"/><path id="rkzjh" d="M292 2105l1.88 3.75 4.12.6-3 2.92.68 4.13-3.68-1.95-3.67 1.95.67-4.13-3-2.92 4.13-.6z"/><linearGradient id="rkzjb" x1="199.36" x2="186" y1="2095.06" y2="2143" gradientUnits="userSpaceOnUse"><stop offset="0" stop-color="#5ace89"/><stop offset="1" stop-color="#44b773"/></linearGradient><clipPath id="rkzjc"><use fill="#fff" xlink:href="#rkzja"/></clipPath></defs><g><g transform="translate(-164 -2099)"><use fill="url(#rkzjb)" xlink:href="#rkzja"/><use fill="#fff" fill-opacity="0" stroke="#2fac62" stroke-miterlimit="50" stroke-width="2" clip-path="url(&quot;#rkzjc&quot;)" xlink:href="#rkzja"/></g><g transform="translate(-164 -2099)"/><g transform="translate(-164 -2099)"><g><g><use fill="#e76f51" xlink:href="#rkzjd"/></g><g><use fill="#e76f51" xlink:href="#rkzje"/></g><g><use fill="#e76f51" xlink:href="#rkzjf"/></g><g><use fill="#e76f51" xlink:href="#rkzjg"/></g><g><use fill="#e76f51" xlink:href="#rkzjh"/></g></g><g/></g></g></svg>