<svg xmlns="http://www.w3.org/2000/svg" xmlns:xlink="http://www.w3.org/1999/xlink" width="139.03" height="63.466" viewBox="0 0 139.03 63.466"><defs><style>.a{fill:url(#a);}.b{fill:#fff;font-size:16px;font-family:Montserrat-MediumItalic, Montserrat;font-weight:500;font-style:italic;}</style><linearGradient id="a" x1="0.48" y1="0.267" x2="0.473" y2="0.694" gradientUnits="objectBoundingBox"><stop offset="0" stop-color="#ffa661"/><stop offset="1" stop-color="#e85151"/></linearGradient></defs><g transform="translate(-571 -66.531)"><path class="a" d="M261.5,74.947l-40.525,4,8.735-15.864-13.468,4.09L213.9,57.456l-15.366,23.7-3.8.374L182.276,57.967,175.835,68.7l-11.126-3.579,11.764,18.208-42.992,4.241c-3.077.3-5.23,2.8-4.714,5.467L133.411,117c.476,2.454,3.057,4.162,5.892,3.9l117.512-18.768c2.652-.247,6.443-2.5,9.112-8.068s1.567-14.223,1.567-14.223C267.641,76.943,264.793,74.622,261.5,74.947Z" transform="translate(442.31 9.075)"/><text class="b" transform="matrix(0.994, -0.106, 0.106, 0.994, 641.072, 110.287)"><tspan x="-54.12" y="0">SignUp &amp; Get</tspan></text></g></svg>