<svg xmlns="http://www.w3.org/2000/svg" xmlns:xlink="http://www.w3.org/1999/xlink" width="66.46" height="58.6" viewBox="0 0 66.46 58.6">
  <defs>
    <filter id="_" x="30.52" y="0" width="35.94" height="36.441" filterUnits="userSpaceOnUse">
      <feOffset dy="2" input="SourceAlpha"/>
      <feGaussianBlur stdDeviation="2.5" result="blur"/>
      <feFlood flood-color="#e9c46a" flood-opacity="0.302"/>
      <feComposite operator="in" in2="blur"/>
      <feComposite in="SourceGraphic"/>
    </filter>
  </defs>
  <g id="piggy-bank" transform="translate(-157.5 309.499)">
    <g id="Group_478" data-name="Group 478" transform="translate(115 -290.048)">
      <path id="Path_1546" data-name="Path 1546" d="M79.972,157.013l.2-.176a.378.378,0,0,0,.08-.08,24.176,24.176,0,0,0,3.323-4.881H84a2.192,2.192,0,0,0,2.189-2.189v-3.459A2.192,2.192,0,0,0,84,144.041h-.471a12.367,12.367,0,0,0-3.61-4.992,3.312,3.312,0,0,1,.535-2.716,1.632,1.632,0,0,0-1.582-2.484,6.671,6.671,0,0,0-4.5,2.308,15.238,15.238,0,0,0-2.332-.455.792.792,0,1,0-.184,1.574,14,14,0,0,1,2.58.559.8.8,0,0,0,.895-.312,5.018,5.018,0,0,1,3.73-2.093.048.048,0,0,1,.048.024.035.035,0,0,1,0,.048,4.9,4.9,0,0,0-.711,4,.778.778,0,0,0,.3.591,10.73,10.73,0,0,1,3.531,4.992.789.789,0,0,0,.751.543H84a.607.607,0,0,1,.607.607V149.7A.607.607,0,0,1,84,150.3h-.967a.8.8,0,0,0-.759.559,19.16,19.16,0,0,1-3.179,4.825l-.176.152a5.317,5.317,0,0,0-1.821,3.77v1.11H72.536v-1.07a.8.8,0,0,0-.264-.591.791.791,0,0,0-.615-.2,14.849,14.849,0,0,1-3.475-.048.774.774,0,0,0-.623.192.783.783,0,0,0-.272.6v1.11H62.727v-.343a7.307,7.307,0,0,0-1.965-4.673,11.628,11.628,0,0,1-2.093-3.171c-.008-.008-.008-.016-.016-.032a9.416,9.416,0,0,1-.815-2.181l-.008-.032c0-.008-.008-.016-.008-.024a8.155,8.155,0,0,1-.256-2.173v-.024a10.471,10.471,0,0,1,.128-1.582.79.79,0,0,0-1.558-.264,10.735,10.735,0,0,0-.152,1.829,9.588,9.588,0,0,0,.32,2.66h0a11.468,11.468,0,0,0,.935,2.492,12.967,12.967,0,0,0,2.38,3.594,5.7,5.7,0,0,1,1.518,3.626v.327a.53.53,0,0,0,.008.1,1.558,1.558,0,0,0,1.542,1.446h4.625a1.551,1.551,0,0,0,1.55-1.55v-.264a16.486,16.486,0,0,0,2.085.032v.232a1.551,1.551,0,0,0,1.55,1.55h4.625a1.551,1.551,0,0,0,1.55-1.55v-1.126A3.836,3.836,0,0,1,79.972,157.013Z" transform="translate(0 -123.145)" fill="#102436"/>
      <path id="Path_1547" data-name="Path 1547" d="M56.819,116.41a6.51,6.51,0,1,0,6.51-6.51A6.516,6.516,0,0,0,56.819,116.41Zm11.439,0a4.928,4.928,0,1,1-4.928-4.928A4.936,4.936,0,0,1,68.258,116.41Z" transform="translate(-0.77 -101.121)" fill="#102436"/>
      <path id="Path_1548" data-name="Path 1548" d="M183.693,4.537a4.537,4.537,0,1,0-4.537,4.537A4.544,4.544,0,0,0,183.693,4.537Zm-7.5,0a2.955,2.955,0,1,1,2.955,2.955A2.959,2.959,0,0,1,176.193,4.537Z" transform="translate(-109.161)" fill="#102436"/>
    </g>
    <g id="x" transform="translate(-104.717 -292.899)">
      <g id="X-2" data-name="X" transform="translate(262.7 -10)">
        <g transform="matrix(1, 0, 0, 1, -0.48, -6.6)" filter="url(#_)">
          <path id="_2" data-name="*" d="M221.459,229.224l6.289,2.481-5.795,3.482-.416,6.748-5.1-4.435-6.546,1.689,2.641-6.223-3.629-5.7,6.735.589,4.3-5.215Z" transform="translate(-169.91 -216.04)" fill="#fffbbf" stroke="#fff78b" stroke-width="1"/>
        </g>
        <path id="_3" data-name="*" d="M213.785,225.2l2.446.965-2.254,1.354-.162,2.624-1.985-1.725-2.546.657,1.027-2.421-1.412-2.219,2.619.229,1.674-2.028Z" transform="translate(-208.9 -215.467)" fill="#fff" stroke="#fff78b" stroke-width="0.5"/>
      </g>
    </g>
  </g>
</svg>
