<svg xmlns="http://www.w3.org/2000/svg" xmlns:xlink="http://www.w3.org/1999/xlink" width="110" height="108" viewBox="0 0 110 108"><defs><path id="7b9ka" d="M1059.07 998.89c0-1.14.82-2.06 1.84-2.06 1 0 1.83.92 1.83 2.06 0 1.14-.82 2.06-1.83 2.06-1.02 0-1.84-.92-1.84-2.06z"/><path id="7b9kb" d="M1051.51 992.48s2.52 3.89 2.75 4.12c.23.46 2.52 1.37 2.52 1.37l1.84-1.37c.68-.69 1.83-1.15 2.29-1.38.45-.22 2.06 0 2.29.7.23.68-.23 3.43-.23 3.43s-1.83.69-2.3-1.38c0 0-1.37 1.84-2.51 2.07-1.38.22 1.37 4.12 1.37 4.12s-3.66.23-5.04-.46c-1.37-.92-3.9-.46-5.95-2.06-2.06-1.83 2.97-9.16 2.97-9.16z"/><path id="7b9kc" d="M1055.18 1003.93c.23 0 .46-.23.69-.23.45 0 .91-.23 1.37-.23h2.06-.68-2.52c-.46.46-.7.46-.92.46z"/><path id="7b9kd" d="M1062.97 999.12c-.23 0-.23 0 0 0-.23-.23-.23-.23-.23-.46v-.23s0-.23.23-.23c0 0 .23 0 .23-.23 0 0 .23 0 .23-.23v-.22h-.46s-.23 0-.23.22l-.23.23s-.23.23 0 .46v.23l.23.23h.23v.23z"/><path id="7b9ke" d="M1052.66 999.8l22.45 14.67 12.14-4.58-21.53-10.77-13.06.23c-.23 0-.23.46 0 .46z"/><path id="7b9kf" d="M1054.5 1000.04l20.38 13.28 10.54-3.9-18.79-9.61z"/><path id="7b9kg" d="M1049.91 1025.23l-31.38-5.04s-2.3 5.96-2.3 12.14h35.74s-1.14-5.27-2.06-7.1z"/><path id="7b9kh" d="M1055.18 945.98s.23 3.43.23 3.9c.23.68.46 2.97-.92 2.74-1.37-.23-1.83-.46-1.83-.46s0 2.3-1.15 1.6c0 0 .46 1.15-.45 1.38-.92.23-1.6 1.37-1.84 2.29-.22.92-3.89.92-6.18-1.83 0 0-1.15 1.6-1.6 4.12l-.46 2.52s-11.91-10.08-11.91-10.3l.23-1.15s2.52-2.98 3.43-4.35c.92-1.15 2.75-4.13 2.98-6.88.23-2.75.23-2.97.23-2.97l9.85-.7z"/><path id="7b9ki" d="M1039.6 940.25c1.15-1.6 3.67-.46 3.44 1.37v.23l-.46 2.07 1.38.45s1.83-3.2 5.72-2.75c3.9.23 3.9-2.51 3.9-2.74 0-.23-9.17-4.36-9.4-4.36-.22 0-7.78 2.07-7.78 2.07s0 3.89-.92 5.72c0 0 2.75-.23 4.12-2.06z"/><path id="7b9kj" d="M1062.28 1012.63s0-.23.23-.45c0-.23.23-.23.23-.46l.23-.23.23-.23.23-.23.23-.23.45-.46.46-.46s0 .23-.23.46c0 .23-.23.23-.23.46l-.23.23-.23.23-.22.23-.23.23-.46.46-.46.45z"/><path id="7b9kk" d="M1065.49 947.35c-.92 2.06-4.58-1.37-4.58-1.37l-.92-1.38h1.6c0 .23 4.58.69 3.9 2.75z"/><path id="7b9kl" d="M1045.1 938.88s3.44 4.8 6.19 6.64a9.56 9.56 0 0 0 8.01 1.37c2.3-.68 4.35-1.37 5.04-.91.92.46.92 1.37.92 1.37s.46-.46.23-1.14c-.23-.7-4.58-3.9-5.73-5.5l-1.14-1.38-13.75-.68z"/><path id="7b9km" d="M1036.4 936.81s1.83 2.07 8.93 3.21c7.1.92 14.43.92 14.43.92s1.15-6.87-2.52-11.23c-3.66-4.35-9.16-4.8-11.68-4.58-3.9.46-8.93 6.42-9.16 11.68z"/><path id="7b9kn" d="M1038.69 941.85c0-2.02.92-3.66 2.06-3.66 1.14 0 2.06 1.64 2.06 3.66 0 2.03-.92 3.67-2.06 3.67-1.14 0-2.06-1.64-2.06-3.67z"/><path id="7b9ko" d="M1043.27 955.83s-1.15 1.6-1.6 4.12l-.46 2.52s-.23-.23-.46-.23c-1.83-2.98-5.04-8.93-3.44-7.79 1.38.92 1.84 0 1.84-.68v-1.15c-.46-1.6-.92-4.12-.92-7.1.69 1.37 3.66 8.02 5.04 10.3z"/><path id="7b9kp" d="M1030.21 950.33s.69 1.6 1.6 2.52c.92.92 6.42 5.73 8.02 6.18 1.6.23 2.75-2.06 2.75-2.06s5.27 3.67 6.19 5.04c.91 1.38 1.37 6.87 1.37 6.87s3.2 7.1 2.06 12.6c-.91 5.5-.91 32.3-.69 35.5.23 3.21.46 11.69.46 11.69s-4.8 2.29-15.12.69c-10.53-1.6-17.4-5.5-18.78-8.25 0 0 .92-5.5-.46-6.41-1.37-.92-2.06-16.73-1.83-20.85.23-4.12-.46-8.25-.46-8.25s-2.29-9.62-.91-15.11c1.37-5.5 4.58-13.06 15.8-20.16z"/><path id="7b9kq" d="M1015.32 985.6c6.88.92 13.52 1.84 16.95 1.38 0 0-1.83 5.73-2.75 7.1-.91 1.37-.22 2.29-.22 2.29s5.26 2.06 7.78 3.44c2.52 1.37 8.48 3.43 11.46 3.43 2.97 0 6.64.69 6.64.69s3.2-.23 4.12-.46c.92-.23 3.9.23 5.27.69 1.38.46 2.75 1.14 2.75 1.14l-6.64 8.25s-3.9-1.6-5.5-2.52h-2.06c-.69 0-10.31-.23-14.9-.23-4.34 0-14.42-2.52-15.8-2.75-1.14-.23-3.66-.46-4.58-3.2-.46-2.98-2.98-16.04-2.52-19.25z"/><path id="7b9kr" d="M1065.03 997.06a2.06 2.06 0 1 1 4.12 0 2.06 2.06 0 0 1-4.12 0z"/><path id="7b9ks" d="M1066.4 996.37s-.68.23-.68.69c-.23.46-1.15 2.06-1.15 2.06l-.92-.46s.46-1.6.7-2.06c.22-.46.9-2.52 1.37-2.52.45 0 .91.23.91.23z"/><path id="7b9kt" d="M1063.43 997.74c.22 0 .22-.22.22-.22l.23-.23c.23 0 .23-.23.46-.23H1065.26 1064.57c-.23 0-.23.23-.46.23s-.23 0-.45.23h-.23c.22.22.22.22 0 .22z"/><path id="7b9ku" d="M1079.23 1003.47l-8.25 1.15-3.2.23s-1.15-.92-1.6-1.6v-.24l-.92-1.37s-1.83-1.15-1.6-2.3c0 0-.92-.22-1.15-.68-.23-.46 0-.92 1.14-1.14 1.15-.23 1.6-1.15 2.3-.7.45.47 2.74 1.38 2.74 1.38s-.23-.46-.23-.91l-.91-.92s-1.15.23-1.15 0l-.91-2.3s.91-.22 2.06.24c1.14.46 2.75.91 2.75.91s.91.23 1.14.92c.23.69 1.15 2.06 1.6 2.75.46.69.92 2.29 2.3 2.98 1.14.23 3.9 1.6 3.9 1.6z"/><path id="7b9kv" d="M1063.43 999.58c.22.23.45.23.91.23.23 0 .69 0 .92.23.23.22.46.22.69.68 0 .23 0 .69-.23.92.68-.23 1.14 0 1.83.23.46.23.92.91.69 1.6.68.23 1.6.46 2.29.92-.92-.92-2.06-1.6-2.52-2.75-.23-.23-.23-.69-.46-.92-.46-.68-1.15-1.14-1.38-1.14-.91 0-1.6.23-2.74 0z"/><path id="7b9kw" d="M1065.03 1001.87c0-.23 0-.23.69-.46.45-.23.68-.69.68-.69s0 .92-1.37 1.15z"/><path id="7b9kx" d="M1068.46 1002.78v.23c-.45.92-1.6.69-2.29.23v-.23c1.84.92 2.3 0 2.3 0z"/><path id="7b9ky" d="M1063.43 999.58v.68h-.23a10.8 10.8 0 0 1-3.9.92 14.7 14.7 0 0 1 2.98-2.29c.46.46 1.15.69 1.15.69z"/><path id="7b9kz" d="M1074.42 995.22l-2.75 1.15-2.98 1.37-.45.23c-.7-.23-1.6-.68-2.07-.91l1.6-.69 2.76-1.37 3.2-1.38z"/><path id="7b9kA" d="M1074.65 994.77l-.46.23-.46-.92.46-.23c.23 0 .46 0 .69.23.23.23 0 .46-.23.69z"/><path id="7b9kB" d="M1097.33 970.94s1.6 5.04.45 8.02c-1.14 2.98 2.3 1.83 2.52 1.6.23-.22 6.88-8.93 6.88-8.93z"/><path id="7b9kC" d="M1096.87 978.5l2.29-1.83c1.14-.91 5.04-3.2 7.56-3.2 2.29-.23 5.5.68 5.5.68s8.7 21.08 8.7 25.2c0 4.35-1.15 18.1-.69 21.07.23 3.2-1.6 7.79-.91 9.85.68 1.83.91 2.3.91 2.3l-32.07.22s.92-16.26 1.6-19.24c.7-3.2-.45-10.08-1.37-11.68-.91-1.6-1.37-5.04.92-9.16 2.29-4.13 4.58-6.65 5.27-8.25.69-1.6 2.29-5.96 2.29-5.96z"/><path id="7b9kD" d="M1084.73 951.25l-.92.68s-.91 4.13 0 5.96c.92 1.83 1.83 2.29 1.83 3.66 0 1.38 1.38 4.36 2.52 5.73a6.36 6.36 0 0 1 1.84 3.44c.23 1.14 2.06 1.83 3.89 1.37 1.83-.69 1.6-13.51 1.6-13.51z"/><path id="7b9kE" d="M1083.81 949.41s-.46 2.52.46 4.13c.92 1.37 2.52 1.83 2.52 1.83s1.37 7.33 1.83 9.16c.23 1.6 2.98 8.02 6.42 9.16 3.43 1.15 8.47.7 9.85 1.38 1.14.69 1.6 3.2 1.6 3.2s.69-2.97-.46-4.35c0 0 3.9 1.83 5.96 5.27 2.06 3.44 7.56 16.26 7.1 24.28 0 0 1.6-1.37 2.06-4.12 0 0 .23 4.58-1.38 8.02 0 0 6.65-10.08 3.21-21.08-3.43-11-8.24-18.78-10.3-24.28-2.07-5.5-5.05-14.66-8.94-18.1-3.9-3.43-7.1-3.2-11.22-1.83-4.58 1.15-8.02 5.27-8.7 7.33z"/><path id="7b9kF" d="M1091.6 966.36v1.61c0 .23 0 .46.23.46 0 .22.23.45.23.68l.69 1.38c.22.23.22.45.45.68l.23.23.23.23.23.23s.23.23.46.23c0 0 .23.23.46.23l.23.23c.23 0 .23.23.45.23.23 0 .23.23.46.23s.23 0 .46.23h.46c.69.23 1.14.23 1.83.23.69 0 1.38.22 1.83.22.7 0 1.15.23 1.84.46.45.23 1.14.46 1.37.69.46.23.69.69.92.92.23.45.23.68.45.91v0c0-.23-.22-.68-.45-.91-.23-.23-.46-.7-.92-.92l-1.37-.69c-.46-.23-1.15-.23-1.6-.23h-1.84c-.69 0-1.37 0-2.06-.23-.69-.22-1.38-.22-2.06-.68h-.23l-.23-.23c-.23 0-.23-.23-.46-.23s-.23-.23-.46-.23-.23-.23-.46-.23c-.22 0-.22-.23-.45-.23s-.23-.23-.46-.23l-.69-.69c-.46-.45-.69-.91-.92-1.37-.22-.23-.22-.46-.22-.69 0-.23-.23-.45-.23-.68 0-.23 0-.46-.23-.7V966.37v-.23z"/><path id="7b9kG" d="M1104.66 971.86l.68.69 1.6 1.6 2.3 2.3c.46.45.69.9 1.14 1.37.46.45.69.91 1.15 1.6.23.46.69 1.15.91 1.6.23.46.46 1.15.7 1.6.22.47.45 1.15.45 1.61.23.46.23 1.15.23 1.6V987.21c0-.46 0-.92-.23-1.38 0-.45-.23-.91-.46-1.37-.23-.46-.46-1.15-.69-1.6-.22-.46-.45-1.15-.91-1.6-.23-.47-.69-1.15-.92-1.61-.46-.46-.69-.92-1.14-1.38-.46-.45-.69-.91-1.15-1.37l-2.29-2.29c-.69-.69-1.37-1.15-1.6-1.6l-.46-.46-.23-.23z"/><path id="7b9kH" d="M1085.19 949.64l-.23.23v.23c0 .23 0 0-.23.23l-.23.23s0 .23-.23.23c0 0 0 .23-.23.23 0 0 0 .23-.23.23 0 0 0 .23-.23.23 0 .22-.23.22-.23.45s-.23.46-.23.46c0 .23-.22.46-.22.46 0 .23 0 .46-.23.46v1.6-1.6-.69c0-.23 0-.46.23-.69 0-.23.22-.45.22-.68 0-.23.23-.46.23-.46s0-.23.23-.23c0 0 0-.23.23-.23 0 0 0-.23.23-.23 0 0 0-.23.23-.23 0 0 0-.23.23-.23l.23-.23v-.23h.23z"/><path id="7b9kI" d="M1096.18 998.66s-2.06-8.93 1.15-12.6c2.97-3.66 5.72-2.75 7.1-1.83 1.37.92 4.58 3.67 4.8 7.33.24 3.66.47 15.8.47 18.1 0 2.29 0 11.22-.46 13.05s-2.06 2.3-4.13 3.44c-2.06.91-18.55 3.66-18.55 3.66s-3.9-3.9-2.75-10.53c0 0 3.67.23 5.04-.46 1.38-.46 11.45-2.3 11.45-2.3s-4.12-11.45-4.12-17.86z"/><path id="7b9kJ" d="M1071.67 1016.76v.23l30.93-2.07-16.96 4.81-25.42.92z"/><path id="7b9kK" d="M1059.07 1007.82l11.23-4.58 1.37 13.75-11.45 3.66z"/><path id="7b9kL" d="M1102.6 1014.92l-30.93 2.07-1.37-13.75 31.38-1.6z"/><path id="7b9kM" d="M1084.04 1025.46c-1.14 0-2.75-.23-3.9 0-2.05.23-6.4 0-8.24-.46-1.83-.46-7.1-1.6-8.02-1.83-.91-.23-2.29-.23-2.74-1.6-.46-1.38-.23-5.5-.23-5.5s-.46-1.37.45-2.52l.92-1.15s0-1.14.23-2.06l1.14-2.06s1.38.23.92 1.6c0 0 1.83 1.15-.46 3.67l-.91 2.06v.92s.45-.46 1.37.46c.92.68 1.15 1.37 2.06 1.6.92.23 4.13 0 5.04.69.92.68 2.3 1.37 3.9 1.37 1.37 0 7.1-.69 8.01-.69-.23 2.07 0 4.13.46 5.5z"/><path id="7b9kN" d="M1032.27 986.98c.23-.23.23-.46.23-1.15 0 0 7.8 0 9.4-1.83 0 0-5.5 1.6-9.4 1.15 0 0 .46-3.21.69-4.13.23-.91.69-4.35 1.37-5.04.7-.68 2.98-6.87 2.07-10.07-.92-3.21-2.52-5.5-2.52-5.5s2.06 4.35 2.06 5.72c0 1.15 0 3.9-.46 5.73-.46 2.06-2.06 4.81-2.06 4.81s-1.15 6.64-1.38 10.3z"/></defs><g><g transform="translate(-1014 -925)"><g><use fill="#f5b54c" xlink:href="#7b9ka"/></g><g><use fill="#ffd15c" xlink:href="#7b9kb"/></g><g><g><use fill="#f5b54c" xlink:href="#7b9kc"/></g><g><use fill="#f5b54c" xlink:href="#7b9kd"/></g></g><g><use fill="#425a6b" xlink:href="#7b9ke"/></g><g><use fill="#f3f3f3" xlink:href="#7b9kf"/></g><g><use fill="#425a6b" xlink:href="#7b9kg"/></g><g><use fill="#ffd15c" xlink:href="#7b9kh"/></g><g><use fill="#425a6b" xlink:href="#7b9ki"/></g><g><use fill="#f5b54c" xlink:href="#7b9kj"/></g><g><use fill="#f05640" xlink:href="#7b9kk"/></g><g><use fill="#f26f5a" xlink:href="#7b9kl"/></g><g><use fill="#f05640" xlink:href="#7b9km"/></g><g><use fill="#ffd15c" xlink:href="#7b9kn"/></g><g><use fill="#f5b54c" xlink:href="#7b9ko"/></g><g><use fill="#f26f5a" xlink:href="#7b9kp"/></g><g><use fill="#ffd15c" xlink:href="#7b9kq"/></g><g><use fill="#f5b54c" xlink:href="#7b9kr"/></g><g><use fill="#ffd15c" xlink:href="#7b9ks"/></g><g><use fill="#f5b54c" xlink:href="#7b9kt"/></g><g><use fill="#ffd15c" xlink:href="#7b9ku"/></g><g><g><use fill="#f5b54c" xlink:href="#7b9kv"/></g><g><use fill="#f5b54c" xlink:href="#7b9kw"/></g><g><use fill="#f5b54c" xlink:href="#7b9kx"/></g></g><g><g><use fill="#67c5b8" xlink:href="#7b9ky"/></g><g><use fill="#67c5b8" xlink:href="#7b9kz"/></g></g><g><use fill="#425a6b" xlink:href="#7b9kA"/></g><g><use fill="#ffd15c" xlink:href="#7b9kB"/></g><g><use fill="#e8eae8" xlink:href="#7b9kC"/></g><g><use fill="#ffd15c" xlink:href="#7b9kD"/></g><g><g><use fill="#425a6b" xlink:href="#7b9kE"/></g><g><use fill="#425a6b" xlink:href="#7b9kF"/></g><g><use fill="#425a6b" xlink:href="#7b9kG"/></g><g><use fill="#425a6b" xlink:href="#7b9kH"/></g></g><g><use fill="#f3f3f3" xlink:href="#7b9kI"/></g><g><use fill="#51b0e5" xlink:href="#7b9kJ"/></g><g><use fill="#f05640" xlink:href="#7b9kK"/></g><g><use fill="#56bfeb" xlink:href="#7b9kK"/></g><g><use fill="#8ad6f7" xlink:href="#7b9kL"/></g><g><use fill="#ffd15c" xlink:href="#7b9kM"/></g><g><use fill="#f05640" xlink:href="#7b9kN"/></g></g></g></svg>