<svg xmlns="http://www.w3.org/2000/svg" xmlns:xlink="http://www.w3.org/1999/xlink" width="22" height="22" viewBox="0 0 22 22"><defs><path id="q3o5a" d="M209.59 510.07h.73c-.12-5.19-3.08-7.93-8.59-7.93-5.5 0-8.46 2.74-8.59 7.93h.74a9.14 9.14 0 0 1 1.7-4.29c1.36-1.76 3.43-2.66 6.15-2.66s4.8.9 6.16 2.66a9.14 9.14 0 0 1 1.7 4.3zm-1.15 2.53c0-.5-.03-.95-.07-1.4-.86-.78-2.43-1.38-4.4-1.59.3.29.58.66.72 1.2-1.15-.84-3.57-1.1-4.37-2-1.28-.85-1.61-2.06-1.62-1.56-.05 2.4-1.76 4.27-3.65 4.54l-.02.8c0 1.02.17 1.95.45 2.78 1.06 1.29 2.81 1.65 4.37 1.74.29-.46.93-.78 1.69-.78 1.02 0 1.84.6 1.84 1.32 0 .72-.82 1.31-1.84 1.31-.79 0-1.46-.35-1.73-.84a9.1 9.1 0 0 1-3.34-.75c1.5 2.2 3.81 3.37 5.26 3.37 2.28 0 6.7-2.87 6.7-8.14zm.79 3.38v-.13a9.7 9.7 0 0 1-.44 1.05c.03.21.08.5.18.83.45.7 1.73 1.6 2.6 1.82a3 3 0 0 1-1.59.2c.5.64 1.22 1.22 2.23 1.57-2.36 2.12-6.24 2.17-8.96.52-.52.15-1.04.23-1.52.23s-1-.08-1.52-.23c-2.71 1.65-6.6 1.6-8.95-.52a4.76 4.76 0 0 0 2.25-1.6c-.45.01-.9-.07-1.28-.23a5.7 5.7 0 0 0 2.1-1.24c.2-.55.3-1.04.35-1.35a9.7 9.7 0 0 1-.44-1.05v.13h-1.34a1.9 1.9 0 0 1-1.9-1.9v-2.1c0-.73.4-1.36 1-1.68.02-2.97.88-5.3 2.58-6.9 1.68-1.6 4.08-2.4 7.15-2.4 3.07 0 5.48.8 7.16 2.4 1.69 1.6 2.56 3.93 2.58 6.9.6.32 1 .95 1 1.68v2.1a1.9 1.9 0 0 1-1.9 1.9zm-3.6-3.39a1.1 1.1 0 1 1-2.21 0 1.1 1.1 0 0 1 2.2 0zm-5.58 0a1.1 1.1 0 1 1-2.2 0 1.1 1.1 0 0 1 2.2 0z"/></defs><g><g transform="translate(-191 -501)"><use fill="#fff" xlink:href="#q3o5a"/></g></g></svg>