<svg xmlns="http://www.w3.org/2000/svg" viewBox="0 0 140.869 36">
  <defs>
    <style>
      .cls-1 {
        fill: #139ad6;
      }

      .cls-2 {
        fill: #263b80;
      }

      .cls-3 {
        fill: #232c65;
      }
    </style>
  </defs>
  <g id="ic_payment_paypal" transform="translate(0)">
    <path id="Path_93" data-name="Path 93" class="cls-1" d="M359.051,221.2h-7.6a1.486,1.486,0,0,0-1.118.894l-3.13,19.677a.593.593,0,0,0,.671.671H351.9a.593.593,0,0,0,.671-.671l.894-5.59a1.023,1.023,0,0,1,1.118-.894h2.46q7.714,0,8.72-7.379a5.861,5.861,0,0,0-.894-4.919,9.019,9.019,0,0,0-5.814-1.789m.894,7.379c-.447,2.683-2.46,2.683-4.472,2.683h-1.342l.894-5.143c0-.224.224-.447.671-.447h.447c1.342,0,2.683,0,3.354.894.447.224.447.894.447,2.012" transform="translate(-250.157 -211.809)"/>
    <g id="Group_30" data-name="Group 30" transform="translate(42.261 9.391)">
      <path id="Path_94" data-name="Path 94" class="cls-2" d="M163.051,221.2h-7.6a1.486,1.486,0,0,0-1.118.894l-3.13,19.677a.593.593,0,0,0,.671.671h3.578a1.486,1.486,0,0,0,1.118-.894l.894-5.366a1.023,1.023,0,0,1,1.118-.894h2.46q7.714,0,8.72-7.379a5.861,5.861,0,0,0-.894-4.919,8.6,8.6,0,0,0-5.814-1.789m.894,7.379c-.447,2.683-2.46,2.683-4.472,2.683h-1.118l.894-5.143c0-.224.224-.447.671-.447h.447c1.342,0,2.683,0,3.354.894a2.4,2.4,0,0,1,.224,2.012" transform="translate(-151.2 -221.2)"/>
      <path id="Path_95" data-name="Path 95" class="cls-2" d="M231.256,245.647h-3.578c-.224,0-.671.224-.671.447l-.224,1.118-.224-.447a5.26,5.26,0,0,0-4.248-1.565,8.592,8.592,0,0,0-8.273,7.379,6.665,6.665,0,0,0,1.342,5.59c1.118,1.342,2.683,1.789,4.7,1.789a7.147,7.147,0,0,0,5.143-2.012L225,259.063a.593.593,0,0,0,.671.671h3.354a1.485,1.485,0,0,0,1.118-.894l2.012-12.522c-.224-.224-.671-.671-.894-.671m-5.143,7.155a4.325,4.325,0,0,1-4.248,3.578,3.576,3.576,0,0,1-2.46-.894,4.768,4.768,0,0,1-.671-2.683,3.988,3.988,0,0,1,6.484-2.683,3.9,3.9,0,0,1,.894,2.683" transform="translate(-196.374 -238.492)"/>
    </g>
    <path id="Path_96" data-name="Path 96" class="cls-1" d="M426.456,245.647h-3.578c-.224,0-.671.224-.671.447l-.224,1.118-.224-.447a5.26,5.26,0,0,0-4.248-1.565,8.592,8.592,0,0,0-8.273,7.379,6.665,6.665,0,0,0,1.342,5.59c1.118,1.342,2.683,1.789,4.7,1.789a7.147,7.147,0,0,0,5.143-2.012l-.224,1.118a.593.593,0,0,0,.671.671h3.354a1.486,1.486,0,0,0,1.118-.894l2.012-12.522c-.224-.224-.447-.671-.894-.671m-5.143,7.155a4.325,4.325,0,0,1-4.248,3.578,3.576,3.576,0,0,1-2.46-.894,4.768,4.768,0,0,1-.671-2.683,3.988,3.988,0,0,1,6.484-2.683,2.566,2.566,0,0,1,.894,2.683" transform="translate(-294.755 -229.101)"/>
    <path id="Path_97" data-name="Path 97" class="cls-2" d="M301.217,246.8h-3.8a1.162,1.162,0,0,0-.895.447l-4.919,7.6-2.236-7.155a1.033,1.033,0,0,0-1.118-.671h-3.578c-.447,0-.671.447-.671.894l4.025,11.851-3.8,5.366c-.224.447,0,1.118.447,1.118h3.578a1.162,1.162,0,0,0,.894-.447l12.3-17.665c.671-.671.224-1.342-.224-1.342" transform="translate(-204.621 -230.253)"/>
    <path id="Path_98" data-name="Path 98" class="cls-1" d="M478.33,222.221l-3.13,20.124a.593.593,0,0,0,.671.671H479a1.486,1.486,0,0,0,1.118-.894l3.13-19.677a.593.593,0,0,0-.671-.671H479c-.224-.224-.447,0-.671.447" transform="translate(-342.38 -212.159)"/>
    <path id="Path_99" data-name="Path 99" class="cls-2" d="M25.714,190.283c-1.565-1.789-4.472-2.683-8.5-2.683H6.037a1.918,1.918,0,0,0-1.565,1.342L0,218.234a1.023,1.023,0,0,0,.894,1.118H7.826l1.789-10.957v.447A1.918,1.918,0,0,1,11.18,207.5h3.354c6.484,0,11.4-2.683,12.969-10.062v-.671h0c.224-2.907-.224-4.7-1.789-6.484" transform="translate(0 -187.6)"/>
    <path id="Path_100" data-name="Path 100" class="cls-1" d="M45.724,220.4h0v.671c-1.565,7.6-6.484,10.062-12.969,10.062H29.4a1.918,1.918,0,0,0-1.565,1.342L25.6,246.114a.819.819,0,0,0,.894.894h5.814a1.252,1.252,0,0,0,1.342-1.118v-.224l1.118-6.932v-.447a1.252,1.252,0,0,1,1.342-1.118H37c5.59,0,10.062-2.236,11.18-8.944.447-2.683.224-5.143-1.118-6.708a2.29,2.29,0,0,0-1.342-1.118" transform="translate(-18.445 -211.232)"/>
    <path id="Path_101" data-name="Path 101" class="cls-3" d="M50.5,216.271c-.224,0-.447-.224-.671-.224a.821.821,0,0,1-.671-.224,11.813,11.813,0,0,0-2.907-.224H37.53a.821.821,0,0,0-.671.224,1.23,1.23,0,0,0-.671,1.118L34.4,228.569v.447a1.918,1.918,0,0,1,1.565-1.342h3.354c6.484,0,11.4-2.683,12.969-10.062a.821.821,0,0,1,.224-.671c-.447-.224-.671-.447-1.118-.447-.671-.224-.671-.224-.894-.224" transform="translate(-24.785 -207.774)"/>
  </g>
</svg>
