<svg xmlns="http://www.w3.org/2000/svg" viewBox="0 0 61 40">
  <defs>
    <style>
      .cls-1 {
        fill: #fdf699;
      }

      .cls-2 {
        fill: #507dbc;
        fill-rule: evenodd;
      }
    </style>
  </defs>
  <g id="ic_price_dometic" transform="translate(-176 -2264)">
    <circle id="Ellipse_40" data-name="Ellipse 40" class="cls-1" cx="20" cy="20" r="20" transform="translate(197 2264)"/>
    <path id="Path_533" data-name="Path 533" class="cls-2" d="M20.75,22.034a4.675,4.675,0,1,0,4.674,4.679A4.674,4.674,0,0,0,20.75,22.034Zm0,7.015a2.336,2.336,0,1,1,2.337-2.336A2.339,2.339,0,0,1,20.75,29.049ZM56,18.578v4.988a2.254,2.254,0,0,1-2.254,2.253H51.334a6.186,6.186,0,0,0-12.24,0H26.868a6.182,6.182,0,0,0-12.233,0H11.614A2.254,2.254,0,0,1,9.36,23.566V18.578ZM45.216,22.034a4.675,4.675,0,1,0,4.674,4.679A4.681,4.681,0,0,0,45.216,22.034Zm0,7.015a2.336,2.336,0,1,1,2.337-2.336A2.339,2.339,0,0,1,45.216,29.049Zm9.9-15.494L46.253,4.8a3.012,3.012,0,0,0-2.111-.871H39.67V2.252A2.251,2.251,0,0,0,37.416,0h-25.8A2.255,2.255,0,0,0,9.358,2.252v.353L.21,3.659,16.42,5.769,0,7.4,16.362,9.724,0,11.142l9.359,1.764v4.427H56V15.688A3.018,3.018,0,0,0,55.112,13.555Zm-3.862.293H42.676a.353.353,0,0,1-.353-.353V6.878a.353.353,0,0,1,.353-.353h1.631a.382.382,0,0,1,.248.1L51.49,13.24A.352.352,0,0,1,51.25,13.848Z" transform="translate(176 2266.616)"/>
  </g>
</svg>
