<svg xmlns="http://www.w3.org/2000/svg" viewBox="0 0 29.898 29.898">
  <defs>
    <style>
      .cls-1 {
        fill: #fff;
      }

      .cls-2 {
        fill: #a177ff;
      }
    </style>
  </defs>
  <g id="ic_social_instagram" transform="translate(0 0)">
    <circle id="Ellipse_35" data-name="Ellipse 35" class="cls-1" cx="13.703" cy="13.703" r="13.703" transform="translate(1.246 1.246)"/>
    <path id="Path_512" data-name="Path 512" class="cls-2" d="M35.249,23.88H26.338a2.582,2.582,0,0,0-2.579,2.579V35.37a2.583,2.583,0,0,0,2.579,2.58h8.911a2.583,2.583,0,0,0,2.58-2.58V26.459A2.582,2.582,0,0,0,35.249,23.88ZM30.794,35.547a4.632,4.632,0,1,1,4.632-4.632A4.637,4.637,0,0,1,30.794,35.547Zm4.781-8.306a1.1,1.1,0,1,1,1.1-1.1A1.1,1.1,0,0,1,35.575,27.241Z" transform="translate(-15.845 -15.926)"/>
    <path id="Path_513" data-name="Path 513" class="cls-2" d="M39.524,36.971A2.675,2.675,0,1,0,42.2,39.645,2.678,2.678,0,0,0,39.524,36.971Z" transform="translate(-24.575 -24.656)"/>
    <path id="Path_514" data-name="Path 514" class="cls-2" d="M14.949,0A14.949,14.949,0,1,0,29.9,14.949,14.949,14.949,0,0,0,14.949,0Zm8.992,19.445A4.541,4.541,0,0,1,19.4,23.981H10.493a4.542,4.542,0,0,1-4.537-4.537V10.534A4.542,4.542,0,0,1,10.493,6H19.4a4.542,4.542,0,0,1,4.537,4.537Z"/>
  </g>
</svg>
