<svg xmlns="http://www.w3.org/2000/svg" viewBox="0 0 30 30.001">
  <defs>
    <style>
      .cls-1 {
        fill: #fff;
      }
    </style>
  </defs>
  <path id="ic_watch_now" class="cls-1" d="M-1930.685-42.925a14.9,14.9,0,0,1-10.606-4.393,14.9,14.9,0,0,1-4.393-10.607,14.9,14.9,0,0,1,4.393-10.607,14.9,14.9,0,0,1,10.606-4.393,14.9,14.9,0,0,1,10.607,4.393,14.9,14.9,0,0,1,4.393,10.607,14.9,14.9,0,0,1-4.393,10.607A14.9,14.9,0,0,1-1930.685-42.925Zm-3.662-20.408v10.564l9.57-5.282-9.57-5.282Z" transform="translate(1945.685 72.925)"/>
</svg>
