<svg xmlns="http://www.w3.org/2000/svg" viewBox="0 0 269 221.314">
  <defs>
    <style>
      .cls-1 {
        fill: #fff4d9;
      }

      .cls-2 {
        fill: #ffecfb;
      }

      .cls-3 {
        fill: #40596b;
      }

      .cls-4 {
        fill: #fff;
      }

      .cls-5 {
        fill: #f2f2f2;
      }

      .cls-6 {
        fill: #cdd6e0;
      }

      .cls-7 {
        fill: #acb3ba;
      }

      .cls-8 {
        fill: #84dbff;
      }

      .cls-9 {
        fill: #ff7058;
      }

      .cls-10 {
        fill: #54c0eb;
      }

      .cls-11 {
        fill: #ffd15c;
      }
    </style>
  </defs>
  <g id="image_benefit_00" transform="translate(-485 -337.686)">
    <circle id="Ellipse_303" data-name="Ellipse 303" class="cls-1" cx="107" cy="107" r="107" transform="translate(485 345)"/>
    <circle id="Ellipse_304" data-name="Ellipse 304" class="cls-2" cx="83.5" cy="83.5" r="83.5" transform="translate(587 369)"/>
    <g id="online-shop_1_" data-name="online-shop (1)" transform="translate(546 337.686)">
      <path id="Path_1047" data-name="Path 1047" class="cls-3" d="M175.245,79.412H7.619A7.642,7.642,0,0,0,0,87.031V199.8a7.642,7.642,0,0,0,7.619,7.619H175.245a7.642,7.642,0,0,0,7.619-7.619V87.031A7.642,7.642,0,0,0,175.245,79.412Z" transform="translate(0 -50.459)"/>
      <rect id="Rectangle_1129" data-name="Rectangle 1129" class="cls-4" width="160.007" height="105.147" transform="translate(10.667 40.383)"/>
      <path id="Path_1048" data-name="Path 1048" class="cls-5" d="M189.264,110.759V215.906H29.257Z" transform="translate(-18.59 -70.376)"/>
      <rect id="Rectangle_1130" data-name="Rectangle 1130" class="cls-6" width="69.717" height="20.572" transform="translate(56.383 156.959)"/>
      <rect id="Rectangle_1131" data-name="Rectangle 1131" class="cls-5" width="112.005" height="4.953" transform="translate(35.43 177.531)"/>
      <g id="Group_277" data-name="Group 277" transform="translate(56.383 65.145)">
        <rect id="Rectangle_1132" data-name="Rectangle 1132" class="cls-7" width="69.717" height="5.714" transform="translate(0 91.814)"/>
        <circle id="Ellipse_305" data-name="Ellipse 305" class="cls-7" cx="27.811" cy="27.811" r="27.811" transform="translate(7.238)"/>
      </g>
      <g id="Group_278" data-name="Group 278" transform="translate(74.288 79.241)">
        <path id="Path_1049" data-name="Path 1049" class="cls-4" d="M214.421,237.91l-.381-2.667h17.143V222.291H210.992l-1.143-4.953h-6.1v2.286h3.81L212.9,240.2h18.667V237.91H214.421ZM228.9,224.577v8.381H213.659l-2.286-8.381Z" transform="translate(-203.754 -217.338)"/>
        <circle id="Ellipse_306" data-name="Ellipse 306" class="cls-4" cx="2.667" cy="2.667" r="2.667" transform="translate(9.525 23.621)"/>
        <circle id="Ellipse_307" data-name="Ellipse 307" class="cls-4" cx="2.667" cy="2.667" r="2.667" transform="translate(21.716 23.621)"/>
      </g>
      <path id="Path_1050" data-name="Path 1050" class="cls-8" d="M107.4,4.953V55.24a5.043,5.043,0,0,1-4.953,4.953H17.491a5.043,5.043,0,0,1-4.953-4.953V4.953A5.043,5.043,0,0,1,17.491,0h84.956A5.043,5.043,0,0,1,107.4,4.953Z" transform="translate(-7.967)"/>
      <rect id="Rectangle_1133" data-name="Rectangle 1133" class="cls-9" width="22.858" height="16.382" transform="translate(68.574 8.381)"/>
      <g id="Group_279" data-name="Group 279" transform="translate(12.572 13.715)">
        <rect id="Rectangle_1134" data-name="Rectangle 1134" class="cls-10" width="27.049" height="4.572"/>
        <rect id="Rectangle_1135" data-name="Rectangle 1135" class="cls-10" width="37.335" height="4.572" transform="translate(0 16.763)"/>
      </g>
      <rect id="Rectangle_1136" data-name="Rectangle 1136" class="cls-4" width="16.382" height="4.572" transform="translate(12.572 46.859)"/>
      <rect id="Rectangle_1137" data-name="Rectangle 1137" class="cls-3" width="16.382" height="4.572" transform="translate(33.144 46.859)"/>
      <rect id="Rectangle_1138" data-name="Rectangle 1138" class="cls-4" width="16.382" height="4.572" transform="translate(54.098 46.859)"/>
      <rect id="Rectangle_1139" data-name="Rectangle 1139" class="cls-3" width="16.382" height="4.572" transform="translate(75.051 46.859)"/>
      <path id="Path_1051" data-name="Path 1051" class="cls-11" d="M12.539,331.233v58.288a3.6,3.6,0,0,0,3.81,3.81H67.017a3.6,3.6,0,0,0,3.81-3.81V331.233Z" transform="translate(-7.967 -210.466)"/>
      <g id="Group_280" data-name="Group 280" transform="translate(11.048 130.291)">
        <circle id="Ellipse_308" data-name="Ellipse 308" class="cls-4" cx="3.429" cy="3.429" r="3.429"/>
        <circle id="Ellipse_309" data-name="Ellipse 309" class="cls-4" cx="3.429" cy="3.429" r="3.429" transform="translate(38.478)"/>
      </g>
      <path id="Path_1052" data-name="Path 1052" class="cls-9" d="M77.433,309.563h-3.81V298.9a17.143,17.143,0,0,0-34.287,0v10.667h-3.81V298.9a20.953,20.953,0,0,1,41.906,0Z" transform="translate(-22.574 -176.605)"/>
    </g>
  </g>
</svg>
