<svg xmlns="http://www.w3.org/2000/svg" viewBox="0 0 393.347 171.095">
  <defs>
    <style>
      .cls-1 {
        fill: #9eafc6;
      }

      .cls-2 {
        fill: #8590a8;
      }

      .cls-3 {
        fill: #57d3d0;
      }

      .cls-4 {
        fill: #8ce5e1;
      }

      .cls-5 {
        fill: #ed6294;
      }

      .cls-6 {
        fill: #697491;
      }

      .cls-7 {
        fill: #576384;
      }

      .cls-8 {
        fill: #00bdc6;
      }

      .cls-9 {
        fill: #00a8bb;
      }

      .cls-10 {
        fill: #ffd243;
      }

      .cls-11 {
        fill: #efae2e;
      }
    </style>
  </defs>
  <g id="image_benefit_004" transform="translate(-505 -346.081)">
    <g id="Group_304" data-name="Group 304">
      <path id="Path_1077" data-name="Path 1077" class="cls-1" d="M272.423,8.4V162.239a8.4,8.4,0,0,1-8.4,8.4h-116.2a8.4,8.4,0,0,1-8.4-8.4V8.4a8.4,8.4,0,0,1,8.4-8.4h116.2A8.4,8.4,0,0,1,272.423,8.4Z" transform="translate(500.547 346.081)"/>
      <path id="Path_1078" data-name="Path 1078" class="cls-2" d="M222.362,226.565v84.162H147.824a8.4,8.4,0,0,1-8.4-8.4V222H217.8A4.56,4.56,0,0,1,222.362,226.565Z" transform="translate(500.547 205.992)"/>
      <path id="Path_1079" data-name="Path 1079" class="cls-3" d="M284,57.282v23.26a2.281,2.281,0,0,1-2.281,2.281H185.868a2.281,2.281,0,0,1-2.281-2.281V57.282A2.281,2.281,0,0,1,185.868,55h95.847A2.281,2.281,0,0,1,284,57.282Z" transform="translate(472.679 311.374)"/>
      <g id="Group_292" data-name="Group 292" transform="translate(674.379 366.375)">
        <path id="Path_1080" data-name="Path 1080" class="cls-4" d="M284.28,55,256.463,82.822H232.675L260.5,55Z" transform="translate(-232.675 -55.001)"/>
        <path id="Path_1081" data-name="Path 1081" class="cls-4" d="M358.741,55,330.917,82.822h-14.5L344.244,55Z" transform="translate(-285.519 -55.001)"/>
      </g>
      <g id="Group_293" data-name="Group 293" transform="translate(656.851 412.341)">
        <path id="Path_1082" data-name="Path 1082" class="cls-5" d="M197.588,190.39H190.58a5.407,5.407,0,0,1-5.407-5.407h0a5.407,5.407,0,0,1,5.407-5.407h7.008a5.407,5.407,0,0,1,5.407,5.407h0A5.407,5.407,0,0,1,197.588,190.39Z" transform="translate(-185.173 -179.577)"/>
        <path id="Path_1083" data-name="Path 1083" class="cls-5" d="M271.137,190.39h-7.008a5.407,5.407,0,0,1-5.407-5.407h0a5.407,5.407,0,0,1,5.407-5.407h7.008a5.407,5.407,0,0,1,5.407,5.407h0A5.407,5.407,0,0,1,271.137,190.39Z" transform="translate(-231.584 -179.577)"/>
        <path id="Path_1084" data-name="Path 1084" class="cls-5" d="M344.685,190.39h-7.008a5.407,5.407,0,0,1-5.407-5.407h0a5.407,5.407,0,0,1,5.407-5.407h7.008a5.407,5.407,0,0,1,5.407,5.407h0A5.407,5.407,0,0,1,344.685,190.39Z" transform="translate(-277.994 -179.577)"/>
        <path id="Path_1085" data-name="Path 1085" class="cls-5" d="M418.234,190.39h-7.008a5.407,5.407,0,0,1-5.407-5.407h0a5.407,5.407,0,0,1,5.407-5.407h7.008a5.407,5.407,0,0,1,5.407,5.407h0A5.407,5.407,0,0,1,418.234,190.39Z" transform="translate(-324.404 -179.577)"/>
      </g>
      <g id="Group_294" data-name="Group 294" transform="translate(656.851 439.863)">
        <path id="Path_1086" data-name="Path 1086" class="cls-6" d="M197.588,264.978H190.58a5.407,5.407,0,0,1-5.407-5.407h0a5.407,5.407,0,0,1,5.407-5.407h7.008a5.407,5.407,0,0,1,5.407,5.407h0A5.407,5.407,0,0,1,197.588,264.978Z" transform="translate(-185.173 -254.165)"/>
        <path id="Path_1087" data-name="Path 1087" class="cls-6" d="M271.137,264.978h-7.008a5.407,5.407,0,0,1-5.407-5.407h0a5.407,5.407,0,0,1,5.407-5.407h7.008a5.407,5.407,0,0,1,5.407,5.407h0A5.407,5.407,0,0,1,271.137,264.978Z" transform="translate(-231.584 -254.165)"/>
        <path id="Path_1088" data-name="Path 1088" class="cls-6" d="M350.094,259.572a5.412,5.412,0,0,1-5.405,5.409h-7.009a5.407,5.407,0,0,1,0-10.814h7.009A5.407,5.407,0,0,1,350.094,259.572Z" transform="translate(-277.996 -254.166)"/>
      </g>
      <path id="Path_1089" data-name="Path 1089" class="cls-7" d="M344.054,254.166v10.815h-6.375a5.407,5.407,0,0,1,0-10.814h6.375Z" transform="translate(378.855 185.698)"/>
      <g id="Group_295" data-name="Group 295" transform="translate(656.851 439.863)">
        <path id="Path_1090" data-name="Path 1090" class="cls-6" d="M418.234,264.978h-7.008a5.407,5.407,0,0,1-5.407-5.407h0a5.407,5.407,0,0,1,5.407-5.407h7.008a5.407,5.407,0,0,1,5.407,5.407h0A5.407,5.407,0,0,1,418.234,264.978Z" transform="translate(-324.404 -254.165)"/>
        <path id="Path_1091" data-name="Path 1091" class="cls-6" d="M197.588,324.914H190.58a5.407,5.407,0,0,1-5.407-5.407h0a5.407,5.407,0,0,1,5.407-5.407h7.008a5.407,5.407,0,0,1,5.407,5.407h0A5.407,5.407,0,0,1,197.588,324.914Z" transform="translate(-185.173 -291.986)"/>
        <path id="Path_1092" data-name="Path 1092" class="cls-6" d="M271.137,324.914h-7.008a5.407,5.407,0,0,1-5.407-5.407h0a5.407,5.407,0,0,1,5.407-5.407h7.008a5.407,5.407,0,0,1,5.407,5.407h0A5.407,5.407,0,0,1,271.137,324.914Z" transform="translate(-231.584 -291.986)"/>
        <path id="Path_1093" data-name="Path 1093" class="cls-6" d="M350.094,319.508a5.412,5.412,0,0,1-5.405,5.409h-7.009a5.407,5.407,0,0,1,0-10.814h7.009A5.406,5.406,0,0,1,350.094,319.508Z" transform="translate(-277.996 -291.987)"/>
      </g>
      <path id="Path_1094" data-name="Path 1094" class="cls-7" d="M337.678,314.1h6.375v10.815h-6.375a5.407,5.407,0,0,1,0-10.815Z" transform="translate(378.856 147.877)"/>
      <g id="Group_296" data-name="Group 296" transform="translate(656.851 461.979)">
        <path id="Path_1095" data-name="Path 1095" class="cls-6" d="M418.234,324.914h-7.008a5.407,5.407,0,0,1-5.407-5.407h0a5.407,5.407,0,0,1,5.407-5.407h7.008a5.407,5.407,0,0,1,5.407,5.407h0A5.407,5.407,0,0,1,418.234,324.914Z" transform="translate(-324.404 -314.101)"/>
        <path id="Path_1096" data-name="Path 1096" class="cls-6" d="M197.588,384.85H190.58a5.407,5.407,0,0,1-5.407-5.407h0a5.407,5.407,0,0,1,5.407-5.407h7.008a5.407,5.407,0,0,1,5.407,5.407h0A5.407,5.407,0,0,1,197.588,384.85Z" transform="translate(-185.173 -351.922)"/>
        <path id="Path_1097" data-name="Path 1097" class="cls-6" d="M271.137,384.85h-7.008a5.407,5.407,0,0,1-5.407-5.407h0a5.407,5.407,0,0,1,5.407-5.407h7.008a5.407,5.407,0,0,1,5.407,5.407h0A5.407,5.407,0,0,1,271.137,384.85Z" transform="translate(-231.584 -351.922)"/>
        <path id="Path_1098" data-name="Path 1098" class="cls-6" d="M350.094,379.444a5.412,5.412,0,0,1-5.405,5.409h-7.009a5.407,5.407,0,0,1,0-10.814h7.009A5.406,5.406,0,0,1,350.094,379.444Z" transform="translate(-277.996 -351.923)"/>
      </g>
      <path id="Path_1099" data-name="Path 1099" class="cls-7" d="M337.678,374.038h6.375v10.815h-6.375a5.407,5.407,0,0,1,0-10.815Z" transform="translate(378.856 110.056)"/>
      <path id="Path_1100" data-name="Path 1100" class="cls-6" d="M418.234,384.85h-7.008a5.407,5.407,0,0,1-5.407-5.407h0a5.407,5.407,0,0,1,5.407-5.407h7.008a5.407,5.407,0,0,1,5.407,5.407h0A5.407,5.407,0,0,1,418.234,384.85Z" transform="translate(332.447 110.057)"/>
      <g id="Group_305" data-name="Group 305" transform="translate(24)">
        <path id="Path_1101" data-name="Path 1101" class="cls-8" d="M137.474,386.207v44.135a2.281,2.281,0,0,1-2.281,2.281H14.408a2.281,2.281,0,0,1-2.281-2.281V386.207Z" transform="translate(468.873 84.377)"/>
        <g id="Group_297" data-name="Group 297" transform="translate(486.427 487.319)">
          <path id="Path_1102" data-name="Path 1102" class="cls-9" d="M138.477,460.785H29.685a2.851,2.851,0,0,1,0-5.7H138.477a2.851,2.851,0,0,1,0,5.7Z" transform="translate(-26.834 -446.403)"/>
          <path id="Path_1103" data-name="Path 1103" class="cls-9" d="M138.477,484.309H29.685a2.851,2.851,0,0,1,0-5.7H138.477a2.851,2.851,0,1,1,0,5.7Z" transform="translate(-26.834 -461.247)"/>
          <path id="Path_1104" data-name="Path 1104" class="cls-9" d="M138.477,437.261H29.685a2.851,2.851,0,1,1,0-5.7H138.477a2.851,2.851,0,1,1,0,5.7Z" transform="translate(-26.834 -431.56)"/>
        </g>
        <path id="Path_1105" data-name="Path 1105" class="cls-3" d="M137.474,236.643V297.7a2.281,2.281,0,0,1-2.281,2.281H14.408a2.281,2.281,0,0,1-2.281-2.281V236.643a2.281,2.281,0,0,1,2.281-2.281H135.194A2.281,2.281,0,0,1,137.474,236.643Z" transform="translate(468.873 180.194)"/>
        <path id="Path_1106" data-name="Path 1106" class="cls-10" d="M164.912,281.651a24.034,24.034,0,1,1-8.376-18.235A23.986,23.986,0,0,1,164.912,281.651Z" transform="translate(402.798 165.521)"/>
        <path id="Path_1107" data-name="Path 1107" class="cls-11" d="M176.892,304.483A6.9,6.9,0,0,0,170.3,297.6c-.065,0-.131-.007-.2-.007a1.19,1.19,0,1,1,.924-1.94,2.851,2.851,0,0,0,4.419-3.6,6.888,6.888,0,0,0-2.492-1.921v-.188a2.851,2.851,0,1,0-5.7,0v.2a6.887,6.887,0,0,0,2.545,13.152c.065,0,.131.007.2.007a1.19,1.19,0,1,1-.924,1.941,2.851,2.851,0,0,0-4.419,3.6,6.889,6.889,0,0,0,2.6,1.97v.139a2.851,2.851,0,1,0,5.7,0V310.7A6.894,6.894,0,0,0,176.892,304.483Z" transform="translate(373.533 146.924)"/>
        <g id="Group_298" data-name="Group 298" transform="translate(491.417 424.27)">
          <circle id="Ellipse_316" data-name="Ellipse 316" class="cls-10" cx="5.417" cy="5.417" r="5.417" transform="translate(93.677 34.692)"/>
          <circle id="Ellipse_317" data-name="Ellipse 317" class="cls-10" cx="5.417" cy="5.417" r="5.417"/>
        </g>
      </g>
      <g id="Group_299" data-name="Group 299" transform="translate(615.307 378.204)">
        <path id="Path_1108" data-name="Path 1108" class="cls-1" d="M85.071,198.009H75.432a2.851,2.851,0,0,1,0-5.7h9.639a2.851,2.851,0,0,1,0,5.7Z" transform="translate(-72.581 -183.473)"/>
        <path id="Path_1109" data-name="Path 1109" class="cls-1" d="M85.071,174.067H75.432a2.851,2.851,0,1,1,0-5.7h9.639a2.851,2.851,0,0,1,0,5.7Z" transform="translate(-72.581 -168.365)"/>
      </g>
      <path id="Path_1110" data-name="Path 1110" class="cls-8" d="M101.542,147.5h-.052a2.851,2.851,0,0,1,.014-5.7h.014a2.867,2.867,0,0,1,2.856,2.865A2.834,2.834,0,0,1,101.542,147.5Z" transform="translate(526.274 226.601)"/>
    </g>
    <g id="Group_303" data-name="Group 303" transform="translate(-22 35)">
      <g id="Group_302" data-name="Group 302">
        <path id="Path_1114" data-name="Path 1114" class="cls-3" d="M137.474,236.643V297.7a2.281,2.281,0,0,1-2.281,2.281H14.408a2.281,2.281,0,0,1-2.281-2.281V236.643a2.281,2.281,0,0,1,2.281-2.281H135.194A2.281,2.281,0,0,1,137.474,236.643Z" transform="translate(782.873 182.194)"/>
        <path id="Path_1113" data-name="Path 1113" class="cls-10" d="M164.912,281.651a24.034,24.034,0,1,1-8.376-18.235A23.986,23.986,0,0,1,164.912,281.651Z" transform="translate(716.798 167.521)"/>
        <path id="Path_1112" data-name="Path 1112" class="cls-11" d="M176.892,304.483A6.9,6.9,0,0,0,170.3,297.6c-.065,0-.131-.007-.2-.007a1.19,1.19,0,1,1,.924-1.94,2.851,2.851,0,0,0,4.419-3.6,6.888,6.888,0,0,0-2.492-1.921v-.188a2.851,2.851,0,1,0-5.7,0v.2a6.887,6.887,0,0,0,2.545,13.152c.065,0,.131.007.2.007a1.19,1.19,0,1,1-.924,1.941,2.851,2.851,0,0,0-4.419,3.6,6.889,6.889,0,0,0,2.6,1.97v.139a2.851,2.851,0,1,0,5.7,0V310.7A6.894,6.894,0,0,0,176.892,304.483Z" transform="translate(687.533 148.924)"/>
      </g>
      <g id="Group_301" data-name="Group 301" transform="translate(805.417 426.27)">
        <circle id="Ellipse_316-2" data-name="Ellipse 316" class="cls-10" cx="5.417" cy="5.417" r="5.417" transform="translate(93.677 34.692)"/>
        <circle id="Ellipse_317-2" data-name="Ellipse 317" class="cls-10" cx="5.417" cy="5.417" r="5.417"/>
      </g>
    </g>
  </g>
</svg>
