<svg xmlns="http://www.w3.org/2000/svg" viewBox="0 0 171.578 173.454">
  <defs>
    <style>
      .cls-1 {
        fill: #e6e6e6;
      }

      .cls-2 {
        fill: #b3b3b3;
      }

      .cls-3 {
        fill: #fc7a51;
      }

      .cls-4 {
        fill: #f9de58;
      }

      .cls-5 {
        fill: gray;
      }

      .cls-6 {
        fill: #fcd18b;
      }

      .cls-7 {
        fill: #fff;
      }

      .cls-8 {
        fill: #2be0c6;
      }

      .cls-9 {
        fill: #29abe2;
      }
    </style>
  </defs>
  <g id="image_benefit_006" transform="translate(-615.164 -397.313)">
    <g id="Group_282" data-name="Group 282" transform="translate(615.164 397.314)">
      <path id="Path_1057" data-name="Path 1057" class="cls-1" d="M119.36,6.2V71.055a6.192,6.192,0,0,1-6.2,6.2H8.653a6.2,6.2,0,0,1-6.2-6.2V6.2A6.2,6.2,0,0,1,8.653,0H113.165a6.192,6.192,0,0,1,6.2,6.2Z" transform="translate(-2.457 -0.001)"/>
      <path id="Path_1058" data-name="Path 1058" class="cls-2" d="M119.359,6.2V12.36H2.456V6.2A6.2,6.2,0,0,1,8.651,0H113.163A6.2,6.2,0,0,1,119.359,6.2Z" transform="translate(-2.456)"/>
      <circle id="Ellipse_312" data-name="Ellipse 312" class="cls-3" cx="3.863" cy="3.863" r="3.863" transform="translate(4.635 2.317)"/>
      <circle id="Ellipse_313" data-name="Ellipse 313" class="cls-4" cx="3.863" cy="3.863" r="3.863" transform="translate(14.934 2.317)"/>
    </g>
    <g id="Group_283" data-name="Group 283" transform="translate(626.705 420.921)">
      <rect id="Rectangle_1142" data-name="Rectangle 1142" class="cls-5" width="89.746" height="4.201"/>
      <rect id="Rectangle_1143" data-name="Rectangle 1143" class="cls-5" width="89.746" height="4.201" transform="translate(0 9.2)"/>
      <rect id="Rectangle_1144" data-name="Rectangle 1144" class="cls-5" width="89.746" height="4.201" transform="translate(0 18.401)"/>
      <rect id="Rectangle_1145" data-name="Rectangle 1145" class="cls-5" width="89.746" height="4.201" transform="translate(0 27.601)"/>
      <rect id="Rectangle_1146" data-name="Rectangle 1146" class="cls-5" width="89.746" height="4.201" transform="translate(0 36.802)"/>
    </g>
    <path id="Path_1059" data-name="Path 1059" class="cls-6" d="M206.82,117.435l-15.631,14.417a18.387,18.387,0,0,1-24.934,0l-15.627-14.417a18.813,18.813,0,0,1-6-15.234l.909-18.713a32.732,32.732,0,0,1,.489-3.7,33.3,33.3,0,0,1,55.337-18.2,33.784,33.784,0,0,1,2.818,2.956,33.117,33.117,0,0,1,7.248,15.245,32.738,32.738,0,0,1,.489,3.7l.905,18.713A18.811,18.811,0,0,1,206.82,117.435Z" transform="translate(524.866 364.738)"/>
    <path id="Path_1060" data-name="Path 1060" class="cls-7" d="M226.952,209.692a11.392,11.392,0,1,1-22.785,0Z" transform="translate(488.03 267.702)"/>
    <path id="Path_1061" data-name="Path 1061" class="cls-4" d="M207.66,56.008H202.7a37.615,37.615,0,1,0-75.23,0H122.5a42.579,42.579,0,1,1,85.159,0Z" transform="translate(538.508 389.014)"/>
    <path id="Path_1062" data-name="Path 1062" class="cls-5" d="M213.773,79.784a33.117,33.117,0,0,0-7.248-15.245,33.776,33.776,0,0,0-2.818-2.956q-.6-.555-1.225-1.078c-.084-.07-.17-.136-.255-.205-.341-.281-.687-.557-1.039-.825-.023-.017-.044-.036-.066-.053l0,0a33.269,33.269,0,0,0-40.1,0h0l-.024.019q-.692.524-1.355,1.083l-.129.108q-.635.54-1.242,1.112l-.146.136q-.611.581-1.19,1.193l-.107.111q-.623.662-1.21,1.358a33.121,33.121,0,0,0-7.248,15.242,28.019,28.019,0,0,0,12.648-7.449,28.056,28.056,0,0,0,40.1,0A28.017,28.017,0,0,0,213.773,79.784Z" transform="translate(522.519 364.737)"/>
    <g id="Group_284" data-name="Group 284" transform="translate(684.875 456.108)">
      <circle id="Ellipse_314" data-name="Ellipse 314" class="cls-5" cx="3.819" cy="3.819" r="3.819"/>
      <circle id="Ellipse_315" data-name="Ellipse 315" class="cls-5" cx="3.819" cy="3.819" r="3.819" transform="translate(29.788)"/>
    </g>
    <g id="Group_285" data-name="Group 285" transform="translate(678.039 493.152)">
      <path id="Path_1063" data-name="Path 1063" class="cls-1" d="M172.06,250.953l19.477,19.477-9.166,14.894L167.1,254.772Z" transform="translate(-167.095 -250.953)"/>
      <path id="Path_1064" data-name="Path 1064" class="cls-1" d="M256.372,250.953,236.895,270.43l9.166,14.894,15.276-30.552Z" transform="translate(-210.239 -250.953)"/>
    </g>
    <path id="Path_1065" data-name="Path 1065" class="cls-8" d="M230.655,320.119l-5.4-9.166-5.4,9.166,5.4,5.4Z" transform="translate(478.334 205.113)"/>
    <path id="Path_1066" data-name="Path 1066" class="cls-8" d="M224.811,374.515l-14.85-25.2-14.85,25.2,14.85,14.85Z" transform="translate(493.628 181.402)"/>
    <path id="Path_1067" data-name="Path 1067" class="cls-3" d="M145.808,202.083a2.477,2.477,0,0,1-2.482,2.482H131.59a9.971,9.971,0,0,1-9.971-9.971v-6.641h4.965v6.641a5.007,5.007,0,0,0,5.007,5.007h11.736A2.482,2.482,0,0,1,145.808,202.083Z" transform="translate(539.053 281.139)"/>
    <g id="Group_286" data-name="Group 286" transform="translate(651.124 440.794)">
      <path id="Path_1068" data-name="Path 1068" class="cls-9" d="M112.213,113.853a15.6,15.6,0,0,0,0,31.194" transform="translate(-96.616 -113.853)"/>
      <path id="Path_1069" data-name="Path 1069" class="cls-9" d="M330.533,113.853a15.6,15.6,0,0,1,0,31.194" transform="translate(-241.201 -113.853)"/>
    </g>
    <path id="Path_1070" data-name="Path 1070" class="cls-5" d="M169.2,220.935a2.477,2.477,0,0,1-2.482,2.482h-7.256v-4.965h7.256A2.482,2.482,0,0,1,169.2,220.935Z" transform="translate(515.664 262.287)"/>
    <g id="Group_288" data-name="Group 288" transform="translate(731.748 488.149)">
      <path id="Path_1071" data-name="Path 1071" class="cls-5" d="M358.187,314.214H312.273a4.54,4.54,0,0,1-4.54-4.54v-59.28a4.54,4.54,0,0,1,4.54-4.54h45.914a4.54,4.54,0,0,1,4.54,4.54v59.281A4.54,4.54,0,0,1,358.187,314.214Z" transform="translate(-307.733 -242.799)"/>
      <rect id="Rectangle_1147" data-name="Rectangle 1147" class="cls-1" width="43.536" height="56.903" transform="translate(5.728 8.784)"/>
      <path id="Path_1072" data-name="Path 1072" class="cls-9" d="M371.882,237.854H361.626a2.892,2.892,0,0,0-2.892,2.892v9.711h16.04v-9.711A2.892,2.892,0,0,0,371.882,237.854Z" transform="translate(-339.257 -237.854)"/>
      <g id="Group_287" data-name="Group 287" transform="translate(11.075 18.331)">
        <rect id="Rectangle_1148" data-name="Rectangle 1148" class="cls-9" width="32.843" height="4.201"/>
        <rect id="Rectangle_1149" data-name="Rectangle 1149" class="cls-9" width="32.843" height="4.201" transform="translate(0 9.201)"/>
        <rect id="Rectangle_1150" data-name="Rectangle 1150" class="cls-9" width="32.843" height="4.201" transform="translate(0 18.401)"/>
        <rect id="Rectangle_1151" data-name="Rectangle 1151" class="cls-9" width="32.843" height="4.201" transform="translate(0 27.601)"/>
        <rect id="Rectangle_1152" data-name="Rectangle 1152" class="cls-9" width="16.422" height="4.201" transform="translate(0 36.802)"/>
      </g>
    </g>
    <path id="Path_1073" data-name="Path 1073" class="cls-3" d="M24.3,239.366A21,21,0,0,0,10.92,276.552l-4.252,11.9,10.95-8.178,0-.008A21,21,0,1,0,24.3,239.366Z" transform="translate(612.188 249.361)"/>
    <g id="Group_289" data-name="Group 289" transform="translate(629.942 494.599)">
      <path id="Path_1074" data-name="Path 1074" class="cls-7" d="M44.51,273.285a8.776,8.776,0,0,1,.611-3.358,5.572,5.572,0,0,1,2.518-2.595q.572-.343,1.412-.782a11.484,11.484,0,0,0,1.641-1.049,6.02,6.02,0,0,0,1.355-1.431,3.3,3.3,0,0,0,.553-1.888,3.123,3.123,0,0,0-.305-1.412,3.229,3.229,0,0,0-.8-1.03,3.339,3.339,0,0,0-1.164-.63,4.511,4.511,0,0,0-1.354-.21,3.936,3.936,0,0,0-1.526.286,5.2,5.2,0,0,0-1.24.725,6.094,6.094,0,0,0-.992.992,10.879,10.879,0,0,0-.744,1.049l-3.319-2.289a7.407,7.407,0,0,1,1.316-2.1,8.059,8.059,0,0,1,1.869-1.545,8.743,8.743,0,0,1,2.27-.954,9.784,9.784,0,0,1,2.518-.324,10,10,0,0,1,2.862.42,7.27,7.27,0,0,1,2.537,1.335,6.927,6.927,0,0,1,1.831,2.346,7.648,7.648,0,0,1,.706,3.415,7.369,7.369,0,0,1-.286,2.156,6.007,6.007,0,0,1-.82,1.7,7.162,7.162,0,0,1-1.259,1.374,14.372,14.372,0,0,1-1.641,1.183q-.764.458-1.526.878a9.2,9.2,0,0,0-1.393.935,4.548,4.548,0,0,0-1.03,1.183,3.1,3.1,0,0,0-.4,1.622h-4.2Zm.076,8.89v-5.265h4.235v5.265Z" transform="translate(-41.153 -254.742)"/>
    </g>
    <g id="Group_291" data-name="Group 291" transform="translate(651.02 508.045)">
      <path id="Path_1075" data-name="Path 1075" class="cls-9" d="M130.722,301.856l4.252-11.9-10.95,8.178,0,.008a21,21,0,1,0,6.693,3.72Z" transform="translate(-96.345 -289.951)"/>
      <g id="Group_290" data-name="Group 290" transform="translate(18.768 16.217)">
        <path id="Path_1076" data-name="Path 1076" class="cls-7" d="M145.49,347.4V332.416h4.463V347.4Zm0,8.893v-5.029h4.463V356.3Z" transform="translate(-145.49 -332.416)"/>
      </g>
    </g>
  </g>
</svg>
