<svg xmlns="http://www.w3.org/2000/svg" xmlns:xlink="http://www.w3.org/1999/xlink" width="16" height="16" viewBox="0 0 16 16"><defs><path id="7sm8a" d="M146.65 2523.98a1.15 1.15 0 0 0-.63-1.97l-3.88-.57a.5.5 0 0 1-.38-.27l-1.73-3.53c-.2-.4-.59-.64-1.03-.64-.44 0-.83.25-1.03.64l-1.73 3.53a.5.5 0 0 1-.38.28l-3.88.56c-.43.06-.79.36-.92.78-.14.43-.03.88.29 1.19l2.8 2.74c.12.12.17.28.15.45l-.67 3.87a1.16 1.16 0 0 0 1.66 1.21l3.47-1.82a.52.52 0 0 1 .48 0l3.46 1.83a1.13 1.13 0 0 0 1.41-.28c.22-.26.31-.6.26-.94l-.67-3.87a.51.51 0 0 1 .15-.45z"/></defs><g><g transform="translate(-131 -2517)"><use fill="#e9c46a" xlink:href="#7sm8a"/></g></g></svg>