<svg xmlns="http://www.w3.org/2000/svg" xmlns:xlink="http://www.w3.org/1999/xlink" viewBox="0 0 575 172">
  <defs>
    <style>
      .cls-1, .cls-21 {
        fill: #fff;
      }

      .cls-1, .cls-17 {
        stroke: #e85151;
      }

      .cls-1, .cls-17, .cls-21 {
        stroke-width: 3px;
      }

      .cls-2 {
        fill: #bdd9bf;
      }

      .cls-3 {
        fill: #99cbae;
      }

      .cls-4 {
        fill: #fdf699;
      }

      .cls-18, .cls-5 {
        fill: #e85151;
      }

      .cls-6 {
        fill: #87ced9;
      }

      .cls-7 {
        fill: #5eb3d1;
      }

      .cls-8 {
        fill: #4ea3c2;
      }

      .cls-9 {
        fill: #dadddf;
      }

      .cls-10 {
        fill: #71c4d1;
      }

      .cls-11 {
        fill: #bc8d5b;
      }

      .cls-12 {
        fill: #daae86;
      }

      .cls-13 {
        fill: #d8b18b;
      }

      .cls-14 {
        fill: #f4d5bd;
      }

      .cls-15, .cls-22 {
        fill: #11273b;
      }

      .cls-15 {
        font-size: 14px;
        font-family: Montserrat-Medium, Montserrat;
        font-weight: 500;
      }

      .cls-16, .cls-18 {
        font-size: 12px;
      }

      .cls-17, .cls-19, .cls-20, .cls-24 {
        fill: none;
      }

      .cls-17, .cls-19, .cls-20, .cls-21 {
        stroke-linecap: round;
      }

      .cls-17, .cls-21 {
        stroke-dasharray: 5 5;
      }

      .cls-18, .cls-22 {
        font-family: Montserrat-SemiBold, Montserrat;
        font-weight: 600;
      }

      .cls-19, .cls-20 {
        stroke: #e9c46a;
        stroke-width: 2px;
      }

      .cls-19 {
        stroke-dasharray: 3 4;
      }

      .cls-20 {
        stroke-dasharray: 4 4;
      }

      .cls-21 {
        stroke: rgba(146,156,165,0.2);
      }

      .cls-22 {
        font-size: 18px;
      }

      .cls-23 {
        stroke: none;
      }

      .cls-25 {
        filter: url(#Path_626);
      }
    </style>
    <filter id="Path_626" x="298.184" y="7" width="141.381" height="157.316" filterUnits="userSpaceOnUse">
      <feOffset dy="20" input="SourceAlpha"/>
      <feGaussianBlur stdDeviation="15" result="blur"/>
      <feFlood flood-opacity="0.161"/>
      <feComposite operator="in" in2="blur"/>
      <feComposite in="SourceGraphic"/>
    </filter>
  </defs>
  <g id="step1" transform="translate(-157 -1191)">
    <g id="Group_272" data-name="Group 272">
      <g id="map" transform="translate(-56 29)">
        <g id="Ellipse_263" data-name="Ellipse 263" class="cls-1" transform="translate(486 1168)">
          <circle class="cls-23" cx="83" cy="83" r="83"/>
          <circle class="cls-24" cx="83" cy="83" r="81.5"/>
        </g>
        <g id="map-2" data-name="map" transform="translate(511 1194)">
          <path id="Path_622" data-name="Path 622" class="cls-2" d="M88.914,144.08c4.872,2.126,18.338,8.239,23.121,10.187.532.266,1.772.177,1.595-.974-1.063-11.516-7.53-77.514-8.682-89.207-.177-1.683-.709-1.949-1.949-2.392C99.19,60.276,89.977,57,86.167,55.669a4.135,4.135,0,0,0-3.544,0c-5.935,1.683-24.716,7.441-24.716,7.441s-19.578-5.935-25.69-7.619a4.149,4.149,0,0,0-3.544.089c-3.9,1.24-12.934,4.607-16.832,6.024A2.528,2.528,0,0,0,9.894,64c-1.24,11.428-8.327,77.691-9.567,89.3-.089,1.329,1.063,1.24,2.126.886,5.315-2.126,18.78-7.973,23.564-9.922a3.8,3.8,0,0,1,3.544,0c5.4,2.215,21.261,9.39,26.488,11.516a3.846,3.846,0,0,0,3.544,0c5.227-2.215,20.552-9.3,25.69-11.6A4.321,4.321,0,0,1,88.914,144.08Z" transform="translate(-0.322 -42.736)"/>
          <path id="Path_623" data-name="Path 623" class="cls-3" d="M31.066,55.422a4.908,4.908,0,0,0-2.392.354c-3.9,1.24-12.934,4.607-16.832,6.024a2.528,2.528,0,0,0-1.949,2.392c-1.24,11.428-8.327,77.691-9.567,89.3-.089,1.329,1.063,1.24,2.126.886,5.315-2.126,18.78-7.973,23.564-9.922a3.86,3.86,0,0,1,2.3-.354S31.066,55.422,31.066,55.422Zm52.887,0a8.253,8.253,0,0,0-1.152.354c-5.935,1.772-24.007,7.264-24.8,7.53v93.017a4.733,4.733,0,0,0,1.772-.443c5.227-2.215,20.552-9.3,25.69-11.6a5.067,5.067,0,0,1,1.24-.354Z" transform="translate(-0.322 -42.931)"/>
          <path id="Path_624" data-name="Path 624" class="cls-4" d="M67.355,161.389l15.5-15.5,15.769,15.769c3.278-1.506,6.467-3.012,9.036-4.164L51.055,100.972,78.517,73.51c-2.835-.886-6.556-1.949-10.1-3.012L44.5,94.417l-9.833-9.833c-.354,3.366-.8,7.441-1.24,11.959L76.3,139.419,58.319,157.4c2.481,1.063,5.758,2.48,9.036,3.986Z" transform="translate(-25.98 -54.641)"/>
          <path id="Path_625" data-name="Path 625" class="cls-4" d="M55.839,138.01l.443-13.554L44.5,136.15,34.666,126.4c-.354,3.366-.8,7.441-1.24,11.959l21.792,21.792.354-12.845-4.429-4.429ZM83.566,188.5l14.971,14.971c3.278-1.506,6.467-3.012,9.036-4.164L83.566,175.305Z" transform="translate(-25.98 -96.462)"/>
          <g class="cls-25" transform="matrix(1, 0, 0, 1, -298, -32)">
            <path id="Path_626-2" data-name="Path 626" class="cls-5" d="M226.894,0a25.728,25.728,0,0,1,25.69,25.779c0,.266-.089,6.91-2.3,11.6-5.227,12.136-17.806,24.982-21.97,29.145-1.063.974-1.506,1.152-2.835-.089-4.252-4.164-16.654-16.832-21.881-28.88-1.86-3.544-2.392-11.162-2.392-11.782A25.728,25.728,0,0,1,226.894,0Z" transform="translate(141.98 32)"/>
          </g>
          <path id="Path_627" data-name="Path 627" class="cls-5" d="M269.631,55.138a13.288,13.288,0,1,0,13.288,13.288A13.27,13.27,0,0,0,269.631,55.138Zm0,21.261a7.973,7.973,0,1,1,7.973-7.973A7.94,7.94,0,0,1,269.631,76.4Z" transform="translate(-198.756 -42.736)"/>
        </g>
        <g id="locker" transform="translate(558.852 1194)">
          <path id="Path_628" data-name="Path 628" class="cls-6" d="M.148,0H43.907V43.758H.148Zm0,0"/>
          <path id="Path_629" data-name="Path 629" class="cls-7" d="M43.907,21.069H30.131V0H28.51V21.069H15.545V0H13.924V21.069H.148V22.69H13.924V43.758h1.621V22.69H28.51V43.758h1.621V22.69H43.907Zm0,0"/>
          <path id="Path_630" data-name="Path 630" class="cls-7" d="M.148,557.688H3.39v3.242H.148Zm0,0" transform="translate(0 -513.93)"/>
          <path id="Path_631" data-name="Path 631" class="cls-7" d="M144.734,557.688h3.241v3.242h-3.241Zm0,0" transform="translate(-133.241 -513.93)"/>
          <path id="Path_632" data-name="Path 632" class="cls-8" d="M186.043,557.688h3.242v3.242h-3.242Zm0,0" transform="translate(-171.309 -513.93)"/>
          <path id="Path_633" data-name="Path 633" class="cls-8" d="M330.629,557.688h3.242v3.242h-3.242Zm0,0" transform="translate(-304.55 -513.93)"/>
          <path id="Path_634" data-name="Path 634" class="cls-7" d="M371.941,557.688h3.241v3.242h-3.241Zm0,0" transform="translate(-342.62 -513.93)"/>
          <path id="Path_635" data-name="Path 635" class="cls-7" d="M516.527,557.688h3.241v3.242h-3.241Zm0,0" transform="translate(-475.861 -513.93)"/>
          <path id="Path_636" data-name="Path 636" class="cls-7" d="M237.684,41.309h6.482v1.621h-6.482Zm0,0" transform="translate(-218.898 -38.067)"/>
          <path id="Path_637" data-name="Path 637" class="cls-7" d="M237.684,82.621h6.482v1.62h-6.482Zm0,0" transform="translate(-218.898 -76.138)"/>
          <path id="Path_638" data-name="Path 638" class="cls-7" d="M51.785,41.309h6.483v1.621H51.785Zm0,0" transform="translate(-47.585 -38.067)"/>
          <path id="Path_639" data-name="Path 639" class="cls-7" d="M51.785,82.621h6.483v1.62H51.785Zm0,0" transform="translate(-47.585 -76.138)"/>
          <path id="Path_640" data-name="Path 640" class="cls-7" d="M423.578,41.309h6.483v1.621h-6.483Zm0,0" transform="translate(-390.206 -38.067)"/>
          <path id="Path_641" data-name="Path 641" class="cls-7" d="M423.578,82.621h6.483v1.62h-6.483Zm0,0" transform="translate(-390.206 -76.138)"/>
          <path id="Path_642" data-name="Path 642" class="cls-7" d="M237.684,320.156h6.482v1.621h-6.482Zm0,0" transform="translate(-218.898 -295.035)"/>
          <path id="Path_643" data-name="Path 643" class="cls-7" d="M237.684,361.465h6.482v1.621h-6.482Zm0,0" transform="translate(-218.898 -333.103)"/>
          <path id="Path_644" data-name="Path 644" class="cls-7" d="M51.785,320.156h6.483v1.621H51.785Zm0,0" transform="translate(-47.585 -295.035)"/>
          <path id="Path_645" data-name="Path 645" class="cls-7" d="M51.785,361.465h6.483v1.621H51.785Zm0,0" transform="translate(-47.585 -333.103)"/>
          <path id="Path_646" data-name="Path 646" class="cls-7" d="M423.578,320.156h6.483v1.621h-6.483Zm0,0" transform="translate(-390.206 -295.035)"/>
          <path id="Path_647" data-name="Path 647" class="cls-7" d="M423.578,361.465h6.483v1.621h-6.483Zm0,0" transform="translate(-390.206 -333.103)"/>
          <path id="Path_648" data-name="Path 648" class="cls-9" d="M217.027,165.242h1.621V170.1h-1.621Zm0,0" transform="translate(-199.861 -152.276)"/>
          <path id="Path_649" data-name="Path 649" class="cls-9" d="M217.027,123.93h1.621v1.621h-1.621Zm0,0" transform="translate(-199.861 -114.206)"/>
          <path id="Path_650" data-name="Path 650" class="cls-9" d="M31.129,165.242H32.75V170.1H31.129Zm0,0" transform="translate(-28.55 -152.276)"/>
          <path id="Path_651" data-name="Path 651" class="cls-9" d="M31.129,123.93H32.75v1.621H31.129Zm0,0" transform="translate(-28.55 -114.206)"/>
          <path id="Path_652" data-name="Path 652" class="cls-9" d="M402.922,165.242h1.621V170.1h-1.621Zm0,0" transform="translate(-371.17 -152.276)"/>
          <path id="Path_653" data-name="Path 653" class="cls-9" d="M402.922,123.93h1.621v1.621h-1.621Zm0,0" transform="translate(-371.17 -114.206)"/>
          <path id="Path_654" data-name="Path 654" class="cls-9" d="M217.027,444.086h1.621v4.862h-1.621Zm0,0" transform="translate(-199.861 -409.241)"/>
          <path id="Path_655" data-name="Path 655" class="cls-9" d="M217.027,402.773h1.621v1.621h-1.621Zm0,0" transform="translate(-199.861 -371.17)"/>
          <path id="Path_656" data-name="Path 656" class="cls-9" d="M31.129,444.086H32.75v4.862H31.129Zm0,0" transform="translate(-28.55 -409.241)"/>
          <path id="Path_657" data-name="Path 657" class="cls-9" d="M31.129,402.773H32.75v1.621H31.129Zm0,0" transform="translate(-28.55 -371.17)"/>
          <path id="Path_658" data-name="Path 658" class="cls-9" d="M402.922,444.086h1.621v4.862h-1.621Zm0,0" transform="translate(-371.17 -409.241)"/>
          <path id="Path_659" data-name="Path 659" class="cls-9" d="M402.922,402.773h1.621v1.621h-1.621Zm0,0" transform="translate(-371.17 -371.17)"/>
          <path id="Path_660" data-name="Path 660" class="cls-10" d="M51.785,165.242h1.621V170.1H51.785Zm0,0" transform="translate(-47.585 -152.276)"/>
          <path id="Path_661" data-name="Path 661" class="cls-10" d="M51.785,123.93h1.621v1.621H51.785Zm0,0" transform="translate(-47.585 -114.206)"/>
          <path id="Path_662" data-name="Path 662" class="cls-10" d="M237.684,165.242h1.62V170.1h-1.62Zm0,0" transform="translate(-218.898 -152.276)"/>
          <path id="Path_663" data-name="Path 663" class="cls-10" d="M237.684,123.93h1.62v1.621h-1.62Zm0,0" transform="translate(-218.898 -114.206)"/>
          <path id="Path_664" data-name="Path 664" class="cls-10" d="M423.578,165.242H425.2V170.1h-1.621Zm0,0" transform="translate(-390.206 -152.276)"/>
          <path id="Path_665" data-name="Path 665" class="cls-10" d="M423.578,123.93H425.2v1.621h-1.621Zm0,0" transform="translate(-390.206 -114.206)"/>
          <path id="Path_666" data-name="Path 666" class="cls-10" d="M51.785,444.086h1.621v4.862H51.785Zm0,0" transform="translate(-47.585 -409.241)"/>
          <path id="Path_667" data-name="Path 667" class="cls-10" d="M51.785,402.773h1.621v1.621H51.785Zm0,0" transform="translate(-47.585 -371.17)"/>
          <path id="Path_668" data-name="Path 668" class="cls-10" d="M237.684,444.086h1.62v4.862h-1.62Zm0,0" transform="translate(-218.898 -409.241)"/>
          <path id="Path_669" data-name="Path 669" class="cls-10" d="M237.684,402.773h1.62v1.621h-1.62Zm0,0" transform="translate(-218.898 -371.17)"/>
          <path id="Path_670" data-name="Path 670" class="cls-10" d="M423.578,444.086H425.2v4.862h-1.621Zm0,0" transform="translate(-390.206 -409.241)"/>
          <path id="Path_671" data-name="Path 671" class="cls-10" d="M423.578,402.773H425.2v1.621h-1.621Zm0,0" transform="translate(-390.206 -371.17)"/>
        </g>
        <g id="box_2_" data-name="box (2)" transform="translate(575.281 1215.505)">
          <path id="Path_618" data-name="Path 618" class="cls-11" d="M25.514,0H5.315L0,8.5V30.83H30.83V8.5Z"/>
          <path id="Path_619" data-name="Path 619" class="cls-12" d="M5.315,0,0,8.5H30.83L25.514,0Z"/>
          <path id="Path_620" data-name="Path 620" class="cls-13" d="M28.315,52.126,26.189,50l-2.126,2.126L23,51.063v3.189h6.379V51.063Z" transform="translate(-10.774 -23.423)"/>
          <rect id="Rectangle_1104" data-name="Rectangle 1104" class="cls-14" width="6.379" height="8.505" transform="translate(12.226)"/>
          <path id="Path_621" data-name="Path 621" class="cls-13" d="M24.063,18.658l2.126,2.126,2.126-2.126,1.063,1.063V16H23v3.721Z" transform="translate(-10.774 -7.495)"/>
        </g>
      </g>
      <text id="Free_Virtual_Address" data-name="Free Virtual
Address" class="cls-15" transform="translate(641 1337)"><tspan x="0" y="0">Free Virtual</tspan><tspan x="0" y="18">Address</tspan></text>
      <text id="Free_Locker" data-name="Free Locker" class="cls-15" transform="translate(682 1205)"><tspan x="-41.426" y="0">Free Locker</tspan></text>
      <text id="Free_Storage_for_20_Days" data-name="Free Storage
for 20 Days" class="cls-15" transform="translate(641 1267)"><tspan x="0" y="0">Free Storage</tspan><tspan class="cls-16"><tspan x="0" y="16">for 20 Days</tspan></tspan></text>
      <line id="Line_145" data-name="Line 145" class="cls-17" x2="107" transform="translate(323.5 1280.5)"/>
      <text id="AND_GET" data-name="AND GET" class="cls-18" transform="translate(380 1266)"><tspan x="-28.23" y="0">AND GET</tspan></text>
      <path id="Path_672" data-name="Path 672" class="cls-19" d="M558.288,1317.324l45.4,45.391h26.6" transform="translate(0 -22)"/>
      <path id="Path_673" data-name="Path 673" class="cls-20" d="M549.534,1349.821l54.157-32.5h29.849" transform="translate(-3.288 -119.324)"/>
      <line id="Line_147" data-name="Line 147" class="cls-20" x2="89" transform="translate(541.5 1269.5)"/>
    </g>
    <g id="Ellipse_262" data-name="Ellipse 262" class="cls-21" transform="translate(157 1197)">
      <circle class="cls-23" cx="83" cy="83" r="83"/>
      <circle class="cls-24" cx="83" cy="83" r="81.5"/>
    </g>
    <text id="Register" class="cls-22" transform="translate(202 1286)"><tspan x="0" y="0">Register</tspan></text>
  </g>
</svg>
