<svg xmlns="http://www.w3.org/2000/svg" xmlns:xlink="http://www.w3.org/1999/xlink" viewBox="0 0 622 305">
  <defs>
    <style>
      .cls-1, .cls-2, .cls-20, .cls-26 {
        fill: #fff;
      }

      .cls-1 {
        stroke: rgba(146,156,165,0.2);
      }

      .cls-1, .cls-18, .cls-19, .cls-2, .cls-27, .cls-28, .cls-29 {
        stroke-linecap: round;
      }

      .cls-1, .cls-18, .cls-20, .cls-28 {
        stroke-width: 3px;
      }

      .cls-1, .cls-18, .cls-19, .cls-2 {
        stroke-dasharray: 5 5;
      }

      .cls-19, .cls-2, .cls-27, .cls-29 {
        stroke: #e9c46a;
        stroke-width: 2px;
      }

      .cls-17, .cls-3 {
        fill: #11273b;
      }

      .cls-3, .cls-30 {
        font-size: 12px;
      }

      .cls-17, .cls-3, .cls-30 {
        font-family: Montserrat-SemiBold, Montserrat;
        font-weight: 600;
      }

      .cls-4 {
        fill: #87ced9;
      }

      .cls-5 {
        fill: #5eb3d1;
      }

      .cls-6 {
        fill: #4ea3c2;
      }

      .cls-7 {
        fill: #dadddf;
      }

      .cls-8 {
        fill: #71c4d1;
      }

      .cls-9 {
        fill: #ff8191;
      }

      .cls-10 {
        fill: #daae86;
      }

      .cls-11 {
        fill: #d8b18b;
      }

      .cls-12 {
        fill: #f4d5bd;
      }

      .cls-13 {
        fill: #507dbc;
      }

      .cls-14 {
        fill: #e76f51;
      }

      .cls-15 {
        fill: #bc8d5b;
      }

      .cls-16 {
        fill: #87613e;
      }

      .cls-17 {
        font-size: 10px;
      }

      .cls-18, .cls-19, .cls-27, .cls-28, .cls-29, .cls-32 {
        fill: none;
      }

      .cls-18, .cls-20, .cls-28 {
        stroke: #e85151;
      }

      .cls-21 {
        fill: #87dcff;
      }

      .cls-22 {
        fill: #bee86e;
      }

      .cls-23 {
        fill: #00c3ff;
      }

      .cls-24 {
        fill: #afd755;
      }

      .cls-25 {
        fill: #e85151;
      }

      .cls-27 {
        stroke-dasharray: 4 4;
      }

      .cls-30 {
        fill: #929ca5;
      }

      .cls-31 {
        stroke: none;
      }

      .cls-33 {
        filter: url(#Path_626);
      }
    </style>
    <filter id="Path_626" x="479.184" y="95.2" width="108.407" height="114.116" filterUnits="userSpaceOnUse">
      <feOffset dy="20" input="SourceAlpha"/>
      <feGaussianBlur stdDeviation="15" result="blur"/>
      <feFlood flood-opacity="0.161"/>
      <feComposite operator="in" in2="blur"/>
      <feComposite in="SourceGraphic"/>
    </filter>
  </defs>
  <g id="step3" transform="translate(-153 -1125)">
    <g id="Ellipse_298" data-name="Ellipse 298" class="cls-1" transform="translate(153 1173)">
      <circle class="cls-31" cx="37" cy="37" r="37"/>
      <circle class="cls-32" cx="37" cy="37" r="35.5"/>
    </g>
    <g id="Ellipse_299" data-name="Ellipse 299" class="cls-2" transform="translate(363 1125)">
      <circle class="cls-31" cx="51" cy="51" r="51"/>
      <circle class="cls-32" cx="51" cy="51" r="50"/>
    </g>
    <text id="Your_Locker_20_Day_Storage_Per_Shipment" data-name="Your Locker 
20 Day Storage
Per Shipment" class="cls-3" transform="translate(246 1381)"><tspan x="56.936" y="12">Your Locker </tspan><tspan x="46.55" y="27">20 Day Storage</tspan><tspan x="50.84" y="42">Per Shipment</tspan></text>
    <g id="re" transform="translate(142 11)">
      <g id="Ellipse_262" data-name="Ellipse 262" class="cls-1" transform="translate(153 1267)">
        <circle class="cls-31" cx="48" cy="48" r="48"/>
        <circle class="cls-32" cx="48" cy="48" r="46.5"/>
      </g>
      <g id="map" transform="translate(58 64)">
        <g id="locker" transform="translate(94.852 1208)">
          <path id="Path_628" data-name="Path 628" class="cls-4" d="M.148,0H74.26V74.111H.148Zm0,0"/>
          <path id="Path_629" data-name="Path 629" class="cls-5" d="M74.26,35.683H50.929V0H48.184V35.683H26.225V0H23.48V35.683H.148v2.745H23.48V74.111h2.745V38.428H48.184V74.111h2.745V38.428H74.26Zm0,0"/>
          <path id="Path_630" data-name="Path 630" class="cls-5" d="M.148,557.688h5.49v5.49H.148Zm0,0" transform="translate(0 -483.577)"/>
          <path id="Path_631" data-name="Path 631" class="cls-5" d="M144.734,557.688h5.49v5.49h-5.49Zm0,0" transform="translate(-125.372 -483.577)"/>
          <path id="Path_632" data-name="Path 632" class="cls-6" d="M186.043,557.688h5.49v5.49h-5.49Zm0,0" transform="translate(-161.191 -483.577)"/>
          <path id="Path_633" data-name="Path 633" class="cls-6" d="M330.629,557.688h5.49v5.49h-5.49Zm0,0" transform="translate(-286.563 -483.577)"/>
          <path id="Path_634" data-name="Path 634" class="cls-5" d="M371.941,557.688h5.49v5.49h-5.49Zm0,0" transform="translate(-322.385 -483.577)"/>
          <path id="Path_635" data-name="Path 635" class="cls-5" d="M516.527,557.688h5.49v5.49h-5.49Zm0,0" transform="translate(-447.757 -483.577)"/>
          <path id="Path_636" data-name="Path 636" class="cls-5" d="M237.684,41.309h10.979v2.745H237.684Zm0,0" transform="translate(-205.969 -35.819)"/>
          <path id="Path_637" data-name="Path 637" class="cls-5" d="M237.684,82.621h10.979v2.744H237.684Zm0,0" transform="translate(-205.969 -71.642)"/>
          <path id="Path_638" data-name="Path 638" class="cls-5" d="M51.785,41.309h10.98v2.745H51.785Zm0,0" transform="translate(-44.775 -35.819)"/>
          <path id="Path_639" data-name="Path 639" class="cls-5" d="M51.785,82.621h10.98v2.744H51.785Zm0,0" transform="translate(-44.775 -71.642)"/>
          <path id="Path_640" data-name="Path 640" class="cls-5" d="M423.578,41.309h10.98v2.745h-10.98Zm0,0" transform="translate(-367.16 -35.819)"/>
          <path id="Path_641" data-name="Path 641" class="cls-5" d="M423.578,82.621h10.98v2.744h-10.98Zm0,0" transform="translate(-367.16 -71.642)"/>
          <path id="Path_642" data-name="Path 642" class="cls-5" d="M237.684,320.156h10.979V322.9H237.684Zm0,0" transform="translate(-205.969 -277.61)"/>
          <path id="Path_643" data-name="Path 643" class="cls-5" d="M237.684,361.465h10.979v2.745H237.684Zm0,0" transform="translate(-205.969 -313.43)"/>
          <path id="Path_644" data-name="Path 644" class="cls-5" d="M51.785,320.156h10.98V322.9H51.785Zm0,0" transform="translate(-44.775 -277.61)"/>
          <path id="Path_645" data-name="Path 645" class="cls-5" d="M51.785,361.465h10.98v2.745H51.785Zm0,0" transform="translate(-44.775 -313.43)"/>
          <path id="Path_646" data-name="Path 646" class="cls-5" d="M423.578,320.156h10.98V322.9h-10.98Zm0,0" transform="translate(-367.16 -277.61)"/>
          <path id="Path_647" data-name="Path 647" class="cls-5" d="M423.578,361.465h10.98v2.745h-10.98Zm0,0" transform="translate(-367.16 -313.43)"/>
          <path id="Path_648" data-name="Path 648" class="cls-7" d="M217.027,165.242h2.745v8.235h-2.745Zm0,0" transform="translate(-188.058 -143.283)"/>
          <path id="Path_649" data-name="Path 649" class="cls-7" d="M217.027,123.93h2.745v2.745h-2.745Zm0,0" transform="translate(-188.058 -107.461)"/>
          <path id="Path_650" data-name="Path 650" class="cls-7" d="M31.129,165.242h2.745v8.235H31.129Zm0,0" transform="translate(-26.863 -143.283)"/>
          <path id="Path_651" data-name="Path 651" class="cls-7" d="M31.129,123.93h2.745v2.745H31.129Zm0,0" transform="translate(-26.863 -107.461)"/>
          <path id="Path_652" data-name="Path 652" class="cls-7" d="M402.922,165.242h2.745v8.235h-2.745Zm0,0" transform="translate(-349.249 -143.283)"/>
          <path id="Path_653" data-name="Path 653" class="cls-7" d="M402.922,123.93h2.745v2.745h-2.745Zm0,0" transform="translate(-349.249 -107.461)"/>
          <path id="Path_654" data-name="Path 654" class="cls-7" d="M217.027,444.086h2.745v8.235h-2.745Zm0,0" transform="translate(-188.058 -385.071)"/>
          <path id="Path_655" data-name="Path 655" class="cls-7" d="M217.027,402.773h2.745v2.745h-2.745Zm0,0" transform="translate(-188.058 -349.248)"/>
          <path id="Path_656" data-name="Path 656" class="cls-7" d="M31.129,444.086h2.745v8.235H31.129Zm0,0" transform="translate(-26.863 -385.071)"/>
          <path id="Path_657" data-name="Path 657" class="cls-7" d="M31.129,402.773h2.745v2.745H31.129Zm0,0" transform="translate(-26.863 -349.248)"/>
          <path id="Path_658" data-name="Path 658" class="cls-7" d="M402.922,444.086h2.745v8.235h-2.745Zm0,0" transform="translate(-349.249 -385.071)"/>
          <path id="Path_659" data-name="Path 659" class="cls-7" d="M402.922,402.773h2.745v2.745h-2.745Zm0,0" transform="translate(-349.249 -349.248)"/>
          <path id="Path_660" data-name="Path 660" class="cls-8" d="M51.785,165.242H54.53v8.235H51.785Zm0,0" transform="translate(-44.775 -143.283)"/>
          <path id="Path_661" data-name="Path 661" class="cls-8" d="M51.785,123.93H54.53v2.745H51.785Zm0,0" transform="translate(-44.775 -107.461)"/>
          <path id="Path_662" data-name="Path 662" class="cls-8" d="M237.684,165.242h2.744v8.235h-2.744Zm0,0" transform="translate(-205.969 -143.283)"/>
          <path id="Path_663" data-name="Path 663" class="cls-8" d="M237.684,123.93h2.744v2.745h-2.744Zm0,0" transform="translate(-205.969 -107.461)"/>
          <path id="Path_664" data-name="Path 664" class="cls-8" d="M423.578,165.242h2.745v8.235h-2.745Zm0,0" transform="translate(-367.16 -143.283)"/>
          <path id="Path_665" data-name="Path 665" class="cls-8" d="M423.578,123.93h2.745v2.745h-2.745Zm0,0" transform="translate(-367.16 -107.461)"/>
          <path id="Path_666" data-name="Path 666" class="cls-8" d="M51.785,444.086H54.53v8.235H51.785Zm0,0" transform="translate(-44.775 -385.071)"/>
          <path id="Path_667" data-name="Path 667" class="cls-8" d="M51.785,402.773H54.53v2.745H51.785Zm0,0" transform="translate(-44.775 -349.248)"/>
          <path id="Path_668" data-name="Path 668" class="cls-8" d="M237.684,444.086h2.744v8.235h-2.744Zm0,0" transform="translate(-205.969 -385.071)"/>
          <path id="Path_669" data-name="Path 669" class="cls-8" d="M237.684,402.773h2.744v2.745h-2.744Zm0,0" transform="translate(-205.969 -349.248)"/>
          <path id="Path_670" data-name="Path 670" class="cls-8" d="M423.578,444.086h2.745v8.235h-2.745Zm0,0" transform="translate(-367.16 -385.071)"/>
          <path id="Path_671" data-name="Path 671" class="cls-8" d="M423.578,402.773h2.745v2.745h-2.745Zm0,0" transform="translate(-367.16 -349.248)"/>
        </g>
        <g id="Group_269" data-name="Group 269">
          <g id="box_2_" data-name="box (2)" transform="translate(54.281 1262.598)">
            <path id="Path_618" data-name="Path 618" class="cls-9" d="M13.851,0H2.886L0,4.617v12.12H16.737V4.617Z"/>
            <path id="Path_619" data-name="Path 619" class="cls-10" d="M2.886,0,0,4.617H16.737L13.851,0Z"/>
            <path id="Path_620" data-name="Path 620" class="cls-11" d="M25.886,51.154,24.731,50l-1.154,1.154L23,50.577v1.731h3.463V50.577Z" transform="translate(-16.363 -35.572)"/>
            <rect id="Rectangle_1104" data-name="Rectangle 1104" class="cls-12" width="3.463" height="4.617" transform="translate(6.637)"/>
            <path id="Path_621" data-name="Path 621" class="cls-11" d="M23.577,17.443,24.731,18.6l1.154-1.154.577.577V16H23v2.02Z" transform="translate(-16.363 -11.383)"/>
          </g>
          <g id="box_2_2" data-name="box (2)" transform="translate(54.281 1239.598)">
            <path id="Path_618-2" data-name="Path 618" class="cls-13" d="M13.851,0H2.886L0,4.617v12.12H16.737V4.617Z"/>
            <path id="Path_619-2" data-name="Path 619" class="cls-10" d="M2.886,0,0,4.617H16.737L13.851,0Z"/>
            <path id="Path_620-2" data-name="Path 620" class="cls-11" d="M25.886,51.154,24.731,50l-1.154,1.154L23,50.577v1.731h3.463V50.577Z" transform="translate(-16.363 -35.572)"/>
            <rect id="Rectangle_1104-2" data-name="Rectangle 1104" class="cls-12" width="3.463" height="4.617" transform="translate(6.637)"/>
            <path id="Path_621-2" data-name="Path 621" class="cls-11" d="M23.577,17.443,24.731,18.6l1.154-1.154.577.577V16H23v2.02Z" transform="translate(-16.363 -11.383)"/>
          </g>
          <g id="box_2_3" data-name="box (2)" transform="translate(57.281 1207.598)">
            <path id="Path_618-3" data-name="Path 618" class="cls-14" d="M13.851,0H2.886L0,4.617v12.12H16.737V4.617Z"/>
            <path id="Path_619-3" data-name="Path 619" class="cls-10" d="M2.886,0,0,4.617H16.737L13.851,0Z"/>
            <path id="Path_620-3" data-name="Path 620" class="cls-11" d="M25.886,51.154,24.731,50l-1.154,1.154L23,50.577v1.731h3.463V50.577Z" transform="translate(-16.363 -35.572)"/>
            <rect id="Rectangle_1104-3" data-name="Rectangle 1104" class="cls-12" width="3.463" height="4.617" transform="translate(6.637)"/>
            <path id="Path_621-3" data-name="Path 621" class="cls-11" d="M23.577,17.443,24.731,18.6l1.154-1.154.577.577V16H23v2.02Z" transform="translate(-16.363 -11.383)"/>
          </g>
        </g>
        <g id="box_2_4" data-name="box (2)" transform="translate(174.281 1118.505)">
          <path id="Path_618-4" data-name="Path 618" class="cls-15" d="M25.514,0H5.315L0,8.5V30.83H30.83V8.5Z" transform="translate(-0.281)"/>
          <path id="Path_619-4" data-name="Path 619" class="cls-16" d="M5.315,0,0,8.5H30.83L25.514,0Z"/>
          <path id="Path_620-4" data-name="Path 620" class="cls-11" d="M28.315,52.126,26.189,50l-2.126,2.126L23,51.063v3.189h6.379V51.063Z" transform="translate(-10.774 -23.423)"/>
          <text id="S" class="cls-17" transform="translate(15.719 22.495)"><tspan x="-3.145" y="0">S</tspan></text>
        </g>
        <g id="Group_270" data-name="Group 270" transform="translate(82 -114)">
          <g id="box_2_5" data-name="box (2)" transform="translate(95.281 1227.637)">
            <path id="Path_618-5" data-name="Path 618" class="cls-9" d="M8.853,0H1.844L0,2.951V10.7H10.7V2.951Z"/>
            <path id="Path_619-5" data-name="Path 619" class="cls-10" d="M1.844,0,0,2.951H10.7L8.853,0Z"/>
            <path id="Path_620-5" data-name="Path 620" class="cls-11" d="M24.844,50.738,24.107,50l-.738.738L23,50.369v1.107h2.213V50.369Z" transform="translate(-18.758 -40.778)"/>
            <rect id="Rectangle_1104-4" data-name="Rectangle 1104" class="cls-12" width="2.213" height="2.951" transform="translate(4.242)"/>
            <path id="Path_621-4" data-name="Path 621" class="cls-11" d="M23.369,16.922l.738.738.738-.738.369.369V16H23v1.291Z" transform="translate(-18.758 -13.049)"/>
          </g>
          <g id="box_2_6" data-name="box (2)" transform="translate(104.281 1224.598)">
            <path id="Path_618-6" data-name="Path 618" class="cls-13" d="M13.851,0H2.886L0,4.617v12.12H16.737V4.617Z"/>
            <path id="Path_619-6" data-name="Path 619" class="cls-10" d="M2.886,0,0,4.617H16.737L13.851,0Z"/>
            <path id="Path_620-6" data-name="Path 620" class="cls-11" d="M25.886,51.154,24.731,50l-1.154,1.154L23,50.577v1.731h3.463V50.577Z" transform="translate(-16.363 -35.572)"/>
            <rect id="Rectangle_1104-5" data-name="Rectangle 1104" class="cls-12" width="3.463" height="4.617" transform="translate(6.637)"/>
            <path id="Path_621-5" data-name="Path 621" class="cls-11" d="M23.577,17.443,24.731,18.6l1.154-1.154.577.577V16H23v2.02Z" transform="translate(-16.363 -11.383)"/>
          </g>
          <g id="box_2_7" data-name="box (2)" transform="translate(101.281 1221.598)">
            <path id="Path_618-7" data-name="Path 618" class="cls-14" d="M7.23,0H1.506L0,2.41V8.737H8.737V2.41Z"/>
            <path id="Path_619-7" data-name="Path 619" class="cls-10" d="M1.506,0,0,2.41H8.737L7.23,0Z"/>
            <path id="Path_620-7" data-name="Path 620" class="cls-11" d="M24.506,50.6l-.6-.6-.6.6-.3-.3v.9h1.808v-.9Z" transform="translate(-19.535 -42.468)"/>
            <rect id="Rectangle_1104-6" data-name="Rectangle 1104" class="cls-12" width="1.808" height="2.41" transform="translate(3.465)"/>
            <path id="Path_621-6" data-name="Path 621" class="cls-11" d="M23.3,16.753l.6.6.6-.6.3.3V16H23v1.054Z" transform="translate(-19.535 -13.59)"/>
          </g>
        </g>
      </g>
    </g>
    <g id="Group_276" data-name="Group 276">
      <line id="Line_145" data-name="Line 145" class="cls-18" x2="170" y2="79" transform="translate(459.5 1201.5)"/>
      <line id="Line_150" data-name="Line 150" class="cls-19" y1="58" x2="31" transform="translate(339.5 1210.5)"/>
      <line id="Line_152" data-name="Line 152" class="cls-19" x2="72" y2="30" transform="translate(217.5 1308.5)"/>
      <line id="Line_155" data-name="Line 155" class="cls-19" y1="44" x2="72" transform="translate(217.5 1338.5)"/>
      <line id="Line_153" data-name="Line 153" class="cls-19" x2="77" y2="99" transform="translate(217.5 1234.5)"/>
      <text id="Deliver_in_2-5_Day_Delivery" data-name="Deliver in
2-5 Day Delivery" class="cls-3" transform="matrix(0.921, 0.391, -0.391, 0.921, 444.032, 1201.775)"><tspan x="67.714" y="12">Deliver in</tspan><tspan x="47.062" y="27">2-5 Day Delivery</tspan></text>
      <g id="Group_266" data-name="Group 266" transform="translate(127 29)">
        <g id="Ellipse_263" data-name="Ellipse 263" class="cls-20" transform="translate(507 1203)">
          <circle class="cls-31" cx="61.5" cy="61.5" r="61.5"/>
          <circle class="cls-32" cx="61.5" cy="61.5" r="60"/>
        </g>
        <g id="earth-globe" transform="translate(529 1227.976)">
          <circle id="Ellipse_7" data-name="Ellipse 7" class="cls-21" cx="40" cy="40" r="40"/>
          <path id="Path_47" data-name="Path 47" class="cls-22" d="M133.317,1.783l-1.651,5.145A3.871,3.871,0,0,1,129,9.478l-4.142,1.136a3.873,3.873,0,0,1-1.024.138h-6.2a1.29,1.29,0,0,0-1.279,1.12l-.711,5.332-3.959.207a1.29,1.29,0,0,0-1.222,1.237l-.137,3.441a1.29,1.29,0,0,0,1.4,1.337l2.638-.22a2.322,2.322,0,0,0,1.694-.961l2.44-3.4,5.218-.186a1.557,1.557,0,0,1,1.5,2.124c-.909,2.335-.91,2.535-.91,2.74a1.29,1.29,0,0,0,2.562.219c.088-.3.482-1.328,1-2.637a.727.727,0,0,1,1.282-.137l.334.5a2.58,2.58,0,0,0,2.843,1.064l2.3-.639a2.088,2.088,0,0,0,1.4-1.276l.442-1.172a2.581,2.581,0,0,1,1.893-1.617l1.489-.307a1.883,1.883,0,0,1,2.264,1.423,1.8,1.8,0,0,1-1.568,2.1l-3.59.1a1.371,1.371,0,0,0-1.334,1.338l-.008.344a.718.718,0,0,0,.392.657l2.065,1.053a1.466,1.466,0,0,1,.546,2.13h0a1.466,1.466,0,0,1-1.212.642H126.51a2.27,2.27,0,0,1-.833-.158l-9.138-3.6a1.893,1.893,0,0,0-1.979.371l-8.654,8a2.581,2.581,0,0,0-.754,2.512l1.76,7.148a2.581,2.581,0,0,0,2.367,1.96l9.75.524a3.871,3.871,0,0,1,3.647,3.51l.74,8.029a5.04,5.04,0,0,0,.474,1.724,53.825,53.825,0,0,0,3.8,6.956c1.371,1.734,4.749,1.8,5.887.766l7.927-6.487a3.872,3.872,0,0,0,1.225-2.3l.929-6.371,6.295-6.937a1.288,1.288,0,0,0-.442-2.047l-.113.076a3.414,3.414,0,0,1-1.6.565c-.1.009-.2.014-.3.014a3.388,3.388,0,0,1-2.878-1.593l-4.806-7.631A1.291,1.291,0,0,1,142,30.961l4.806,7.632a.819.819,0,0,0,.77.383.848.848,0,0,0,.388-.137l6.5-3.56a1.244,1.244,0,0,0,.375-1.867h0a1.245,1.245,0,0,0-1.115-.461l-1.365.157a1.291,1.291,0,0,1-1.009-.32l-4.086-3.655a1.29,1.29,0,0,1,1.721-1.923l3.654,3.269,2.22-.256a1.282,1.282,0,0,1,1.19.52l.427.585,2.164-.26a2.581,2.581,0,0,1,2.577,1.335l4.37,8.08a2.58,2.58,0,0,0,1.483,1.23l1.572.552c0-.254.019-.506.019-.761A40,40,0,0,0,133.317,1.783Zm16.71,22.08a1.288,1.288,0,0,1-1.791-.347l-2.688-3.978a1.29,1.29,0,1,1,2.137-1.444l2.688,3.978A1.288,1.288,0,0,1,150.027,23.863Z" transform="translate(-88.659 -1.504)"/>
          <path id="Path_48" data-name="Path 48" class="cls-23" d="M53.118,98.89A40,40,0,0,1,19.046,37.936,40,40,0,1,0,74.073,92.963,39.805,39.805,0,0,1,53.118,98.89Z" transform="translate(0 -32.009)"/>
          <g id="Group_9" data-name="Group 9" transform="translate(27.78 0.808)">
            <path id="Path_49" data-name="Path 49" class="cls-22" d="M360.514,355.518a1.29,1.29,0,0,1-.987-2.121l3.387-4.032a1.291,1.291,0,1,1,1.976,1.661l-3.387,4.032A1.288,1.288,0,0,1,360.514,355.518Z" transform="translate(-330.876 -295.197)"/>
            <path id="Path_50" data-name="Path 50" class="cls-22" d="M179.01,5.908l-1.148,3.421a1.291,1.291,0,0,0,2.447.822l1.671-4.98C180.974,5.376,179.987,5.629,179.01,5.908Z" transform="translate(-177.794 -5.171)"/>
          </g>
          <path id="Path_51" data-name="Path 51" class="cls-24" d="M7.544,296.687,8.66,286.544a2.58,2.58,0,0,0-.773-2.145L1,277.96A39.761,39.761,0,0,0,7.544,296.687Z" transform="translate(-0.845 -234.529)"/>
          <path id="Path_52" data-name="Path 52" class="cls-22" d="M231.612,0a40.419,40.419,0,0,0-4.282.231L227.2,3.259a1.935,1.935,0,1,0,3.672,1.225L232.355.019C232.107.014,231.861,0,231.612,0Z" transform="translate(-191.612)"/>
        </g>
        <g id="map-2" data-name="map" transform="translate(505 1216.2)">
          <g class="cls-33" transform="matrix(1, 0, 0, 1, -479, -120.2)">
            <path id="Path_626-2" data-name="Path 626" class="cls-25" d="M210.408,0a9.217,9.217,0,0,1,9.2,9.235,11.7,11.7,0,0,1-.825,4.157c-1.872,4.348-6.379,8.95-7.871,10.441-.381.349-.539.413-1.016-.032-1.523-1.492-5.966-6.03-7.839-10.346a13.426,13.426,0,0,1-.857-4.221A9.217,9.217,0,0,1,210.408,0Z" transform="translate(322.98 120.2)"/>
          </g>
          <path id="Path_627" data-name="Path 627" class="cls-26" d="M261.1,55.138a4.76,4.76,0,1,0,4.76,4.76A4.754,4.754,0,0,0,261.1,55.138Zm0,7.617A2.856,2.856,0,1,1,263.96,59.9,2.844,2.844,0,0,1,261.1,62.755Z" transform="translate(-206.716 -50.695)"/>
        </g>
      </g>
      <text id="Drop_your_Package_at_Abroad_Address" data-name="Drop your Package at Abroad Address" class="cls-3" transform="translate(613 1390)"><tspan x="13.872" y="12">Drop your Package at </tspan><tspan x="31.572" y="27">Abroad Address</tspan></text>
      <line id="Line_147" data-name="Line 147" class="cls-27" y1="36" transform="translate(695.5 1348.5)"/>
      <text id="Re-Package_Consolidation" data-name="Re-Package
Consolidation" class="cls-3" transform="translate(419.5 1146)"><tspan x="-37.206" y="0">Re-Package</tspan><tspan x="-42.672" y="15">Consolidation</tspan></text>
      <path id="Path_1037" data-name="Path 1037" class="cls-28" d="M566.415,1272.486l8.037,8.037-8.037,8.036" transform="translate(555.786 -119.373) rotate(21)"/>
      <path id="Path_1038" data-name="Path 1038" class="cls-29" d="M566.415,1272.486l4.912,4.912-4.912,4.912" transform="matrix(0.819, 0.574, -0.574, 0.819, 558.465, -44.411)"/>
      <path id="Path_1040" data-name="Path 1040" class="cls-29" d="M566.415,1272.486l4.912,4.912-4.912,4.912" transform="translate(-304.307 70.988) rotate(-1)"/>
      <path id="Path_1039" data-name="Path 1039" class="cls-29" d="M566.415,1272.486l4.912,4.912-4.912,4.912" transform="matrix(0.629, -0.777, 0.777, 0.629, -979.955, 849.467)"/>
      <g id="Ellipse_300" data-name="Ellipse 300" class="cls-1" transform="translate(153 1259)">
        <circle class="cls-31" cx="37" cy="37" r="37"/>
        <circle class="cls-32" cx="37" cy="37" r="35.5"/>
      </g>
      <g id="Ellipse_301" data-name="Ellipse 301" class="cls-1" transform="translate(153 1352)">
        <ellipse class="cls-31" cx="37" cy="32" rx="37" ry="32"/>
        <ellipse class="cls-32" cx="37" cy="32" rx="35.5" ry="30.5"/>
      </g>
      <text id="Fipkart" class="cls-30" transform="translate(190 1294)"><tspan x="-22.164" y="0">Fipkart</tspan></text>
      <text id="Amazon" class="cls-30" transform="translate(190 1387)"><tspan x="-25.578" y="0">Amazon</tspan></text>
      <text id="Package_from_Home" data-name="Package
from Home" class="cls-30" transform="translate(190 1203)"><tspan x="-26.718" y="0">Package</tspan><tspan x="-35.808" y="15">from Home</tspan></text>
    </g>
  </g>
</svg>
