<svg xmlns="http://www.w3.org/2000/svg" xmlns:xlink="http://www.w3.org/1999/xlink" width="302" height="169" viewBox="0 0 302 169"><defs><path id="e4fna" d="M430 960a83 83 0 1 1 166 0 83 83 0 0 1-166 0z"/><path id="e4fnb" d="M525.87 903a25.73 25.73 0 0 1 25.7 25.78c0 .26-.1 6.9-2.3 11.6-5.23 12.14-17.81 24.99-21.98 29.15-1.06.97-1.5 1.15-2.83-.09-4.26-4.16-16.66-16.83-21.88-28.88-1.86-3.54-2.4-11.16-2.4-11.78a25.73 25.73 0 0 1 25.7-25.78z"/><path id="e4fnd" d="M543.6 1004.34c4.86 2.13 18.33 8.24 23.11 10.2.53.26 1.78.17 1.6-.98-1.07-11.52-7.53-77.52-8.68-89.21-.18-1.68-.71-1.95-1.95-2.4-3.81-1.41-13.02-4.69-16.83-6.02a4.14 4.14 0 0 0-3.55 0c-5.93 1.69-24.71 7.44-24.71 7.44s-19.58-5.93-25.7-7.61a4.15 4.15 0 0 0-3.54.09c-3.9 1.24-12.93 4.6-16.83 6.02-1.6.62-1.77 1.33-1.95 2.4-1.24 11.42-8.32 77.68-9.57 89.29-.08 1.33 1.07 1.24 2.13.88 5.32-2.12 18.78-7.97 23.57-9.92a3.8 3.8 0 0 1 3.54 0c5.4 2.22 21.26 9.4 26.49 11.52 1.15.53 2.21.62 3.54 0 5.23-2.22 20.55-9.3 25.69-11.6a4.32 4.32 0 0 1 3.63-.1z"/><path id="e4fne" d="M538.63 915.5c-.35.08-.7.17-1.15.35-5.94 1.77-24 7.26-24.8 7.52v93.02c.53 0 1.15-.18 1.77-.44 5.22-2.22 20.55-9.3 25.69-11.6.35-.18.8-.27 1.24-.36l-2.75-88.5zm-52.89 0a4.9 4.9 0 0 0-2.39.35c-3.9 1.24-12.93 4.6-16.83 6.02-1.6.62-1.77 1.33-1.95 2.4-1.24 11.42-8.32 77.68-9.57 89.29-.08 1.33 1.07 1.24 2.13.88 5.32-2.12 18.78-7.97 23.57-9.92.7-.26 1.32-.53 2.3-.35l2.74-88.68z"/><path id="e4fnf" d="M496.38 1009.75l15.5-15.5 15.77 15.76c3.27-1.5 6.46-3 9.03-4.16l-56.6-56.52 27.46-27.46c-2.84-.89-6.56-1.95-10.1-3.01l-23.92 23.92-9.83-9.84c-.36 3.37-.8 7.44-1.24 11.96l42.87 42.88-17.98 17.98c2.48 1.06 5.76 2.48 9.04 3.99z"/><path id="e4fng" d="M512.59 995.04l14.97 14.97c3.28-1.5 6.46-3 9.03-4.16l-24-24zm-27.73-50.5l.44-13.55-11.78 11.7-9.83-9.75c-.36 3.37-.8 7.44-1.24 11.96l21.79 21.8.35-12.85-4.43-4.43z"/><path id="e4fnj" d="M525.87 936.66a7.94 7.94 0 0 1-7.97-7.97 7.94 7.94 0 0 1 7.97-7.97 7.94 7.94 0 0 1 7.98 7.97 7.94 7.94 0 0 1-7.98 7.97zm0-21.26a13.27 13.27 0 0 0-13.28 13.29c0 7.35 5.93 13.29 13.28 13.29 7.36 0 13.3-5.94 13.3-13.29 0-7.35-5.94-13.29-13.3-13.29z"/><path id="e4fnk" d="M503 903h43.76v43.76H503z"/><path id="e4fnl" d="M546.76 924.07h-13.78V903h-1.62v21.07H518.4V903h-1.62v21.07H503v1.62h13.78v21.07h1.62v-21.07h12.96v21.07h1.62v-21.07h13.78z"/><path id="e4fnm" d="M503 946.76h3.24V950H503z"/><path id="e4fnn" d="M514.34 946.76h3.25V950h-3.25z"/><path id="e4fno" d="M517.59 946.76h3.24V950h-3.24z"/><path id="e4fnp" d="M528.93 946.76h3.24V950h-3.24z"/><path id="e4fnq" d="M532.17 946.76h3.24V950h-3.24z"/><path id="e4fnr" d="M543.52 946.76h3.24V950h-3.24z"/><path id="e4fns" d="M521.64 906.24h6.48v1.62h-6.48z"/><path id="e4fnt" d="M521.64 909.48h6.48v1.62h-6.48z"/><path id="e4fnu" d="M507.05 906.24h6.48v1.62h-6.48z"/><path id="e4fnv" d="M507.05 909.48h6.48v1.62h-6.48z"/><path id="e4fnw" d="M536.22 906.24h6.49v1.62h-6.49z"/><path id="e4fnx" d="M536.22 909.48h6.49v1.62h-6.49z"/><path id="e4fny" d="M521.64 928.12h6.48v1.62h-6.48z"/><path id="e4fnz" d="M521.64 931.36h6.48v1.62h-6.48z"/><path id="e4fnA" d="M507.05 928.12h6.48v1.62h-6.48z"/><path id="e4fnB" d="M507.05 931.36h6.48v1.62h-6.48z"/><path id="e4fnC" d="M536.22 928.12h6.49v1.62h-6.49z"/><path id="e4fnD" d="M536.22 931.36h6.49v1.62h-6.49z"/><path id="e4fnE" d="M520.02 915.97h1.62v4.86h-1.62z"/><path id="e4fnF" d="M520.02 912.72h1.62v1.62h-1.62z"/><path id="e4fnG" d="M505.43 915.97h1.62v4.86h-1.62z"/><path id="e4fnH" d="M505.43 912.72h1.62v1.62h-1.62z"/><path id="e4fnI" d="M534.6 915.97h1.62v4.86h-1.62z"/><path id="e4fnJ" d="M534.6 912.72h1.62v1.62h-1.62z"/><path id="e4fnK" d="M520.02 937.84h1.62v4.87h-1.62z"/><path id="e4fnL" d="M520.02 934.6h1.62v1.62h-1.62z"/><path id="e4fnM" d="M505.43 937.84h1.62v4.87h-1.62z"/><path id="e4fnN" d="M505.43 934.6h1.62v1.62h-1.62z"/><path id="e4fnO" d="M534.6 937.84h1.62v4.87h-1.62z"/><path id="e4fnP" d="M534.6 934.6h1.62v1.62h-1.62z"/><path id="e4fnQ" d="M507.05 915.97h1.62v4.86h-1.62z"/><path id="e4fnR" d="M507.05 912.72h1.62v1.62h-1.62z"/><path id="e4fnS" d="M521.64 915.97h1.62v4.86h-1.62z"/><path id="e4fnT" d="M521.64 912.72h1.62v1.62h-1.62z"/><path id="e4fnU" d="M536.22 915.97h1.62v4.86h-1.62z"/><path id="e4fnV" d="M536.22 912.72h1.62v1.62h-1.62z"/><path id="e4fnW" d="M507.05 937.84h1.62v4.87h-1.62z"/><path id="e4fnX" d="M507.05 934.6h1.62v1.62h-1.62z"/><path id="e4fnY" d="M521.64 937.84h1.62v4.87h-1.62z"/><path id="e4fnZ" d="M521.64 934.6h1.62v1.62h-1.62z"/><path id="e4fnaa" d="M536.22 937.84h1.62v4.87h-1.62z"/><path id="e4fnab" d="M536.22 934.6h1.62v1.62h-1.62z"/><path id="e4fnac" d="M544.8 924.5h-20.2l-5.32 8.51v22.32h30.83v-22.32z"/><path id="e4fnad" d="M524.6 924.5l-5.32 8.51h30.83l-5.31-8.5z"/><path id="e4fnae" d="M536.82 953.2l-2.12-2.12-2.13 2.13-1.06-1.06v3.18h6.38v-3.18z"/><path id="e4fnaf" d="M531.5 933.01v-8.5h6.39v8.5z"/><path id="e4fnag" d="M532.57 935.67l2.13 2.12 2.12-2.12 1.07 1.06v-3.72h-6.38v3.72z"/><path id="e4fnah" d="M558.29 975.32l45.4 45.4h26.6"/><path id="e4fnai" d="M546.25 910.5L600.4 878h29.85"/><path id="e4fnaj" d="M541.5 949.5h89"/><clipPath id="e4fnc"><use fill="#fff" xlink:href="#e4fna"/></clipPath><mask id="e4fni" width="2" height="2" x="-1" y="-1"><path fill="#fff" d="M500 903h52v68h-52z"/><use xlink:href="#e4fnb"/></mask><filter id="e4fnh" width="132" height="168" x="460" y="863" filterUnits="userSpaceOnUse"><feOffset dy="20" in="SourceGraphic" result="FeOffset1376Out"/><feGaussianBlur in="FeOffset1376Out" result="FeGaussianBlur1377Out" stdDeviation="12 12"/></filter></defs><g><g transform="translate(-430 -874)"><g><use fill="#fff" xlink:href="#e4fna"/><use fill="#fff" fill-opacity="0" stroke="#e85151" stroke-miterlimit="50" stroke-width="6" clip-path="url(&quot;#e4fnc&quot;)" xlink:href="#e4fna"/></g><g><g><use fill="#bdd9bf" xlink:href="#e4fnd"/></g><g><use fill="#99cbae" xlink:href="#e4fne"/></g><g><use fill="#fdf699" xlink:href="#e4fnf"/></g><g><use fill="#fdf699" xlink:href="#e4fng"/></g><g><g filter="url(#e4fnh)"><use fill="none" stroke-opacity=".16" stroke-width="0" mask="url(&quot;#e4fni&quot;)" xlink:href="#e4fnb"/><use fill-opacity=".16" xlink:href="#e4fnb"/></g><use fill="#e85151" xlink:href="#e4fnb"/></g><g><use fill="#e85151" xlink:href="#e4fnj"/></g></g><g><g><use fill="#87ced9" xlink:href="#e4fnk"/></g><g><use fill="#5eb3d1" xlink:href="#e4fnl"/></g><g><use fill="#5eb3d1" xlink:href="#e4fnm"/></g><g><use fill="#5eb3d1" xlink:href="#e4fnn"/></g><g><use fill="#4ea3c2" xlink:href="#e4fno"/></g><g><use fill="#4ea3c2" xlink:href="#e4fnp"/></g><g><use fill="#5eb3d1" xlink:href="#e4fnq"/></g><g><use fill="#5eb3d1" xlink:href="#e4fnr"/></g><g><use fill="#5eb3d1" xlink:href="#e4fns"/></g><g><use fill="#5eb3d1" xlink:href="#e4fnt"/></g><g><use fill="#5eb3d1" xlink:href="#e4fnu"/></g><g><use fill="#5eb3d1" xlink:href="#e4fnv"/></g><g><use fill="#5eb3d1" xlink:href="#e4fnw"/></g><g><use fill="#5eb3d1" xlink:href="#e4fnx"/></g><g><use fill="#5eb3d1" xlink:href="#e4fny"/></g><g><use fill="#5eb3d1" xlink:href="#e4fnz"/></g><g><use fill="#5eb3d1" xlink:href="#e4fnA"/></g><g><use fill="#5eb3d1" xlink:href="#e4fnB"/></g><g><use fill="#5eb3d1" xlink:href="#e4fnC"/></g><g><use fill="#5eb3d1" xlink:href="#e4fnD"/></g><g><use fill="#dadddf" xlink:href="#e4fnE"/></g><g><use fill="#dadddf" xlink:href="#e4fnF"/></g><g><use fill="#dadddf" xlink:href="#e4fnG"/></g><g><use fill="#dadddf" xlink:href="#e4fnH"/></g><g><use fill="#dadddf" xlink:href="#e4fnI"/></g><g><use fill="#dadddf" xlink:href="#e4fnJ"/></g><g><use fill="#dadddf" xlink:href="#e4fnK"/></g><g><use fill="#dadddf" xlink:href="#e4fnL"/></g><g><use fill="#dadddf" xlink:href="#e4fnM"/></g><g><use fill="#dadddf" xlink:href="#e4fnN"/></g><g><use fill="#dadddf" xlink:href="#e4fnO"/></g><g><use fill="#dadddf" xlink:href="#e4fnP"/></g><g><use fill="#71c4d1" xlink:href="#e4fnQ"/></g><g><use fill="#71c4d1" xlink:href="#e4fnR"/></g><g><use fill="#71c4d1" xlink:href="#e4fnS"/></g><g><use fill="#71c4d1" xlink:href="#e4fnT"/></g><g><use fill="#71c4d1" xlink:href="#e4fnU"/></g><g><use fill="#71c4d1" xlink:href="#e4fnV"/></g><g><use fill="#71c4d1" xlink:href="#e4fnW"/></g><g><use fill="#71c4d1" xlink:href="#e4fnX"/></g><g><use fill="#71c4d1" xlink:href="#e4fnY"/></g><g><use fill="#71c4d1" xlink:href="#e4fnZ"/></g><g><use fill="#71c4d1" xlink:href="#e4fnaa"/></g><g><use fill="#71c4d1" xlink:href="#e4fnab"/></g></g><g><g><use fill="#bc8d5b" xlink:href="#e4fnac"/></g><g><use fill="#daae86" xlink:href="#e4fnad"/></g><g><use fill="#d8b18b" xlink:href="#e4fnae"/></g><g><use fill="#f4d5bd" xlink:href="#e4fnaf"/></g><g><use fill="#d8b18b" xlink:href="#e4fnag"/></g></g></g><g transform="translate(-430 -874)"/><g transform="translate(-430 -874)"/><g transform="translate(-430 -874)"><g fill="#11273b" font-family="'Montserrat','Montserrat-Medium'" font-size="12" style="font-kerning:normal"><text dominant-baseline="text-before-edge" font-family="Helvetica, Arial, sans-serif" transform="translate(641 933)"><tspan font-size="14">Free Storage</tspan></text></g></g><g transform="translate(-430 -874)"><use fill="#fff" fill-opacity="0" stroke="#e9c46a" stroke-dasharray="3 4" stroke-linecap="round" stroke-miterlimit="50" stroke-width="2" xlink:href="#e4fnah"/></g><g transform="translate(-430 -874)"><use fill="#fff" fill-opacity="0" stroke="#e9c46a" stroke-dasharray="4 4" stroke-linecap="round" stroke-miterlimit="50" stroke-width="2" xlink:href="#e4fnai"/></g><g transform="translate(-430 -874)"><use fill="#fff" fill-opacity="0" stroke="#e9c46a" stroke-dasharray="4 4" stroke-linecap="round" stroke-miterlimit="50" stroke-width="2" xlink:href="#e4fnaj"/></g></g></svg>