<svg xmlns="http://www.w3.org/2000/svg" viewBox="0 0 29.271 30">
  <defs>
    <style>
      .cls-1 {
        fill: #507dbc;
      }
    </style>
  </defs>
  <path id="ic_contact_header" class="cls-1" d="M19.775,15.806a1.5,1.5,0,1,1-1.5-1.5A1.5,1.5,0,0,1,19.775,15.806Zm6.1-1.5a1.5,1.5,0,1,0,1.5,1.5A1.5,1.5,0,0,0,25.875,14.3Zm6.42,6.118V20.25a13.238,13.238,0,0,1-.6,1.436,8.923,8.923,0,0,0,.246,1.13A7.481,7.481,0,0,0,35.495,25.3a4.079,4.079,0,0,1-2.175.271,6.492,6.492,0,0,0,3.041,2.13c-3.214,2.9-8.51,2.961-12.212.712a6.859,6.859,0,0,1-4.151,0c-3.7,2.25-9,2.185-12.212-.712a6.486,6.486,0,0,0,3.08-2.183,4.112,4.112,0,0,1-1.745-.31,7.765,7.765,0,0,0,2.852-1.687,8.95,8.95,0,0,0,.48-1.837,13.224,13.224,0,0,1-.6-1.436v.171H10.035a2.6,2.6,0,0,1-2.6-2.6V14.969A2.6,2.6,0,0,1,8.8,12.684c.027-4.055,1.209-7.222,3.518-9.412C14.607,1.1,17.89,0,22.073,0S29.54,1.1,31.83,3.273c2.309,2.189,3.491,5.356,3.518,9.412a2.6,2.6,0,0,1,1.361,2.284v2.856a2.6,2.6,0,0,1-2.6,2.6H32.295Zm-1.082-4.605c0-.668-.034-1.3-.085-1.9a10.87,10.87,0,0,0-6.017-2.165,3.259,3.259,0,0,1,.994,1.629c-1.571-1.149-4.865-1.5-5.958-2.735h0c-1.741-1.153-2.2-2.8-2.213-2.12a6.248,6.248,0,0,1-4.972,6.192c-.016.36-.03.724-.03,1.1a11.757,11.757,0,0,0,.611,3.785c1.449,1.747,3.841,2.241,5.959,2.372a2.707,2.707,0,0,1,2.3-1.062c1.393,0,2.521.8,2.521,1.79s-1.129,1.79-2.521,1.79a2.65,2.65,0,0,1-2.349-1.144A12.415,12.415,0,0,1,14.9,22.324c2.039,3.006,5.2,4.6,7.174,4.6C25.176,26.919,31.213,23,31.213,15.816Zm1.572-3.444h1C33.619,5.3,29.58,1.558,22.073,1.558S10.528,5.3,10.362,12.372h1a12.468,12.468,0,0,1,2.309-5.855c1.868-2.4,4.695-3.622,8.4-3.622s6.535,1.219,8.4,3.622A12.469,12.469,0,0,1,32.785,12.372Z" transform="translate(-7.438 0)"/>
</svg>
