<svg xmlns="http://www.w3.org/2000/svg" viewBox="0 0 56 40">
  <defs>
    <style>
      .cls-1 {
        fill: #fdf699;
      }

      .cls-2 {
        fill: #e85151;
        fill-rule: evenodd;
      }
    </style>
  </defs>
  <g id="ic_price_international" transform="translate(-190 -2264)">
    <circle id="Ellipse_40" data-name="Ellipse 40" class="cls-1" cx="20" cy="20" r="20" transform="translate(197 2264)"/>
    <path id="Path_534" data-name="Path 534" class="cls-2" d="M56.743,5.984c0,9.682-46.7,20.37-50.237,20.37-1.983,0-4.232-.457-4.232-2.284,0-.61.7-1.492,1.942-2.556h0L.936,15.693a1.5,1.5,0,0,1,.748-2.123l.563-.225a3.744,3.744,0,0,1,3.142.167l5.951,3.149c2.317-1.374,4.946-2.812,7.716-4.228L7.46,4.912a1.5,1.5,0,0,1,.018-2.522l.949-.6a6.74,6.74,0,0,1,5.3-.809L33.022,6.071C39.037,3.685,44.476,2.056,47.7,2.056c.86,0,1.721.023,2.552.082L44.421,4.767l-.139,1.959,8.994-4.132C55.431,3.107,56.743,4.066,56.743,5.984ZM33.272,22.7l7.2,8.171a1.5,1.5,0,0,0,1.755.368l.964-.448A4.488,4.488,0,0,0,45.755,26.2l-.9-7.7a.748.748,0,0,0-.992-.619L33.585,21.5A.748.748,0,0,0,33.272,22.7Z" transform="translate(189.257 2264.238)"/>
  </g>
</svg>
