<svg xmlns="http://www.w3.org/2000/svg" xmlns:xlink="http://www.w3.org/1999/xlink" viewBox="0 0 160 159.921">
  <defs>
    <style>
      .cls-1 {
        fill: #2ba5f7;
      }

      .cls-2 {
        fill: #f2f2f2;
      }

      .cls-3 {
        fill: #2197d8;
      }

      .cls-4 {
        fill: #e6e6e6;
      }

      .cls-5 {
        fill: #9ad14b;
      }

      .cls-6 {
        fill: #90bc42;
      }

      .cls-7 {
        fill: #507dbc;
      }

      .cls-8 {
        fill: url(#linear-gradient);
      }

      .cls-11, .cls-15, .cls-9 {
        fill: #e85151;
      }

      .cls-10 {
        fill: #fff;
      }

      .cls-10, .cls-12 {
        stroke: #e85151;
      }

      .cls-11, .cls-13 {
        fill-rule: evenodd;
      }

      .cls-12, .cls-16 {
        fill: none;
      }

      .cls-12 {
        stroke-width: 2px;
        stroke-dasharray: 3 2;
      }

      .cls-13 {
        fill: #d9af49;
      }

      .cls-14, .cls-15 {
        stroke: none;
      }
    </style>
    <linearGradient id="linear-gradient" x1="0.773" y1="0.059" x2="0.463" y2="1" gradientUnits="objectBoundingBox">
      <stop offset="0" stop-color="#e85151"/>
      <stop offset="0.481" stop-color="#e85151"/>
      <stop offset="0.485" stop-color="#e9c46a"/>
      <stop offset="1" stop-color="#e9c46a"/>
    </linearGradient>
  </defs>
  <g id="ic_service_shopandship" transform="translate(-262 -2002)">
    <ellipse id="Ellipse_38" data-name="Ellipse 38" class="cls-1" cx="59.347" cy="59.345" rx="59.347" ry="59.345" transform="translate(282.642 2022.636)"/>
    <path id="Path_521" data-name="Path 521" class="cls-2" d="M172.837,331.743h0c-.339.067-.675.142-1.015.205a59.072,59.072,0,0,1-37.9-5.577,59.419,59.419,0,0,1,54.264.008A59.294,59.294,0,0,1,172.837,331.743Z" transform="translate(180.938 1808.384)"/>
    <path id="Path_522" data-name="Path 522" class="cls-2" d="M187.977,59.126a59.151,59.151,0,0,1-27.478,6.73,59.223,59.223,0,0,1-12.351-1.291,58.88,58.88,0,0,1-15.13-5.443v0a59.315,59.315,0,0,1,16.709-5.747q1.705-.314,3.411-.529c.679-.087,1.358-.162,2.037-.221q1.356-.124,2.7-.186c1.157-.055,2.305-.071,3.446-.055q1.131.012,2.25.071t2.238.158c.493.043.987.095,1.48.15.245.028.489.059.738.091.738.091,1.468.2,2.2.324s1.453.253,2.175.4A59.021,59.021,0,0,1,187.977,59.126Z" transform="translate(181.489 1970.262)"/>
    <path id="Path_523" data-name="Path 523" class="cls-3" d="M108.2,164.493A59.3,59.3,0,0,1,123.545,53.576a59.343,59.343,0,1,0-1.129,116.494c.341-.063.677-.139,1.015-.207A59.248,59.248,0,0,1,108.2,164.493Z" transform="translate(230.349 1970.262)"/>
    <path id="Path_524" data-name="Path 524" class="cls-4" d="M148.148,64.566a58.881,58.881,0,0,1-15.13-5.443v0a59.315,59.315,0,0,1,16.709-5.747q1.705-.314,3.411-.529c.679-.083,1.358-.158,2.037-.221.9-.083,1.8-.142,2.7-.186q1.729-.077,3.446-.055,1.131.018,2.25.071t2.238.158c.493.043.987.095,1.48.15.245.028.489.059.738.091q1.1.142,2.2.324c.726.118,1.453.257,2.175.4a58.969,58.969,0,0,0-24.257,10.989Z" transform="translate(181.489 1970.261)"/>
    <path id="Path_525" data-name="Path 525" class="cls-4" d="M157.612,328.224a59.327,59.327,0,0,0,15.229,5.372c-.339.067-.675.142-1.015.205a59.073,59.073,0,0,1-37.9-5.577,58.942,58.942,0,0,1,15.154-5.344A58.876,58.876,0,0,0,157.612,328.224Z" transform="translate(180.938 1806.531)"/>
    <path id="Path_526" data-name="Path 526" class="cls-5" d="M75.987,144.257c-2.937,4.33-5.1,7.815-3.245,11.534,3.655,7.3,14.372,14.755-.572,33.394l0,0a59.336,59.336,0,0,1-6.332-82.019s11.337,4.149,16.07,11.885a12.653,12.653,0,0,1,1.8,9.351C82.354,135.123,78.814,140.085,75.987,144.257Z" transform="translate(230.349 1937.096)"/>
    <path id="Path_527" data-name="Path 527" class="cls-6" d="M72.743,155.791c3.655,7.3,14.372,14.755-.572,33.394l0,0a59.336,59.336,0,0,1-6.332-82.019s11.337,4.149,16.07,11.885a58.94,58.94,0,0,0-5.917,25.2C73.05,148.587,70.883,152.073,72.743,155.791Z" transform="translate(230.349 1937.096)"/>
    <path id="Path_528" data-name="Path 528" class="cls-5" d="M282.156,132.484q.231,1.249.4,2.491a26.85,26.85,0,0,1-6.28,7.271,25.847,25.847,0,0,0-8.341,13.207,33.143,33.143,0,0,1-6.766,12.438c-9.489,11.265-27.817.754-22.674-13.05.083-.225.174-.454.268-.679a13.715,13.715,0,0,1,5.988-6.584,16.6,16.6,0,0,0,6.442-22.112c-4.168-7.922-5.964-14.514,3.087-18.773a22.24,22.24,0,0,1,14.988-1.563l0,0A59.03,59.03,0,0,1,282.156,132.484Z" transform="translate(118.187 1938.724)"/>
    <path id="Path_530" data-name="Path 530" class="cls-7" d="M332.537,56.692h-2.578l-4.32-4.32,3.677-.492a2.782,2.782,0,1,0-.738-5.514l-7.888,1.056-5.651-5.652A2.782,2.782,0,1,0,311.1,45.7l5.651,5.652L315.7,59.241a2.782,2.782,0,1,0,5.514.741l.493-3.676,5.133,5.135a2.783,2.783,0,0,0,1.967.815h3.731a2.782,2.782,0,0,0,0-5.564Z" transform="translate(74.193 1977.173)"/>
    <path id="Path_529" data-name="Path 529" class="cls-8" d="M79.873,160.015A79.96,79.96,0,1,1,111.936,6.749a2.171,2.171,0,1,1-1.738,3.979,75.641,75.641,0,1,0,41.941,46.653,78,78,0,0,0-2.81-7.527,2.171,2.171,0,1,1,3.983-1.727,82.393,82.393,0,0,1,2.968,7.951A79.936,79.936,0,0,1,79.873,160.015Z" transform="translate(262 2001.906)"/>
    <g id="Group_181" data-name="Group 181" transform="translate(290.786 2040.381)">
      <g id="Path_531" data-name="Path 531" class="cls-9" transform="translate(0 9.595)">
        <path class="cls-14" d="M 9.50736141204834 18.27458381652832 L 0.8016384840011597 0.4999967217445374 L 18.38261795043945 0.4999967217445374 L 9.50736141204834 18.27458381652832 Z"/>
        <path class="cls-15" d="M 1.603288650512695 0.9999961853027344 L 9.511682510375977 17.14666557312012 L 17.57408332824707 0.9999961853027344 L 1.603288650512695 0.9999961853027344 M -1.9073486328125e-06 -3.814697265625e-06 L 19.19113731384277 -3.814697265625e-06 L 9.503037452697754 19.4024772644043 L -1.9073486328125e-06 -3.814697265625e-06 Z"/>
      </g>
      <g id="Ellipse_39" data-name="Ellipse 39" class="cls-10">
        <ellipse class="cls-14" cx="9.596" cy="9.595" rx="9.596" ry="9.595"/>
        <ellipse class="cls-16" cx="9.596" cy="9.595" rx="9.096" ry="9.095"/>
      </g>
    </g>
    <g id="Group_182" data-name="Group 182" transform="translate(378.746 2053.175)">
      <g id="Path_531-2" data-name="Path 531" class="cls-9" transform="translate(0 9.595)">
        <path class="cls-14" d="M 9.50736141204834 18.27458381652832 L 0.8016384840011597 0.4999967217445374 L 18.38261795043945 0.4999967217445374 L 9.50736141204834 18.27458381652832 Z"/>
        <path class="cls-15" d="M 1.603288650512695 0.9999961853027344 L 9.511682510375977 17.14666557312012 L 17.57408332824707 0.9999961853027344 L 1.603288650512695 0.9999961853027344 M -1.9073486328125e-06 -3.814697265625e-06 L 19.19113731384277 -3.814697265625e-06 L 9.503037452697754 19.4024772644043 L -1.9073486328125e-06 -3.814697265625e-06 Z"/>
      </g>
      <g id="Ellipse_39-2" data-name="Ellipse 39" class="cls-10" transform="translate(0)">
        <ellipse class="cls-14" cx="9.596" cy="9.595" rx="9.596" ry="9.595"/>
        <ellipse class="cls-16" cx="9.596" cy="9.595" rx="9.096" ry="9.095"/>
      </g>
    </g>
    <g id="Group_183" data-name="Group 183" transform="translate(270.571 2040.971)">
      <path id="Path_538" data-name="Path 538" class="cls-11" d="M8.964,0a8.964,8.964,0,1,0,8.964,8.964A8.964,8.964,0,0,0,8.964,0Zm.027,13.193H5.107c0-2.8,2.459-2.8,3.005-3.532l.062-.334A2.676,2.676,0,0,1,6.867,6.906a2.4,2.4,0,0,1,2.1-2.614,2.4,2.4,0,0,1,2.1,2.614A2.685,2.685,0,0,1,9.773,9.318l.071.379c.6.7,2.976.742,2.976,3.5Z" transform="translate(20.791)"/>
      <line id="Line_14" data-name="Line 14" class="cls-12" x1="29.714" y1="15.999" transform="translate(0 11.884)"/>
      <line id="Line_15" data-name="Line 15" class="cls-12" x1="28.571" y1="19.428" transform="translate(117.714 40.454)"/>
      <path id="Path_539" data-name="Path 539" class="cls-13" d="M6.394,13.458V7.184L7,6.835l4.829-2.786v6.274Zm-.5-7.014L3.8,5.238l-.318-.165L9.064,1.851l2.408,1.371-3.5,2.024ZM.307,3.222,5.891,0,7.98,1.209,2.4,4.431ZM2.061,6.866l1,.514V5.852L5.394,7.2v6.229L0,10.311V4.082L2.061,5.269Z" transform="translate(111.922 14.519)"/>
    </g>
  </g>
</svg>
